<svg width="102" height="28" viewBox="0 0 102 28" fill="none" xmlns="http://www.w3.org/2000/svg">
<g clip-path="url(#clip0_9856_4785)">
<path d="M25.6413 3.59091V22.5H21.6435V3.59091H25.6413ZM27.5567 27.8182V8.31818H31.4346V10.7003H31.61C31.7823 10.3187 32.0316 9.93087 32.3578 9.53693C32.6902 9.13684 33.1211 8.80445 33.6505 8.53977C34.186 8.26894 34.8507 8.13352 35.6448 8.13352C36.6789 8.13352 37.6329 8.40436 38.507 8.94602C39.381 9.48153 40.0797 10.291 40.6029 11.3743C41.1261 12.4515 41.3877 13.8026 41.3877 15.4276C41.3877 17.0095 41.1322 18.3452 40.6213 19.4347C40.1166 20.518 39.4272 21.3397 38.5532 21.8999C37.6853 22.4538 36.7127 22.7308 35.6355 22.7308C34.8723 22.7308 34.2229 22.6046 33.6874 22.3523C33.158 22.0999 32.7241 21.7829 32.3855 21.4013C32.047 21.0135 31.7885 20.6226 31.61 20.2287H31.49V27.8182H27.5567ZM31.4069 15.4091C31.4069 16.2524 31.5238 16.9879 31.7577 17.6158C31.9916 18.2436 32.3301 18.733 32.7733 19.0838C33.2165 19.4285 33.7551 19.6009 34.3891 19.6009C35.0292 19.6009 35.5709 19.4254 36.0141 19.0746C36.4573 18.7176 36.7927 18.2251 37.0205 17.5973C37.2544 16.9633 37.3713 16.2339 37.3713 15.4091C37.3713 14.5904 37.2575 13.8703 37.0297 13.2486C36.802 12.6269 36.4665 12.1406 36.0233 11.7898C35.5801 11.4389 35.0354 11.2635 34.3891 11.2635C33.7489 11.2635 33.2073 11.4328 32.7641 11.7713C32.3271 12.1098 31.9916 12.59 31.7577 13.2116C31.5238 13.8333 31.4069 14.5658 31.4069 15.4091ZM42.0777 22.5V7.95455H46.0266V13.6364H51.2539V7.95455H55.2027V22.5H51.2539V16.8182H46.0266V22.5H42.0777ZM56.7098 22.5V8.31818H60.6431V22.5H56.7098ZM58.6857 6.49006C58.1009 6.49006 57.5993 6.29616 57.1807 5.90838C56.7683 5.51444 56.5621 5.04356 56.5621 4.49574C56.5621 3.95407 56.7683 3.48935 57.1807 3.10156C57.5993 2.70762 58.1009 2.51065 58.6857 2.51065C59.2704 2.51065 59.769 2.70762 60.1814 3.10156C60.6 3.48935 60.8093 3.95407 60.8093 4.49574C60.8093 5.04356 60.6 5.51444 60.1814 5.90838C59.769 6.29616 59.2704 6.49006 58.6857 6.49006ZM66.4271 14.3011V22.5H62.4938V8.31818H66.2424V10.8203H66.4086C66.7225 9.9955 67.2488 9.34304 67.9874 8.86293C68.7261 8.37666 69.6217 8.13352 70.6742 8.13352C71.6591 8.13352 72.5177 8.34896 73.2502 8.77983C73.9827 9.2107 74.5521 9.82623 74.9583 10.6264C75.3646 11.4205 75.5677 12.3684 75.5677 13.4702V22.5H71.6344V14.1719C71.6406 13.304 71.419 12.6269 70.9697 12.1406C70.5203 11.6482 69.9017 11.402 69.1138 11.402C68.5845 11.402 68.1167 11.5159 67.7104 11.7436C67.3103 11.9714 66.9964 12.3037 66.7687 12.7408C66.5471 13.1716 66.4332 13.6918 66.4271 14.3011ZM84.911 8.31818V11.2727H76.3705V8.31818H84.911ZM78.3094 4.92045H82.2426V18.142C82.2426 18.5052 82.298 18.7884 82.4088 18.9915C82.5196 19.1884 82.6735 19.3269 82.8705 19.407C83.0736 19.487 83.3075 19.527 83.5722 19.527C83.7569 19.527 83.9415 19.5116 84.1262 19.4808C84.3108 19.4439 84.4524 19.4162 84.5509 19.3977L85.1695 22.3246C84.9725 22.3861 84.6955 22.4569 84.3385 22.5369C83.9815 22.6231 83.5476 22.6754 83.0367 22.6939C82.0888 22.7308 81.2578 22.6046 80.5438 22.3153C79.8359 22.026 79.285 21.5767 78.8911 20.9673C78.4971 20.358 78.3033 19.5885 78.3094 18.6591V4.92045Z" fill="black"/>
<g clip-path="url(#clip1_9856_4785)">
<path d="M0 3H15C15 3 13.3629 11.6741 8.64726 17.4C3.93166 23.1259 0 24 0 24V3Z" fill="black"/>
<path d="M16 5.00012V25.0001L9 20.6251C9 20.6251 11.0836 17.6169 12.36 15.0001C13.6364 12.3834 16 5.00012 16 5.00012Z" fill="black"/>
</g>
</g>
<defs>
<clipPath id="clip0_9856_4785">
<rect width="102" height="28" fill="white"/>
</clipPath>
<clipPath id="clip1_9856_4785">
<rect width="17" height="22" fill="white" transform="translate(0 3)"/>
</clipPath>
</defs>
</svg>
