<svg xmlns="http://www.w3.org/2000/svg" xmlns:xlink="http://www.w3.org/1999/xlink" width="1200" zoomAndPan="magnify" viewBox="0 0 900 472.499986" height="630" preserveAspectRatio="xMidYMid meet" version="1.0"><defs><clipPath id="6e83e78b20"><path d="M 0.476562 0 L 899.523438 0 L 899.523438 472 L 0.476562 472 Z M 0.476562 0 " clip-rule="nonzero"/></clipPath><clipPath id="ed8321fcc9"><path d="M 325 168 L 702 168 L 702 317.914062 L 325 317.914062 Z M 325 168 " clip-rule="nonzero"/></clipPath><clipPath id="0663197649"><path d="M 196.789062 171.65625 L 286 171.65625 L 286 297 L 196.789062 297 Z M 196.789062 171.65625 " clip-rule="nonzero"/></clipPath><clipPath id="5f5c985aa8"><path d="M 250 183 L 292 183 L 292 302.339844 L 250 302.339844 Z M 250 183 " clip-rule="nonzero"/></clipPath></defs><g clip-path="url(#6e83e78b20)"><path fill="#ffffff" d="M 0.476562 0 L 899.523438 0 L 899.523438 472 L 0.476562 472 Z M 0.476562 0 " fill-opacity="1" fill-rule="nonzero"/><path fill="#ffffff" d="M 0.476562 0 L 899.523438 0 L 899.523438 472 L 0.476562 472 Z M 0.476562 0 " fill-opacity="1" fill-rule="nonzero"/></g><g clip-path="url(#ed8321fcc9)"><path fill="#000000" d="M 348.769531 175.167969 L 348.769531 287.492188 L 325.074219 287.492188 L 325.074219 175.167969 Z M 360.125 319.082031 L 360.125 203.25 L 383.109375 203.25 L 383.109375 217.398438 L 384.148438 217.398438 C 385.171875 215.132812 386.648438 212.828125 388.582031 210.488281 C 390.550781 208.109375 393.105469 206.136719 396.242188 204.566406 C 399.417969 202.957031 403.359375 202.152344 408.0625 202.152344 C 414.195312 202.152344 419.847656 203.761719 425.027344 206.976562 C 430.210938 210.160156 434.351562 214.96875 437.453125 221.402344 C 440.554688 227.800781 442.105469 235.828125 442.105469 245.480469 C 442.105469 254.875 440.589844 262.808594 437.5625 269.28125 C 434.570312 275.71875 430.484375 280.597656 425.304688 283.925781 C 420.160156 287.214844 414.394531 288.863281 408.007812 288.863281 C 403.484375 288.863281 399.636719 288.113281 396.460938 286.613281 C 393.324219 285.113281 390.753906 283.230469 388.746094 280.964844 C 386.738281 278.660156 385.207031 276.339844 384.148438 274 L 383.4375 274 L 383.4375 319.082031 Z M 382.945312 245.371094 C 382.945312 250.378906 383.636719 254.746094 385.023438 258.476562 C 386.410156 262.207031 388.417969 265.113281 391.042969 267.199219 C 393.671875 269.246094 396.863281 270.269531 400.621094 270.269531 C 404.414062 270.269531 407.625 269.226562 410.253906 267.144531 C 412.878906 265.023438 414.867188 262.097656 416.21875 258.367188 C 417.605469 254.601562 418.296875 250.269531 418.296875 245.371094 C 418.296875 240.507812 417.625 236.230469 416.273438 232.535156 C 414.921875 228.84375 412.933594 225.953125 410.308594 223.871094 C 407.679688 221.785156 404.453125 220.742188 400.621094 220.742188 C 396.828125 220.742188 393.617188 221.75 390.988281 223.761719 C 388.398438 225.769531 386.410156 228.625 385.023438 232.316406 C 383.636719 236.007812 382.945312 240.359375 382.945312 245.371094 Z M 446.195312 287.492188 L 446.195312 201.089844 L 469.597656 201.089844 L 469.597656 234.839844 L 500.582031 234.839844 L 500.582031 201.089844 L 523.988281 201.089844 L 523.988281 287.492188 L 500.582031 287.492188 L 500.582031 253.738281 L 469.597656 253.738281 L 469.597656 287.492188 Z M 532.921875 287.492188 L 532.921875 203.25 L 556.234375 203.25 L 556.234375 287.492188 Z M 544.632812 192.390625 C 541.167969 192.390625 538.195312 191.238281 535.710938 188.933594 C 533.269531 186.59375 532.046875 183.796875 532.046875 180.542969 C 532.046875 177.324219 533.269531 174.5625 535.710938 172.261719 C 538.195312 169.921875 541.167969 168.75 544.632812 168.75 C 548.097656 168.75 551.054688 169.921875 553.5 172.261719 C 555.980469 174.5625 557.21875 177.324219 557.21875 180.542969 C 557.21875 183.796875 555.980469 186.59375 553.5 188.933594 C 551.054688 191.238281 548.097656 192.390625 544.632812 192.390625 Z M 590.519531 238.789062 L 590.519531 287.492188 L 567.203125 287.492188 L 567.203125 203.25 L 589.421875 203.25 L 589.421875 218.109375 L 590.410156 218.109375 C 592.269531 213.210938 595.386719 209.335938 599.765625 206.484375 C 604.144531 203.597656 609.453125 202.152344 615.691406 202.152344 C 621.527344 202.152344 626.617188 203.429688 630.960938 205.992188 C 635.300781 208.550781 638.675781 212.207031 641.085938 216.960938 C 643.492188 221.675781 644.695312 227.308594 644.695312 233.851562 L 644.695312 287.492188 L 621.382812 287.492188 L 621.382812 238.019531 C 621.417969 232.863281 620.105469 228.84375 617.441406 225.953125 C 614.777344 223.027344 611.113281 221.566406 606.441406 221.566406 C 603.304688 221.566406 600.53125 222.242188 598.125 223.597656 C 595.753906 224.949219 593.890625 226.921875 592.542969 229.519531 C 591.230469 232.078125 590.554688 235.167969 590.519531 238.789062 Z M 700.074219 203.25 L 700.074219 220.796875 L 649.453125 220.796875 L 649.453125 203.25 Z M 660.945312 183.066406 L 684.261719 183.066406 L 684.261719 261.601562 C 684.261719 263.761719 684.589844 265.441406 685.246094 266.648438 C 685.902344 267.820312 686.8125 268.640625 687.980469 269.117188 C 689.183594 269.59375 690.570312 269.832031 692.140625 269.832031 C 693.234375 269.832031 694.328125 269.738281 695.425781 269.554688 C 696.519531 269.335938 697.359375 269.171875 697.941406 269.0625 L 701.609375 286.449219 C 700.441406 286.8125 698.796875 287.234375 696.683594 287.710938 C 694.566406 288.222656 691.996094 288.53125 688.964844 288.640625 C 683.347656 288.863281 678.421875 288.113281 674.191406 286.394531 C 669.996094 284.675781 666.730469 282.007812 664.394531 278.386719 C 662.058594 274.765625 660.910156 270.195312 660.945312 264.675781 Z M 660.945312 183.066406 " fill-opacity="1" fill-rule="nonzero"/></g><g clip-path="url(#0663197649)"><path fill="#000000" d="M 196.789062 171.65625 L 285.699219 171.65625 C 285.699219 171.65625 275.996094 223.183594 248.042969 257.195312 C 220.09375 291.207031 196.789062 296.402344 196.789062 296.402344 Z M 196.789062 171.65625 " fill-opacity="1" fill-rule="nonzero"/></g><g clip-path="url(#5f5c985aa8)"><path fill="#000000" d="M 291.625 183.539062 L 291.625 302.339844 L 250.132812 276.351562 C 250.132812 276.351562 262.484375 258.484375 270.050781 242.941406 C 277.617188 227.394531 291.625 183.539062 291.625 183.539062 Z M 291.625 183.539062 " fill-opacity="1" fill-rule="nonzero"/></g></svg>