<svg width="354" height="362" viewBox="0 0 354 362" fill="none" xmlns="http://www.w3.org/2000/svg">
<path fill-rule="evenodd" clip-rule="evenodd" d="M274.801 81.45C271.943 59.8987 262.024 39.9019 246.595 24.5858C237.45 17.784 227.707 11.8268 217.484 6.7875C216.2 6.36389 214.806 6.42086 213.561 6.94783C212.315 7.47481 211.304 8.43594 210.714 9.65261C210.124 10.8693 209.996 12.2587 210.353 13.5628C210.711 14.8668 211.53 15.9967 212.658 16.7425C221.755 21.594 230.432 27.1941 238.601 33.485C252.471 48.5354 260.45 68.0818 261.075 88.5392C248.57 89.3682 236.023 89.3682 223.518 88.5392C222.329 77.207 219.589 66.0921 215.372 55.5067C226.082 55.5067 235.735 55.5067 243.277 54.3C244.58 54.0835 245.765 53.4113 246.62 52.4031C247.474 51.3949 247.943 50.1162 247.943 48.7946C247.943 47.473 247.474 46.1942 246.62 45.1861C245.765 44.1779 244.58 43.5057 243.277 43.2892C234.378 43.2892 222.613 41.1775 209.641 39.6692L204.211 24.5858C203.831 23.3457 202.974 22.3074 201.828 21.6992C200.682 21.091 199.342 20.9629 198.102 21.3429C196.862 21.7229 195.824 22.58 195.215 23.7257C194.607 24.8713 194.479 26.2116 194.859 27.4517L197.122 38.1608C184.599 36.8129 172.008 36.2086 159.413 36.3508C164.396 26.3387 172.143 17.9638 181.737 12.2175C182.642 11.8212 183.386 11.13 183.848 10.2567H188.223C189.503 10.3967 190.786 10.0224 191.79 9.21626C192.794 8.41009 193.437 7.23803 193.577 5.95792C193.717 4.67781 193.343 3.3945 192.537 2.39033C191.731 1.38615 190.558 0.743347 189.278 0.603334C141.162 -5.73167 105.264 22.625 86.41 68.3275C79.1029 86.7378 78.2253 107.076 83.9195 126.047C89.6136 145.018 101.546 161.512 117.783 172.855C133.387 184.048 151.896 190.489 171.077 191.401C190.259 192.314 209.295 187.659 225.891 177.998C242.487 168.337 255.934 154.082 264.613 136.951C273.291 119.821 276.829 100.546 274.801 81.45ZM260.622 100.455C259.414 109.621 256.606 118.504 252.327 126.7C242.212 130.1 231.624 131.882 220.953 131.979C222.905 123.308 224.016 114.468 224.272 105.583C236.481 104.613 248.621 102.901 260.622 100.455ZM97.27 97.4383C106.018 99.2483 117.331 101.058 130.001 102.717C129.664 112.464 130.679 122.21 133.018 131.677C122.912 131.677 113.409 130.32 104.359 129.113C99.6343 119.226 97.2106 108.397 97.27 97.4383ZM148.101 105.583C167.336 106.865 186.635 106.865 205.87 105.583C205.876 114.419 205.22 123.242 203.909 131.979H149.911C148.535 123.251 147.93 114.418 148.101 105.583ZM200.742 57.1658C203.191 67.8186 204.655 78.674 205.116 89.595C176.307 88.3883 155.793 88.3883 149.157 88.3883C150.029 77.4907 151.591 66.6593 153.833 55.9592C173.592 56.2608 187.468 56.4117 200.742 56.4117V57.1658ZM164.692 11.9158C155.232 18.6248 147.734 27.7369 142.973 38.3117C134.505 38.9556 126.09 40.1649 117.783 41.9317C123.178 33.9843 130.107 27.1952 138.163 21.963C146.218 16.7308 155.238 13.161 164.692 11.4633V11.9158ZM109.789 54.3C118.778 53.6858 127.799 53.6858 136.788 54.3C133.508 65.1953 131.484 76.4299 130.755 87.785H98.0242C99.6973 75.9562 103.696 64.5757 109.789 54.3ZM111.75 141.934C120.046 144.046 128.794 146.007 137.844 147.515C140.518 154.425 144.066 160.964 148.403 166.972C133.874 162.651 121.059 153.897 111.75 141.934ZM170.273 172.101C163.366 165.936 158.17 158.09 155.19 149.325C170.237 150.796 185.393 150.796 200.44 149.325C199.322 157.349 196.437 165.025 191.993 171.799C184.843 173.216 177.517 173.521 170.273 172.704V172.101ZM209.188 165.917C223.518 137.258 204.362 153.096 241.014 142.387C232.306 152.52 221.429 160.562 209.188 165.917Z" fill="black"/>
<path fill-rule="evenodd" clip-rule="evenodd" d="M96.6667 270.293C94.8567 272.556 95.7617 276.176 85.6559 276.176C75.55 276.176 78.4159 267.277 70.5725 267.729C68.0084 267.729 66.9525 270.293 67.405 272.858C70.0784 278.313 74.3368 282.834 79.6225 285.829C82.0722 286.773 84.6897 287.203 87.3127 287.094C89.9356 286.984 92.5079 286.336 94.87 285.19C97.2321 284.044 99.3334 282.425 101.044 280.434C102.754 278.442 104.036 276.12 104.812 273.612C104.812 272.405 105.566 272.556 105.566 271.048C105.482 269.977 105.021 268.972 104.265 268.21C103.509 267.449 102.506 266.981 101.437 266.89C100.367 266.8 99.3002 267.092 98.4265 267.715C97.5527 268.339 96.929 269.253 96.6667 270.293Z" fill="black"/>
<path fill-rule="evenodd" clip-rule="evenodd" d="M279.627 268.785C277.817 271.048 278.722 274.668 268.767 274.668C258.812 274.668 261.376 265.768 252.93 266.221C250.516 266.221 249.31 268.785 249.762 271.349C252.514 276.799 256.818 281.313 262.131 284.321C264.62 285.255 267.276 285.66 269.93 285.512C272.585 285.363 275.179 284.663 277.548 283.457C279.918 282.251 282.01 280.566 283.692 278.507C285.375 276.448 286.61 274.062 287.32 271.5V268.936C286.927 268.273 286.371 267.721 285.706 267.333C285.04 266.945 284.286 266.733 283.515 266.718C282.745 266.703 281.983 266.885 281.303 267.247C280.623 267.608 280.046 268.138 279.627 268.785Z" fill="black"/>
<path fill-rule="evenodd" clip-rule="evenodd" d="M344.637 327.007C333.839 314.309 319.059 305.643 302.705 302.421C335.285 276.779 330.609 211.921 289.281 203.927C288.016 203.765 286.737 204.081 285.693 204.811C284.648 205.541 283.913 206.634 283.631 207.877C283.348 209.12 283.539 210.423 284.165 211.534C284.791 212.644 285.808 213.481 287.018 213.882C293.541 215.924 299.286 219.905 303.49 225.294C307.693 230.683 310.155 237.225 310.548 244.048C306.944 244.542 303.275 244.23 299.806 243.135C296.337 242.039 293.154 240.188 290.487 237.713C285.208 229.417 286.566 232.132 285.208 227.155C283.851 222.177 276.46 217.652 268.767 225.043C264.846 228.965 263.337 234.546 253.684 239.372C248.621 242.358 242.95 244.162 237.092 244.652C227.891 245.557 229.852 244.652 226.232 244.652C226.919 239.1 228.703 233.74 231.478 228.884C234.254 224.027 237.966 219.77 242.401 216.36C246.835 212.95 251.903 210.455 257.309 209.02C262.716 207.585 268.354 207.238 273.896 207.999C274.522 208.164 275.176 208.193 275.814 208.084C276.453 207.975 277.06 207.73 277.595 207.365C278.131 207.001 278.582 206.526 278.918 205.973C279.254 205.419 279.467 204.8 279.544 204.157C279.62 203.514 279.557 202.862 279.36 202.245C279.163 201.629 278.835 201.061 278.4 200.582C277.965 200.103 277.432 199.722 276.837 199.467C276.242 199.211 275.599 199.086 274.951 199.1C208.283 190.955 190.937 275.723 233.171 304.683C224.6 306.842 216.375 310.193 208.736 314.638C200.712 318.683 194.033 324.968 189.508 332.732C184.984 340.495 182.808 349.405 183.245 358.38C183.245 359.58 183.722 360.731 184.57 361.58C185.419 362.428 186.57 362.905 187.77 362.905C188.97 362.905 190.121 362.428 190.969 361.58C191.818 360.731 192.295 359.58 192.295 358.38C194.144 350.308 198.998 343.243 205.87 338.621C218.039 327.694 231.701 318.552 246.444 311.471C260.769 316.051 276.212 315.733 290.337 310.566C305.022 317.381 318.557 326.438 330.458 337.414C337.386 341.979 342.257 349.069 344.033 357.173C344.033 358.373 344.51 359.524 345.359 360.373C346.207 361.222 347.358 361.698 348.558 361.698C349.758 361.698 350.909 361.222 351.758 360.373C352.606 359.524 353.083 358.373 353.083 357.173C353.91 351.833 353.583 346.379 352.126 341.175C350.669 335.972 348.116 331.141 344.637 327.007ZM253.382 294.577C244.99 291.905 237.731 286.506 232.757 279.237C227.784 271.968 225.381 263.246 225.931 254.456C234.321 257.45 243.38 258.048 252.092 256.183C260.803 254.319 268.824 250.064 275.253 243.897C279.572 248.699 285.083 252.274 291.228 254.26C297.373 256.247 303.934 256.574 310.247 255.21C307.381 286.583 286.867 303.024 253.382 294.577Z" fill="black"/>
<path fill-rule="evenodd" clip-rule="evenodd" d="M144.632 312.678C136.717 308.104 128.182 304.7 119.292 302.572C151.872 277.081 147.497 212.977 105.867 204.228C105.224 204.08 104.557 204.059 103.905 204.169C103.254 204.278 102.63 204.514 102.07 204.864C100.938 205.571 100.134 206.699 99.834 207.999C99.534 209.299 99.7627 210.665 100.47 211.797C101.177 212.928 102.305 213.732 103.605 214.033C110.105 216.112 115.828 220.103 120.026 225.484C124.223 230.866 126.701 237.388 127.135 244.199C123.531 244.693 119.862 244.381 116.393 243.286C112.924 242.19 109.741 240.339 107.074 237.864C101.795 229.568 103.152 232.283 101.795 227.457C101.491 226.22 100.906 225.07 100.085 224.096C99.2649 223.122 98.2313 222.349 97.0645 221.839C95.8977 221.328 94.6291 221.093 93.3568 221.152C92.0846 221.211 90.843 221.562 89.7282 222.178C83.9965 224.893 81.734 230.473 78.5665 233.792C73.8934 238.145 68.2719 241.351 62.1462 243.157C56.0206 244.964 49.5588 245.32 43.2715 244.199C43.9779 238.656 45.7735 233.307 48.555 228.46C51.3365 223.613 55.0489 219.365 59.4788 215.958C63.9086 212.552 68.9684 210.055 74.3669 208.611C79.7654 207.168 85.396 206.806 90.9349 207.547C92.0254 207.523 93.0706 207.106 93.8782 206.373C94.6857 205.639 95.2012 204.639 95.3297 203.556C95.4582 202.473 95.1911 201.38 94.5776 200.478C93.9641 199.576 93.0454 198.926 91.9907 198.648C28.0374 189.598 6.16653 274.064 50.2099 304.231C34.2264 307.477 19.7861 315.971 9.1832 328.364C5.73425 332.377 3.16122 337.066 1.6288 342.131C0.0963869 347.196 -0.361643 352.525 0.284031 357.777C0.284031 358.977 0.76077 360.128 1.60937 360.976C2.45797 361.825 3.60893 362.302 4.80903 362.302C6.00914 362.302 7.16009 361.825 8.00869 360.976C8.85729 360.128 9.33403 358.977 9.33403 357.777C10.3899 346.464 23.5124 337.263 32.5624 330.174C41.3661 322.761 51.1649 316.618 61.6732 311.923C62.3378 311.689 62.9519 311.331 63.4832 310.868C77.8036 315.483 93.2577 315.164 107.376 309.963C118.188 315.009 128.323 321.394 137.542 328.967C146.592 336.057 159.715 345.258 160.771 356.57C160.771 357.164 160.888 357.753 161.115 358.302C161.343 358.851 161.676 359.35 162.096 359.77C162.516 360.19 163.015 360.523 163.564 360.751C164.113 360.978 164.701 361.095 165.296 361.095C165.89 361.095 166.478 360.978 167.027 360.751C167.576 360.523 168.075 360.19 168.495 359.77C168.916 359.35 169.249 358.851 169.476 358.302C169.704 357.753 169.821 357.164 169.821 356.57C170.334 347.599 168.225 338.672 163.753 330.878C159.28 323.085 152.636 316.761 144.632 312.678ZM70.1199 294.728C61.6849 292.107 54.3767 286.725 49.3703 279.448C44.3638 272.171 41.9502 263.421 42.5174 254.607C50.9081 257.601 59.9669 258.199 68.6786 256.334C77.3902 254.469 85.4102 250.215 91.8399 244.048C96.1798 248.827 101.687 252.396 107.821 254.406C113.956 256.415 120.507 256.796 126.833 255.512C123.967 286.583 103.454 303.175 70.1199 294.728Z" fill="black"/>
</svg>
