<svg width="560" height="520" viewBox="0 0 560 520" fill="none" xmlns="http://www.w3.org/2000/svg" xmlns:xlink="http://www.w3.org/1999/xlink">
<rect width="542" height="520"/>
<path d="M402.704 219.56C402.704 219.475 402.715 219.315 402.736 219.08C402.779 218.824 402.8 218.547 402.8 218.248C402.821 217.949 402.853 217.629 402.896 217.288C402.939 216.947 402.96 216.701 402.96 216.552L403.344 216.2L403.664 216.008L404.176 216.136C404.283 216.243 404.4 216.552 404.528 217.064V221.544L404.688 221.48C404.752 221.48 404.955 221.405 405.296 221.256C405.637 221.128 405.883 221.043 406.032 221L406.384 220.808L407.216 220.616C407.579 220.445 407.813 220.349 407.92 220.328C408.176 220.243 408.709 220.04 409.52 219.72C410.352 219.4 410.992 219.144 411.44 218.952L412.144 218.888L412.336 219.08L412.368 219.592L411.856 220.168L411.376 220.552L409.392 221.512C409.029 221.683 408.485 221.928 407.76 222.248C407.056 222.589 406.597 222.824 406.384 222.952L405.84 223.144C405.755 223.144 405.456 223.283 404.944 223.56C404.816 223.624 404.635 223.709 404.4 223.816C404.187 223.923 404.059 223.976 404.016 223.976L403.056 223.656L402.736 223.496L402.576 223.112L402.704 219.56ZM399.12 215.208C399.461 214.867 399.707 214.696 399.856 214.696L400.88 214.184L401.648 213.832L401.936 213.672V208.968C401.936 208.84 401.989 208.669 402.096 208.456C402.203 208.243 402.331 208.061 402.48 207.912H402.96L403.312 208.136C403.312 208.285 403.419 208.595 403.632 209.064V212.904L405.04 212.328C405.104 212.328 405.307 212.243 405.648 212.072C405.989 211.901 406.213 211.816 406.32 211.816L406.8 211.528C407.696 211.208 408.304 211.048 408.624 211.048C408.795 211.048 409.136 210.952 409.648 210.76L410.864 210.728L411.44 211.048L411.696 211.368L411.44 211.72C411.291 211.891 411.131 211.976 410.96 211.976C410.811 211.976 410.501 212.072 410.032 212.264C409.563 212.435 409.275 212.584 409.168 212.712L407.856 213.224L406.096 213.96C405.755 214.109 405.104 214.387 404.144 214.792C403.184 215.176 402.629 215.421 402.48 215.528C402.395 215.528 402.16 215.613 401.776 215.784C401.435 215.933 401.232 216.008 401.168 216.008C400.976 216.008 400.72 216.104 400.4 216.296H399.632L399.12 215.752V215.208ZM400.4 205.96L400.624 205.704C400.795 205.704 401.061 205.533 401.424 205.192C401.552 205.043 402.416 204.616 404.016 203.912L405.36 203.4L405.648 203.304V199.752C405.499 199.837 404.816 200.136 403.6 200.648L402.192 201.256L401.648 201.544H401.168L400.624 201.256V200.808L401.168 200.264L405.04 198.184C405.189 198.056 405.52 197.907 406.032 197.736H407.088L407.312 197.992L407.44 199.048L407.568 200.264V201.256L407.632 203.624V204.36L407.568 205.896V207.144C407.568 207.229 407.525 207.549 407.44 208.104C407.355 208.616 407.312 208.904 407.312 208.968C407.312 209.139 407.237 209.309 407.088 209.48L406.672 209.704C406.501 209.704 406.331 209.629 406.16 209.48C405.968 208.968 405.872 208.616 405.872 208.424L405.808 206.696L405.744 205.064L405.36 205.224C404.955 205.437 404.432 205.704 403.792 206.024C403.152 206.323 402.619 206.568 402.192 206.76L401.424 206.984H400.624L400.176 206.728L400.112 206.504L400.4 205.96ZM413.777 209.928C413.798 209.779 413.798 209.651 413.777 209.544C413.777 209.437 413.777 209.352 413.777 209.288L413.841 208.328V207.304L413.937 205.096L414.353 204.712L415.153 204.52L415.473 204.936L415.505 207.272C416.55 206.525 417.766 205.896 419.153 205.384H419.985L420.369 205.608V205.96C420.283 206.131 420.081 206.323 419.76 206.536C419.441 206.749 419.238 206.899 419.153 206.984L415.697 209.128V212.072C415.867 212.029 416.497 211.72 417.585 211.144C418.587 210.589 419.206 210.291 419.441 210.248C420.102 209.907 420.518 209.736 420.689 209.736C420.923 209.608 421.393 209.459 422.097 209.288C422.374 209.352 422.566 209.437 422.673 209.544L422.929 209.576V209.672L422.673 210.056C422.417 210.333 422.225 210.472 422.097 210.472C421.777 210.621 421.339 210.845 420.785 211.144C420.23 211.443 419.782 211.699 419.441 211.912L418.833 212.264C418.79 212.264 418.299 212.563 417.361 213.16C416.443 213.757 415.761 214.195 415.312 214.472H414.545L414.129 214.28L413.937 214.056C413.937 213.949 413.873 213.747 413.745 213.448V212.584C413.787 211.325 413.798 210.44 413.777 209.928ZM411.377 204.072L411.633 203.72C411.91 203.4 412.241 203.123 412.625 202.888C413.009 202.632 413.467 202.387 414.001 202.152L414.801 201.768L415.889 201.16C416.038 201.16 416.486 201.043 417.233 200.808C417.297 200.808 417.51 200.755 417.873 200.648C418.257 200.52 418.523 200.445 418.673 200.424L418.897 200.456H419.121L419.505 200.712L419.633 200.84V201.096C419.483 201.331 419.334 201.448 419.185 201.448C418.907 201.725 418.705 201.853 418.577 201.832L418.193 201.992C418.022 202.141 417.67 202.333 417.137 202.568L415.761 203.112C415.611 203.176 415.302 203.357 414.833 203.656C414.299 204.061 413.969 204.253 413.841 204.232C413.755 204.339 413.553 204.456 413.233 204.584C412.913 204.712 412.71 204.776 412.625 204.776H412.368L411.953 204.744L411.569 204.584L411.377 204.296V204.072ZM420.113 206.76L420.273 206.376L420.465 206.184C420.614 206.184 420.806 206.067 421.041 205.832C421.105 205.747 421.265 205.661 421.521 205.576C421.777 205.491 421.926 205.427 421.969 205.384C422.097 205.32 422.331 205.192 422.673 205C423.035 204.808 423.259 204.712 423.345 204.712C423.409 204.712 423.601 204.648 423.921 204.52C424.241 204.392 424.507 204.296 424.721 204.232L424.817 201.512C424.817 201.277 424.891 200.904 425.041 200.392C425.041 200.285 425.137 200.136 425.329 199.944C425.542 199.752 425.691 199.656 425.777 199.656C425.883 199.656 425.979 199.709 426.065 199.816C426.171 199.923 426.246 199.997 426.289 200.04L426.449 200.392L426.577 206.28C426.577 206.771 426.598 207.464 426.641 208.36C426.683 209.256 426.705 209.939 426.705 210.408V211.336C426.705 211.443 426.587 211.656 426.353 211.976H425.841L425.457 211.56C425.35 211.325 425.297 211.155 425.297 211.048C425.297 210.963 425.265 210.803 425.201 210.568C425.137 210.312 425.105 210.152 425.105 210.088C425.083 209.917 425.051 209.704 425.009 209.448C424.966 209.192 424.934 209 424.913 208.872C424.913 208.445 424.881 207.901 424.817 207.24L424.753 205.704L422.129 206.92L421.777 207.112L421.201 207.304H421.041C420.913 207.304 420.657 207.24 420.273 207.112L420.113 206.92V206.76ZM421.073 219.304C421.073 219.261 421.126 219.133 421.233 218.92C421.361 218.707 421.425 218.568 421.425 218.504V218.024L421.457 216.136V215.304L421.521 214.632C421.585 214.269 421.617 214.003 421.617 213.832C421.745 213.491 421.809 213.277 421.809 213.192C421.809 213.085 421.851 212.915 421.937 212.68C421.937 212.573 422.065 212.403 422.321 212.168L422.993 212.264L423.153 213.48V218.056H423.281L424.433 217.64L426.001 217.064C426.193 217.043 427.27 216.691 429.233 216.008C429.595 215.88 429.937 215.763 430.257 215.656C430.598 215.528 430.886 215.432 431.121 215.368C431.249 215.368 431.473 215.251 431.793 215.016C431.921 215.016 432.091 214.973 432.305 214.888C432.625 214.952 432.785 215.048 432.785 215.176V215.464C432.785 215.549 432.742 215.645 432.657 215.752C432.571 215.837 432.507 215.912 432.465 215.976L431.953 216.328C431.313 216.563 430.203 217.064 428.625 217.832C427.622 218.301 426.897 218.632 426.449 218.824C426.406 218.824 426.267 218.909 426.033 219.08C425.819 219.229 425.681 219.304 425.617 219.304C425.467 219.368 425.009 219.56 424.241 219.88C423.494 220.179 422.982 220.371 422.705 220.456H422.449C422.321 220.456 422.097 220.403 421.777 220.296C421.414 220.083 421.233 219.933 421.233 219.848L421.073 219.304ZM429.489 200.424L429.681 199.336L430.257 198.92L430.641 198.856C430.897 198.984 431.025 199.112 431.025 199.24L431.185 199.784V208.04L431.153 210.76V211.336L430.993 211.88L430.577 212.104L430.128 211.88L429.969 211.72L429.777 211.336C429.777 211.208 429.723 210.963 429.617 210.6C429.617 210.408 429.574 209.843 429.489 208.904L429.392 207.304L429.489 200.424ZM439.265 203.048C439.649 202.941 439.916 202.888 440.065 202.888L440.545 202.984L440.769 203.208L440.993 203.688C440.844 203.965 440.769 204.2 440.769 204.392C440.769 204.456 440.663 204.659 440.449 205C440.215 205.32 440.097 205.523 440.097 205.608L439.617 206.568L439.233 207.656L440.385 207.464C440.449 207.464 440.759 207.421 441.313 207.336L442.241 207.24H444.161L445.601 207.272C445.708 207.272 445.921 207.304 446.241 207.368C446.583 207.411 446.839 207.443 447.009 207.464C447.308 207.592 447.543 207.656 447.713 207.656C447.863 207.656 448.087 207.827 448.385 208.168L448.641 208.584L448.417 208.968L447.905 209.192L442.561 209.096L441.825 209.16C440.865 209.267 440.353 209.32 440.289 209.32L439.361 209.48L439.137 209.576C438.967 209.576 438.657 209.64 438.209 209.768L437.953 210.28L436.129 213.672C436.129 213.8 436.033 214.003 435.841 214.28C435.671 214.536 435.521 214.728 435.393 214.856L435.041 215.048C434.977 215.048 434.903 215.027 434.817 214.984C434.753 214.941 434.7 214.909 434.657 214.888C434.529 214.739 434.433 214.536 434.369 214.28L434.433 213.672C434.433 213.565 434.54 213.277 434.753 212.808C434.967 212.339 435.148 211.944 435.297 211.624L435.553 211.144V210.952C435.553 210.824 435.681 210.515 435.937 210.024C436.193 209.533 436.364 209.213 436.449 209.064L437.249 207.4C437.377 207.144 437.495 206.909 437.601 206.696C437.708 206.461 437.804 206.259 437.889 206.088L438.369 205.064L435.297 206.664C435.148 206.728 434.988 206.749 434.817 206.728L434.369 206.536L434.209 206.28C434.145 206.195 434.113 206.077 434.113 205.928L434.305 205.576C434.625 205.405 434.871 205.245 435.041 205.096C435.916 204.584 436.503 204.253 436.801 204.104L437.345 203.88L437.249 199.304C437.249 199.197 437.271 199.016 437.313 198.76C437.356 198.483 437.388 198.216 437.409 197.96L437.473 197L437.665 196.776L437.921 196.68H438.273L438.529 196.776L438.689 197.096C438.689 197.16 438.711 197.256 438.753 197.384C438.796 197.512 438.817 197.608 438.817 197.672V202.184L438.689 203.176V203.304L439.265 203.048ZM434.561 218.344L434.913 218.024C435.084 217.896 435.201 217.832 435.265 217.832L435.809 217.64L436.193 217.384L436.545 217.32C436.588 217.32 436.737 217.256 436.993 217.128C437.249 217 437.431 216.925 437.537 216.904L437.921 216.776C438.028 216.755 438.209 216.68 438.465 216.552C438.721 216.424 438.871 216.36 438.913 216.36C439.063 216.339 439.265 216.285 439.521 216.2C439.777 216.093 440.001 216.008 440.193 215.944C440.279 215.923 440.492 215.859 440.833 215.752C441.196 215.645 441.687 215.517 442.305 215.368L442.785 215.24L443.041 215.112C443.105 215.091 443.223 215.059 443.393 215.016C443.564 214.973 443.724 214.941 443.873 214.92L444.161 214.856C444.289 214.813 444.503 214.76 444.801 214.696C445.1 214.611 445.292 214.547 445.377 214.504L445.825 214.376C445.847 214.376 445.964 214.344 446.177 214.28L446.497 214.152L446.881 214.056L447.233 213.96H447.297L447.713 213.832L448.257 213.704H448.865L448.993 213.832V214.28L448.865 214.504L448.673 214.696C448.631 214.739 448.481 214.813 448.225 214.92C447.991 215.005 447.852 215.069 447.809 215.112C447.767 215.112 447.639 215.165 447.425 215.272C447.233 215.357 447.095 215.411 447.009 215.432C446.711 215.581 446.54 215.656 446.497 215.656C446.391 215.699 446.22 215.763 445.985 215.848C445.751 215.912 445.623 215.955 445.601 215.976C445.559 215.976 445.463 216.019 445.313 216.104C445.185 216.189 445.111 216.232 445.089 216.232C445.025 216.232 444.951 216.253 444.865 216.296C444.801 216.317 444.737 216.328 444.673 216.328L443.873 216.648L443.105 216.936L442.721 217.064L442.497 217.128C442.369 217.171 442.209 217.235 442.017 217.32C441.825 217.384 441.687 217.427 441.601 217.448C441.537 217.448 441.473 217.459 441.409 217.48C441.367 217.501 441.335 217.512 441.313 217.512L441.025 217.672L440.353 217.864L439.873 218.056L439.713 218.152C439.649 218.173 439.543 218.227 439.393 218.312C439.265 218.376 439.18 218.408 439.137 218.408L438.913 218.472C438.849 218.493 438.753 218.536 438.625 218.6C438.519 218.664 438.433 218.696 438.369 218.696C438.199 218.781 437.953 218.867 437.633 218.952C437.271 219.059 437.004 219.155 436.833 219.24L436.417 219.304L435.905 219.4L435.649 219.528H435.393C435.308 219.528 435.169 219.485 434.977 219.4L434.657 219.112L434.561 218.856V218.344ZM459.625 216.008C459.924 215.581 460.159 215.379 460.329 215.4C460.479 215.379 460.671 215.347 460.905 215.304C461.14 215.24 461.332 215.197 461.481 215.176C461.481 215.027 461.46 214.76 461.417 214.376C461.332 213.864 461.289 213.363 461.289 212.872L461.225 208.744V206.056L461.353 204.296L460.457 204.584L459.369 204.808C459.199 204.701 459.049 204.648 458.921 204.648L458.697 204.392V203.944L459.369 203.24C459.476 203.155 459.593 203.091 459.721 203.048C459.871 202.984 459.988 202.92 460.073 202.856C460.777 202.621 462.239 202.163 464.457 201.48L465.257 201.448L466.153 201.576L466.249 202.184C466.057 202.461 465.876 202.589 465.705 202.568L465.033 203.016C464.969 203.016 464.681 203.123 464.169 203.336C463.615 203.592 463.295 203.709 463.209 203.688L463.145 205.128C463.103 205.427 463.081 206.003 463.081 206.856C463.06 207.176 463.049 207.496 463.049 207.816C463.049 208.136 463.039 208.403 463.017 208.616L463.081 209.544L463.017 209.96V210.952C463.06 211.528 463.06 211.891 463.017 212.04L463.145 214.856L464.713 214.696H465.705H466.953L467.593 214.728L467.817 214.952L467.785 215.528L467.305 215.912C467.305 215.912 466.879 215.997 466.025 216.168C465.641 216.211 465.257 216.275 464.873 216.36L464.329 216.424L460.841 217.096L460.233 217.064L459.785 216.84L459.593 216.616L459.625 216.008ZM468.449 206.728V206.056C468.449 205.864 468.492 205.299 468.577 204.36C468.662 203.464 468.705 202.963 468.705 202.856L468.897 202.376L469.121 202.184H469.665L469.857 202.376L470.113 202.856C470.113 202.984 470.145 203.197 470.209 203.496L470.273 204.136C470.764 203.731 471.18 203.432 471.521 203.24C471.862 203.048 472.428 202.771 473.217 202.408C473.58 202.28 473.836 202.205 473.985 202.184C474.134 202.163 474.401 202.152 474.785 202.152L475.297 202.248L475.745 202.504C475.873 202.504 476.033 202.589 476.225 202.76C476.417 202.931 476.513 203.069 476.513 203.176L476.769 203.624C476.769 203.731 476.79 203.88 476.833 204.072C476.897 204.243 476.929 204.371 476.929 204.456V205.384C476.929 205.469 476.908 205.565 476.865 205.672C476.822 205.779 476.79 205.896 476.769 206.024C476.641 206.408 476.577 206.643 476.577 206.728L476.385 207.176L475.841 208.2L474.817 209.544L474.593 209.736L473.921 210.376L472.929 211.208L472.385 211.656L470.337 212.936V215.048L470.369 216.424C470.369 216.701 470.358 216.936 470.337 217.128L470.145 218.024L469.665 218.408L469.249 218.344C469.142 218.024 469.014 217.768 468.865 217.576L468.737 217.096C468.737 216.84 468.726 216.605 468.705 216.392C468.705 216.307 468.684 216.179 468.641 216.008C468.62 215.837 468.62 215.72 468.641 215.656L468.577 214.536L468.449 213.768V213.096L468.385 211.048V210.376L468.449 206.728ZM471.169 210.344C471.297 210.344 471.649 210.099 472.225 209.608C472.31 209.501 472.47 209.341 472.705 209.128C472.961 208.915 473.153 208.755 473.281 208.648L473.857 208.072L474.465 207.272L475.169 205.896C475.169 205.747 475.244 205.523 475.393 205.224V204.52C475.393 204.392 475.297 204.147 475.105 203.784L474.817 203.72C474.689 203.72 474.412 203.795 473.985 203.944C473.878 203.944 473.484 204.179 472.801 204.648L472.065 205.128C471.638 205.427 471.35 205.661 471.201 205.832L470.977 206.056L470.497 206.504C470.326 207.016 470.241 207.347 470.241 207.496V210.824L471.169 210.344ZM494.414 211.88C494.35 211.88 494.169 211.912 493.87 211.976C493.572 212.019 493.358 212.04 493.23 212.04C493.124 212.04 493.028 212.029 492.942 212.008C492.857 211.987 492.782 211.976 492.718 211.976C492.676 211.976 492.569 211.901 492.398 211.752C492.228 211.603 492.11 211.528 492.046 211.528L491.694 211.208C491.694 211.123 491.652 210.995 491.566 210.824C491.502 210.653 491.428 210.525 491.342 210.44C491.236 210.205 491.182 210.035 491.182 209.928C491.182 209.885 491.15 209.779 491.086 209.608C491.022 209.437 490.99 209.32 490.99 209.256L490.958 208.296L490.318 208.264C490.041 207.965 489.828 207.571 489.678 207.08C489.657 206.952 489.625 206.792 489.582 206.6C489.54 206.387 489.508 206.216 489.486 206.088V201.256L489.582 200.136L489.838 199.752L490.19 199.432H490.766L491.182 200.04V206.056C491.204 206.205 491.225 206.408 491.246 206.664C491.289 206.899 491.321 207.101 491.342 207.272L491.662 206.76L492.334 205.928L492.91 205.352L493.518 204.744C493.966 204.445 494.244 204.221 494.35 204.072L495.758 203.4L495.822 202.248L495.854 201.224L495.886 199.528L496.334 198.984C496.441 198.984 496.601 198.909 496.814 198.76L497.166 198.888C497.273 198.888 497.38 199.005 497.486 199.24L497.646 200.232L497.582 202.632H498.062V203.112L497.486 203.944V204.328L497.358 205.512C497.337 205.661 497.294 206.013 497.23 206.568C497.188 207.123 497.113 207.624 497.006 208.072C496.921 208.499 496.804 208.915 496.654 209.32C496.654 209.384 496.58 209.544 496.43 209.8C496.302 210.035 496.238 210.195 496.238 210.28C496.238 210.365 496.089 210.589 495.79 210.952L495.086 211.528C494.98 211.613 494.852 211.688 494.702 211.752C494.553 211.816 494.457 211.859 494.414 211.88ZM489.582 218.632L490.158 218.184C490.649 218.013 490.937 217.885 491.022 217.8L493.486 216.936H493.582V213.544L493.71 213.064L494.094 212.552L494.67 212.616C494.798 212.616 494.916 212.723 495.022 212.936C495.044 213.064 495.065 213.235 495.086 213.448C495.129 213.64 495.161 213.811 495.182 213.96V216.36L495.374 216.328C495.609 216.307 496.558 216.072 498.222 215.624L499.502 215.272H499.566C499.716 215.272 499.918 215.24 500.174 215.176L500.686 215.208L500.846 215.368L500.814 215.72L500.654 216.04L499.758 216.488L494.862 218.344L494.67 218.472L492.398 219.272L491.726 219.496H491.566L491.214 219.624L490.414 219.688C490.286 219.667 490.158 219.635 490.03 219.592C489.902 219.549 489.785 219.517 489.678 219.496L489.55 219.176L489.582 218.632ZM492.686 208.936C492.686 209.277 492.697 209.555 492.718 209.768C492.761 209.96 492.857 210.131 493.006 210.28L493.134 210.44L493.71 210.472C494.286 210.28 494.574 210.12 494.574 209.992C494.788 209.565 494.958 209.245 495.086 209.032L495.342 207.784L495.47 206.728V206.536C495.47 206.429 495.492 206.28 495.534 206.088C495.577 205.896 495.598 205.715 495.598 205.544L495.63 205.128C495.417 205.277 495.097 205.512 494.67 205.832C494.244 206.131 493.998 206.323 493.934 206.408C493.785 206.536 493.614 206.728 493.422 206.984C493.23 207.219 493.134 207.368 493.134 207.432C492.921 207.752 492.814 207.965 492.814 208.072C492.814 208.2 492.772 208.371 492.686 208.584V208.936ZM505.333 216.84V213.032L505.109 213.064L504.661 212.872L504.117 212.36C504.117 212.296 504.031 212.072 503.861 211.688C503.669 211.389 503.573 211.176 503.573 211.048V210.792L503.477 209.672V208.776C503.477 208.605 503.509 208.381 503.573 208.104C503.637 207.805 503.669 207.603 503.669 207.496C503.669 207.325 503.754 207.101 503.925 206.824C503.967 206.739 504.053 206.643 504.181 206.536C504.309 206.429 504.426 206.376 504.533 206.376C504.575 206.248 504.703 206.077 504.917 205.864C505.13 205.629 505.279 205.512 505.365 205.512H506.165C506.335 205.512 506.581 205.597 506.901 205.768C507.221 206.024 507.445 206.237 507.573 206.408L507.765 206.824C507.765 206.931 507.818 207.155 507.925 207.496V209.256C507.925 209.32 507.871 209.491 507.765 209.768C507.679 210.045 507.637 210.237 507.637 210.344C507.637 210.451 507.562 210.739 507.413 211.208C507.263 211.656 507.135 211.923 507.029 212.008V216.232L507.253 216.2C507.423 216.093 507.69 215.997 508.053 215.912C508.437 215.805 508.714 215.72 508.885 215.656C508.991 215.635 509.119 215.603 509.269 215.56C509.418 215.517 509.557 215.475 509.685 215.432C510.026 215.283 510.25 215.208 510.357 215.208C510.506 215.208 510.805 215.133 511.253 214.984H511.861L512.085 215.208L511.861 215.656C511.562 216.083 511.359 216.296 511.253 216.296C511.103 216.424 510.943 216.488 510.773 216.488C510.474 216.595 510.069 216.787 509.557 217.064C508.831 217.427 508.351 217.651 508.117 217.736C508.074 217.736 507.978 217.779 507.829 217.864C507.679 217.928 507.541 217.981 507.413 218.024C506.986 218.259 506.709 218.376 506.581 218.376L506.165 218.568H505.973L505.109 219.016C505.002 219.016 504.757 219.08 504.373 219.208C504.01 219.336 503.754 219.411 503.605 219.432H502.933C502.826 219.432 502.687 219.357 502.517 219.208C502.367 219.037 502.293 218.899 502.293 218.792V218.472L502.709 218.056L505.333 216.84ZM501.077 205.096C501.098 204.819 501.173 204.605 501.301 204.456C501.429 204.285 501.503 204.179 501.525 204.136C501.695 204.093 501.93 203.955 502.229 203.72C502.229 203.72 502.485 203.603 502.997 203.368C503.786 203.048 504.234 202.835 504.341 202.728L504.661 202.568L504.629 201.864L504.597 200.264C504.554 199.667 504.533 199.123 504.533 198.632V197.992C504.533 197.907 504.543 197.811 504.565 197.704C504.586 197.576 504.607 197.459 504.629 197.352C504.714 197.011 504.757 196.776 504.757 196.648L505.173 196.264H505.845L506.037 196.648C506.037 198.355 506.058 199.741 506.101 200.808L506.133 202.184L506.837 201.96C507.093 201.853 507.594 201.757 508.341 201.672L509.429 201.64L509.621 201.832V201.896C509.599 202.045 509.525 202.184 509.397 202.312C509.29 202.419 509.215 202.493 509.173 202.536C508.981 202.6 508.778 202.707 508.565 202.856C508.373 202.984 508.202 203.091 508.053 203.176L506.549 203.688C506.485 203.752 505.983 203.965 505.045 204.328C504.895 204.392 504.575 204.52 504.085 204.712C503.594 204.904 503.306 205.043 503.221 205.128L502.229 205.512L501.301 205.48L501.077 205.256V205.096ZM505.141 211.08L505.493 211.464C506.197 210.355 506.549 209.299 506.549 208.296L506.485 207.368C506.271 207.027 506.101 206.856 505.973 206.856L505.429 206.888L504.949 207.08L505.045 207.496L505.141 211.08Z" fill="black"/>
<path d="M108.833 94.2082C108.214 94.4215 107.094 94.7309 105.473 95.1362C105.345 95.1575 105.174 95.1895 104.961 95.2322C104.747 95.2535 104.566 95.2749 104.417 95.2962H104.097L103.745 95.1362C103.638 95.1362 103.521 94.9975 103.393 94.7202V94.2402C103.627 94.1122 103.798 93.9949 103.905 93.8882L104.257 93.7282L105.409 93.3442C106.582 92.9815 107.265 92.7469 107.457 92.6402C107.67 92.5975 108.001 92.5122 108.449 92.3842C108.918 92.2349 109.334 92.0855 109.697 91.9362L110.369 91.7762C110.433 91.7762 110.635 91.7229 110.977 91.6162C111.318 91.5095 111.51 91.4562 111.553 91.4562C111.702 91.4562 111.958 91.3815 112.321 91.2322H112.481C112.779 91.1895 113.003 91.1469 113.153 91.1042C113.921 90.9762 114.497 90.9122 114.881 90.9122H115.393L115.585 91.1042V91.2322L115.393 91.5842C115.201 91.8189 115.03 91.9362 114.881 91.9362C114.731 92.0429 114.422 92.1922 113.953 92.3842C113.505 92.5549 113.238 92.6402 113.153 92.6402C113.089 92.6402 112.918 92.7042 112.641 92.8322C112.363 92.9389 112.182 92.9922 112.097 92.9922C111.585 93.1629 111.073 93.3655 110.561 93.6002L110.593 100.48V101.504L110.433 101.856L110.273 102.048H110.113L109.729 102.112L109.377 101.76L109.185 101.408C109.163 101.302 109.131 101.152 109.089 100.96C109.046 100.747 109.014 100.566 108.993 100.416V99.8722L108.865 97.9202L108.833 94.2082ZM104.385 81.5362L104.577 81.0242L104.769 80.8322L105.217 80.6722C105.515 80.7789 105.665 80.8962 105.665 81.0242L105.857 81.3442L105.985 82.2402L106.081 82.8802V87.7122C106.081 87.7762 106.038 87.8935 105.953 88.0642C105.889 88.2135 105.857 88.3309 105.857 88.4162L105.441 88.7362H105.217C105.11 88.7362 104.961 88.6295 104.769 88.4162C104.641 87.8189 104.577 87.4135 104.577 87.2002C104.577 86.9655 104.534 86.4855 104.449 85.7602L104.385 84.9922V81.5362ZM106.817 88.8002L107.201 88.4802L107.745 88.1282C107.787 88.1495 108.043 88.0429 108.513 87.8082C108.897 87.6375 109.11 87.5522 109.153 87.5522C109.366 87.4882 109.569 87.4349 109.761 87.3922C109.974 87.3282 110.177 87.2642 110.369 87.2002V86.2082L110.433 82.5282V81.3762L109.409 81.7602L107.873 82.4322L107.489 82.6242H107.169L106.817 82.4002L106.657 82.0802L106.817 81.5682L107.169 81.2482C107.382 81.0135 107.553 80.8962 107.681 80.8962C107.787 80.7895 107.99 80.6509 108.289 80.4802C108.587 80.3095 108.779 80.2242 108.865 80.2242L110.977 79.2962H111.841L112.033 79.4562L112.161 79.8722V80.0002L112.065 83.0722V83.4242L111.969 85.2802L111.905 86.8482L112.577 86.6882L113.377 86.6562H114.081L114.497 86.8802L114.529 87.0722V87.2322L114.337 87.4562C114.23 87.4989 113.974 87.6269 113.569 87.8402C113.185 88.0322 112.939 88.1282 112.833 88.1282C112.705 88.1282 112.406 88.2455 111.937 88.4802L111.201 88.7682C111.179 88.7682 110.913 88.8535 110.401 89.0242C109.803 89.2802 109.441 89.4082 109.313 89.4082C108.843 89.6429 108.545 89.7602 108.417 89.7602H108.385C108.257 89.7602 108.107 89.8029 107.937 89.8882H107.553C107.467 89.8455 107.361 89.8242 107.233 89.8242L106.849 89.6962C106.742 89.5469 106.678 89.3762 106.657 89.1842L106.817 88.8002ZM119.931 92.3842C119.931 91.7655 119.953 90.8162 119.995 89.5362C120.059 88.5335 120.091 87.4989 120.091 86.4322V85.6962C120.027 85.7815 119.633 85.9842 118.907 86.3042C118.779 86.3682 118.651 86.4322 118.523 86.4962C118.395 86.5389 118.289 86.5922 118.203 86.6562C117.691 86.7842 117.371 86.8482 117.243 86.8482H117.083C116.934 86.8482 116.731 86.7095 116.475 86.4322V85.6962C116.603 85.4402 116.731 85.3122 116.859 85.3122C116.945 85.3122 117.137 85.2269 117.435 85.0562C117.755 84.8855 117.937 84.8002 117.979 84.8002C118.086 84.8002 118.395 84.6295 118.907 84.2882C119.398 83.9682 119.675 83.8082 119.739 83.8082C119.889 83.7655 120.315 83.5522 121.019 83.1682C121.617 82.8482 121.947 82.6882 122.011 82.6882C122.054 82.6882 122.235 82.6242 122.555 82.4962C122.875 82.3682 123.078 82.3042 123.163 82.3042C123.249 82.3042 123.409 82.2402 123.643 82.1122C123.899 81.9842 124.059 81.9202 124.123 81.9202C124.23 81.9202 124.486 81.8669 124.891 81.7602C125.126 81.8669 125.307 81.9202 125.435 81.9202L125.627 82.0802V82.4962C125.371 82.8802 125.179 83.0722 125.051 83.0722C124.539 83.3069 124.23 83.4775 124.123 83.5842C123.995 83.7122 123.633 83.8935 123.035 84.1282C122.929 84.1922 122.769 84.2775 122.555 84.3842C122.342 84.4695 122.214 84.5335 122.171 84.5762L121.755 84.8642V88.5442L121.819 91.9362L122.171 91.8082L122.779 91.6162C122.822 91.6162 122.993 91.5309 123.291 91.3602C123.611 91.1682 123.814 91.0722 123.899 91.0722C123.963 91.0722 124.177 90.9975 124.539 90.8482C124.902 90.6775 125.179 90.5495 125.371 90.4642C125.819 90.2295 126.235 90.0375 126.619 89.8882C126.705 89.7602 127.174 89.5682 128.027 89.3122H128.923L129.179 89.6002L128.923 90.0482L128.603 90.4002L128.187 90.6242C128.145 90.6242 127.825 90.8162 127.227 91.2002C126.651 91.6055 126.321 91.8082 126.235 91.8082L125.819 91.9682C125.713 92.1175 125.158 92.4375 124.155 92.9282C123.729 93.1629 123.398 93.3549 123.163 93.5042L122.779 93.7282C122.715 93.7282 122.47 93.8562 122.043 94.1122C121.723 94.3469 121.521 94.4642 121.435 94.4642H120.667L120.315 94.2722C120.059 94.0589 119.931 93.8775 119.931 93.7282V92.3842ZM126.235 96.0002C126.342 95.3815 126.395 94.9869 126.395 94.8162C126.395 94.7095 126.47 94.5282 126.619 94.2722L126.747 94.0802L127.099 93.9202H127.163L127.515 94.2722C127.515 94.4429 127.537 94.6562 127.579 94.9122C127.622 95.1682 127.654 95.4349 127.675 95.7122C127.782 96.3949 127.835 96.8749 127.835 97.1522V98.6562C127.835 99.0189 127.878 99.6269 127.963 100.48L128.155 100.384C129.819 99.5949 130.95 99.0935 131.547 98.8802C131.569 98.8802 131.835 98.7309 132.347 98.4322C132.475 98.3682 132.667 98.2615 132.923 98.1122C133.201 97.9629 133.371 97.8882 133.435 97.8882C133.542 97.7815 133.83 97.6535 134.299 97.5042C134.811 97.3335 135.099 97.2162 135.163 97.1522C135.27 97.1522 135.462 97.0775 135.739 96.9282H136.283L136.475 97.1522V97.5042C136.475 97.6109 136.358 97.8135 136.123 98.1122C135.313 98.6242 134.79 98.9229 134.555 99.0082L134.203 99.2322L134.043 99.3922L133.659 99.6162L132.667 100.16C131.643 100.694 131.078 101.014 130.971 101.12L130.011 101.728L127.515 102.848H126.619L126.395 102.656C126.395 102.528 126.342 102.336 126.235 102.08V96.0002ZM130.555 84.8002V84.5762L130.683 83.5202L130.779 82.4962V82.0802C130.907 81.8669 130.971 81.6855 130.971 81.5362L131.163 81.1842L131.355 80.9602H131.931L132.123 81.1842C132.145 81.3335 132.187 81.6535 132.251 82.1442C132.315 82.6135 132.347 82.9229 132.347 83.0722V87.5522L132.859 87.3282L135.931 85.9202H136.475L136.667 86.1122V86.5922L135.931 87.3282L135.323 87.7442L135.163 87.9362L134.779 88.0962C134.715 88.0962 134.502 88.2135 134.139 88.4482C133.713 88.7042 133.467 88.8322 133.403 88.8322L133.083 89.0562C132.934 89.0562 132.71 89.1842 132.411 89.4402V93.4402L132.251 94.8802C132.251 95.0295 132.081 95.3175 131.739 95.7442H131.291L131.131 95.5522C131.003 95.3175 130.939 95.1255 130.939 94.9762C130.875 94.8269 130.801 94.5282 130.715 94.0802C130.63 93.6322 130.577 93.3015 130.555 93.0882L130.523 88.1602L130.555 84.8002ZM148.038 98.2082C148.123 98.1442 148.241 98.0695 148.39 97.9842C148.539 97.8775 148.646 97.8242 148.71 97.8242H148.998L149.478 97.6002H149.67L152.262 96.4802H152.39L152.742 96.3842L152.838 95.5842C152.838 95.4349 152.881 95.1362 152.966 94.6882V93.9202L153.03 92.9922L153.094 92.1602V91.8082L153.19 90.6562V89.8882L152.838 90.1122L152.646 90.2082L152.55 90.3042L152.262 90.4322C152.091 90.5602 151.857 90.7309 151.558 90.9442C151.281 91.1575 151.014 91.3389 150.758 91.4882C150.694 91.5522 150.523 91.6589 150.246 91.8082H150.15C150.022 91.8082 149.851 91.7655 149.638 91.6802L149.446 91.5842H149.286L148.87 91.2322C148.763 91.0189 148.71 90.8269 148.71 90.6562V90.5282L148.806 90.2082L148.902 89.5362L148.998 88.8642C149.083 88.4802 149.126 88.2349 149.126 88.1282L149.222 87.2642L149.382 87.0402L149.478 85.8242C149.542 85.3122 149.574 84.9175 149.574 84.6402L149.382 84.8002C149.126 84.9922 148.966 85.0882 148.902 85.0882L148.326 85.2482C148.262 85.3122 148.123 85.3762 147.91 85.4402C147.697 85.5042 147.537 85.5362 147.43 85.5362H146.982C146.982 85.4935 146.929 85.4402 146.822 85.3762C146.715 85.2909 146.662 85.2375 146.662 85.2162L146.534 85.1202V84.8962C146.534 84.8749 146.555 84.8429 146.598 84.8002C146.641 84.7575 146.662 84.7042 146.662 84.6402C146.662 84.5762 146.694 84.4802 146.758 84.3522L147.206 84.1282L147.654 83.6802L147.91 83.5522H148.038C148.059 83.5522 148.209 83.4562 148.486 83.2642C148.785 83.0722 149.03 82.9335 149.222 82.8482C149.393 82.8482 149.777 82.6669 150.374 82.3042L150.598 82.1762L151.046 82.0802L151.622 81.8882C151.686 81.8669 151.793 81.8242 151.942 81.7602C152.091 81.6962 152.187 81.6642 152.23 81.6642L152.454 81.5682C152.625 81.4829 152.902 81.3762 153.286 81.2482L154.15 80.8642C154.235 80.8429 154.353 80.8109 154.502 80.7682C154.673 80.7042 154.822 80.6615 154.95 80.6402C155.099 80.6189 155.27 80.5869 155.462 80.5442C155.675 80.4802 155.835 80.4375 155.942 80.4162H156.102L156.902 80.3842L157.094 80.6082L157.254 80.8642V81.0242L156.902 81.3442H156.806C156.742 81.3442 156.625 81.3975 156.454 81.5042C156.305 81.5895 156.198 81.6429 156.134 81.6642L155.782 81.7922C155.739 81.7922 155.622 81.8455 155.43 81.9522C155.238 82.0589 155.131 82.1122 155.11 82.1122H154.982C154.961 82.1122 154.854 82.1975 154.662 82.3682C154.47 82.5175 154.353 82.5922 154.31 82.5922L153.99 82.6882C153.713 82.8802 153.414 83.0402 153.094 83.1682C152.795 83.2962 152.614 83.3815 152.55 83.4242L152.134 83.5202L151.814 83.7442C151.793 83.7442 151.718 83.7975 151.59 83.9042C151.462 83.9895 151.377 84.0322 151.334 84.0322L151.27 86.4962V87.2642L151.174 88.1282L151.11 88.3522L151.078 88.7362V88.9922L151.27 88.8322C151.334 88.7682 151.441 88.6935 151.59 88.6082C151.761 88.5015 151.878 88.4482 151.942 88.4482C151.985 88.4055 152.134 88.3309 152.39 88.2242C152.667 88.1175 152.817 88.0535 152.838 88.0322H152.966C153.009 88.0322 153.126 87.9895 153.318 87.9042C153.51 87.7975 153.649 87.7335 153.734 87.7122L154.086 87.5842C154.385 87.4349 154.566 87.3602 154.63 87.3602C154.737 87.3389 154.875 87.2962 155.046 87.2322C155.217 87.1682 155.355 87.1255 155.462 87.1042C155.739 86.9975 155.921 86.9442 156.006 86.9442C156.113 86.9229 156.219 86.8909 156.326 86.8482C156.454 86.8055 156.561 86.7842 156.646 86.7842L157.094 86.6882H157.51L157.926 86.5922H158.694L158.918 86.6882L159.046 86.7842L159.11 87.2642L158.598 87.6162L158.278 87.7762H158.118L157.83 87.9042C157.745 87.9042 157.585 87.9575 157.35 88.0642H157.094C157.03 88.0642 156.849 88.1495 156.55 88.3202L156.23 88.4482C156.209 88.4482 156.102 88.5015 155.91 88.6082C155.718 88.7149 155.601 88.7682 155.558 88.7682H155.334C155.099 88.9175 154.95 88.9922 154.886 88.9922L154.534 89.2162L154.406 89.3442C154.406 89.3655 154.438 89.4295 154.502 89.5362C154.587 89.6429 154.63 89.7175 154.63 89.7602C154.651 89.8882 154.694 90.0375 154.758 90.2082C154.822 90.3789 154.865 90.5282 154.886 90.6562V92.9602L154.726 94.2402C154.726 94.3469 154.705 94.4749 154.662 94.6242C154.619 94.7735 154.598 94.9015 154.598 95.0082L154.534 95.5842H154.63L154.982 95.4562H155.11C155.195 95.4349 155.281 95.4029 155.366 95.3602C155.473 95.2962 155.569 95.2535 155.654 95.2322L156.23 95.1362C156.294 95.1149 156.39 95.0829 156.518 95.0402C156.646 94.9975 156.785 94.9549 156.934 94.9122C157.318 94.7629 157.542 94.6882 157.606 94.6882H157.926C158.011 94.6669 158.097 94.6349 158.182 94.5922C158.289 94.5282 158.385 94.4855 158.47 94.4642L159.046 94.3682L159.366 94.2402H159.75L160.166 94.1122C160.379 94.0482 160.753 93.9842 161.286 93.9202H162.214C162.278 93.9202 162.353 93.9522 162.438 94.0162V94.4642C162.438 94.5282 162.353 94.6242 162.182 94.7522C162.033 94.8802 161.926 94.9655 161.862 95.0082C161.627 95.1575 161.478 95.2322 161.414 95.2322H161.19C161.147 95.2322 161.062 95.2642 160.934 95.3282C160.806 95.3922 160.71 95.4349 160.646 95.4562C160.646 95.4562 160.401 95.5309 159.91 95.6802C159.441 95.8509 159.185 95.9362 159.142 95.9362C159.057 95.9575 158.961 96.0002 158.854 96.0642C158.769 96.1069 158.683 96.1389 158.598 96.1602H158.47L158.118 96.2562L157.702 96.4802H157.606L157.254 96.6082L156.806 96.8322H156.646C156.497 96.8962 156.326 96.9602 156.134 97.0242C155.942 97.0882 155.782 97.1309 155.654 97.1522C155.633 97.1522 155.526 97.2162 155.334 97.3442C155.142 97.4509 155.025 97.5042 154.982 97.5042H154.886C154.843 97.5042 154.726 97.5575 154.534 97.6642C154.342 97.7709 154.225 97.8242 154.182 97.8242L153.862 97.9202C153.819 97.9202 153.702 97.9735 153.51 98.0802C153.339 98.1869 153.233 98.2402 153.19 98.2402H152.966C152.923 98.2402 152.806 98.3042 152.614 98.4322C152.422 98.5602 152.305 98.6242 152.262 98.6242C152.219 98.6242 152.123 98.6669 151.974 98.7522C151.825 98.8375 151.739 98.8802 151.718 98.8802C151.633 98.9015 151.526 98.9335 151.398 98.9762C151.27 99.0189 151.153 99.0509 151.046 99.0722C150.961 99.0935 150.865 99.1362 150.758 99.2002C150.673 99.2429 150.587 99.2749 150.502 99.2962H150.374C150.289 99.3175 150.161 99.3709 149.99 99.4562C149.819 99.5202 149.713 99.5522 149.67 99.5522L148.71 99.6482C148.539 99.5842 148.422 99.5522 148.358 99.5522L148.134 99.3922L147.91 99.2002V98.4322L148.038 98.2082ZM166.257 91.3602C166.257 92.0215 166.3 92.6082 166.385 93.1202L166.737 92.9922C167.1 92.9282 167.857 92.6722 169.009 92.2242L169.137 92.1922V87.5202C169.287 87.2429 169.361 87.0402 169.361 86.9122L169.553 86.7202L169.937 86.4642H170.161L170.353 86.7202C170.353 86.8482 170.503 86.9762 170.801 87.1042V91.7122L170.929 91.6802L171.089 91.6162C171.196 91.6162 171.633 91.5309 172.401 91.3602C173.127 91.1895 173.511 91.1042 173.553 91.1042H174.161L174.353 91.2962V91.9042L174.161 92.1282C173.82 92.2349 173.393 92.3949 172.881 92.6082C172.391 92.8215 172.113 92.9602 172.049 93.0242C171.985 93.0242 171.655 93.1522 171.057 93.4082C170.908 93.4722 170.705 93.5575 170.449 93.6642C170.193 93.7709 170.033 93.8242 169.969 93.8242C169.884 93.9095 169.393 94.1335 168.497 94.4962C167.623 94.8375 166.865 95.1149 166.225 95.3282L165.841 95.5522C165.777 95.5522 165.607 95.6162 165.329 95.7442C165.052 95.8722 164.871 95.9362 164.785 95.9362C164.657 95.9362 164.455 96.0002 164.177 96.1282L163.345 96.0642C163.196 96.0642 162.993 96.0002 162.737 95.8722L162.545 95.4882L162.673 95.0722C162.716 94.9655 162.812 94.8375 162.961 94.6882C163.111 94.5175 163.228 94.4322 163.313 94.4322C163.441 94.3895 163.676 94.2829 164.017 94.1122L165.201 93.6322C165.137 93.3549 165.073 93.0775 165.009 92.8002C164.967 92.5229 164.945 92.3202 164.945 92.1922L164.817 90.4962V89.4402L165.073 88.8322C165.201 88.7042 165.308 88.5762 165.393 88.4482H165.905L166.097 88.6402C166.097 88.7042 166.129 88.8749 166.193 89.1522C166.257 89.4295 166.289 89.6109 166.289 89.6962L166.257 91.3602ZM164.433 79.7442C164.561 79.4882 164.689 79.2855 164.817 79.1362L165.041 78.9442C165.191 78.7949 165.468 78.6669 165.873 78.5602H166.705L167.281 78.7202L167.921 79.1362C168.049 79.1362 168.252 79.3389 168.529 79.7442L168.721 80.1922L168.945 80.7682C168.945 80.9175 168.988 81.2589 169.073 81.7922C169.073 81.9202 169.052 82.1549 169.009 82.4962C168.967 82.8162 168.945 83.0615 168.945 83.2322C168.945 83.3175 168.903 83.4989 168.817 83.7762C168.753 84.0322 168.721 84.1922 168.721 84.2562C168.721 84.3202 168.657 84.5229 168.529 84.8642C168.38 85.1629 168.305 85.3762 168.305 85.5042C168.305 85.6109 168.188 85.8775 167.953 86.3042C167.953 86.3682 167.836 86.4962 167.601 86.6882C167.388 86.8802 167.239 87.0189 167.153 87.1042L166.705 87.2962L166.033 87.2322C165.671 87.0829 165.415 86.9122 165.265 86.7202C165.223 86.5495 165.073 86.2829 164.817 85.9202C164.817 85.7495 164.796 85.5682 164.753 85.3762C164.732 85.1842 164.721 85.0135 164.721 84.8642V82.7842C164.743 82.6349 164.785 82.3895 164.849 82.0482C164.935 81.6855 164.977 81.4615 164.977 81.3762L165.425 80.9922H165.681L165.873 81.1522C166.001 81.3655 166.087 81.6642 166.129 82.0482L166.161 85.2482L166.513 85.4722C166.684 85.3015 166.823 85.1095 166.929 84.8962C167.015 84.7255 167.132 84.3842 167.281 83.8722C167.452 83.3389 167.537 82.9869 167.537 82.8162C167.537 82.5815 167.559 82.3042 167.601 81.9842L167.505 80.9922L167.281 80.5762L166.865 80.1922C166.609 80.0429 166.407 79.9682 166.257 79.9682H166.065L165.681 80.1922L165.425 80.3522C165.319 80.3522 165.116 80.4909 164.817 80.7682H164.625L164.433 80.5762V79.7442ZM166.417 99.1042C166.545 98.8482 166.609 98.6562 166.609 98.5282L166.865 97.8882C166.865 97.7602 167.004 97.5575 167.281 97.2802L167.505 97.0882L167.921 96.8642L169.137 96.8322C169.479 96.9815 169.713 97.1202 169.841 97.2482L170.257 97.6322C170.385 97.7815 170.513 97.9735 170.641 98.2082C170.769 98.4215 170.833 98.5709 170.833 98.6562L171.057 99.2962L171.153 100.896V101.888C171.153 102.059 171.079 102.379 170.929 102.848C170.801 103.318 170.737 103.584 170.737 103.648C170.588 103.968 170.46 104.182 170.353 104.288L170.129 104.544C170.001 104.651 169.617 104.854 168.977 105.152H168.529C168.252 105.003 168.049 104.864 167.921 104.736L167.665 104.544C167.665 104.48 167.601 104.342 167.473 104.128C167.345 103.936 167.281 103.808 167.281 103.744C167.281 103.595 167.228 103.254 167.121 102.72C167.121 102.422 167.089 101.984 167.025 101.408L166.929 100.128L166.481 99.9362L166.417 99.1042ZM169.073 102.912C169.372 102.272 169.521 101.824 169.521 101.568V99.9362C169.521 99.8722 169.489 99.7335 169.425 99.5202C169.383 99.3069 169.361 99.1575 169.361 99.0722C169.361 98.9655 169.223 98.7842 168.945 98.5282H168.593V103.136L169.073 102.912ZM186.486 92.6402L186.102 93.0242H185.526L185.142 92.6402V91.8722C185.142 91.8082 185.206 91.6269 185.334 91.3282C185.462 91.0082 185.526 90.8269 185.526 90.7842C185.526 90.6775 185.601 90.4535 185.75 90.1122C185.899 89.7709 186.017 89.5575 186.102 89.4722C186.102 89.4295 186.187 89.2482 186.358 88.9282C186.55 88.6082 186.646 88.4162 186.646 88.3522C186.646 88.2669 186.774 87.9895 187.03 87.5202C187.286 87.0082 187.414 86.7309 187.414 86.6882C187.841 85.7495 188.118 85.2162 188.246 85.0882L188.534 84.6402C188.534 84.5975 188.641 84.3842 188.854 84.0002C189.131 83.5309 189.27 83.2535 189.27 83.1682C189.398 82.9975 189.547 82.7629 189.718 82.4642C189.91 82.1442 190.006 81.9522 190.006 81.8882C190.006 81.7389 190.187 81.4829 190.55 81.1202L190.934 80.7362C191.041 80.7362 191.222 80.6829 191.478 80.5762C191.606 80.5762 191.766 80.6295 191.958 80.7362L192.022 81.1202V81.6642C191.787 82.1549 191.606 82.4749 191.478 82.6242L191.286 82.7842L190.102 85.2802C190.145 85.3442 190.23 85.4509 190.358 85.6002C190.486 85.7495 190.55 85.8669 190.55 85.9522C190.614 86.0802 190.774 86.6562 191.03 87.6802C191.307 88.6615 191.467 89.2055 191.51 89.3122C191.979 90.9335 192.406 92.2349 192.79 93.2162C192.79 93.2589 192.833 93.4082 192.918 93.6642C193.025 93.8989 193.078 94.0482 193.078 94.1122L193.174 94.4962C193.259 94.7309 193.302 94.9229 193.302 95.0722L193.238 95.4242L193.078 95.5842L192.758 95.6802C192.63 95.6802 192.513 95.6482 192.406 95.5842C192.022 95.3495 191.83 95.1789 191.83 95.0722C191.83 94.9442 191.649 94.5602 191.286 93.9202L190.774 92.8642C190.774 92.8002 190.71 92.6402 190.582 92.3842C190.475 92.1282 190.422 91.9575 190.422 91.8722C190.337 91.7869 190.219 91.5202 190.07 91.0722C189.942 90.6029 189.878 90.3149 189.878 90.2082C189.857 90.1442 189.729 89.7282 189.494 88.9602C189.259 88.1069 189.099 87.6055 189.014 87.4562L188.886 87.8082L186.486 92.6402ZM193.942 95.6802C193.963 95.6589 194.219 95.4775 194.71 95.1362C195.094 94.9015 195.318 94.7522 195.382 94.6882C195.745 94.4535 195.979 94.3362 196.086 94.3362C196.214 94.1869 196.523 93.9949 197.014 93.7602C197.099 93.6749 197.281 93.5682 197.558 93.4402C197.857 93.2909 198.049 93.2162 198.134 93.2162C198.262 93.2162 198.443 93.1522 198.678 93.0242H199.254C199.382 93.0242 199.553 93.0669 199.766 93.1522L199.99 93.6002V100.992L199.862 102.112C199.841 102.24 199.766 102.486 199.638 102.848L199.446 103.04H199.094C198.966 103.04 198.795 102.827 198.582 102.4L198.422 101.376L198.358 98.3682V95.0082C198.294 95.0082 198.134 95.0935 197.878 95.2642C197.622 95.4135 197.462 95.4882 197.398 95.4882C197.355 95.5309 197.078 95.6802 196.566 95.9362C195.969 96.2562 195.649 96.4375 195.606 96.4802C195.371 96.6295 195.179 96.7042 195.03 96.7042H194.518L194.134 96.4802L193.942 96.2882C193.878 96.2455 193.846 96.1709 193.846 96.0642L193.942 95.6802ZM197.782 82.0482C197.803 81.9202 197.835 81.7495 197.878 81.5362C197.942 81.3229 197.974 81.1842 197.974 81.1202L198.166 80.9282C198.294 80.8002 198.497 80.6829 198.774 80.5762L199.158 80.7362L199.51 81.1202L199.734 81.4722L199.798 82.2082L199.894 83.5522V85.0562L199.83 87.9042C199.766 89.1415 199.734 90.1015 199.734 90.7842L199.51 91.1362C199.51 91.2429 199.425 91.3709 199.254 91.5202H198.71L198.518 91.2962L198.358 90.9442C198.358 90.8375 198.294 90.6562 198.166 90.4002C198.081 90.1442 197.995 89.6962 197.91 89.0562C197.846 88.3949 197.803 87.9149 197.782 87.6162V82.0482ZM212.306 103.872C212.562 103.488 212.754 103.232 212.882 103.104L212.946 103.008L213.522 102.304L213.842 101.888L214.578 101.056L214.642 100.8C214.642 100.779 214.727 100.704 214.898 100.576C215.069 100.427 215.154 100.331 215.154 100.288L215.346 99.9362L215.538 99.6802L215.986 99.1682C215.858 99.2322 215.709 99.2855 215.538 99.3282C215.367 99.3709 215.239 99.4029 215.154 99.4242L214.93 99.6162C214.738 99.6589 214.439 99.7549 214.034 99.9042C213.906 99.9255 213.746 99.9575 213.554 100C213.383 100.022 213.255 100.043 213.17 100.064H212.338C212.274 100.064 212.178 100.032 212.05 99.9682C211.751 99.7762 211.602 99.5629 211.602 99.3282C211.602 99.2642 211.623 99.1895 211.666 99.1042C211.709 99.0189 211.73 98.9549 211.73 98.9122L211.794 98.6562L212.754 97.6322C212.754 97.5895 212.839 97.4935 213.01 97.3442C213.181 97.1949 213.266 97.1095 213.266 97.0882L213.682 96.6402L213.778 96.5442C214.397 95.7549 214.973 94.9869 215.506 94.2402L214.802 94.5602L214.29 94.7522C214.269 94.7522 214.151 94.8162 213.938 94.9442C213.746 95.0722 213.629 95.1362 213.586 95.1362C213.565 95.1362 213.234 95.2642 212.594 95.5202C212.039 95.7975 211.709 95.9362 211.602 95.9362H210.77L210.61 95.6802L210.482 95.4562V95.3922C210.482 95.3282 210.514 95.2429 210.578 95.1362C210.663 95.0082 210.706 94.9229 210.706 94.8802L210.77 94.8162C210.941 94.6669 211.079 94.5922 211.186 94.5922C211.271 94.4855 211.453 94.3682 211.73 94.2402C211.751 94.1975 211.879 94.1335 212.114 94.0482C212.349 93.9415 212.53 93.8562 212.658 93.7922C213.021 93.6642 213.287 93.5469 213.458 93.4402C213.501 93.4189 213.586 93.3869 213.714 93.3442C213.842 93.2802 213.927 93.2482 213.97 93.2482C214.077 93.2269 214.194 93.1842 214.322 93.1202C214.471 93.0562 214.578 93.0135 214.642 92.9922C214.706 92.9922 214.802 92.9495 214.93 92.8642C215.079 92.7575 215.175 92.6935 215.218 92.6722C215.303 92.6509 215.431 92.6189 215.602 92.5762C215.773 92.5122 215.89 92.4802 215.954 92.4802L216.146 92.3202L216.53 92.2242C216.594 92.2029 216.743 92.1282 216.978 92.0002C217.213 91.8509 217.351 91.7762 217.394 91.7762H218.194L218.386 91.9042L218.546 92.1602V92.4802C218.546 92.5229 218.493 92.6082 218.386 92.7362L218.194 93.0562C217.959 93.3122 217.799 93.5042 217.714 93.6322L217.394 94.0162L216.69 95.0722L216.37 95.6482C216.306 95.7122 216.21 95.8402 216.082 96.0322C215.954 96.2242 215.858 96.3415 215.794 96.3842L215.538 96.8002L215.218 97.0882C215.005 97.3869 214.866 97.5682 214.802 97.6322H214.93C215.015 97.6109 215.143 97.5789 215.314 97.5362C215.506 97.4935 215.666 97.4615 215.794 97.4402L216.146 97.3762L216.594 97.1842C216.679 97.1629 216.797 97.1309 216.946 97.0882C217.117 97.0242 217.266 96.9815 217.394 96.9602C217.437 96.9602 217.501 96.9495 217.586 96.9282C217.671 96.8855 217.757 96.8642 217.842 96.8642L218.386 96.8002H218.642L218.834 96.8642L218.93 96.9602C219.015 97.0455 219.101 97.1842 219.186 97.3762V97.4402C219.186 97.6109 219.154 97.7815 219.09 97.9522C219.026 98.1229 218.941 98.2509 218.834 98.3362C218.791 98.4429 218.727 98.5602 218.642 98.6882C218.557 98.7949 218.471 98.8695 218.386 98.9122L218.194 99.1042C218.023 99.3175 217.789 99.5949 217.49 99.9362C216.935 100.576 216.615 100.982 216.53 101.152L216.146 101.632L216.018 101.76C215.869 101.91 215.613 102.251 215.25 102.784L215.154 103.008L215.474 102.88C215.559 102.859 215.719 102.795 215.954 102.688C216.189 102.603 216.338 102.56 216.402 102.56L216.85 102.464C216.978 102.379 217.351 102.23 217.97 102.016C218.354 101.888 218.578 101.803 218.642 101.76L218.834 101.632H218.93C218.973 101.632 219.314 101.526 219.954 101.312C220.018 101.312 220.114 101.28 220.242 101.216C220.391 101.131 220.487 101.078 220.53 101.056L220.786 100.928H220.914C220.999 100.928 221.181 100.971 221.458 101.056L221.618 101.152L221.682 101.376L221.618 101.76C221.618 101.824 221.522 101.931 221.33 102.08C221.202 102.144 220.989 102.272 220.69 102.464C220.413 102.656 220.253 102.752 220.21 102.752L216.914 104.32L216.37 104.544C216.349 104.544 216.242 104.608 216.05 104.736C215.858 104.864 215.741 104.928 215.698 104.928C215.634 104.928 215.538 104.96 215.41 105.024C215.282 105.088 215.197 105.131 215.154 105.152C215.111 105.152 214.93 105.206 214.61 105.312C214.29 105.44 214.077 105.504 213.97 105.504C213.863 105.504 213.757 105.515 213.65 105.536C213.565 105.579 213.501 105.6 213.458 105.6H212.466C212.423 105.6 212.359 105.547 212.274 105.44C212.189 105.355 212.146 105.28 212.146 105.216L212.082 104.832V104.224L212.146 104L212.306 103.872ZM203.762 82.3362V81.7922C203.783 81.6642 203.815 81.4935 203.858 81.2802C203.901 81.0669 203.933 80.8962 203.954 80.7682L204.082 80.4802L204.434 80.2242H204.722L205.042 80.4802L205.17 80.6082C205.17 80.7149 205.245 80.8855 205.394 81.1202L205.266 86.8802L205.394 88.0962L205.746 87.6162C205.853 87.5095 206.034 87.2962 206.29 86.9762C206.546 86.6562 206.717 86.4642 206.802 86.4002L208.21 85.1842L208.53 84.9282V84.2882L208.626 81.4402V80.7682C208.626 80.6615 208.69 80.4375 208.818 80.0962C208.818 80.0109 208.882 79.9042 209.01 79.7762C209.159 79.6482 209.277 79.5842 209.362 79.5842H209.746L210.066 79.9042C210.173 80.1602 210.226 80.3522 210.226 80.4802V80.7682L210.258 83.9042L210.898 83.7442L211.25 84.0642V84.4482L210.93 85.2162L210.194 85.8562C210.173 86.0909 210.162 86.4535 210.162 86.9442C210.141 87.6909 210.109 88.2882 210.066 88.7362C210.023 89.1629 209.917 89.6429 209.746 90.1762C209.554 91.0082 209.458 91.4669 209.458 91.5522L209.106 92.1922C209.106 92.2775 208.85 92.5549 208.338 93.0242L207.506 93.6642C206.994 93.8349 206.674 93.9202 206.546 93.9202L205.746 93.7922L205.394 93.6322L205.17 93.4082L204.882 93.0242L204.626 92.3522C204.626 92.2669 204.551 91.8829 204.402 91.2002L204.562 90.0482C204.669 89.5789 204.775 89.2375 204.882 89.0242L205.042 88.6722H204.722L204.338 88.4802L204.082 88.1282C204.061 88.0002 204.018 87.8082 203.954 87.5522C203.89 87.2962 203.858 87.1362 203.858 87.0722C203.837 86.9655 203.794 86.7202 203.73 86.3362C203.666 85.9309 203.634 85.6642 203.634 85.5362V84.4162L203.762 82.3362ZM205.65 91.2642C205.65 91.4775 205.693 91.7122 205.778 91.9682C205.821 92.1175 205.895 92.2349 206.002 92.3202L206.418 92.3842C206.503 92.3842 206.685 92.3095 206.962 92.1602C207.239 92.0109 207.41 91.8722 207.474 91.7442C207.773 91.2962 207.922 91.0082 207.922 90.8802C207.943 90.7522 208.007 90.5602 208.114 90.3042C208.221 90.0269 208.274 89.8562 208.274 89.7922C208.359 89.3655 208.402 89.0882 208.402 88.9602L208.562 87.8082L208.626 87.0082C208.519 87.0935 207.837 87.7655 206.578 89.0242C206.279 89.6002 206.066 89.9415 205.938 90.0482L205.746 90.4002C205.746 90.5069 205.714 90.6775 205.65 90.9122V91.2642ZM211.506 84.2242L211.73 83.7762L212.21 83.3282C212.317 83.3282 212.541 83.2002 212.882 82.9442C213.245 82.6882 213.479 82.4962 213.586 82.3682L214.066 82.1442C214.215 82.1442 214.599 81.9842 215.218 81.6642C215.687 81.5149 216.007 81.4402 216.178 81.4402H216.402C216.551 81.4402 216.722 81.5575 216.914 81.7922L216.786 82.2402L216.434 82.5282C216.391 82.5709 216.199 82.6882 215.858 82.8802C215.517 83.0509 215.293 83.1895 215.186 83.2962C215.101 83.2962 214.759 83.4882 214.162 83.8722C213.522 84.2562 213.17 84.4482 213.106 84.4482L212.21 84.7682L211.698 84.6402L211.506 84.4802V84.2242ZM212.21 88.6402L212.434 88.1602C213.117 87.6482 213.586 87.2642 213.842 87.0082C213.906 86.9229 214.279 86.6882 214.962 86.3042C215.197 86.1762 215.442 86.0269 215.698 85.8562C215.762 85.8562 215.986 85.7495 216.37 85.5362C216.754 85.2802 216.999 85.1522 217.106 85.1522L217.554 84.8642L217.65 83.4242V81.3122L217.714 79.9042L217.97 79.3922L218.386 78.9762H218.674L218.866 79.2002L219.09 79.6802C219.09 79.8295 219.154 80.0642 219.282 80.3842V81.5362L219.346 87.2322V89.0562C219.346 89.1415 219.303 89.3442 219.218 89.6642C219.133 89.9842 219.09 90.1762 219.09 90.2402L218.834 90.4642L218.546 90.7202L218.13 90.4642C218.023 89.9949 217.97 89.6855 217.97 89.5362C217.97 89.3655 217.949 89.1629 217.906 88.9282C217.863 88.6722 217.842 88.4589 217.842 88.2882L217.81 87.2002C217.81 87.0295 217.789 86.7949 217.746 86.4962L217.33 86.7202L216.722 87.1362C216.679 87.2002 216.53 87.3069 216.274 87.4562C216.018 87.6055 215.837 87.7122 215.73 87.7762C215.346 87.9682 215.111 88.1069 215.026 88.1922L214.45 88.6082C214.301 88.7362 213.895 88.9709 213.234 89.3122H212.69L212.21 89.0882V88.6402Z" fill="black"/>
<path d="M42.16 241.112L42.224 242.008V246.616C42.16 246.787 42.1067 247.139 42.064 247.672C42.0427 248.205 42.032 248.632 42.032 248.952V249.592L41.936 249.688V250.424C41.808 250.68 41.744 250.84 41.744 250.904L41.648 251.16L41.584 251.32H40.976C40.848 251.213 40.784 251.117 40.784 251.032L40.624 250.808C40.624 250.701 40.6027 250.584 40.56 250.456C40.5387 250.328 40.528 250.232 40.528 250.168V248.952L40.464 248.152C40.464 247.981 40.4 247.693 40.272 247.288C40.272 246.883 40.2507 246.339 40.208 245.656C40.1867 244.973 40.144 244.493 40.08 244.216V241.752C40.08 241.667 40.0587 241.56 40.016 241.432C39.9947 241.304 39.9733 241.165 39.952 241.016L39.728 241.112V241.08C39.6427 241.08 39.5253 241.112 39.376 241.176C39.2267 241.219 39.1307 241.229 39.088 241.208L38.832 241.368L38.192 241.528L37.936 241.624L37.52 241.88C37.4773 241.88 37.296 241.955 36.976 242.104C36.656 242.232 36.432 242.317 36.304 242.36L36.048 242.488L35.952 242.52V246.456L35.76 246.712L35.888 249.528L35.728 249.624C35.664 249.709 35.5467 249.784 35.376 249.848L35.088 249.656L34.832 249.432C34.832 249.347 34.7467 249.165 34.576 248.888C34.5547 248.739 34.5013 248.493 34.416 248.152C34.3307 247.811 34.288 247.587 34.288 247.48L34.224 245.88L34.096 243.096L33.808 243.16V243.096C33.5093 243.203 33.1573 243.288 32.752 243.352C32.368 243.395 32.016 243.405 31.696 243.384L31.152 243.32H31.088C31.0027 243.32 30.9173 243.277 30.832 243.192L30.48 242.808V242.2C30.5867 242.051 30.704 241.944 30.832 241.88L31.088 241.624C31.152 241.624 31.2587 241.549 31.408 241.4H31.44C31.5253 241.4 31.632 241.368 31.76 241.304C31.9093 241.24 32.016 241.208 32.08 241.208L32.368 241.272C33.0933 241.123 33.552 240.984 33.744 240.856L34.256 240.6C34.4267 240.6 34.7467 240.504 35.216 240.312C35.6853 240.12 35.9627 240.013 36.048 239.992C36.048 239.992 36.2933 239.928 36.784 239.8C37.5093 239.608 37.904 239.491 37.968 239.448C37.9893 239.448 38.1067 239.395 38.32 239.288C38.5547 239.16 38.6933 239.107 38.736 239.128C38.7787 239.085 38.992 239.021 39.376 238.936C39.9307 238.851 40.24 238.755 40.304 238.648L40.56 238.552L40.912 238.488L41.232 238.296C41.36 238.275 41.5733 238.221 41.872 238.136C42.1707 238.029 42.352 237.976 42.416 237.976C43.0987 237.805 43.5787 237.72 43.856 237.72L44.272 237.816L44.464 238.072L44.432 238.648C44.3467 238.84 44.2613 238.957 44.176 239L43.984 239.096C43.856 239.181 43.696 239.277 43.504 239.384C43.312 239.491 43.1627 239.555 43.056 239.576L42.704 239.768L42.256 239.832L42.288 239.992L42.16 240.056V241.112ZM34.256 234.616C34.256 234.381 34.2667 234.136 34.288 233.88C34.3307 233.603 34.352 233.411 34.352 233.304C34.3733 233.176 34.416 233.005 34.48 232.792C34.5653 232.557 34.6187 232.355 34.64 232.184C34.7467 231.949 34.8427 231.523 34.928 230.904L34.8 230.424C34.8 230.339 34.832 230.221 34.896 230.072L35.536 229.432C35.8347 229.304 36.016 229.24 36.08 229.24H36.88C36.9653 229.24 37.0827 229.261 37.232 229.304C37.3813 229.325 37.52 229.347 37.648 229.368C37.9893 229.517 38.192 229.645 38.256 229.752L38.512 230.04C38.768 230.296 38.896 230.445 38.896 230.488L39.056 230.776C39.2053 231.096 39.28 231.608 39.28 232.312V232.856L39.216 233.048L39.12 233.592C39.12 233.741 39.0027 234.029 38.768 234.456L38.256 235.768C38.2133 235.875 38.0213 236.099 37.68 236.44C37.3387 236.76 37.072 236.995 36.88 237.144L36.592 237.272C36.5067 237.272 36.3893 237.325 36.24 237.432C36.1333 237.411 35.9947 237.389 35.824 237.368C35.6747 237.325 35.5467 237.293 35.44 237.272C35.0773 236.995 34.7787 236.749 34.544 236.536L34.352 236.248C34.352 236.163 34.3307 236.067 34.288 235.96C34.2667 235.832 34.256 235.704 34.256 235.576V234.616ZM36.336 235.256C36.6987 234.979 36.88 234.797 36.88 234.712C36.944 234.648 37.0613 234.435 37.232 234.072C37.2533 233.987 37.296 233.848 37.36 233.656C37.4453 233.464 37.488 233.347 37.488 233.304L37.648 233.208C37.648 233.123 37.6587 233.037 37.68 232.952C37.7227 232.867 37.744 232.771 37.744 232.664V231.672C37.68 231.395 37.5947 231.224 37.488 231.16L37.232 230.904L36.944 230.744L36.432 230.776L36.336 231.896L36.272 233.208L36.24 233.432L36.208 235.16L36.336 235.256ZM45.6155 241.816C45.6155 241.795 45.6155 241.763 45.6155 241.72C45.6368 241.677 45.6475 241.581 45.6475 241.432L45.8395 241.08C45.9035 241.08 46.0742 240.984 46.3515 240.792C46.6502 240.6 46.8955 240.44 47.0875 240.312C47.1942 240.205 47.5568 240.024 48.1755 239.768C48.8155 239.491 49.1995 239.32 49.3275 239.256C50.7355 238.573 52.6342 237.848 55.0235 237.08C55.1515 237.016 55.4502 236.909 55.9195 236.76C56.0688 236.76 56.2822 236.707 56.5595 236.6C57.0502 236.493 57.2955 236.44 57.2955 236.44C57.4022 236.44 57.5835 236.408 57.8395 236.344C58.0955 236.28 58.2662 236.259 58.3515 236.28H58.9595L59.5355 236.504L59.7595 236.728L59.7275 236.984V237.24L59.2475 237.592C59.1195 237.656 58.6715 237.795 57.9035 238.008C57.4768 238.093 57.1355 238.189 56.8795 238.296C56.7515 238.296 56.5382 238.392 56.2395 238.584C56.1755 238.627 56.0688 238.691 55.9195 238.776C55.7702 238.84 55.6635 238.872 55.5995 238.872L54.6075 239.192L54.1915 239.384L53.6475 239.608V241.72C53.6475 242.147 53.6368 242.509 53.6155 242.808L53.8075 242.712C53.8715 242.691 53.9675 242.659 54.0955 242.616C54.2448 242.552 54.3515 242.52 54.4155 242.52C54.4582 242.52 54.5968 242.456 54.8315 242.328C55.0662 242.2 55.1942 242.136 55.2155 242.136C55.3435 242.072 55.4928 242.019 55.6635 241.976C55.8342 241.912 55.9728 241.869 56.0795 241.848H56.6875L56.9755 241.912C57.0395 241.912 57.1142 241.955 57.1995 242.04C57.2848 242.147 57.3275 242.221 57.3275 242.264V242.968C57.3275 243.011 57.2315 243.117 57.0395 243.288C56.8688 243.437 56.7835 243.523 56.7835 243.544L56.6875 243.768C56.6875 243.789 56.6022 243.875 56.4315 244.024C56.2822 244.173 56.2075 244.269 56.2075 244.312L55.9835 244.632L55.6635 244.984C55.6208 245.091 55.4715 245.315 55.2155 245.656C54.9808 245.976 54.8422 246.168 54.7995 246.232C54.7355 246.253 54.6075 246.392 54.4155 246.648C54.2235 246.883 54.1062 247.021 54.0635 247.064L53.7755 247.448C53.7755 247.491 53.6475 247.672 53.3915 247.992C53.1355 248.291 52.9755 248.483 52.9115 248.568L53.9675 248.088C54.0102 248.088 54.0955 248.067 54.2235 248.024C54.3515 247.96 54.4475 247.917 54.5115 247.896L54.6715 247.8L55.3115 247.576C55.3328 247.555 55.4715 247.523 55.7275 247.48C55.9835 247.416 56.1648 247.373 56.2715 247.352H57.3915C57.4555 247.352 57.6262 247.427 57.9035 247.576C58.0315 247.789 58.0955 247.939 58.0955 248.024V248.344L57.9675 248.568L57.9035 248.696L57.0715 249.4L56.4955 249.944L55.8235 250.712C55.8235 250.733 55.7275 250.808 55.5355 250.936C55.3648 251.043 55.2795 251.117 55.2795 251.16L55.1195 251.48C55.1195 251.523 55.0662 251.587 54.9595 251.672C54.8528 251.757 54.7995 251.811 54.7995 251.832L54.6715 251.928C54.5435 252.099 54.3515 252.323 54.0955 252.6C53.8395 252.899 53.6368 253.123 53.4875 253.272C53.4875 253.272 53.3168 253.464 52.9755 253.848C52.8902 253.955 52.7515 254.104 52.5595 254.296C52.3675 254.509 52.2715 254.627 52.2715 254.648L53.6155 254.136C53.6795 254.115 53.8395 254.104 54.0955 254.104L54.2555 254.008L54.6075 253.88L54.9595 253.72L55.2795 253.624L55.8235 253.496L56.2075 253.4C56.2928 253.4 56.4315 253.379 56.6235 253.336C56.8368 253.293 57.0288 253.261 57.1995 253.24L57.3915 253.144C57.4555 253.144 57.5515 253.112 57.6795 253.048H57.7755C57.9248 253.027 58.0955 252.984 58.2875 252.92C58.4795 252.877 58.6182 252.845 58.7035 252.824C58.8528 252.824 59.0768 252.792 59.3755 252.728C59.6955 252.685 59.8875 252.664 59.9515 252.664H61.4875C61.5515 252.664 61.6155 252.685 61.6795 252.728C61.7648 252.771 61.8395 252.792 61.9035 252.792L61.9995 252.984V253.08L61.9035 253.272C61.8395 253.315 61.7328 253.421 61.5835 253.592C61.4555 253.656 61.2848 253.731 61.0715 253.816C60.8795 253.901 60.7195 253.976 60.5915 254.04L60.1755 254.104L59.9515 254.168C59.9088 254.189 59.8342 254.232 59.7275 254.296C59.6208 254.381 59.5462 254.424 59.5035 254.424L59.1835 254.488C58.9275 254.637 58.7568 254.712 58.6715 254.712H58.4795C58.3942 254.733 58.2875 254.755 58.1595 254.776C58.0528 254.819 57.9675 254.851 57.9035 254.872L57.4875 255.096H57.3915L56.9755 255.16L55.2155 255.768C55.1515 255.768 55.0662 255.789 54.9595 255.832C54.8528 255.875 54.7568 255.907 54.6715 255.928L54.1915 256.056C54.1062 256.077 53.9782 256.12 53.8075 256.184C53.6368 256.269 53.5302 256.312 53.4875 256.312L53.1035 256.408L52.9115 256.504L52.7835 256.6L52.5595 256.696C52.5168 256.696 52.4315 256.707 52.3035 256.728C52.1968 256.771 52.0902 256.792 51.9835 256.792L51.5035 256.888H51.4075C51.2795 256.824 51.1728 256.792 51.0875 256.792L50.9275 256.696L50.5755 256.6L50.3835 256.408C50.3835 256.344 50.3302 256.248 50.2235 256.12C50.2235 256.077 50.2022 256.013 50.1595 255.928C50.1168 255.864 50.0955 255.811 50.0955 255.768V255.16L50.2875 254.712C50.2875 254.627 50.3622 254.499 50.5115 254.328L50.7995 253.944L50.9915 253.656C51.0555 253.613 51.1942 253.453 51.4075 253.176C51.4075 253.155 51.4928 253.069 51.6635 252.92C51.8342 252.792 51.9195 252.707 51.9195 252.664L51.9835 252.536L52.2075 252.312L52.4955 251.928C52.5595 251.843 52.6555 251.747 52.7835 251.64C52.9115 251.533 53.0182 251.437 53.1035 251.352L53.1995 251.16C53.3062 250.968 53.5942 250.627 54.0635 250.136C54.5328 249.624 54.8102 249.325 54.8955 249.24L53.8075 249.848L53.6155 249.944L52.6875 250.296C52.6448 250.296 52.4955 250.371 52.2395 250.52C51.9835 250.648 51.8342 250.712 51.7915 250.712L51.5995 250.808C51.5355 250.808 51.4288 250.84 51.2795 250.904H50.7035C50.4048 250.797 50.2128 250.712 50.1275 250.648L49.9675 250.456C49.9675 250.371 49.9248 250.275 49.8395 250.168C49.8395 250.125 49.8502 250.061 49.8715 249.976C49.9142 249.891 49.9355 249.816 49.9355 249.752C50.0422 249.56 50.1382 249.443 50.2235 249.4L50.9915 248.44L51.2795 248.12L51.5035 247.832L52.3035 246.936L52.4955 246.616C52.5808 246.467 52.7195 246.275 52.9115 246.04C53.1035 245.784 53.2635 245.581 53.3915 245.432L53.6155 245.176L53.8075 244.984C53.9142 244.877 54.0528 244.707 54.2235 244.472C54.3942 244.237 54.4795 244.099 54.4795 244.056L53.9675 244.28C53.9462 244.301 53.8395 244.365 53.6475 244.472C53.4555 244.579 53.3275 244.632 53.2635 244.632L53.1035 244.696C53.0608 244.717 52.7302 244.835 52.1115 245.048L51.7915 245.176C51.7275 245.197 51.6315 245.24 51.5035 245.304C51.3968 245.347 51.3222 245.368 51.2795 245.368L51.0875 245.432C50.9808 245.517 50.5968 245.667 49.9355 245.88H49.5515L49.3275 245.784L49.1675 245.592C49.0608 245.464 49.0075 245.368 49.0075 245.304V245.112C49.0288 245.069 49.0715 245.016 49.1355 244.952C49.1995 244.867 49.2315 244.803 49.2315 244.76C49.3168 244.675 49.5088 244.568 49.8075 244.44C50.2342 244.205 50.4688 244.067 50.5115 244.024C50.6395 243.96 50.8742 243.875 51.2155 243.768C51.5568 243.661 51.7488 243.587 51.7915 243.544L52.0155 243.48L51.9515 242.232V241.88L51.9195 240.312L47.5675 242.104H47.3755L47.0235 242.232H46.4155L45.9675 242.2L45.6155 241.816ZM45.7755 239.064C45.8608 238.509 45.9035 238.157 45.9035 238.008C45.9035 237.944 45.9782 237.763 46.1275 237.464C46.2768 237.144 46.3515 236.952 46.3515 236.888L46.5115 236.504C46.5115 236.419 46.6395 236.184 46.8955 235.8C47.1088 235.416 47.2155 235.203 47.2155 235.16L47.7915 234.36L48.3995 233.4C48.5275 233.165 48.7195 232.835 48.9755 232.408C49.2528 231.96 49.4235 231.704 49.4875 231.64L50.0635 230.84L48.6875 231.512L48.3035 231.672C48.1542 231.736 47.8555 231.896 47.4075 232.152C46.9808 232.387 46.7248 232.504 46.6395 232.504H46.4475C46.3408 232.504 46.2022 232.429 46.0315 232.28V231.672C46.3088 231.288 46.5115 231.096 46.6395 231.096C46.7462 230.989 47.1195 230.765 47.7595 230.424L48.4635 230.04V229.496L48.3355 228.056V225.624C48.3568 225.517 48.3782 225.4 48.3995 225.272C48.4422 225.144 48.4742 225.048 48.4955 224.984L48.6235 224.792L49.0395 224.248H49.3275L49.6475 224.472L49.7435 224.856C49.7648 224.984 49.7968 225.123 49.8395 225.272C49.8822 225.421 49.9142 225.539 49.9355 225.624V228.216C49.9355 228.472 49.8715 228.856 49.7435 229.368C50.7675 228.899 51.3435 228.664 51.4715 228.664H52.3035L52.6875 229.048V229.656L50.3195 233.208L50.6715 233.08L51.2475 232.888C51.7808 232.76 52.3462 232.643 52.9435 232.536C53.5622 232.429 54.1275 232.376 54.6395 232.376H55.0555C55.2262 232.397 55.4288 232.429 55.6635 232.472C55.9195 232.493 56.1222 232.515 56.2715 232.536C56.6768 232.792 56.9435 232.92 57.0715 232.92L57.2955 233.112L57.4875 233.56V233.944L57.2315 234.232L56.8795 234.328L56.4315 234.104H54.7035C54.5542 234.104 54.2448 234.157 53.7755 234.264C53.5835 234.285 53.4022 234.317 53.2315 234.36C53.0608 234.403 52.9328 234.424 52.8475 234.424L51.5035 234.648L50.6715 234.872C50.6075 234.872 50.4368 234.915 50.1595 235C49.8822 235.064 49.7008 235.096 49.6155 235.096L49.2635 235.032L49.0075 235.48C48.9648 235.523 48.8262 235.779 48.5915 236.248C48.1862 236.973 47.9302 237.389 47.8235 237.496C47.7168 237.603 47.5462 237.891 47.3115 238.36C47.0555 238.872 46.8848 239.16 46.7995 239.224L46.6395 239.384L46.0635 239.608L45.7755 239.064ZM84.9933 237.56C84.9506 237.56 84.7586 237.688 84.4173 237.944C84.0759 238.2 83.8626 238.328 83.7773 238.328C83.6919 238.456 83.4359 238.595 83.0093 238.744C82.9239 238.787 82.8066 238.84 82.6573 238.904C82.5293 238.968 82.4439 239.021 82.4013 239.064C82.3159 239.149 82.0919 239.277 81.7293 239.448C81.3879 239.597 81.1853 239.672 81.1213 239.672C80.9719 239.672 80.7693 239.704 80.5133 239.768H79.8733C79.7879 239.768 79.6599 239.693 79.4893 239.544C79.3186 239.395 79.2333 239.277 79.2333 239.192L79.4253 238.84L79.5853 238.584C79.8199 238.499 80.0973 238.36 80.4173 238.168C80.7586 237.955 81.0253 237.773 81.2173 237.624C81.7293 237.368 82.0599 237.155 82.2093 236.984C82.3586 236.92 82.4866 236.856 82.5933 236.792C82.7213 236.728 82.8279 236.675 82.9133 236.632C83.2759 236.397 83.5106 236.28 83.6173 236.28C83.6599 236.28 83.8519 236.184 84.1933 235.992C84.5559 235.779 84.7693 235.672 84.8333 235.672L85.1213 235.448V234.584L85.0893 232.888C84.9186 233.016 84.2039 233.368 82.9453 233.944C82.0706 234.349 81.5479 234.605 81.3773 234.712C81.3346 234.712 81.0786 234.819 80.6093 235.032C80.1399 235.224 79.7986 235.32 79.5853 235.32H79.0093C78.9026 235.32 78.7746 235.245 78.6253 235.096C78.4759 234.947 78.4013 234.819 78.4013 234.712V234.36C78.5719 234.104 78.7106 233.976 78.8173 233.976L79.4253 233.56C79.4466 233.517 79.6919 233.389 80.1613 233.176C80.6733 232.941 80.9506 232.792 80.9933 232.728C82.0599 232.28 82.6573 232.056 82.7853 232.056L84.0973 231.576L85.1533 231.16C85.1533 231.117 85.2066 230.669 85.3133 229.816C85.3773 229.432 85.4093 229.165 85.4093 229.016L85.5373 228.664C85.5373 228.515 85.6866 228.355 85.9853 228.184H86.5933C86.8706 228.568 87.0093 228.835 87.0093 228.984C87.0093 229.133 87.0306 229.411 87.0733 229.816C87.1373 230.2 87.1693 230.467 87.1693 230.616L87.1373 238.552C87.1373 238.744 87.1266 238.989 87.1053 239.288C87.0839 239.587 87.0626 239.896 87.0413 240.216C86.9559 241.112 86.9132 241.667 86.9132 241.88L86.6893 242.328L86.5293 242.488H86.1133C86.0066 242.488 85.8039 242.285 85.5053 241.88C85.4199 241.091 85.3773 240.579 85.3773 240.344C85.3773 239.939 85.3453 239.448 85.2812 238.872L85.2173 237.464L84.9933 237.56ZM69.6973 233.784L70.0813 233.368L72.4493 232.216C74.2839 231.533 75.4146 231.128 75.8413 231H76.6413C76.8759 231.128 76.9933 231.277 76.9933 231.448L77.2493 231.8V232.376L76.2893 242.264V242.52C76.2893 242.733 76.2146 243.245 76.0653 244.056L75.8733 244.472C75.6386 244.749 75.4359 244.888 75.2653 244.888H75.1373L74.9133 244.664C74.9133 244.6 74.8706 244.44 74.7853 244.184C74.6999 243.928 74.6573 243.757 74.6573 243.672L74.6893 240.344C74.6893 239.96 74.7853 238.861 74.9773 237.048C75.1479 235.085 75.2333 233.997 75.2333 233.784V233.176L75.0413 233.208L70.9133 234.968H70.4653L70.0813 234.744C69.9533 234.744 69.8253 234.627 69.6973 234.392V233.784ZM79.8093 245.464C79.8093 245.336 79.8946 245.08 80.0653 244.696C80.3213 244.44 80.5773 244.216 80.8333 244.024L81.1533 243.256L81.5373 243.032L82.9453 243.096L83.7773 243.288C83.9266 243.288 84.1186 243.416 84.3533 243.672C84.5239 243.672 84.7266 243.875 84.9613 244.28L85.1533 244.696C85.3239 244.824 85.4519 245.219 85.5373 245.88V246.648L85.4733 248.024L85.4093 248.504C85.2386 248.909 85.1533 249.176 85.1533 249.304C85.1533 249.453 85.0893 249.656 84.9613 249.912C84.9613 249.997 84.8653 250.221 84.6733 250.584C84.5026 250.925 84.3639 251.16 84.2573 251.288C84.2573 251.373 84.1186 251.565 83.8413 251.864C83.5853 252.12 83.3933 252.248 83.2653 252.248L82.1453 252.216L81.6013 251.864L81.2493 251.288C81.1426 251.117 81.0146 250.84 80.8653 250.456L80.7693 249.688C80.6839 249.219 80.6413 248.941 80.6413 248.856L80.6093 246.296H80.4173L80.0653 246.04L79.8093 245.88V245.464ZM82.4653 246.872C82.4866 247.533 82.5079 248.163 82.5293 248.76C82.5719 249.336 82.5933 249.784 82.5933 250.104L82.7853 250.264C82.9133 250.051 83.0839 249.677 83.2973 249.144C83.5106 248.611 83.6173 248.248 83.6173 248.056C83.7239 247.117 83.7773 246.531 83.7773 246.296V245.944C83.7773 245.795 83.6706 245.475 83.4573 244.984L82.7533 244.696L82.4013 244.952V245.688L82.4653 246.872ZM99.8725 240.312C98.5712 240.845 97.7498 241.187 97.4085 241.336V244.056L97.3445 245.048L97.2805 245.944H97.5365L101.217 245.016L101.857 244.92L103.457 244.984L103.777 245.176L103.745 245.528C103.745 245.592 103.638 245.709 103.425 245.88C103.233 246.051 103.094 246.136 103.009 246.136C102.155 246.456 101.579 246.648 101.281 246.712L100.769 246.904C100.513 247.011 100.182 247.139 99.7765 247.288C99.3712 247.416 99.1258 247.48 99.0405 247.48L94.9765 249.176C94.8272 249.219 94.5072 249.325 94.0165 249.496C93.5472 249.667 93.2698 249.752 93.1845 249.752C93.0352 249.773 92.8218 249.816 92.5445 249.88C92.2672 249.944 92.0325 249.987 91.8405 250.008H91.1365L90.6885 249.624V249.464C90.6885 249.336 90.7632 249.187 90.9125 249.016L91.1685 248.728C91.2325 248.728 91.3818 248.643 91.6165 248.472C91.8725 248.28 92.0325 248.184 92.0965 248.184C92.3098 248.056 92.8325 247.832 93.6645 247.512C94.4965 247.171 95.1472 246.915 95.6165 246.744L95.5845 242.104C95.3498 242.211 95.1365 242.307 94.9445 242.392C94.7738 242.477 94.6778 242.509 94.6565 242.488L94.0165 242.808C93.9312 242.893 93.6432 242.979 93.1525 243.064L91.7765 242.968L91.6485 242.808C91.6485 242.765 91.5845 242.68 91.4565 242.552C91.3498 242.424 91.2965 242.317 91.2965 242.232L91.3285 242.104C91.3285 241.976 91.4032 241.763 91.5525 241.464C91.5525 241.4 91.6165 241.251 91.7445 241.016C91.8725 240.76 91.9365 240.611 91.9365 240.568L92.1285 240.44C92.2778 240.291 92.5338 239.981 92.8965 239.512L93.6005 238.648L94.2085 238.008L94.6565 237.464C94.6565 237.421 94.7525 237.293 94.9445 237.08C95.1365 236.845 95.2858 236.653 95.3925 236.504C95.8832 235.928 96.1285 235.608 96.1285 235.544L92.3205 237.688L91.7445 237.848L91.3605 237.816C91.2325 237.816 91.0832 237.752 90.9125 237.624C90.6352 237.389 90.4965 237.208 90.4965 237.08L90.5925 236.44L90.8165 236.12C90.9232 236.056 91.0938 235.885 91.3285 235.608C91.5632 235.309 91.7125 235.128 91.7765 235.064L92.1605 234.584L92.3525 234.456C92.4165 234.328 92.5658 234.104 92.8005 233.784C93.0565 233.464 93.1845 233.272 93.1845 233.208L93.3765 233.048L93.8245 232.408C93.8245 232.344 93.8992 232.205 94.0485 231.992C94.2192 231.779 94.3045 231.651 94.3045 231.608C94.3898 231.48 94.5712 231.245 94.8485 230.904C95.1258 230.563 95.2645 230.349 95.2645 230.264L94.1445 230.872L93.4085 231.16C93.1952 231.288 92.7792 231.459 92.1605 231.672L91.4245 231.64L91.1045 231.48L91.1685 230.776L91.3605 230.584C91.5098 230.456 91.7125 230.317 91.9685 230.168C92.2458 229.997 92.4165 229.923 92.4805 229.944C92.5445 229.901 92.6512 229.848 92.8005 229.784C92.9712 229.72 93.1098 229.667 93.2165 229.624C93.7285 229.453 94.0272 229.325 94.1125 229.24C94.3472 229.133 94.6458 229.016 95.0085 228.888C95.3925 228.739 95.6165 228.664 95.6805 228.664C96.1712 228.557 96.4698 228.515 96.5765 228.536H96.7685L97.0885 228.728L97.3765 229.112V229.24C97.3552 229.539 97.2592 229.837 97.0885 230.136C96.9392 230.435 96.8432 230.648 96.8005 230.776C96.8005 230.819 96.6725 231 96.4165 231.32C96.1605 231.619 96.0325 231.811 96.0325 231.896L95.6165 232.504C95.6165 232.568 95.4138 232.867 95.0085 233.4C94.5178 234.061 94.2725 234.424 94.2725 234.488L94.1125 234.776L93.8245 235.16C94.1018 235.053 94.5392 234.84 95.1365 234.52C96.2672 233.944 96.8858 233.645 96.9925 233.624C97.0352 233.624 97.1632 233.571 97.3765 233.464C97.6112 233.357 97.7605 233.315 97.8245 233.336C97.9098 233.336 98.0378 233.315 98.2085 233.272C98.3792 233.208 98.4858 233.187 98.5285 233.208H99.1045C99.1898 233.251 99.2858 233.336 99.3925 233.464C99.5205 233.592 99.5738 233.688 99.5525 233.752V234.328L99.2005 234.776L98.1125 235.896L97.6965 236.376L97.1205 237.048C96.3525 238.008 95.8832 238.541 95.7125 238.648C95.5845 238.84 95.3818 239.107 95.1045 239.448C94.8272 239.789 94.6565 239.992 94.5925 240.056L93.9205 241.016C93.9845 241.016 94.1765 240.92 94.4965 240.728C94.8165 240.536 94.9978 240.44 95.0405 240.44C95.1258 240.44 95.2752 240.376 95.4885 240.248C95.7232 240.12 95.8725 240.056 95.9365 240.056C96.4912 239.779 96.8325 239.651 96.9605 239.672C97.0032 239.672 97.1632 239.619 97.4405 239.512C97.7178 239.384 97.8778 239.32 97.9205 239.32C98.7738 239.149 99.2752 239.064 99.4245 239.064H100.993L101.313 239.384V239.576L101.057 239.832L99.8725 240.312ZM115.361 239.768C115.532 239.427 115.617 239.192 115.617 239.064C115.66 238.957 115.831 238.595 116.129 237.976C116.428 237.357 116.577 236.995 116.577 236.888C116.577 236.803 116.663 236.6 116.833 236.28C117.004 235.939 117.132 235.715 117.217 235.608C117.303 235.373 117.687 234.573 118.369 233.208L118.849 232.248L117.889 232.728C117.825 232.728 117.665 232.824 117.409 233.016C117.175 233.187 117.015 233.272 116.929 233.272C116.609 233.379 116.108 233.667 115.425 234.136H114.913C114.764 234.136 114.615 234.104 114.465 234.04L114.305 233.88L114.337 233.56V233.336L115.297 232.472C115.361 232.365 115.873 232.045 116.833 231.512L117.761 230.968L117.985 230.808C117.985 230.723 117.975 230.573 117.953 230.36C117.932 230.125 117.932 229.965 117.953 229.88L117.921 228.984L117.889 228.152C117.847 227.171 117.825 226.648 117.825 226.584C117.847 226.307 117.879 225.987 117.921 225.624C117.985 225.261 118.039 224.984 118.081 224.792C118.081 224.685 118.145 224.568 118.273 224.44C118.401 224.312 118.519 224.248 118.625 224.248H118.817C118.924 224.248 118.999 224.301 119.041 224.408C119.191 224.429 119.351 224.92 119.521 225.88V230.04L120.225 229.752C120.289 229.752 120.439 229.688 120.673 229.56C120.929 229.432 121.079 229.368 121.121 229.368H121.505L121.665 229.4C121.751 229.4 121.857 229.475 121.985 229.624C122.135 229.752 122.199 229.859 122.177 229.944V230.296C121.9 230.808 121.708 231.117 121.601 231.224C121.601 231.309 121.473 231.501 121.217 231.8C120.983 232.099 120.865 232.269 120.865 232.312C120.695 232.675 120.353 233.261 119.841 234.072L119.617 234.616L120.321 234.52C120.513 234.499 120.737 234.477 120.993 234.456C121.249 234.413 121.452 234.392 121.601 234.392H123.297L124.961 234.456C125.047 234.456 125.175 234.499 125.345 234.584C125.537 234.648 125.655 234.68 125.697 234.68L126.049 235.064V235.32C126.049 235.341 126.028 235.395 125.985 235.48C125.964 235.544 125.857 235.608 125.665 235.672C125.239 235.779 124.972 235.832 124.865 235.832C124.78 235.811 124.577 235.821 124.257 235.864C123.959 235.907 123.745 235.939 123.617 235.96L122.657 236.056C122.551 236.035 121.996 236.088 120.993 236.216L120.097 236.312C119.948 236.333 119.681 236.387 119.297 236.472C118.913 236.557 118.689 236.589 118.625 236.568L118.241 237.144L116.673 240.248L116.385 240.6L115.969 240.728C115.905 240.771 115.82 240.792 115.713 240.792L115.521 240.728L115.361 240.504V239.768ZM115.233 243.32C115.511 242.979 115.703 242.808 115.809 242.808C115.873 242.808 116.268 242.605 116.993 242.2C117.825 241.709 118.38 241.411 118.657 241.304C119.063 241.091 119.308 240.973 119.393 240.952C121.633 239.8 123.489 239 124.961 238.552C125.047 238.552 125.249 238.499 125.569 238.392C125.889 238.285 126.081 238.232 126.145 238.232L127.041 238.136C127.361 238.136 127.596 238.264 127.745 238.52V238.904C127.639 239.139 127.521 239.256 127.393 239.256L126.721 239.576C125.676 240.045 125.068 240.333 124.897 240.44C124.833 240.525 124.556 240.707 124.065 240.984C123.575 241.24 123.233 241.4 123.041 241.464L122.465 241.848L122.433 242.904C122.412 243.288 122.401 243.853 122.401 244.6L122.433 246.808C122.455 247.299 122.465 248.035 122.465 249.016C122.465 249.72 122.455 250.253 122.433 250.616V251.512C122.412 251.597 122.327 251.704 122.177 251.832C122.028 251.96 121.911 252.024 121.825 252.024H121.665L121.281 251.832C121.281 251.768 121.228 251.629 121.121 251.416C121.015 251.224 120.961 251.096 120.961 251.032C120.897 249.944 120.812 249.219 120.705 248.856C120.513 247.533 120.417 246.147 120.417 244.696C120.417 243.864 120.428 243.224 120.449 242.776C120.3 242.819 120.012 242.947 119.585 243.16C119.159 243.352 118.86 243.491 118.689 243.576C117.729 244.045 117.185 244.301 117.057 244.344L116.481 244.536L116.097 244.504H115.905L115.553 244.312C115.425 244.291 115.319 244.163 115.233 243.928V243.32ZM133.786 239C133.295 240.216 132.986 240.941 132.858 241.176L132.474 242.136L132.25 242.552L132.09 243.096L131.738 243.672L130.97 244.408H130.586L130.362 244.248V243.48C130.511 243.224 130.586 243.032 130.586 242.904L130.746 242.552V242.328C130.746 242.264 130.81 242.083 130.938 241.784C131.066 241.464 131.13 241.261 131.13 241.176C131.13 241.091 131.29 240.685 131.61 239.96C131.695 239.725 131.802 239.437 131.93 239.096C132.079 238.755 132.154 238.563 132.154 238.52C132.154 238.435 132.282 238.051 132.538 237.368C132.602 237.133 132.666 236.909 132.73 236.696C132.815 236.483 132.869 236.323 132.89 236.216V236.056L133.146 235.672C133.103 235.565 133.167 235.213 133.338 234.616C133.53 233.997 133.637 233.613 133.658 233.464C133.658 233.357 133.733 233.187 133.882 232.952L134.01 232.472C133.882 232.493 133.711 232.557 133.498 232.664C133.285 232.771 133.114 232.845 132.986 232.888C132.559 233.08 132.175 233.229 131.834 233.336C131.599 233.485 131.151 233.613 130.49 233.72L129.274 233.688L128.89 233.304V232.952L129.274 232.536C129.743 232.365 130.319 232.152 131.002 231.896C131.685 231.619 132.261 231.384 132.73 231.192C132.794 231.192 132.997 231.107 133.338 230.936C133.445 230.893 133.583 230.84 133.754 230.776C133.925 230.691 134.031 230.648 134.074 230.648C134.138 230.648 134.298 230.584 134.554 230.456C134.81 230.328 134.959 230.264 135.002 230.264C135.13 230.264 135.322 230.2 135.578 230.072H136.186L136.506 230.264L136.698 230.648V230.84C136.698 230.883 136.613 231.096 136.442 231.48C136.271 231.864 136.186 232.099 136.186 232.184L135.962 232.728C135.706 233.219 135.578 233.539 135.578 233.688C135.471 233.901 135.343 234.307 135.194 234.904C135.13 235.096 135.066 235.299 135.002 235.512C134.938 235.704 134.874 235.875 134.81 236.024L135.002 236.568V236.792C135.002 236.835 135.045 236.963 135.13 237.176C135.215 237.368 135.258 237.496 135.258 237.56C135.258 237.816 135.386 238.328 135.642 239.096L136.25 240.984C136.335 241.155 136.41 241.368 136.474 241.624C136.559 241.859 136.634 242.072 136.698 242.264C136.847 242.627 136.975 243 137.082 243.384L137.274 244.12C137.274 244.163 137.338 244.376 137.466 244.76C137.594 245.144 137.658 245.368 137.658 245.432V246.008L137.274 246.392H137.018C136.911 246.392 136.773 246.275 136.602 246.04C136.431 245.805 136.325 245.667 136.282 245.624C136.005 245.24 135.866 244.995 135.866 244.888L135.77 244.696L135.61 244.28C135.482 244.067 135.301 243.619 135.066 242.936C135.066 242.893 135.023 242.787 134.938 242.616C134.874 242.424 134.842 242.285 134.842 242.2L134.714 241.848C134.714 241.805 134.639 241.635 134.49 241.336C134.362 241.016 134.298 240.771 134.298 240.6L133.786 239ZM137.146 237.624L137.882 236.856L138.33 236.664C138.373 236.664 138.522 236.568 138.778 236.376C139.034 236.184 139.194 236.088 139.258 236.088L144.41 233.624L144.666 233.432V233.08L144.762 230.584C144.762 230.328 144.922 229.912 145.242 229.336L145.53 229.144L146.106 229.112L146.266 229.304L146.522 229.848V230.424L146.554 232.504V233.592C146.511 234.296 146.501 234.797 146.522 235.096V235.608C146.543 235.715 146.533 236.195 146.49 237.048C146.469 237.88 146.458 238.371 146.458 238.52L146.49 238.904C146.469 239.032 146.426 239.224 146.362 239.48C146.298 239.715 146.266 239.864 146.266 239.928L145.914 240.44H145.53C145.189 240.205 145.018 240.035 145.018 239.928L144.954 239.736C144.954 239.629 144.922 239.395 144.858 239.032C144.794 238.648 144.751 238.424 144.73 238.36L144.698 237.24V235.32L144.026 235.512C143.919 235.619 143.546 235.843 142.906 236.184L142.106 236.664C142.021 236.664 141.829 236.76 141.53 236.952C141.189 237.144 140.997 237.24 140.954 237.24C140.89 237.325 140.431 237.581 139.578 238.008C139.151 238.2 138.906 238.317 138.842 238.36L138.49 238.584L137.722 238.616H137.53C137.402 238.616 137.274 238.488 137.146 238.232V237.624ZM139.162 245.464C139.098 245.357 139.098 245.272 139.162 245.208V245.112L139.29 244.664L139.93 244.248C140.25 244.077 140.474 243.971 140.602 243.928C141.477 243.437 142.191 243.107 142.746 242.936C142.789 242.936 142.917 242.883 143.13 242.776C143.343 242.669 143.503 242.605 143.61 242.584C143.674 242.584 143.791 242.541 143.962 242.456L144.09 242.232C144.325 242.147 144.474 242.104 144.538 242.104H144.954L145.242 242.456C145.242 242.499 145.263 242.563 145.306 242.648C145.37 242.712 145.402 242.765 145.402 242.808L145.466 243.992V244.408L145.53 245.08L145.498 245.464L145.562 245.656V247.096L145.53 247.928V248.344L145.466 249.464V249.688L145.402 250.808C145.381 250.936 145.349 251.075 145.306 251.224C145.285 251.373 145.274 251.48 145.274 251.544L145.21 251.768L145.146 252.024C145.146 252.067 145.071 252.131 144.922 252.216H144.57C144.463 252.131 144.41 252.067 144.41 252.024L144.346 251.768L144.282 251.48C144.261 251.395 144.229 251.299 144.186 251.192C144.165 251.107 144.143 251.021 144.122 250.936L144.058 250.04V249.816L143.994 248.728V248.344C143.994 248.152 143.973 247.949 143.93 247.736C143.887 247.501 143.866 247.32 143.866 247.192V246.68C143.866 246.637 143.845 246.584 143.802 246.52C143.781 246.456 143.77 246.392 143.77 246.328V245.208L143.738 244.824V244.152C143.631 244.195 143.471 244.259 143.258 244.344C143.045 244.408 142.927 244.461 142.906 244.504L141.018 245.272L140.794 245.4L140.602 245.432L140.506 245.528C140.357 245.613 140.165 245.688 139.93 245.752L139.802 245.88L139.29 245.656C139.205 245.613 139.162 245.549 139.162 245.464Z" fill="black"/>
<g clip-path="url(#clip0_9828_1297)">
<path fill-rule="evenodd" clip-rule="evenodd" d="M377.891 213.45C375.033 191.899 365.114 171.902 349.685 156.586C340.541 149.784 330.797 143.827 320.574 138.788C319.29 138.364 317.896 138.421 316.651 138.948C315.406 139.475 314.394 140.436 313.804 141.653C313.214 142.869 313.086 144.259 313.444 145.563C313.801 146.867 314.62 147.997 315.748 148.743C324.845 153.594 333.523 159.194 341.691 165.485C355.561 180.535 363.541 200.082 364.165 220.539C351.66 221.368 339.113 221.368 326.608 220.539C325.42 209.207 322.679 198.092 318.463 187.507C329.172 187.507 338.825 187.507 346.367 186.3C347.671 186.083 348.855 185.411 349.71 184.403C350.564 183.395 351.033 182.116 351.033 180.795C351.033 179.473 350.564 178.194 349.71 177.186C348.855 176.178 347.671 175.506 346.367 175.289C337.468 175.289 325.703 173.178 312.731 171.669L307.301 156.586C306.921 155.346 306.064 154.307 304.918 153.699C303.773 153.091 302.433 152.963 301.192 153.343C299.952 153.723 298.914 154.58 298.306 155.726C297.698 156.871 297.569 158.212 297.95 159.452L300.212 170.161C287.689 168.813 275.098 168.209 262.504 168.351C267.486 158.339 275.233 149.964 284.827 144.218C285.732 143.821 286.476 143.13 286.939 142.257H291.313C292.593 142.397 293.876 142.022 294.88 141.216C295.885 140.41 296.527 139.238 296.667 137.958C296.807 136.678 296.433 135.395 295.627 134.39C294.821 133.386 293.649 132.743 292.369 132.603C244.253 126.268 208.354 154.625 189.5 200.327C182.193 218.738 181.316 239.076 187.01 258.047C192.704 277.018 204.636 293.512 220.874 304.855C236.478 316.048 254.986 322.489 274.167 323.401C293.349 324.314 312.385 319.659 328.981 309.998C345.577 300.337 359.025 286.082 367.703 268.951C376.381 251.821 379.919 232.546 377.891 213.45ZM363.713 232.455C362.504 241.621 359.696 250.504 355.417 258.7C345.302 262.1 334.714 263.882 324.044 263.979C325.995 255.308 327.107 246.468 327.362 237.583C339.572 236.613 351.711 234.901 363.713 232.455ZM200.36 229.438C209.109 231.248 220.421 233.058 233.091 234.717C232.754 244.464 233.77 254.21 236.108 263.677C226.002 263.677 216.5 262.32 207.45 261.113C202.725 251.226 200.301 240.397 200.36 229.438ZM251.191 237.583C270.426 238.865 289.725 238.865 308.96 237.583C308.966 246.419 308.311 255.242 306.999 263.979H253.001C251.626 255.251 251.02 246.418 251.191 237.583ZM303.832 189.166C306.281 199.819 307.745 210.674 308.206 221.595C279.397 220.388 258.884 220.388 252.247 220.388C253.119 209.491 254.681 198.659 256.923 187.959C276.682 188.261 290.559 188.412 303.832 188.412V189.166ZM267.783 143.916C258.323 150.625 250.825 159.737 246.063 170.312C237.595 170.956 229.18 172.165 220.874 173.932C226.269 165.984 233.198 159.195 241.253 153.963C249.309 148.731 258.328 145.161 267.783 143.463V143.916ZM212.88 186.3C221.869 185.686 230.889 185.686 239.879 186.3C236.598 197.195 234.574 208.43 233.845 219.785H201.115C202.788 207.956 206.786 196.576 212.88 186.3ZM214.84 273.934C223.136 276.046 231.885 278.007 240.935 279.515C243.608 286.425 247.157 292.964 251.493 298.972C236.964 294.651 224.149 285.897 214.84 273.934ZM273.364 304.101C266.457 297.936 261.261 290.09 258.28 281.325C273.328 282.796 288.483 282.796 303.53 281.325C302.412 289.349 299.527 297.025 295.084 303.799C287.933 305.216 280.607 305.521 273.364 304.704V304.101ZM312.279 297.917C326.608 269.258 307.452 285.096 344.105 274.387C335.397 284.52 324.519 292.562 312.279 297.917Z" fill="black"/>
<path fill-rule="evenodd" clip-rule="evenodd" d="M199.757 402.293C197.947 404.556 198.852 408.176 188.746 408.176C178.64 408.176 181.506 399.277 173.663 399.729C171.099 399.729 170.043 402.293 170.495 404.858C173.169 410.313 177.427 414.834 182.713 417.829C185.163 418.773 187.78 419.203 190.403 419.094C193.026 418.984 195.598 418.336 197.96 417.19C200.322 416.044 202.424 414.425 204.134 412.434C205.844 410.442 207.127 408.12 207.902 405.612C207.902 404.405 208.656 404.556 208.656 403.048C208.573 401.977 208.112 400.972 207.355 400.21C206.599 399.449 205.597 398.981 204.527 398.89C203.457 398.8 202.391 399.092 201.517 399.715C200.643 400.339 200.019 401.253 199.757 402.293Z" fill="black"/>
<path fill-rule="evenodd" clip-rule="evenodd" d="M382.718 400.785C380.908 403.048 381.813 406.668 371.858 406.668C361.903 406.668 364.467 397.768 356.02 398.221C353.607 398.221 352.4 400.785 352.853 403.349C355.604 408.799 359.908 413.313 365.221 416.321C367.71 417.255 370.366 417.66 373.021 417.512C375.675 417.363 378.269 416.663 380.639 415.457C383.008 414.251 385.1 412.566 386.783 410.507C388.465 408.448 389.7 406.062 390.41 403.5V400.936C390.017 400.273 389.462 399.721 388.796 399.333C388.13 398.945 387.376 398.733 386.606 398.718C385.835 398.703 385.074 398.885 384.393 399.247C383.713 399.608 383.136 400.138 382.718 400.785Z" fill="black"/>
<path fill-rule="evenodd" clip-rule="evenodd" d="M447.727 459.007C436.929 446.309 422.149 437.643 405.795 434.421C438.375 408.779 433.699 343.921 392.371 335.927C391.107 335.765 389.828 336.081 388.783 336.811C387.739 337.541 387.004 338.634 386.721 339.877C386.439 341.12 386.629 342.423 387.255 343.534C387.882 344.644 388.899 345.481 390.108 345.882C396.631 347.924 402.377 351.905 406.58 357.294C410.784 362.683 413.246 369.225 413.639 376.048C410.034 376.542 406.365 376.23 402.896 375.135C399.427 374.039 396.245 372.188 393.578 369.713C388.299 361.417 389.656 364.132 388.299 359.155C386.941 354.177 379.55 349.652 371.858 357.043C367.936 360.965 366.428 366.546 356.774 371.372C351.711 374.358 346.04 376.162 340.183 376.652C330.982 377.557 332.943 376.652 329.323 376.652C330.01 371.1 331.793 365.74 334.568 360.884C337.344 356.027 341.057 351.77 345.491 348.36C349.926 344.95 354.993 342.455 360.4 341.02C365.806 339.585 371.444 339.238 376.986 339.999C377.612 340.164 378.266 340.193 378.905 340.084C379.543 339.975 380.15 339.73 380.686 339.365C381.221 339.001 381.672 338.526 382.008 337.973C382.344 337.419 382.558 336.8 382.634 336.157C382.71 335.514 382.648 334.862 382.45 334.245C382.253 333.629 381.926 333.061 381.49 332.582C381.055 332.103 380.522 331.722 379.927 331.467C379.332 331.211 378.689 331.086 378.042 331.1C311.373 322.955 294.028 407.723 336.261 436.683C327.69 438.842 319.465 442.193 311.826 446.638C303.802 450.683 297.123 456.968 292.599 464.732C288.074 472.495 285.899 481.405 286.335 490.38C286.335 491.58 286.812 492.731 287.66 493.58C288.509 494.428 289.66 494.905 290.86 494.905C292.06 494.905 293.211 494.428 294.06 493.58C294.908 492.731 295.385 491.58 295.385 490.38C297.234 482.308 302.088 475.243 308.96 470.621C321.13 459.694 334.791 450.552 349.534 443.471C363.86 448.051 379.302 447.733 393.427 442.566C408.112 449.381 421.648 458.438 433.549 469.414C440.476 473.979 445.347 481.069 447.124 489.173C447.124 490.373 447.6 491.524 448.449 492.373C449.297 493.222 450.448 493.698 451.648 493.698C452.849 493.698 454 493.222 454.848 492.373C455.697 491.524 456.174 490.373 456.174 489.173C457 483.833 456.674 478.379 455.217 473.175C453.76 467.972 451.206 463.141 447.727 459.007ZM356.473 426.577C348.08 423.905 340.821 418.506 335.848 411.237C330.874 403.968 328.471 395.246 329.021 386.456C337.412 389.45 346.471 390.048 355.182 388.183C363.894 386.319 371.914 382.064 378.343 375.897C382.663 380.699 388.174 384.274 394.319 386.26C400.464 388.247 407.024 388.574 413.337 387.21C410.471 418.583 389.958 435.024 356.473 426.577Z" fill="black"/>
<path fill-rule="evenodd" clip-rule="evenodd" d="M247.722 444.678C239.807 440.104 231.272 436.7 222.382 434.572C254.962 409.081 250.588 344.977 208.958 336.228C208.314 336.08 207.647 336.059 206.996 336.169C206.344 336.278 205.72 336.514 205.16 336.864C204.029 337.571 203.224 338.699 202.924 339.999C202.624 341.299 202.853 342.665 203.56 343.797C204.267 344.928 205.395 345.732 206.695 346.033C213.196 348.112 218.919 352.103 223.116 357.484C227.314 362.866 229.791 369.388 230.225 376.199C226.621 376.693 222.952 376.381 219.483 375.286C216.014 374.19 212.831 372.339 210.164 369.864C204.885 361.568 206.243 364.283 204.885 359.457C204.581 358.22 203.996 357.07 203.176 356.096C202.355 355.122 201.322 354.349 200.155 353.839C198.988 353.328 197.719 353.093 196.447 353.152C195.175 353.211 193.933 353.562 192.819 354.178C187.087 356.893 184.824 362.473 181.657 365.792C176.984 370.145 171.362 373.351 165.237 375.157C159.111 376.964 152.649 377.32 146.362 376.199C147.068 370.656 148.864 365.307 151.645 360.46C154.427 355.613 158.139 351.365 162.569 347.958C166.999 344.552 172.059 342.055 177.457 340.611C182.856 339.168 188.486 338.806 194.025 339.547C195.116 339.523 196.161 339.106 196.968 338.373C197.776 337.639 198.292 336.639 198.42 335.556C198.549 334.473 198.281 333.38 197.668 332.478C197.054 331.576 196.136 330.926 195.081 330.648C131.128 321.598 109.257 406.064 153.3 436.231C137.317 439.477 122.876 447.971 112.274 460.364C108.825 464.377 106.252 469.066 104.719 474.131C103.187 479.196 102.729 484.525 103.374 489.777C103.374 490.977 103.851 492.128 104.7 492.976C105.548 493.825 106.699 494.302 107.899 494.302C109.099 494.302 110.25 493.825 111.099 492.976C111.948 492.128 112.424 490.977 112.424 489.777C113.48 478.464 126.603 469.263 135.653 462.174C144.456 454.761 154.255 448.618 164.764 443.923C165.428 443.689 166.042 443.331 166.574 442.868C180.894 447.483 196.348 447.164 210.466 441.963C221.278 447.009 231.413 453.394 240.633 460.967C249.683 468.057 262.805 477.258 263.861 488.57C263.861 489.164 263.978 489.753 264.205 490.302C264.433 490.851 264.766 491.35 265.186 491.77C265.607 492.19 266.105 492.523 266.654 492.751C267.203 492.978 267.792 493.095 268.386 493.095C268.98 493.095 269.569 492.978 270.118 492.751C270.667 492.523 271.165 492.19 271.586 491.77C272.006 491.35 272.339 490.851 272.567 490.302C272.794 489.753 272.911 489.164 272.911 488.57C273.424 479.599 271.316 470.672 266.843 462.878C262.37 455.085 255.727 448.761 247.722 444.678ZM173.21 426.728C164.775 424.107 157.467 418.725 152.461 411.448C147.454 404.171 145.041 395.421 145.608 386.607C153.998 389.601 163.057 390.199 171.769 388.334C180.48 386.469 188.501 382.215 194.93 376.048C199.27 380.827 204.777 384.396 210.912 386.406C217.046 388.415 223.597 388.796 229.924 387.512C227.058 418.583 206.544 435.175 173.21 426.728Z" fill="black"/>
</g>
<defs>
<clipPath id="clip0_9828_1297">
<rect width="362" height="362" fill="white" transform="translate(99 132)"/>
</clipPath>
</defs>
</svg>
