<svg width="560" height="454" viewBox="0 0 560 454" fill="none" xmlns="http://www.w3.org/2000/svg" xmlns:xlink="http://www.w3.org/1999/xlink">
<rect width="560" height="454"/>
<path d="M402.984 226.28C402.405 226.28 401.901 226.047 401.472 225.58C401.061 225.095 400.856 224.301 400.856 223.2C400.856 221.987 400.781 220.913 400.632 219.98C400.483 219.047 400.315 218.197 400.128 217.432C399.96 216.667 399.801 215.929 399.652 215.22C399.521 214.511 399.456 213.755 399.456 212.952C399.456 211.589 399.708 210.404 400.212 209.396C400.716 208.369 401.519 207.576 402.62 207.016C403.721 206.456 405.168 206.176 406.96 206.176C408.267 206.176 409.452 206.428 410.516 206.932C411.599 207.436 412.457 208.164 413.092 209.116C413.745 210.049 414.072 211.197 414.072 212.56C414.072 213.587 413.857 214.557 413.428 215.472C412.999 216.387 412.401 217.199 411.636 217.908C410.871 218.617 409.984 219.177 408.976 219.588C407.987 219.999 406.913 220.204 405.756 220.204C404.953 220.204 404.244 220.083 403.628 219.84C403.012 219.579 402.527 219.243 402.172 218.832C401.817 218.421 401.64 217.983 401.64 217.516C401.64 217.087 401.761 216.76 402.004 216.536C402.265 216.312 402.573 216.2 402.928 216.2C403.171 216.2 403.385 216.247 403.572 216.34C403.777 216.415 404.029 216.499 404.328 216.592C404.645 216.667 405.065 216.704 405.588 216.704C406.503 216.704 407.324 216.508 408.052 216.116C408.78 215.705 409.349 215.183 409.76 214.548C410.189 213.913 410.404 213.251 410.404 212.56C410.404 211.944 410.236 211.44 409.9 211.048C409.583 210.637 409.163 210.339 408.64 210.152C408.117 209.947 407.557 209.844 406.96 209.844C405.691 209.844 404.729 210.115 404.076 210.656C403.441 211.179 403.124 211.944 403.124 212.952C403.124 213.736 403.199 214.52 403.348 215.304C403.497 216.069 403.665 216.881 403.852 217.74C404.039 218.599 404.207 219.551 404.356 220.596C404.505 221.623 404.58 222.789 404.58 224.096C404.58 224.731 404.477 225.253 404.272 225.664C404.067 226.075 403.637 226.28 402.984 226.28ZM418.871 226.364C418.218 226.364 417.667 226.056 417.219 225.44C416.79 224.805 416.575 223.891 416.575 222.696C416.575 221.856 416.687 220.913 416.911 219.868C417.154 218.804 417.518 217.619 418.003 216.312C418.003 215.491 417.947 214.744 417.835 214.072C417.723 213.4 417.574 212.719 417.387 212.028C417.2 211.337 416.967 210.572 416.687 209.732C416.463 209.041 416.454 208.5 416.659 208.108C416.864 207.716 417.322 207.52 418.031 207.52C418.852 207.52 419.515 207.856 420.019 208.528C420.523 209.2 420.906 210.367 421.167 212.028L420.383 212.056C421.092 210.768 421.886 209.685 422.763 208.808C423.659 207.912 424.63 207.24 425.675 206.792C426.72 206.344 427.803 206.12 428.923 206.12C429.763 206.12 430.491 206.251 431.107 206.512C431.723 206.755 432.227 207.1 432.619 207.548C433.011 207.977 433.291 208.491 433.459 209.088C433.646 209.667 433.739 210.292 433.739 210.964C433.739 211.785 433.562 212.597 433.207 213.4C432.871 214.184 432.339 214.949 431.611 215.696C430.883 216.424 429.959 217.115 428.839 217.768C427.719 218.403 426.375 218.972 424.807 219.476C425.834 220.148 427 220.783 428.307 221.38C429.632 221.959 431.014 222.453 432.451 222.864C433.272 223.088 433.823 223.331 434.103 223.592C434.383 223.835 434.523 224.133 434.523 224.488C434.523 225.067 434.318 225.524 433.907 225.86C433.515 226.177 432.927 226.336 432.143 226.336C431.658 226.336 431.004 226.224 430.183 226C429.38 225.757 428.503 225.431 427.551 225.02C426.599 224.609 425.647 224.143 424.695 223.62C423.762 223.079 422.903 222.519 422.119 221.94C421.335 221.361 420.719 220.783 420.271 220.204C420.066 219.905 419.963 219.56 419.963 219.168C419.963 218.776 420.056 218.412 420.243 218.076C420.448 217.74 420.738 217.525 421.111 217.432C422.791 216.965 424.2 216.452 425.339 215.892C426.478 215.332 427.392 214.763 428.083 214.184C428.774 213.605 429.268 213.055 429.567 212.532C429.884 211.991 430.043 211.524 430.043 211.132C430.043 210.721 429.931 210.385 429.707 210.124C429.483 209.844 429.11 209.704 428.587 209.704C428.12 209.704 427.598 209.835 427.019 210.096C426.459 210.339 425.871 210.721 425.255 211.244C424.639 211.767 424.042 212.42 423.463 213.204C422.903 213.988 422.39 214.921 421.923 216.004C421.475 217.068 421.111 218.281 420.831 219.644C420.57 220.988 420.439 222.491 420.439 224.152C420.439 224.693 420.383 225.132 420.271 225.468C420.159 225.785 419.991 226.009 419.767 226.14C419.543 226.289 419.244 226.364 418.871 226.364ZM444.551 226.28C443.281 226.28 442.133 226.075 441.107 225.664C440.08 225.253 439.193 224.675 438.447 223.928C437.7 223.163 437.121 222.267 436.711 221.24C436.319 220.213 436.123 219.093 436.123 217.88C436.123 216.723 436.291 215.659 436.627 214.688C436.963 213.699 437.392 212.821 437.915 212.056C438.437 211.272 438.988 210.609 439.567 210.068C440.164 209.527 440.715 209.116 441.219 208.836C441.723 208.537 442.124 208.388 442.423 208.388C442.759 208.388 443.039 208.435 443.263 208.528C443.487 208.621 443.701 208.827 443.907 209.144C444.261 209.629 444.345 210.068 444.159 210.46C443.991 210.852 443.692 211.197 443.263 211.496C442.553 211.981 441.937 212.532 441.415 213.148C440.911 213.764 440.509 214.455 440.211 215.22C439.931 215.985 439.791 216.872 439.791 217.88C439.791 218.832 439.977 219.681 440.351 220.428C440.743 221.156 441.293 221.725 442.003 222.136C442.712 222.547 443.561 222.752 444.551 222.752C445.577 222.752 446.511 222.537 447.351 222.108C448.191 221.66 448.863 221.053 449.367 220.288C449.871 219.504 450.123 218.608 450.123 217.6C450.123 216.667 450.001 215.743 449.759 214.828C449.516 213.913 449.171 213.073 448.723 212.308C448.275 211.543 447.743 210.927 447.127 210.46C446.529 209.993 445.867 209.76 445.139 209.76C444.859 209.76 444.653 209.863 444.523 210.068C444.392 210.273 444.327 210.553 444.327 210.908C444.327 211.3 444.224 211.608 444.019 211.832C443.832 212.037 443.571 212.14 443.235 212.14C442.861 212.14 442.497 212.037 442.143 211.832C441.807 211.608 441.527 211.291 441.303 210.88C441.097 210.451 440.995 209.928 440.995 209.312C440.995 208.752 441.135 208.229 441.415 207.744C441.713 207.259 442.143 206.867 442.703 206.568C443.263 206.251 443.944 206.092 444.747 206.092C446.128 206.092 447.379 206.409 448.499 207.044C449.619 207.679 450.58 208.537 451.383 209.62C452.185 210.703 452.801 211.935 453.231 213.316C453.66 214.679 453.875 216.107 453.875 217.6C453.875 218.832 453.632 219.971 453.147 221.016C452.68 222.061 452.017 222.985 451.159 223.788C450.319 224.572 449.339 225.188 448.219 225.636C447.099 226.065 445.876 226.28 444.551 226.28ZM462.881 226.364C462.377 226.364 461.911 226.177 461.481 225.804C461.052 225.412 460.716 224.665 460.473 223.564C460.343 222.892 460.231 222.145 460.137 221.324C460.063 220.503 460.016 219.56 459.997 218.496C459.997 217.413 460.035 216.153 460.109 214.716C460.184 213.26 460.305 211.543 460.473 209.564C460.511 209.06 460.66 208.649 460.921 208.332C461.201 208.015 461.565 207.856 462.013 207.856C462.891 207.856 463.479 208.117 463.777 208.64C464.095 209.163 464.216 210.04 464.141 211.272C464.029 213.251 463.955 214.94 463.917 216.34C463.899 217.74 463.917 218.907 463.973 219.84C464.029 220.773 464.085 221.548 464.141 222.164C464.216 222.761 464.281 223.265 464.337 223.676C464.412 224.068 464.449 224.432 464.449 224.768C464.449 225.347 464.319 225.757 464.057 226C463.796 226.243 463.404 226.364 462.881 226.364ZM466.969 209.956C465.98 209.956 465.056 209.956 464.197 209.956C463.357 209.956 462.555 209.947 461.789 209.928C461.024 209.909 460.259 209.881 459.493 209.844C458.728 209.807 457.935 209.769 457.113 209.732C456.348 209.676 455.751 209.555 455.321 209.368C454.911 209.181 454.621 208.939 454.453 208.64C454.285 208.323 454.201 207.94 454.201 207.492C454.201 207.119 454.313 206.811 454.537 206.568C454.761 206.307 455.144 206.176 455.685 206.176C456.619 206.176 457.459 206.185 458.205 206.204C458.971 206.223 459.689 206.251 460.361 206.288C461.052 206.307 461.733 206.335 462.405 206.372C463.096 206.391 463.815 206.4 464.561 206.4C465.271 206.4 465.868 206.381 466.353 206.344C466.857 206.288 467.333 206.241 467.781 206.204C468.229 206.148 468.743 206.12 469.321 206.12C469.807 206.12 470.161 206.241 470.385 206.484C470.628 206.727 470.749 207.044 470.749 207.436C470.749 208.015 470.563 208.491 470.189 208.864C469.816 209.237 469.34 209.517 468.761 209.704C468.183 209.872 467.585 209.956 466.969 209.956ZM480.513 226.196C479.169 226.196 477.984 225.981 476.957 225.552C475.949 225.123 475.1 224.525 474.409 223.76C473.737 222.995 473.233 222.108 472.897 221.1C472.561 220.073 472.393 218.972 472.393 217.796C472.393 217.087 472.449 216.34 472.561 215.556C472.692 214.753 472.869 213.951 473.093 213.148C473.336 212.345 473.606 211.58 473.905 210.852C474.166 210.161 474.521 209.611 474.969 209.2C475.436 208.789 475.968 208.584 476.565 208.584C476.901 208.584 477.181 208.64 477.405 208.752C477.629 208.864 477.788 209.041 477.881 209.284C477.974 209.508 477.974 209.797 477.881 210.152C477.657 210.731 477.405 211.421 477.125 212.224C476.845 213.027 476.602 213.904 476.397 214.856C476.21 215.808 476.108 216.788 476.089 217.796C476.089 218.729 476.266 219.56 476.621 220.288C476.976 220.997 477.48 221.557 478.133 221.968C478.805 222.379 479.589 222.584 480.485 222.584C481.344 222.584 482.072 222.528 482.669 222.416C483.285 222.304 483.808 222.183 484.237 222.052C484.666 221.903 485.03 221.781 485.329 221.688C485.628 221.576 485.889 221.52 486.113 221.52C486.58 221.52 486.916 221.641 487.121 221.884C487.345 222.108 487.457 222.435 487.457 222.864C487.457 223.499 487.186 224.068 486.645 224.572C486.122 225.076 485.338 225.477 484.293 225.776C483.266 226.056 482.006 226.196 480.513 226.196ZM475.585 218.804C475.174 218.897 474.848 218.869 474.605 218.72C474.362 218.571 474.194 218.347 474.101 218.048C474.008 217.749 473.961 217.432 473.961 217.096C473.961 216.648 474.129 216.256 474.465 215.92C474.801 215.565 475.249 215.323 475.809 215.192C476.332 215.08 476.892 214.977 477.489 214.884C478.086 214.791 478.712 214.707 479.365 214.632C480.037 214.557 480.728 214.492 481.437 214.436C482.146 214.38 482.865 214.333 483.593 214.296C484.321 214.296 484.825 214.427 485.105 214.688C485.404 214.931 485.553 215.257 485.553 215.668C485.553 216.359 485.32 216.881 484.853 217.236C484.386 217.572 483.808 217.759 483.117 217.796C482.333 217.852 481.577 217.917 480.849 217.992C480.14 218.048 479.468 218.123 478.833 218.216C478.217 218.291 477.638 218.384 477.097 218.496C476.556 218.589 476.052 218.692 475.585 218.804ZM474.773 210.6C473.952 210.6 473.326 210.423 472.897 210.068C472.486 209.695 472.281 209.256 472.281 208.752C472.281 208.472 472.356 208.201 472.505 207.94C472.654 207.679 472.972 207.483 473.457 207.352C474.67 207.072 475.968 206.848 477.349 206.68C478.749 206.493 480.093 206.353 481.381 206.26C482.669 206.167 483.77 206.12 484.685 206.12C485.693 206.12 486.412 206.288 486.841 206.624C487.27 206.941 487.485 207.389 487.485 207.968C487.485 208.435 487.345 208.836 487.065 209.172C486.785 209.489 486.346 209.648 485.749 209.648C484.405 209.648 483.154 209.695 481.997 209.788C480.858 209.881 479.822 209.993 478.889 210.124C477.974 210.255 477.162 210.367 476.453 210.46C475.762 210.553 475.202 210.6 474.773 210.6ZM497.176 226.28C495.403 226.28 493.928 225.907 492.752 225.16C491.576 224.395 490.69 223.368 490.092 222.08C489.514 220.773 489.224 219.299 489.224 217.656C489.224 216.144 489.486 214.697 490.008 213.316C490.55 211.935 491.287 210.703 492.22 209.62C493.154 208.537 494.236 207.679 495.468 207.044C496.7 206.409 498.007 206.092 499.388 206.092C500.807 206.092 501.815 206.391 502.412 206.988C503.028 207.567 503.336 208.369 503.336 209.396C503.336 209.919 503.252 210.404 503.084 210.852C502.935 211.3 502.702 211.664 502.384 211.944C502.067 212.224 501.675 212.364 501.208 212.364C500.947 212.364 500.732 212.299 500.564 212.168C500.415 212.037 500.303 211.869 500.228 211.664C500.172 211.459 500.144 211.235 500.144 210.992C500.144 210.787 500.107 210.609 500.032 210.46C499.976 210.311 499.855 210.189 499.668 210.096C499.5 210.003 499.23 209.956 498.856 209.956C497.979 209.956 497.176 210.18 496.448 210.628C495.72 211.057 495.095 211.645 494.572 212.392C494.05 213.12 493.639 213.941 493.34 214.856C493.042 215.771 492.892 216.704 492.892 217.656C492.892 219.299 493.294 220.559 494.096 221.436C494.899 222.313 495.982 222.752 497.344 222.752C498.054 222.752 498.642 222.677 499.108 222.528C499.594 222.36 499.976 222.164 500.256 221.94C500.555 221.716 500.807 221.492 501.012 221.268C501.236 221.044 501.46 220.857 501.684 220.708C501.908 220.559 502.17 220.484 502.468 220.484C502.935 220.484 503.262 220.615 503.448 220.876C503.654 221.137 503.756 221.483 503.756 221.912C503.756 222.397 503.616 222.892 503.336 223.396C503.056 223.9 502.627 224.376 502.048 224.824C501.488 225.253 500.798 225.608 499.976 225.888C499.155 226.149 498.222 226.28 497.176 226.28ZM513.823 226.364C513.319 226.364 512.852 226.177 512.423 225.804C511.993 225.412 511.657 224.665 511.415 223.564C511.284 222.892 511.172 222.145 511.079 221.324C511.004 220.503 510.957 219.56 510.939 218.496C510.939 217.413 510.976 216.153 511.051 214.716C511.125 213.26 511.247 211.543 511.415 209.564C511.452 209.06 511.601 208.649 511.863 208.332C512.143 208.015 512.507 207.856 512.955 207.856C513.832 207.856 514.42 208.117 514.719 208.64C515.036 209.163 515.157 210.04 515.083 211.272C514.971 213.251 514.896 214.94 514.859 216.34C514.84 217.74 514.859 218.907 514.915 219.84C514.971 220.773 515.027 221.548 515.083 222.164C515.157 222.761 515.223 223.265 515.279 223.676C515.353 224.068 515.391 224.432 515.391 224.768C515.391 225.347 515.26 225.757 514.999 226C514.737 226.243 514.345 226.364 513.823 226.364ZM517.911 209.956C516.921 209.956 515.997 209.956 515.139 209.956C514.299 209.956 513.496 209.947 512.731 209.928C511.965 209.909 511.2 209.881 510.435 209.844C509.669 209.807 508.876 209.769 508.055 209.732C507.289 209.676 506.692 209.555 506.263 209.368C505.852 209.181 505.563 208.939 505.395 208.64C505.227 208.323 505.143 207.94 505.143 207.492C505.143 207.119 505.255 206.811 505.479 206.568C505.703 206.307 506.085 206.176 506.627 206.176C507.56 206.176 508.4 206.185 509.147 206.204C509.912 206.223 510.631 206.251 511.303 206.288C511.993 206.307 512.675 206.335 513.347 206.372C514.037 206.391 514.756 206.4 515.503 206.4C516.212 206.4 516.809 206.381 517.295 206.344C517.799 206.288 518.275 206.241 518.723 206.204C519.171 206.148 519.684 206.12 520.263 206.12C520.748 206.12 521.103 206.241 521.327 206.484C521.569 206.727 521.691 207.044 521.691 207.436C521.691 208.015 521.504 208.491 521.131 208.864C520.757 209.237 520.281 209.517 519.703 209.704C519.124 209.872 518.527 209.956 517.911 209.956Z" fill="black"/>
<path d="M112.048 97.28C111.32 97.28 110.704 97.056 110.2 96.608C109.696 96.1413 109.304 95.5067 109.024 94.704C108.763 93.9013 108.632 92.9773 108.632 91.932C108.632 90.1027 108.66 88.3573 108.716 86.696C108.791 85.016 108.893 83.3173 109.024 81.6C109.061 81.0213 109.211 80.6107 109.472 80.368C109.752 80.1253 110.2 80.004 110.816 80.004C111.301 80.004 111.721 80.172 112.076 80.508C112.431 80.844 112.608 81.2547 112.608 81.74C112.645 82.6173 112.636 83.56 112.58 84.568C112.543 85.576 112.496 86.6493 112.44 87.788C112.384 88.9267 112.356 90.1307 112.356 91.4C112.356 92.0533 112.412 92.6227 112.524 93.108C112.655 93.5933 112.907 94.088 113.28 94.592L110.676 94.004C112.188 93.8547 113.541 93.5093 114.736 92.968C115.931 92.4267 116.948 91.7547 117.788 90.952C118.628 90.1307 119.263 89.216 119.692 88.208C120.14 87.2 120.364 86.1453 120.364 85.044C120.364 84.1853 120.205 83.4387 119.888 82.804C119.571 82.1693 119.076 81.684 118.404 81.348C117.732 81.012 116.845 80.844 115.744 80.844C114.792 80.844 113.98 80.9093 113.308 81.04C112.636 81.152 112.048 81.292 111.544 81.46C111.059 81.628 110.611 81.7773 110.2 81.908C109.808 82.02 109.416 82.076 109.024 82.076C108.501 82.076 108.053 81.9733 107.68 81.768C107.307 81.5627 107.027 81.292 106.84 80.956C106.672 80.62 106.588 80.2653 106.588 79.892C106.588 79.612 106.663 79.3413 106.812 79.08C106.961 78.8 107.223 78.604 107.596 78.492C108.044 78.3613 108.576 78.2213 109.192 78.072C109.827 77.904 110.499 77.7547 111.208 77.624C111.936 77.4747 112.683 77.3627 113.448 77.288C114.232 77.1947 114.988 77.148 115.716 77.148C117.508 77.148 119.029 77.484 120.28 78.156C121.531 78.828 122.483 79.752 123.136 80.928C123.808 82.0853 124.144 83.4107 124.144 84.904C124.144 86.304 123.911 87.6293 123.444 88.88C122.977 90.1307 122.343 91.2693 121.54 92.296C120.737 93.3227 119.813 94.2093 118.768 94.956C117.723 95.684 116.621 96.2533 115.464 96.664C114.325 97.0747 113.187 97.28 112.048 97.28ZM135.357 97.196C134.013 97.196 132.827 96.9813 131.801 96.552C130.793 96.1227 129.943 95.5253 129.253 94.76C128.581 93.9947 128.077 93.108 127.741 92.1C127.405 91.0733 127.237 89.972 127.237 88.796C127.237 88.0867 127.293 87.34 127.405 86.556C127.535 85.7533 127.713 84.9507 127.937 84.148C128.179 83.3453 128.45 82.58 128.749 81.852C129.01 81.1613 129.365 80.6107 129.813 80.2C130.279 79.7893 130.811 79.584 131.409 79.584C131.745 79.584 132.025 79.64 132.249 79.752C132.473 79.864 132.631 80.0413 132.725 80.284C132.818 80.508 132.818 80.7973 132.725 81.152C132.501 81.7307 132.249 82.4213 131.969 83.224C131.689 84.0267 131.446 84.904 131.241 85.856C131.054 86.808 130.951 87.788 130.933 88.796C130.933 89.7293 131.11 90.56 131.465 91.288C131.819 91.9973 132.323 92.5573 132.977 92.968C133.649 93.3787 134.433 93.584 135.329 93.584C136.187 93.584 136.915 93.528 137.513 93.416C138.129 93.304 138.651 93.1827 139.081 93.052C139.51 92.9027 139.874 92.7813 140.173 92.688C140.471 92.576 140.733 92.52 140.957 92.52C141.423 92.52 141.759 92.6413 141.965 92.884C142.189 93.108 142.301 93.4347 142.301 93.864C142.301 94.4987 142.03 95.068 141.489 95.572C140.966 96.076 140.182 96.4773 139.137 96.776C138.11 97.056 136.85 97.196 135.357 97.196ZM130.429 89.804C130.018 89.8973 129.691 89.8693 129.449 89.72C129.206 89.5707 129.038 89.3467 128.945 89.048C128.851 88.7493 128.805 88.432 128.805 88.096C128.805 87.648 128.973 87.256 129.309 86.92C129.645 86.5653 130.093 86.3227 130.653 86.192C131.175 86.08 131.735 85.9773 132.333 85.884C132.93 85.7907 133.555 85.7067 134.209 85.632C134.881 85.5573 135.571 85.492 136.281 85.436C136.99 85.38 137.709 85.3333 138.437 85.296C139.165 85.296 139.669 85.4267 139.949 85.688C140.247 85.9307 140.397 86.2573 140.397 86.668C140.397 87.3587 140.163 87.8813 139.697 88.236C139.23 88.572 138.651 88.7587 137.961 88.796C137.177 88.852 136.421 88.9173 135.693 88.992C134.983 89.048 134.311 89.1227 133.677 89.216C133.061 89.2907 132.482 89.384 131.941 89.496C131.399 89.5893 130.895 89.692 130.429 89.804ZM129.617 81.6C128.795 81.6 128.17 81.4227 127.741 81.068C127.33 80.6947 127.125 80.256 127.125 79.752C127.125 79.472 127.199 79.2013 127.349 78.94C127.498 78.6787 127.815 78.4827 128.301 78.352C129.514 78.072 130.811 77.848 132.193 77.68C133.593 77.4933 134.937 77.3533 136.225 77.26C137.513 77.1667 138.614 77.12 139.529 77.12C140.537 77.12 141.255 77.288 141.685 77.624C142.114 77.9413 142.329 78.3893 142.329 78.968C142.329 79.4347 142.189 79.836 141.909 80.172C141.629 80.4893 141.19 80.648 140.593 80.648C139.249 80.648 137.998 80.6947 136.841 80.788C135.702 80.8813 134.666 80.9933 133.733 81.124C132.818 81.2547 132.006 81.3667 131.297 81.46C130.606 81.5533 130.046 81.6 129.617 81.6ZM152.561 97.364C152.057 97.364 151.59 97.1773 151.161 96.804C150.732 96.412 150.396 95.6653 150.153 94.564C150.022 93.892 149.91 93.1453 149.817 92.324C149.742 91.5027 149.696 90.56 149.677 89.496C149.677 88.4133 149.714 87.1533 149.789 85.716C149.864 84.26 149.985 82.5427 150.153 80.564C150.19 80.06 150.34 79.6493 150.601 79.332C150.881 79.0147 151.245 78.856 151.693 78.856C152.57 78.856 153.158 79.1173 153.457 79.64C153.774 80.1627 153.896 81.04 153.821 82.272C153.709 84.2507 153.634 85.94 153.597 87.34C153.578 88.74 153.597 89.9067 153.653 90.84C153.709 91.7733 153.765 92.548 153.821 93.164C153.896 93.7613 153.961 94.2653 154.017 94.676C154.092 95.068 154.129 95.432 154.129 95.768C154.129 96.3467 153.998 96.7573 153.737 97C153.476 97.2427 153.084 97.364 152.561 97.364ZM156.649 80.956C155.66 80.956 154.736 80.956 153.877 80.956C153.037 80.956 152.234 80.9467 151.469 80.928C150.704 80.9093 149.938 80.8813 149.173 80.844C148.408 80.8067 147.614 80.7693 146.793 80.732C146.028 80.676 145.43 80.5547 145.001 80.368C144.59 80.1813 144.301 79.9387 144.133 79.64C143.965 79.3227 143.881 78.94 143.881 78.492C143.881 78.1187 143.993 77.8107 144.217 77.568C144.441 77.3067 144.824 77.176 145.365 77.176C146.298 77.176 147.138 77.1853 147.885 77.204C148.65 77.2227 149.369 77.2507 150.041 77.288C150.732 77.3067 151.413 77.3347 152.085 77.372C152.776 77.3907 153.494 77.4 154.241 77.4C154.95 77.4 155.548 77.3813 156.033 77.344C156.537 77.288 157.013 77.2413 157.461 77.204C157.909 77.148 158.422 77.12 159.001 77.12C159.486 77.12 159.841 77.2413 160.065 77.484C160.308 77.7267 160.429 78.044 160.429 78.436C160.429 79.0147 160.242 79.4907 159.869 79.864C159.496 80.2373 159.02 80.5173 158.441 80.704C157.862 80.872 157.265 80.956 156.649 80.956ZM170.193 97.196C168.849 97.196 167.663 96.9813 166.637 96.552C165.629 96.1227 164.779 95.5253 164.089 94.76C163.417 93.9947 162.913 93.108 162.577 92.1C162.241 91.0733 162.073 89.972 162.073 88.796C162.073 88.0867 162.129 87.34 162.241 86.556C162.371 85.7533 162.549 84.9507 162.773 84.148C163.015 83.3453 163.286 82.58 163.585 81.852C163.846 81.1613 164.201 80.6107 164.649 80.2C165.115 79.7893 165.647 79.584 166.245 79.584C166.581 79.584 166.861 79.64 167.085 79.752C167.309 79.864 167.467 80.0413 167.561 80.284C167.654 80.508 167.654 80.7973 167.561 81.152C167.337 81.7307 167.085 82.4213 166.805 83.224C166.525 84.0267 166.282 84.904 166.077 85.856C165.89 86.808 165.787 87.788 165.769 88.796C165.769 89.7293 165.946 90.56 166.301 91.288C166.655 91.9973 167.159 92.5573 167.813 92.968C168.485 93.3787 169.269 93.584 170.165 93.584C171.023 93.584 171.751 93.528 172.349 93.416C172.965 93.304 173.487 93.1827 173.917 93.052C174.346 92.9027 174.71 92.7813 175.009 92.688C175.307 92.576 175.569 92.52 175.793 92.52C176.259 92.52 176.595 92.6413 176.801 92.884C177.025 93.108 177.137 93.4347 177.137 93.864C177.137 94.4987 176.866 95.068 176.325 95.572C175.802 96.076 175.018 96.4773 173.973 96.776C172.946 97.056 171.686 97.196 170.193 97.196ZM165.265 89.804C164.854 89.8973 164.527 89.8693 164.285 89.72C164.042 89.5707 163.874 89.3467 163.781 89.048C163.687 88.7493 163.641 88.432 163.641 88.096C163.641 87.648 163.809 87.256 164.145 86.92C164.481 86.5653 164.929 86.3227 165.489 86.192C166.011 86.08 166.571 85.9773 167.169 85.884C167.766 85.7907 168.391 85.7067 169.045 85.632C169.717 85.5573 170.407 85.492 171.117 85.436C171.826 85.38 172.545 85.3333 173.273 85.296C174.001 85.296 174.505 85.4267 174.785 85.688C175.083 85.9307 175.233 86.2573 175.233 86.668C175.233 87.3587 174.999 87.8813 174.533 88.236C174.066 88.572 173.487 88.7587 172.797 88.796C172.013 88.852 171.257 88.9173 170.529 88.992C169.819 89.048 169.147 89.1227 168.513 89.216C167.897 89.2907 167.318 89.384 166.777 89.496C166.235 89.5893 165.731 89.692 165.265 89.804ZM164.453 81.6C163.631 81.6 163.006 81.4227 162.577 81.068C162.166 80.6947 161.961 80.256 161.961 79.752C161.961 79.472 162.035 79.2013 162.185 78.94C162.334 78.6787 162.651 78.4827 163.137 78.352C164.35 78.072 165.647 77.848 167.029 77.68C168.429 77.4933 169.773 77.3533 171.061 77.26C172.349 77.1667 173.45 77.12 174.365 77.12C175.373 77.12 176.091 77.288 176.521 77.624C176.95 77.9413 177.165 78.3893 177.165 78.968C177.165 79.4347 177.025 79.836 176.745 80.172C176.465 80.4893 176.026 80.648 175.429 80.648C174.085 80.648 172.834 80.6947 171.677 80.788C170.538 80.8813 169.502 80.9933 168.569 81.124C167.654 81.2547 166.842 81.3667 166.133 81.46C165.442 81.5533 164.882 81.6 164.453 81.6ZM186.856 97.28C185.083 97.28 183.608 96.9067 182.432 96.16C181.256 95.3947 180.369 94.368 179.772 93.08C179.193 91.7733 178.904 90.2987 178.904 88.656C178.904 87.144 179.165 85.6973 179.688 84.316C180.229 82.9347 180.967 81.7027 181.9 80.62C182.833 79.5373 183.916 78.6787 185.148 78.044C186.38 77.4093 187.687 77.092 189.068 77.092C190.02 77.092 190.776 77.2227 191.336 77.484C191.915 77.7453 192.335 78.128 192.596 78.632C192.876 79.136 193.016 79.724 193.016 80.396C193.016 80.9187 192.932 81.404 192.764 81.852C192.615 82.3 192.381 82.664 192.064 82.944C191.747 83.224 191.355 83.364 190.888 83.364C190.627 83.364 190.412 83.2987 190.244 83.168C190.095 83.0373 189.983 82.8693 189.908 82.664C189.852 82.4587 189.824 82.2347 189.824 81.992C189.824 81.7867 189.787 81.6093 189.712 81.46C189.656 81.3107 189.535 81.1893 189.348 81.096C189.18 81.0027 188.909 80.956 188.536 80.956C187.659 80.956 186.856 81.18 186.128 81.628C185.4 82.0573 184.775 82.6453 184.252 83.392C183.729 84.12 183.319 84.9413 183.02 85.856C182.721 86.7707 182.572 87.704 182.572 88.656C182.572 90.2987 182.973 91.5587 183.776 92.436C184.579 93.3133 185.661 93.752 187.024 93.752C187.733 93.752 188.321 93.6773 188.788 93.528C189.273 93.36 189.656 93.164 189.936 92.94C190.235 92.716 190.487 92.492 190.692 92.268C190.916 92.044 191.14 91.8573 191.364 91.708C191.588 91.5587 191.849 91.484 192.148 91.484C192.615 91.484 192.941 91.6147 193.128 91.876C193.333 92.1373 193.436 92.4827 193.436 92.912C193.436 93.3973 193.296 93.892 193.016 94.396C192.736 94.9 192.307 95.376 191.728 95.824C191.168 96.2533 190.477 96.608 189.656 96.888C188.835 97.1493 187.901 97.28 186.856 97.28ZM203.502 97.364C202.998 97.364 202.532 97.1773 202.102 96.804C201.673 96.412 201.337 95.6653 201.094 94.564C200.964 93.892 200.852 93.1453 200.758 92.324C200.684 91.5027 200.637 90.56 200.618 89.496C200.618 88.4133 200.656 87.1533 200.73 85.716C200.805 84.26 200.926 82.5427 201.094 80.564C201.132 80.06 201.281 79.6493 201.542 79.332C201.822 79.0147 202.186 78.856 202.634 78.856C203.512 78.856 204.1 79.1173 204.398 79.64C204.716 80.1627 204.837 81.04 204.762 82.272C204.65 84.2507 204.576 85.94 204.538 87.34C204.52 88.74 204.538 89.9067 204.594 90.84C204.65 91.7733 204.706 92.548 204.762 93.164C204.837 93.7613 204.902 94.2653 204.958 94.676C205.033 95.068 205.07 95.432 205.07 95.768C205.07 96.3467 204.94 96.7573 204.678 97C204.417 97.2427 204.025 97.364 203.502 97.364ZM207.59 80.956C206.601 80.956 205.677 80.956 204.818 80.956C203.978 80.956 203.176 80.9467 202.41 80.928C201.645 80.9093 200.88 80.8813 200.114 80.844C199.349 80.8067 198.556 80.7693 197.734 80.732C196.969 80.676 196.372 80.5547 195.942 80.368C195.532 80.1813 195.242 79.9387 195.074 79.64C194.906 79.3227 194.822 78.94 194.822 78.492C194.822 78.1187 194.934 77.8107 195.158 77.568C195.382 77.3067 195.765 77.176 196.306 77.176C197.24 77.176 198.08 77.1853 198.826 77.204C199.592 77.2227 200.31 77.2507 200.982 77.288C201.673 77.3067 202.354 77.3347 203.026 77.372C203.717 77.3907 204.436 77.4 205.182 77.4C205.892 77.4 206.489 77.3813 206.974 77.344C207.478 77.288 207.954 77.2413 208.402 77.204C208.85 77.148 209.364 77.12 209.942 77.12C210.428 77.12 210.782 77.2413 211.006 77.484C211.249 77.7267 211.37 78.044 211.37 78.436C211.37 79.0147 211.184 79.4907 210.81 79.864C210.437 80.2373 209.961 80.5173 209.382 80.704C208.804 80.872 208.206 80.956 207.59 80.956Z" fill="black"/>
<path d="M49.1 256.364C48.596 256.364 48.1293 256.177 47.7 255.804C47.2707 255.412 46.9347 254.665 46.692 253.564C46.5613 252.892 46.4493 252.145 46.356 251.324C46.2813 250.503 46.2347 249.56 46.216 248.496C46.216 247.413 46.2533 246.153 46.328 244.716C46.4027 243.26 46.524 241.543 46.692 239.564C46.7293 239.06 46.8787 238.649 47.14 238.332C47.42 238.015 47.784 237.856 48.232 237.856C49.1093 237.856 49.6973 238.117 49.996 238.64C50.3133 239.163 50.4347 240.04 50.36 241.272C50.248 243.251 50.1733 244.94 50.136 246.34C50.1173 247.74 50.136 248.907 50.192 249.84C50.248 250.773 50.304 251.548 50.36 252.164C50.4347 252.761 50.5 253.265 50.556 253.676C50.6307 254.068 50.668 254.432 50.668 254.768C50.668 255.347 50.5373 255.757 50.276 256C50.0147 256.243 49.6227 256.364 49.1 256.364ZM53.188 239.956C52.1987 239.956 51.2747 239.956 50.416 239.956C49.576 239.956 48.7733 239.947 48.008 239.928C47.2427 239.909 46.4773 239.881 45.712 239.844C44.9467 239.807 44.1533 239.769 43.332 239.732C42.5667 239.676 41.9693 239.555 41.54 239.368C41.1293 239.181 40.84 238.939 40.672 238.64C40.504 238.323 40.42 237.94 40.42 237.492C40.42 237.119 40.532 236.811 40.756 236.568C40.98 236.307 41.3627 236.176 41.904 236.176C42.8373 236.176 43.6773 236.185 44.424 236.204C45.1893 236.223 45.908 236.251 46.58 236.288C47.2707 236.307 47.952 236.335 48.624 236.372C49.3147 236.391 50.0333 236.4 50.78 236.4C51.4893 236.4 52.0867 236.381 52.572 236.344C53.076 236.288 53.552 236.241 54 236.204C54.448 236.148 54.9613 236.12 55.54 236.12C56.0253 236.12 56.38 236.241 56.604 236.484C56.8467 236.727 56.968 237.044 56.968 237.436C56.968 238.015 56.7813 238.491 56.408 238.864C56.0347 239.237 55.5587 239.517 54.98 239.704C54.4013 239.872 53.804 239.956 53.188 239.956ZM60.7071 256.364C60.0538 256.364 59.5031 256.056 59.0551 255.44C58.6258 254.805 58.4111 253.891 58.4111 252.696C58.4111 251.856 58.5231 250.913 58.7471 249.868C58.9898 248.804 59.3538 247.619 59.8391 246.312C59.8391 245.491 59.7831 244.744 59.6711 244.072C59.5591 243.4 59.4098 242.719 59.2231 242.028C59.0364 241.337 58.8031 240.572 58.5231 239.732C58.2991 239.041 58.2898 238.5 58.4951 238.108C58.7004 237.716 59.1578 237.52 59.8671 237.52C60.6884 237.52 61.3511 237.856 61.8551 238.528C62.3591 239.2 62.7418 240.367 63.0031 242.028L62.2191 242.056C62.9284 240.768 63.7218 239.685 64.5991 238.808C65.4951 237.912 66.4658 237.24 67.5111 236.792C68.5564 236.344 69.6391 236.12 70.7591 236.12C71.5991 236.12 72.3271 236.251 72.9431 236.512C73.5591 236.755 74.0631 237.1 74.4551 237.548C74.8471 237.977 75.1271 238.491 75.2951 239.088C75.4818 239.667 75.5751 240.292 75.5751 240.964C75.5751 241.785 75.3978 242.597 75.0431 243.4C74.7071 244.184 74.1751 244.949 73.4471 245.696C72.7191 246.424 71.7951 247.115 70.6751 247.768C69.5551 248.403 68.2111 248.972 66.6431 249.476C67.6698 250.148 68.8364 250.783 70.1431 251.38C71.4684 251.959 72.8498 252.453 74.2871 252.864C75.1084 253.088 75.6591 253.331 75.9391 253.592C76.2191 253.835 76.3591 254.133 76.3591 254.488C76.3591 255.067 76.1538 255.524 75.7431 255.86C75.3511 256.177 74.7631 256.336 73.9791 256.336C73.4938 256.336 72.8404 256.224 72.0191 256C71.2164 255.757 70.3391 255.431 69.3871 255.02C68.4351 254.609 67.4831 254.143 66.5311 253.62C65.5978 253.079 64.7391 252.519 63.9551 251.94C63.1711 251.361 62.5551 250.783 62.1071 250.204C61.9018 249.905 61.7991 249.56 61.7991 249.168C61.7991 248.776 61.8924 248.412 62.0791 248.076C62.2844 247.74 62.5738 247.525 62.9471 247.432C64.6271 246.965 66.0364 246.452 67.1751 245.892C68.3138 245.332 69.2284 244.763 69.9191 244.184C70.6098 243.605 71.1044 243.055 71.4031 242.532C71.7204 241.991 71.8791 241.524 71.8791 241.132C71.8791 240.721 71.7671 240.385 71.5431 240.124C71.3191 239.844 70.9458 239.704 70.4231 239.704C69.9564 239.704 69.4338 239.835 68.8551 240.096C68.2951 240.339 67.7071 240.721 67.0911 241.244C66.4751 241.767 65.8778 242.42 65.2991 243.204C64.7391 243.988 64.2258 244.921 63.7591 246.004C63.3111 247.068 62.9471 248.281 62.6671 249.644C62.4058 250.988 62.2751 252.491 62.2751 254.152C62.2751 254.693 62.2191 255.132 62.1071 255.468C61.9951 255.785 61.8271 256.009 61.6031 256.14C61.3791 256.289 61.0804 256.364 60.7071 256.364ZM94.7006 256.28C94.178 256.28 93.7206 256.131 93.3286 255.832C92.9366 255.515 92.5353 254.983 92.1246 254.236C91.77 253.583 91.4433 252.761 91.1446 251.772C90.846 250.783 90.594 249.737 90.3886 248.636C90.1833 247.535 90.0246 246.499 89.9126 245.528C89.782 244.333 89.6606 243.353 89.5486 242.588C89.4553 241.823 89.3526 241.244 89.2406 240.852C89.1286 240.441 88.998 240.152 88.8486 239.984C88.6993 239.816 88.5126 239.732 88.2886 239.732C87.822 239.732 87.318 240.087 86.7766 240.796C86.254 241.487 85.722 242.495 85.1806 243.82C84.6393 245.145 84.1353 246.732 83.6686 248.58C83.202 250.428 82.8193 252.491 82.5206 254.768C82.4646 255.272 82.3246 255.645 82.1006 255.888C81.8953 256.112 81.578 256.224 81.1486 256.224C80.458 256.224 79.926 255.972 79.5526 255.468C79.198 254.964 79.0206 254.096 79.0206 252.864C79.0206 251.725 79.1046 250.633 79.2726 249.588C79.4593 248.543 79.6646 247.525 79.8886 246.536C80.1313 245.528 80.346 244.529 80.5326 243.54C80.7193 242.551 80.8313 241.543 80.8686 240.516C80.8686 240.18 80.9526 239.919 81.1206 239.732C81.3073 239.527 81.5873 239.424 81.9606 239.424C82.2966 239.424 82.6326 239.517 82.9686 239.704C83.3233 239.872 83.6406 240.171 83.9206 240.6L82.4926 241.076C83.2766 239.508 84.1633 238.285 85.1526 237.408C86.1606 236.531 87.2526 236.092 88.4286 236.092C89.6606 236.092 90.6126 236.419 91.2846 237.072C91.9566 237.725 92.47 238.752 92.8246 240.152C93.1793 241.533 93.478 243.335 93.7206 245.556C93.87 246.975 94.0753 248.188 94.3366 249.196C94.598 250.204 94.8686 251.063 95.1486 251.772C95.4286 252.481 95.662 253.088 95.8486 253.592C96.0353 254.077 96.1286 254.525 96.1286 254.936C96.1286 255.832 95.6526 256.28 94.7006 256.28ZM79.6646 251.128C78.918 251.128 78.3766 250.988 78.0406 250.708C77.7046 250.409 77.5366 250.017 77.5366 249.532C77.5366 249.196 77.6393 248.916 77.8446 248.692C78.0686 248.449 78.414 248.253 78.8806 248.104C80.8593 247.451 83.1366 246.947 85.7126 246.592C88.2886 246.237 91.1446 246.06 94.2806 246.06C95.2326 246.06 95.8766 246.2 96.2126 246.48C96.5673 246.76 96.7446 247.152 96.7446 247.656C96.7446 248.253 96.4926 248.748 95.9886 249.14C95.4846 249.513 94.794 249.7 93.9166 249.7C92.2553 249.7 90.79 249.756 89.5206 249.868C88.2513 249.961 87.122 250.083 86.1326 250.232C85.162 250.363 84.294 250.503 83.5286 250.652C82.7633 250.783 82.0633 250.895 81.4286 250.988C80.8126 251.081 80.2246 251.128 79.6646 251.128ZM107.075 256.28C105.301 256.28 103.827 255.907 102.651 255.16C101.475 254.395 100.588 253.368 99.9907 252.08C99.412 250.773 99.1227 249.299 99.1227 247.656C99.1227 246.144 99.384 244.697 99.9067 243.316C100.448 241.935 101.185 240.703 102.119 239.62C103.052 238.537 104.135 237.679 105.367 237.044C106.599 236.409 107.905 236.092 109.287 236.092C110.705 236.092 111.713 236.391 112.311 236.988C112.927 237.567 113.235 238.369 113.235 239.396C113.235 239.919 113.151 240.404 112.983 240.852C112.833 241.3 112.6 241.664 112.283 241.944C111.965 242.224 111.573 242.364 111.107 242.364C110.845 242.364 110.631 242.299 110.463 242.168C110.313 242.037 110.201 241.869 110.127 241.664C110.071 241.459 110.043 241.235 110.043 240.992C110.043 240.787 110.005 240.609 109.931 240.46C109.875 240.311 109.753 240.189 109.567 240.096C109.399 240.003 109.128 239.956 108.755 239.956C107.877 239.956 107.075 240.18 106.347 240.628C105.619 241.057 104.993 241.645 104.471 242.392C103.948 243.12 103.537 243.941 103.239 244.856C102.94 245.771 102.791 246.704 102.791 247.656C102.791 249.299 103.192 250.559 103.995 251.436C104.797 252.313 105.88 252.752 107.243 252.752C107.952 252.752 108.54 252.677 109.007 252.528C109.492 252.36 109.875 252.164 110.155 251.94C110.453 251.716 110.705 251.492 110.911 251.268C111.135 251.044 111.359 250.857 111.583 250.708C111.807 250.559 112.068 250.484 112.367 250.484C112.833 250.484 113.16 250.615 113.347 250.876C113.552 251.137 113.655 251.483 113.655 251.912C113.655 252.397 113.515 252.892 113.235 253.396C112.955 253.9 112.525 254.376 111.947 254.824C111.387 255.253 110.696 255.608 109.875 255.888C109.053 256.149 108.12 256.28 107.075 256.28ZM124.482 256.196C123.138 256.196 121.952 255.981 120.926 255.552C119.918 255.123 119.068 254.525 118.378 253.76C117.706 252.995 117.202 252.108 116.866 251.1C116.53 250.073 116.362 248.972 116.362 247.796C116.362 247.087 116.418 246.34 116.53 245.556C116.66 244.753 116.838 243.951 117.062 243.148C117.304 242.345 117.575 241.58 117.874 240.852C118.135 240.161 118.49 239.611 118.938 239.2C119.404 238.789 119.936 238.584 120.534 238.584C120.87 238.584 121.15 238.64 121.374 238.752C121.598 238.864 121.756 239.041 121.85 239.284C121.943 239.508 121.943 239.797 121.85 240.152C121.626 240.731 121.374 241.421 121.094 242.224C120.814 243.027 120.571 243.904 120.366 244.856C120.179 245.808 120.076 246.788 120.058 247.796C120.058 248.729 120.235 249.56 120.59 250.288C120.944 250.997 121.448 251.557 122.102 251.968C122.774 252.379 123.558 252.584 124.454 252.584C125.312 252.584 126.04 252.528 126.638 252.416C127.254 252.304 127.776 252.183 128.206 252.052C128.635 251.903 128.999 251.781 129.298 251.688C129.596 251.576 129.858 251.52 130.082 251.52C130.548 251.52 130.884 251.641 131.09 251.884C131.314 252.108 131.426 252.435 131.426 252.864C131.426 253.499 131.155 254.068 130.614 254.572C130.091 255.076 129.307 255.477 128.262 255.776C127.235 256.056 125.975 256.196 124.482 256.196ZM119.554 248.804C119.143 248.897 118.816 248.869 118.574 248.72C118.331 248.571 118.163 248.347 118.07 248.048C117.976 247.749 117.93 247.432 117.93 247.096C117.93 246.648 118.098 246.256 118.434 245.92C118.77 245.565 119.218 245.323 119.778 245.192C120.3 245.08 120.86 244.977 121.458 244.884C122.055 244.791 122.68 244.707 123.334 244.632C124.006 244.557 124.696 244.492 125.406 244.436C126.115 244.38 126.834 244.333 127.562 244.296C128.29 244.296 128.794 244.427 129.074 244.688C129.372 244.931 129.522 245.257 129.522 245.668C129.522 246.359 129.288 246.881 128.822 247.236C128.355 247.572 127.776 247.759 127.086 247.796C126.302 247.852 125.546 247.917 124.818 247.992C124.108 248.048 123.436 248.123 122.802 248.216C122.186 248.291 121.607 248.384 121.066 248.496C120.524 248.589 120.02 248.692 119.554 248.804ZM118.742 240.6C117.92 240.6 117.295 240.423 116.866 240.068C116.455 239.695 116.25 239.256 116.25 238.752C116.25 238.472 116.324 238.201 116.474 237.94C116.623 237.679 116.94 237.483 117.426 237.352C118.639 237.072 119.936 236.848 121.318 236.68C122.718 236.493 124.062 236.353 125.35 236.26C126.638 236.167 127.739 236.12 128.654 236.12C129.662 236.12 130.38 236.288 130.81 236.624C131.239 236.941 131.454 237.389 131.454 237.968C131.454 238.435 131.314 238.836 131.034 239.172C130.754 239.489 130.315 239.648 129.718 239.648C128.374 239.648 127.123 239.695 125.966 239.788C124.827 239.881 123.791 239.993 122.858 240.124C121.943 240.255 121.131 240.367 120.422 240.46C119.731 240.553 119.171 240.6 118.742 240.6Z" fill="black"/>
<g clip-path="url(#clip0_9909_2901)">
<path fill-rule="evenodd" clip-rule="evenodd" d="M389.891 164.45C387.033 142.898 377.114 122.902 361.685 107.585C352.541 100.784 342.797 94.8264 332.574 89.7871C331.29 89.3635 329.896 89.4205 328.651 89.9475C327.406 90.4744 326.394 91.4356 325.804 92.6522C325.214 93.8689 325.086 95.2584 325.444 96.5624C325.801 97.8664 326.62 98.9963 327.748 99.7421C336.845 104.594 345.523 110.194 353.691 116.485C367.561 131.535 375.541 151.081 376.165 171.539C363.66 172.368 351.113 172.368 338.608 171.539C337.42 160.207 334.679 149.092 330.463 138.506C341.172 138.506 350.825 138.506 358.367 137.3C359.671 137.083 360.855 136.411 361.71 135.403C362.564 134.395 363.033 133.116 363.033 131.794C363.033 130.473 362.564 129.194 361.71 128.186C360.855 127.178 359.671 126.505 358.367 126.289C349.468 126.289 337.703 124.177 324.731 122.669L319.301 107.585C318.921 106.345 318.064 105.307 316.918 104.699C315.773 104.091 314.433 103.963 313.192 104.343C311.952 104.723 310.914 105.58 310.306 106.725C309.698 107.871 309.569 109.211 309.95 110.451L312.212 121.16C299.689 119.813 287.098 119.208 274.504 119.35C279.486 109.338 287.233 100.963 296.827 95.2171C297.732 94.8208 298.476 94.1297 298.939 93.2563H303.313C304.593 93.3963 305.876 93.0221 306.88 92.2159C307.885 91.4097 308.527 90.2377 308.667 88.9576C308.807 87.6774 308.433 86.3941 307.627 85.39C306.821 84.3858 305.649 83.743 304.369 83.603C256.253 77.268 220.354 105.625 201.5 151.327C194.193 169.737 193.316 190.075 199.01 209.047C204.704 228.018 216.636 244.511 232.874 255.855C248.478 267.048 266.986 273.488 286.167 274.401C305.349 275.313 324.385 270.659 340.981 260.998C357.577 251.336 371.025 237.081 379.703 219.951C388.381 202.82 391.919 183.546 389.891 164.45ZM375.713 183.455C374.504 192.621 371.696 201.504 367.417 209.7C357.302 213.1 346.714 214.882 336.044 214.979C337.995 206.307 339.107 197.468 339.362 188.583C351.572 187.613 363.711 185.9 375.713 183.455ZM212.36 180.438C221.109 182.248 232.421 184.058 245.091 185.717C244.754 195.463 245.77 205.209 248.108 214.677C238.002 214.677 228.5 213.32 219.45 212.113C214.725 202.226 212.301 191.396 212.36 180.438ZM263.191 188.583C282.426 189.865 301.725 189.865 320.96 188.583C320.966 197.418 320.311 206.241 318.999 214.979H265.001C263.626 206.25 263.02 197.418 263.191 188.583ZM315.832 140.165C318.281 150.818 319.745 161.674 320.206 172.595C291.397 171.388 270.884 171.388 264.247 171.388C265.119 160.49 266.681 149.659 268.923 138.959C288.682 139.26 302.559 139.411 315.832 139.411V140.165ZM279.783 94.9155C270.323 101.624 262.825 110.737 258.063 121.311C249.595 121.955 241.18 123.165 232.874 124.931C238.269 116.984 245.198 110.195 253.253 104.963C261.309 99.7304 270.328 96.1606 279.783 94.463V94.9155ZM224.88 137.3C233.869 136.685 242.889 136.685 251.879 137.3C248.598 148.195 246.574 159.43 245.845 170.785H213.115C214.788 158.956 218.786 147.575 224.88 137.3ZM226.84 224.934C235.136 227.045 243.885 229.006 252.935 230.515C255.608 237.425 259.157 243.964 263.493 249.972C248.964 245.651 236.149 236.897 226.84 224.934ZM285.364 255.1C278.457 248.936 273.261 241.09 270.28 232.325C285.328 233.795 300.483 233.795 315.53 232.325C314.412 240.349 311.527 248.025 307.084 254.799C299.933 256.215 292.607 256.521 285.364 255.704V255.1ZM324.279 248.916C338.608 220.258 319.452 236.095 356.105 225.386C347.397 235.519 336.519 243.561 324.279 248.916Z" fill="black"/>
<path fill-rule="evenodd" clip-rule="evenodd" d="M211.757 353.293C209.947 355.556 210.852 359.176 200.746 359.176C190.64 359.176 193.506 350.277 185.663 350.729C183.099 350.729 182.043 353.293 182.495 355.858C185.169 361.313 189.427 365.834 194.713 368.829C197.163 369.773 199.78 370.203 202.403 370.094C205.026 369.984 207.598 369.336 209.96 368.19C212.322 367.044 214.424 365.425 216.134 363.434C217.844 361.442 219.127 359.12 219.902 356.612C219.902 355.405 220.656 355.556 220.656 354.048C220.573 352.977 220.112 351.972 219.355 351.21C218.599 350.449 217.597 349.981 216.527 349.89C215.457 349.8 214.391 350.092 213.517 350.715C212.643 351.339 212.019 352.253 211.757 353.293Z" fill="black"/>
<path fill-rule="evenodd" clip-rule="evenodd" d="M394.718 351.785C392.908 354.047 393.813 357.667 383.858 357.667C373.903 357.667 376.467 348.768 368.02 349.221C365.607 349.221 364.4 351.785 364.853 354.349C367.604 359.799 371.908 364.313 377.221 367.321C379.71 368.255 382.366 368.66 385.021 368.511C387.675 368.363 390.269 367.663 392.639 366.457C395.008 365.251 397.1 363.565 398.783 361.507C400.465 359.448 401.7 357.062 402.41 354.5V351.936C402.017 351.273 401.462 350.721 400.796 350.333C400.13 349.945 399.376 349.733 398.606 349.718C397.835 349.703 397.074 349.885 396.393 350.247C395.713 350.608 395.136 351.138 394.718 351.785Z" fill="black"/>
<path fill-rule="evenodd" clip-rule="evenodd" d="M459.727 410.006C448.929 397.308 434.149 388.642 417.795 385.42C450.375 359.779 445.699 294.92 404.371 286.926C403.107 286.765 401.828 287.08 400.783 287.81C399.739 288.541 399.004 289.634 398.721 290.877C398.439 292.12 398.629 293.423 399.255 294.533C399.882 295.643 400.899 296.48 402.108 296.881C408.631 298.923 414.377 302.904 418.58 308.293C422.784 313.683 425.246 320.224 425.639 327.048C422.034 327.542 418.365 327.23 414.896 326.134C411.427 325.039 408.245 323.187 405.578 320.713C400.299 312.417 401.656 315.132 400.299 310.155C398.941 305.177 391.55 300.652 383.858 308.043C379.936 311.965 378.428 317.545 368.774 322.372C363.711 325.357 358.04 327.162 352.183 327.651C342.982 328.556 344.943 327.651 341.323 327.651C342.01 322.1 343.793 316.74 346.568 311.883C349.344 307.027 353.057 302.77 357.491 299.36C361.926 295.95 366.993 293.455 372.4 292.019C377.806 290.584 383.444 290.237 388.986 290.999C389.612 291.164 390.266 291.193 390.905 291.083C391.543 290.974 392.15 290.729 392.686 290.365C393.221 290.001 393.672 289.526 394.008 288.972C394.344 288.419 394.558 287.8 394.634 287.157C394.71 286.514 394.648 285.862 394.45 285.245C394.253 284.628 393.926 284.061 393.49 283.581C393.055 283.102 392.522 282.722 391.927 282.466C391.332 282.21 390.689 282.085 390.042 282.1C323.373 273.955 306.028 358.723 348.261 387.683C339.69 389.841 331.465 393.192 323.826 397.638C315.802 401.683 309.123 407.968 304.599 415.731C300.074 423.495 297.899 432.404 298.335 441.38C298.335 442.58 298.812 443.731 299.66 444.579C300.509 445.428 301.66 445.905 302.86 445.905C304.06 445.905 305.211 445.428 306.06 444.579C306.908 443.731 307.385 442.58 307.385 441.38C309.234 433.307 314.088 426.242 320.96 421.62C333.13 410.693 346.791 401.552 361.534 394.47C375.86 399.051 391.302 398.732 405.427 393.565C420.112 400.38 433.648 409.438 445.549 420.414C452.476 424.979 457.347 432.069 459.124 440.173C459.124 441.373 459.6 442.524 460.449 443.373C461.297 444.221 462.448 444.698 463.648 444.698C464.849 444.698 466 444.221 466.848 443.373C467.697 442.524 468.174 441.373 468.174 440.173C469 434.833 468.674 429.378 467.217 424.175C465.76 418.972 463.206 414.141 459.727 410.006ZM368.473 377.577C360.08 374.905 352.821 369.506 347.848 362.237C342.874 354.968 340.471 346.246 341.021 337.455C349.412 340.45 358.471 341.048 367.182 339.183C375.894 337.318 383.914 333.064 390.343 326.897C394.663 331.698 400.174 335.273 406.319 337.26C412.464 339.246 419.024 339.574 425.337 338.21C422.471 369.583 401.958 386.024 368.473 377.577Z" fill="black"/>
<path fill-rule="evenodd" clip-rule="evenodd" d="M259.722 395.677C251.807 391.104 243.272 387.7 234.382 385.571C266.962 360.081 262.588 295.976 220.958 287.228C220.314 287.08 219.647 287.059 218.996 287.168C218.344 287.277 217.72 287.514 217.16 287.864C216.029 288.571 215.224 289.699 214.924 290.999C214.624 292.299 214.853 293.665 215.56 294.797C216.267 295.928 217.395 296.732 218.695 297.032C225.196 299.111 230.919 303.102 235.116 308.484C239.314 313.866 241.791 320.388 242.225 327.199C238.621 327.693 234.952 327.381 231.483 326.285C228.014 325.19 224.831 323.338 222.164 320.864C216.885 312.568 218.243 315.283 216.885 310.456C216.581 309.22 215.996 308.07 215.176 307.096C214.355 306.121 213.322 305.349 212.155 304.839C210.988 304.328 209.719 304.093 208.447 304.152C207.175 304.211 205.933 304.561 204.819 305.177C199.087 307.892 196.824 313.473 193.657 316.791C188.984 321.144 183.362 324.351 177.237 326.157C171.111 327.963 164.649 328.32 158.362 327.199C159.068 321.656 160.864 316.307 163.645 311.46C166.427 306.613 170.139 302.364 174.569 298.958C178.999 295.551 184.059 293.054 189.457 291.611C194.856 290.167 200.486 289.806 206.025 290.546C207.116 290.523 208.161 290.106 208.968 289.372C209.776 288.639 210.292 287.639 210.42 286.556C210.549 285.472 210.281 284.379 209.668 283.477C209.054 282.576 208.136 281.926 207.081 281.647C143.128 272.597 121.257 357.064 165.3 387.231C149.317 390.477 134.876 398.971 124.274 411.364C120.825 415.377 118.252 420.066 116.719 425.131C115.187 430.196 114.729 435.524 115.374 440.776C115.374 441.977 115.851 443.128 116.7 443.976C117.548 444.825 118.699 445.301 119.899 445.301C121.099 445.301 122.25 444.825 123.099 443.976C123.948 443.128 124.424 441.977 124.424 440.776C125.48 429.464 138.603 420.263 147.653 413.174C156.456 405.761 166.255 399.618 176.764 394.923C177.428 394.689 178.042 394.33 178.574 393.867C192.894 398.483 208.348 398.164 222.466 392.962C233.278 398.008 243.413 404.393 252.633 411.967C261.683 419.056 274.805 428.257 275.861 439.57C275.861 440.164 275.978 440.752 276.205 441.301C276.433 441.85 276.766 442.349 277.186 442.769C277.607 443.19 278.105 443.523 278.654 443.75C279.203 443.978 279.792 444.095 280.386 444.095C280.98 444.095 281.569 443.978 282.118 443.75C282.667 443.523 283.165 443.19 283.586 442.769C284.006 442.349 284.339 441.85 284.567 441.301C284.794 440.752 284.911 440.164 284.911 439.57C285.424 430.599 283.316 421.672 278.843 413.878C274.37 406.084 267.727 399.76 259.722 395.677ZM185.21 377.728C176.775 375.107 169.467 369.725 164.461 362.448C159.454 355.17 157.041 346.421 157.608 337.606C165.998 340.601 175.057 341.199 183.769 339.334C192.48 337.469 200.501 333.215 206.93 327.048C211.27 331.827 216.777 335.396 222.912 337.405C229.046 339.415 235.597 339.796 241.924 338.511C239.058 369.583 218.544 386.175 185.21 377.728Z" fill="black"/>
</g>
<defs>
<clipPath id="clip0_9909_2901">
<rect width="362" height="362" fill="white" transform="translate(111 83)"/>
</clipPath>
</defs>
</svg>
