<svg width="120" height="120" viewBox="0 0 120 120" fill="none" xmlns="http://www.w3.org/2000/svg">
<g clip-path="url(#clip0_9909_2943)">
<path fill-rule="evenodd" clip-rule="evenodd" d="M75.3 52.6332C75.2551 52.0091 75.1319 51.3932 74.9333 50.7998C74.4 50.0665 73.1333 50.3332 73 51.5998C72.9167 52.2193 72.9167 52.8471 73 53.4665C73.9 63.4665 73.6667 64.5665 75.1 65.3665C75.6687 65.6711 76.3331 65.744 76.9543 65.5701C77.5755 65.3961 78.1055 64.9888 78.4333 64.4332C79.3242 63.0488 80.0407 61.5598 80.5667 59.9998C81.9861 62.1433 83.6656 64.1026 85.5667 65.8332C85.8566 65.9967 86.1845 66.0812 86.5173 66.0782C86.8502 66.0751 87.1764 65.9847 87.4634 65.8159C87.7503 65.6471 87.9879 65.4059 88.1522 65.1164C88.3166 64.827 88.4021 64.4994 88.4 64.1665C88.4 63.3998 88.4 65.5332 88.1 55.5665V50.8998C87.9333 50.0998 86.3 48.9665 85.8667 50.8998C85.6667 51.8665 85.2667 58.8332 85.2 59.8332C84.3224 58.6449 83.5101 57.4097 82.7667 56.1332C82.5954 55.8357 82.3656 55.576 82.0909 55.3701C81.8163 55.1641 81.5027 55.0162 81.1692 54.9351C80.8356 54.8541 80.4891 54.8416 80.1505 54.8986C79.812 54.9556 79.4887 55.0807 79.2 55.2665C78.4574 55.928 77.8564 56.7331 77.4333 57.6332C77.2667 58.0332 76.9667 59.0665 76.5667 60.1332C76.7615 57.5673 76.3267 54.9927 75.3 52.6332Z" fill="black"/>
<path fill-rule="evenodd" clip-rule="evenodd" d="M52.3001 52.6332C52.2552 52.0091 52.132 51.3932 51.9335 50.7998C51.4001 49.9998 50.0001 50.3332 50.0001 51.5998C49.9427 52.1762 49.9427 52.7568 50.0001 53.3332C50.9001 63.3332 50.6668 64.4332 52.1001 65.2332C52.6688 65.5377 53.3332 65.6107 53.9545 65.4367C54.5757 65.2628 55.1056 64.8554 55.4335 64.2998C56.3123 62.9509 57.0389 61.5088 57.6001 59.9998C59.0025 62.1464 60.6714 64.1065 62.5668 65.8332C62.8568 65.9967 63.1846 66.0812 63.5175 66.0782C63.8503 66.0751 64.1766 65.9847 64.4635 65.8159C64.7504 65.6471 64.988 65.4059 65.1524 65.1164C65.3168 64.827 65.4022 64.4994 65.4001 64.1665C65.4001 63.3998 65.4001 65.5332 65.1001 55.5665V50.8998C65.1001 50.0998 63.3001 48.9665 62.8668 50.8998C62.6668 51.8665 62.2668 58.7998 62.2001 59.8332C61.3225 58.6449 60.5102 57.4097 59.7668 56.1332C59.5956 55.8357 59.3657 55.576 59.0911 55.3701C58.8165 55.1641 58.5029 55.0162 58.1693 54.9351C57.8357 54.8541 57.4892 54.8416 57.1507 54.8986C56.8122 54.9556 56.4888 55.0807 56.2001 55.2665C55.4538 55.9169 54.8617 56.7254 54.4668 57.6332C54.2668 58.0332 53.9668 59.0665 53.5668 60.1332C53.7616 57.5673 53.3268 54.9927 52.3001 52.6332Z" fill="black"/>
<path fill-rule="evenodd" clip-rule="evenodd" d="M30.5667 52.6332C30.5667 52.3332 30.5667 51.1332 30.1667 50.7998C29.7667 50.4665 28.3667 50.3332 28.2334 51.5998C28.1501 52.2193 28.1501 52.8471 28.2334 53.4665C29.1001 63.4665 28.8667 64.5665 30.3334 65.3665C30.9003 65.6797 31.5676 65.7573 32.1913 65.5827C32.8149 65.4081 33.3449 64.9952 33.6667 64.4332C34.5793 63.0562 35.3077 61.5658 35.8334 59.9998C37.2528 62.1433 38.9323 64.1026 40.8334 65.8332C41.1224 65.9886 41.4466 66.0665 41.7747 66.0594C42.1027 66.0523 42.4233 65.9603 42.7052 65.7925C42.9872 65.6247 43.2208 65.3867 43.3835 65.1018C43.5462 64.8168 43.6323 64.4946 43.6334 64.1665C43.6334 63.4332 43.6334 65.5332 43.3667 55.5665V50.8998C43.3667 50.0998 41.5667 48.9665 41.1334 50.8998C40.9334 51.8665 40.5334 58.7998 40.4667 59.8332C38.0001 56.4998 38.6001 56.8998 38.0001 56.1332C37.8288 55.8357 37.5989 55.576 37.3243 55.3701C37.0497 55.1641 36.7361 55.0162 36.4026 54.9351C36.069 54.8541 35.7225 54.8416 35.3839 54.8986C35.0454 54.9556 34.7221 55.0807 34.4334 55.2665C33.7099 55.9376 33.1216 56.7409 32.7001 57.6332C32.5001 58.0332 32.2001 59.0665 31.8334 60.1332C32.0124 57.5681 31.5782 54.9972 30.5667 52.6332Z" fill="black"/>
<path fill-rule="evenodd" clip-rule="evenodd" d="M70.9001 38.3669C70.9001 39.0335 62.8334 37.5002 49.0001 37.7335C49.9866 35.669 51.1698 33.7043 52.5334 31.8669C53.3334 30.4669 56.6667 28.2335 56.9001 26.9335C57.1334 25.6335 53.3334 25.8002 52.2001 27.0002C48.8204 29.8102 46.388 33.5927 45.2334 37.8335C42.3334 37.8335 39.5667 38.2002 37.0001 38.5002C33.6667 39.0002 31.3667 40.8335 34.4001 41.3669C37.7334 41.1335 41.3001 41.1335 44.4001 41.3669C44.0334 43.0002 43.7334 44.7002 43.5334 46.1335C43.5102 46.4087 43.5883 46.6828 43.753 46.9044C43.9176 47.126 44.1575 47.2799 44.4276 47.3372C44.6976 47.3945 44.9793 47.3512 45.2198 47.2155C45.4602 47.0798 45.6428 46.861 45.7334 46.6002C46.2394 44.8576 46.8403 43.1439 47.5334 41.4669L71.4334 42.1669C71.4334 43.5002 71.7334 44.8335 71.9001 46.2002C71.9001 46.5008 72.0195 46.7891 72.232 47.0016C72.4445 47.2141 72.7328 47.3335 73.0334 47.3335C73.334 47.3335 73.6222 47.2141 73.8348 47.0016C74.0473 46.7891 74.1667 46.5008 74.1667 46.2002C74.1667 44.8669 74.4334 43.5669 74.5667 42.2335H87.5667C87.8673 42.2335 88.1556 42.1141 88.3681 41.9016C88.5807 41.6891 88.7001 41.4008 88.7001 41.1002C88.7001 40.7996 88.5807 40.5114 88.3681 40.2988C88.1556 40.0863 87.8673 39.9669 87.5667 39.9669C84.2334 39.9669 79.6667 39.4669 74.7334 39.0669C74.8252 36.9313 74.4492 34.8015 73.6316 32.8266C72.8139 30.8516 71.5745 29.0793 70.0001 27.6335C69.9317 27.5056 69.8364 27.394 69.7206 27.3066C69.6048 27.2192 69.4715 27.158 69.3297 27.1273C69.1879 27.0965 69.0411 27.097 68.8996 27.1287C68.758 27.1604 68.625 27.2225 68.5099 27.3107C68.3947 27.3989 68.3001 27.5111 68.2326 27.6396C68.1652 27.768 68.1265 27.9095 68.1192 28.0544C68.1119 28.1993 68.1363 28.344 68.1905 28.4786C68.2448 28.6131 68.3276 28.7342 68.4334 28.8335C69.9103 31.805 70.7504 35.052 70.9001 38.3669Z" fill="black"/>
<path fill-rule="evenodd" clip-rule="evenodd" d="M76.4001 77.6328C76.6357 75.2274 76.6357 72.8048 76.4001 70.3994C76.4001 70.1342 76.2947 69.8798 76.1072 69.6923C75.9196 69.5048 75.6653 69.3994 75.4001 69.3994C75.1349 69.3994 74.8805 69.5048 74.693 69.6923C74.5054 69.8798 74.4001 70.1342 74.4001 70.3994C74.1946 72.8654 73.7707 75.3083 73.1334 77.6994C64.0069 78.1989 54.8599 78.1989 45.7334 77.6994C43.3334 71.3327 44.3334 69.7661 42.7667 69.9994C42.6395 70.0119 42.5161 70.0495 42.4035 70.11C42.2909 70.1705 42.1914 70.2527 42.1108 70.3519C42.0302 70.4511 41.9701 70.5653 41.9339 70.6879C41.8977 70.8105 41.8862 70.939 41.9001 71.0661C41.9245 73.2315 42.1027 75.3925 42.4334 77.5327C36.2667 77.0994 32.1334 76.2661 29.9001 76.2661C27.6667 76.2661 29.6001 79.2327 32.5667 79.1661C35.9001 79.8327 39.4667 80.4661 43.1001 80.9328C43.9818 84.2117 45.487 87.29 47.5334 89.9994C48.9334 91.8994 52.2667 93.6661 52.6667 91.2994C50.3178 88.2601 48.4308 84.8903 47.0667 81.2994C55.332 82.1853 63.6682 82.1853 71.9334 81.2994C69.6001 86.9661 69.6001 87.7327 68.6001 89.6327V89.9994C68.6001 93.0994 71.3001 92.2327 72.9001 88.6327C74.2359 86.1907 75.2659 83.5933 75.9667 80.8994C79.3001 80.4994 81.7001 80.1327 84.0334 79.6327C88.1001 79.0327 89.6001 76.2994 87.1001 76.2994C83.5723 77.0141 79.9953 77.4598 76.4001 77.6328Z" fill="black"/>
<path fill-rule="evenodd" clip-rule="evenodd" d="M99.6668 54.5998C98.4574 45.7553 94.369 37.5552 88.0334 31.2665C84.1892 28.4778 80.1196 26.0137 75.8668 23.8998C75.5983 23.7761 75.2921 23.7623 75.0136 23.8611C74.735 23.96 74.5061 24.1638 74.3757 24.429C74.2452 24.6943 74.2236 25 74.3153 25.281C74.4071 25.5619 74.6049 25.796 74.8668 25.9331C78.9023 28.0704 82.7495 30.5459 86.3668 33.3331C91.9888 39.3277 95.5001 46.9939 96.3668 55.1665C99.3001 79.1331 73.0334 104.4 42.8001 91.8331C29.7334 86.3998 22.6001 76.6665 23.3335 61.2331C23.9668 41.0998 42.2668 21.5998 63.9001 23.3331C64.1653 23.3641 64.432 23.2884 64.6414 23.1227C64.8508 22.9571 64.9858 22.715 65.0168 22.4498C65.0477 22.1846 64.972 21.9179 64.8064 21.7085C64.6407 21.4991 64.3987 21.3641 64.1334 21.3331C28.5668 16.6664 9.70012 57.1998 25.8335 81.8998C31.1668 90.0998 39.1668 94.3331 48.6334 97.3998C75.0335 105.566 103.333 81.6331 99.6668 54.5998Z" fill="black"/>
</g>
<defs>
<clipPath id="clip0_9909_2943">
<rect width="80" height="80" fill="white" transform="translate(20 20)"/>
</clipPath>
</defs>
</svg>
