<svg width="120" height="120" viewBox="0 0 120 120" fill="none" xmlns="http://www.w3.org/2000/svg">
<path fill-rule="evenodd" clip-rule="evenodd" d="M61.2241 82.9502C61.6058 82.8689 61.9657 82.7072 62.2795 82.4759C62.5932 82.2446 62.8536 81.949 63.0432 81.6092C63.2328 81.2693 63.3471 80.8929 63.3785 80.5054C63.4099 80.1178 63.3577 79.7281 63.2253 79.3623C62.9994 78.8644 62.6335 78.4425 62.1717 78.1477C61.7099 77.8528 61.1722 77.6978 60.6238 77.7012C59.9387 77.6972 59.2765 77.9463 58.7652 78.4004C58.2539 78.8545 57.9297 79.4813 57.8555 80.1596C57.8644 80.5732 57.9623 80.9802 58.1427 81.3528C58.3231 81.7255 58.5817 82.0553 58.9011 82.3199C59.2204 82.5844 59.5931 82.7776 59.9938 82.8863C60.3946 82.9951 60.8142 83.0168 61.2241 82.9502Z" fill="black"/>
<path fill-rule="evenodd" clip-rule="evenodd" d="M36.3764 38.168C35.6825 38.164 35.0119 38.4167 34.4943 38.877C33.9767 39.3373 33.649 39.9725 33.5747 40.6596C33.5889 41.0671 33.6895 41.4671 33.8699 41.8331C34.0503 42.1991 34.3064 42.523 34.6214 42.7834C34.9364 43.0439 35.3032 43.2349 35.6977 43.3441C36.0921 43.4533 36.5052 43.4781 36.91 43.417C37.3005 43.3491 37.6712 43.1964 37.9958 42.9698C38.3204 42.7432 38.591 42.4483 38.7883 42.1059C38.9857 41.7635 39.105 41.382 39.1377 40.9885C39.1705 40.595 39.1159 40.1992 38.9779 39.8291C38.752 39.3312 38.3861 38.9093 37.9243 38.6145C37.4625 38.3196 36.9248 38.1646 36.3764 38.168Z" fill="black"/>
<path fill-rule="evenodd" clip-rule="evenodd" d="M45.0149 38.168C44.3247 38.1648 43.6581 38.4185 43.146 38.8795C42.6339 39.3404 42.3131 39.9753 42.2466 40.6596C42.2608 41.0671 42.3614 41.467 42.5418 41.8331C42.7222 42.1991 42.9783 42.523 43.2933 42.7834C43.6083 43.0438 43.9751 43.2349 44.3695 43.3441C44.764 43.4533 45.1771 43.4781 45.5819 43.4169C45.9693 43.3461 46.3363 43.1907 46.6563 42.9619C46.9763 42.7331 47.2415 42.4366 47.4328 42.0936C47.6242 41.7506 47.7368 41.3696 47.7628 40.9781C47.7888 40.5866 47.7274 40.1942 47.583 39.8291C47.3595 39.3363 46.9987 38.9179 46.5435 38.6235C46.0882 38.329 45.5577 38.1709 45.0149 38.168Z" fill="black"/>
<path fill-rule="evenodd" clip-rule="evenodd" d="M59.4565 74.7111C59.5969 74.6986 59.7334 74.6586 59.8582 74.5932C59.983 74.5279 60.0935 74.4386 60.1834 74.3305C60.2734 74.2224 60.3409 74.0976 60.3822 73.9634C60.4234 73.8292 60.4376 73.6881 60.4238 73.5484C60.4238 70.9571 60.7907 68.3659 60.824 65.7414C60.824 64.2132 60.824 62.6851 60.6572 61.1569C60.5245 58.8776 60.5245 56.5926 60.6572 54.3133C60.6857 54.1585 60.6833 53.9995 60.6501 53.8456C60.6169 53.6916 60.5536 53.5457 60.4638 53.4162C60.3739 53.2866 60.2594 53.1759 60.1266 53.0905C59.9939 53.005 59.8455 52.9464 59.69 52.918C59.5345 52.8897 59.375 52.8921 59.2204 52.9252C59.0659 52.9583 58.9194 53.0213 58.7893 53.1108C58.6592 53.2002 58.5481 53.3143 58.4623 53.4466C58.3765 53.5788 58.3177 53.7266 58.2892 53.8815C57.6429 56.1754 57.1966 58.5207 56.9551 60.8911V63.9142C56.9665 64.9149 57.0445 65.9137 57.1885 66.9041C57.4887 69.2296 58.0891 71.4554 58.556 73.5484C58.5271 73.8204 58.6046 74.093 58.7723 74.3095C58.94 74.5261 59.1851 74.6699 59.4565 74.7111Z" fill="black"/>
<path fill-rule="evenodd" clip-rule="evenodd" d="M45.9821 85.6071C45.6593 85.4667 45.3244 85.3555 44.9816 85.2749C44.6275 85.2253 44.2683 85.2253 43.9143 85.2749C43.7924 85.2599 43.6692 85.2599 43.5474 85.2749C43.5799 84.8214 43.5799 84.3663 43.5474 83.9128C43.3879 83.393 43.1985 82.8828 42.9804 82.3846H43.514C43.7661 82.3495 44.0127 82.2825 44.2478 82.1853C44.469 82.0947 44.6812 81.9834 44.8815 81.8531C47.2495 80.3581 47.483 80.192 47.383 79.428C47.2829 78.6639 46.8493 78.0327 43.7141 78.232C43.3925 78.2346 43.0747 78.3024 42.7803 78.4313C42.4906 78.5285 42.2198 78.6746 41.9798 78.8632C41.8089 79.0046 41.6624 79.1729 41.5462 79.3615C40.9656 78.5668 40.294 77.8421 39.545 77.2021C40.6001 76.2559 41.3245 74.9989 41.6129 73.6143C41.7712 72.6576 41.7061 71.6775 41.4227 70.7499C41.1393 69.8223 40.6452 68.9723 39.9786 68.2657C39.5747 67.9105 39.1262 67.609 38.6445 67.3687C38.7519 67.3431 38.8536 67.298 38.9447 67.2358L39.1448 67.0032V66.5714C39.379 66.3416 39.6649 66.1708 39.9786 66.0731C40.1345 66.1066 40.2957 66.108 40.4522 66.0771C40.6087 66.0461 40.7571 65.9836 40.8884 65.8933C41.0196 65.8031 41.1309 65.6869 41.2154 65.5522C41.2999 65.4174 41.3557 65.2668 41.3794 65.1096C41.6129 63.6811 39.1782 62.7177 36.9102 63.6811C36.6113 63.8333 36.3495 64.0487 36.143 64.3123C35.821 64.634 35.5907 65.0354 35.476 65.4751C35.476 65.4751 35.476 65.7741 35.476 65.9402C34.7604 65.8118 34.0351 65.7451 33.308 65.7408C32.9745 65.7408 32.6743 65.7408 32.3408 65.9402C32.0073 66.1395 32.3408 65.6412 32.3408 65.5083C32.225 65.1595 32.0311 64.8414 31.7738 64.5781C31.598 64.3849 31.396 64.2171 31.1735 64.0798C30.2062 63.6147 27.1711 62.8506 26.8709 64.5781C26.8224 64.8947 26.8998 65.2176 27.0866 65.4782C27.2735 65.7388 27.5551 65.9165 27.8715 65.9734C28.4052 66.2392 28.4052 66.8039 28.7053 67.2026C27.8002 67.7032 26.9971 68.368 26.3373 69.1626C25.6778 69.9375 25.255 70.8844 25.1191 71.8912C24.9831 72.898 25.1397 73.9225 25.5702 74.8434C25.9831 75.6397 26.5536 76.3444 27.2471 76.9154C27.9407 77.4863 28.743 77.9115 29.6059 78.1656C30.1284 78.3239 30.6642 78.4351 31.2068 78.4978C31.7177 78.531 32.2302 78.531 32.741 78.4978C32.9718 78.4184 33.1706 78.2669 33.308 78.0659C33.3895 78.3136 33.5521 78.5269 33.7699 78.6715C33.9876 78.8161 34.2478 78.8836 34.5087 78.8632C35.3406 78.8641 36.1695 78.7637 36.9769 78.5642C37.2057 78.4669 37.4285 78.356 37.6439 78.232C39.0704 79.9615 39.8903 82.1081 39.9786 84.3447C40.0016 85.3626 39.8894 86.3791 39.6451 87.3678C39.4056 88.3277 38.9993 89.2385 38.4444 90.0587C37.8231 90.943 37.0695 91.7273 36.2097 92.3842C35.2494 93.0665 34.2468 93.6879 33.208 94.2446C31.9633 93.1907 30.8442 91.998 29.8727 90.6899C29.0905 89.6678 28.4405 88.5516 27.9382 87.3678C27.3813 86.1168 27.1628 84.7424 27.3045 83.3813C27.3045 83.3813 27.3045 83.3813 27.5046 83.1487C27.537 82.9842 27.537 82.8149 27.5046 82.6504C27.4564 82.2866 27.4564 81.918 27.5046 81.5541C27.6641 81.2756 27.7081 80.946 27.6271 80.6357C27.5461 80.3254 27.3466 80.0589 27.0711 79.8931C26.7965 79.7358 26.4707 79.693 26.1646 79.7739C25.8586 79.8548 25.5969 80.0528 25.4368 80.3249C25.4368 80.5243 25.2366 80.6904 25.1366 80.8565C25.0192 80.7715 24.8967 80.6938 24.7697 80.6239C24.4728 80.5611 24.166 80.5611 23.8692 80.6239C23.56 80.5731 23.2445 80.5731 22.9353 80.6239C20.0336 81.5541 19.9002 82.4511 20.0336 83.0158C20.167 83.5806 19.8335 84.0457 23.7358 84.544C23.5529 85.5658 23.5529 86.6118 23.7358 87.6336C23.4934 87.7712 23.2693 87.9387 23.0687 88.1319C20.5672 90.4242 21.301 91.155 21.4678 91.454C21.6345 91.753 22.2349 92.0852 24.8031 91.454H25.3033C25.7561 92.1509 26.2695 92.8068 26.8376 93.4141C26.9898 93.5022 27.1348 93.6021 27.2712 93.713C26.975 93.8547 26.7133 94.0587 26.5041 94.311C26.2766 94.5475 26.0856 94.8162 25.9371 95.1083C24.4695 97.8989 24.9031 98.4305 25.4368 98.9288C25.9704 99.4271 29.4058 97.1348 29.4391 97.1348C29.6454 96.95 29.825 96.7376 29.9728 96.5036C30.1223 96.2512 30.2453 95.984 30.3396 95.7063C31.2347 96.1988 32.1723 96.6101 33.1413 96.9355C33.398 97.0481 33.689 97.0554 33.9511 96.9559C34.2133 96.8564 34.4256 96.6582 34.5421 96.404C34.5421 96.404 34.5421 96.404 34.5421 96.2379C35.6346 95.8727 36.6945 95.4171 37.7106 94.8758C37.9831 95.2421 38.2843 95.5865 38.6112 95.9056C38.8205 96.0686 39.0437 96.2132 39.2782 96.3375L40.012 96.5701C42.6469 97.168 43.0471 97.2013 43.3473 96.5701C43.6474 95.9389 44.2144 95.5734 41.6129 93.248C41.3909 93.0417 41.1445 92.8632 40.8791 92.7164L41.2127 92.4506C42.0915 91.4843 42.7714 90.3556 43.2138 89.1285C43.4927 89.2473 43.7834 89.3364 44.081 89.3943H44.9816C47.9166 89.3943 48.3168 89.3943 48.6837 88.6302C49.0506 87.8661 48.9839 87.1685 45.9821 85.6071ZM35.9763 76.1391C35.4773 76.3005 34.9633 76.4117 34.442 76.4713C34.2562 76.4839 34.0756 76.5383 33.9139 76.6304C33.7522 76.7224 33.6135 76.8498 33.5082 77.0028C33.4284 76.8136 33.2937 76.6524 33.1214 76.5399C32.9491 76.4275 32.7469 76.3689 32.5409 76.3716L31.3402 76.2055L30.3063 75.8401C29.8295 75.6347 29.4001 75.3342 29.0444 74.9571C28.6887 74.58 28.4144 74.1343 28.2384 73.6475C28.149 73.2602 28.1704 72.8557 28.3001 72.4799C28.4298 72.1041 28.6626 71.772 28.9722 71.5213C29.5199 70.9607 30.1787 70.5195 30.9066 70.2257C31.6642 69.9005 32.4833 69.7419 33.308 69.7606C34.1053 69.7523 34.9006 69.8416 35.6761 70.0264C36.3283 70.1632 36.936 70.4601 37.4438 70.8901C37.7682 71.1548 38.0271 71.4901 38.2006 71.8703C38.3741 72.2505 38.4575 72.6653 38.4444 73.0827C38.4308 73.5539 38.3167 74.0168 38.1097 74.4406C37.9027 74.8645 37.6075 75.2396 37.2437 75.5411C36.8784 75.8235 36.4581 76.0271 36.0096 76.1391H35.9763Z" fill="black"/>
<path fill-rule="evenodd" clip-rule="evenodd" d="M99.7465 30.3939C99.5464 30.1613 99.0127 29.2976 96.0443 31.1912C95.7994 31.3512 95.5753 31.5409 95.3773 31.7559C95.3904 31.6234 95.3904 31.4898 95.3773 31.3573C94.6165 30.2558 93.6411 29.3181 92.5089 28.5999C92.5089 28.5999 92.5089 28.5999 92.5089 28.4338C92.6868 28.1993 92.8326 27.9424 92.9425 27.6697C93.0573 27.3984 93.1575 27.1211 93.2427 26.8392C94.0765 23.8825 94.1432 23.5171 93.4428 23.052C92.7424 22.5869 92.0753 22.4872 89.8741 25.0453C89.6362 25.2983 89.4444 25.5905 89.3071 25.909C89.1319 26.2195 89.0081 26.556 88.9402 26.9056C88.9567 27.0269 88.9567 27.1498 88.9402 27.2711C88.5181 27.1034 88.0831 26.9701 87.6394 26.8724C87.1028 26.8949 86.5682 26.9504 86.0385 27.0385V26.507C86.0718 26.2645 86.0718 26.0186 86.0385 25.7761C86.0076 25.5241 85.9402 25.278 85.8384 25.0453C85.0379 22.3876 84.9378 22.1218 84.1707 22.0221C83.4036 21.9225 82.6698 22.0221 82.0695 25.3442C82.0185 25.6522 82.0185 25.9665 82.0695 26.2744C82.0847 26.5826 82.1524 26.8859 82.2696 27.1714C82.2696 27.404 82.5364 27.5368 82.6365 27.7362C81.6447 28.0611 80.7022 28.5194 79.8348 29.0982C79.1935 27.8376 78.1654 26.8136 76.8998 26.1748C76.0311 25.7987 75.0887 25.6214 74.1421 25.6559C73.1955 25.6904 72.2687 25.9358 71.4299 26.3741C70.992 26.6713 70.5892 27.0167 70.2292 27.404C70.2418 27.3047 70.2418 27.2042 70.2292 27.105V26.8724C70.2292 26.8724 69.8623 26.8724 69.829 26.6067C69.5288 25.4107 70.0291 24.7463 69.0285 24.3144C68.0279 23.8825 66.1602 25.8093 66.4937 28.2345C66.5722 28.5549 66.7077 28.8587 66.8939 29.1315C67.1188 29.537 67.4541 29.8709 67.8612 30.0949C68.0721 30.1104 68.2839 30.1104 68.4949 30.0949C68.1183 30.7549 67.7948 31.4436 67.5276 32.1546C67.4944 32.486 67.4944 32.8198 67.5276 33.1512H67.094C66.7198 33.1911 66.3572 33.304 66.0267 33.4834C65.7895 33.5999 65.575 33.7574 65.393 33.9485C64.6926 34.7126 63.1918 37.2706 64.7593 38.1676C65.7266 38.6327 65.5265 37.9683 67.7945 37.1045C68.0425 38.104 68.472 39.0497 69.0619 39.8951C69.6441 40.726 70.4526 41.3739 71.3921 41.7624C72.3317 42.1508 73.3631 42.2637 74.365 42.0877C75.2445 41.8968 76.0762 41.5306 76.8099 41.011C77.5436 40.4914 78.1642 39.8293 78.6341 39.0646C78.9143 38.6009 79.1489 38.1114 79.3345 37.6029C79.5291 37.1318 79.6744 36.6419 79.7681 36.1411C79.8123 35.9815 79.8172 35.8136 79.7824 35.6516C79.7475 35.4897 79.674 35.3385 79.568 35.2109C79.8325 35.1939 80.0839 35.0901 80.283 34.9158C80.4821 34.7416 80.6177 34.5066 80.6687 34.2475C80.8799 33.4446 80.9919 32.6191 81.0022 31.7892C81.0152 31.5457 81.0152 31.3017 81.0022 31.0583C82.9114 30.3473 84.9901 30.2201 86.9724 30.6929C87.9698 30.9227 88.9259 31.3036 89.8074 31.8224C90.677 32.2763 91.4478 32.8973 92.0754 33.6495C92.7965 34.465 93.3718 35.3976 93.7763 36.4069C94.1854 37.4933 94.5307 38.6026 94.8103 39.729C93.4657 40.6493 92.0227 41.4181 90.5078 42.0213C89.3456 42.4864 88.1386 42.8314 86.9057 43.0511C85.5207 43.2469 84.1086 43.0868 82.8032 42.586C82.8032 42.586 82.8032 42.586 82.8032 42.3867C82.6718 42.3543 82.5344 42.3543 82.403 42.3867C82.0132 42.2486 81.6342 42.0821 81.269 41.8884C81.1599 41.7727 81.0281 41.6806 80.8818 41.6176C80.7355 41.5546 80.5779 41.5221 80.4185 41.5221C80.2592 41.5221 80.1015 41.5546 79.9552 41.6176C79.8089 41.6806 79.6772 41.7727 79.568 41.8884C79.4561 41.9995 79.3673 42.1315 79.3067 42.2769C79.2461 42.4223 79.2149 42.5781 79.2149 42.7355C79.2149 42.8929 79.2461 43.0488 79.3067 43.1942C79.3673 43.3395 79.4561 43.4716 79.568 43.5827C79.6984 43.73 79.8437 43.8636 80.0016 43.9813C80.0016 43.9813 79.7348 43.9813 79.6347 44.3135C79.4596 44.5641 79.335 44.8462 79.2678 45.1441C79.2193 45.4411 79.2193 45.744 79.2678 46.041C79.2678 49.0974 80.2351 49.3631 80.8354 49.3631C80.8354 49.3631 81.8027 49.8282 83.2702 46.041C84.2386 46.4263 85.2639 46.6507 86.3053 46.7055C86.3757 46.9814 86.4764 47.2487 86.6055 47.5028C88.2064 50.4927 89.1069 49.9943 89.3738 49.8947C89.6406 49.795 90.1742 49.3299 90.341 46.5726C90.3571 46.3847 90.3571 46.1957 90.341 46.0078C91.1465 45.8019 91.9206 45.4891 92.6424 45.0776C92.7825 44.9752 92.9161 44.8642 93.0426 44.7454C93.1418 45.0479 93.2761 45.3377 93.4428 45.6091C93.6271 45.8849 93.8395 46.1409 94.0765 46.3732C96.4112 48.4994 97.1783 48.2336 97.6453 47.835C98.1122 47.4363 96.678 43.9813 96.678 43.9813C96.5415 43.7575 96.3852 43.5463 96.2111 43.3501C95.9944 43.1422 95.76 42.9532 95.5107 42.7854C96.231 42.0516 96.8788 41.2506 97.4452 40.3934C97.6351 40.1905 97.7407 39.9234 97.7407 39.646C97.7407 39.3685 97.6351 39.1014 97.4452 38.8985H97.245C97.1769 37.7786 97.0095 36.6669 96.7448 35.5764C97.1797 35.4044 97.6031 35.2047 98.0122 34.9784C98.2169 34.8186 98.4067 34.6407 98.5792 34.4468C98.732 34.2376 98.8659 34.0152 98.9794 33.7824C100.013 31.3905 100.247 30.9918 99.7465 30.3939ZM77.3334 35.676C77.2265 36.0497 77.0694 36.4073 76.8664 36.7391C76.7061 37.0807 76.4922 37.3947 76.2327 37.6693C75.9151 38.0744 75.5174 38.4102 75.0641 38.6559C74.6109 38.9016 74.1118 39.052 73.5979 39.0978C73.1992 39.0823 72.8129 38.9558 72.4827 38.7326C72.1526 38.5095 71.8919 38.1987 71.7301 37.8354C71.3288 37.1679 71.0685 36.4259 70.9653 35.6547C70.862 34.8835 70.918 34.0994 71.1297 33.3505C71.3105 32.5816 71.6026 31.843 71.9969 31.158C72.2963 30.5477 72.7577 30.0307 73.331 29.663C73.6732 29.4164 74.0681 29.252 74.4847 29.1828C74.9014 29.1137 75.3284 29.1416 75.7324 29.2643C76.182 29.3966 76.5985 29.6218 76.9548 29.9252C77.3111 30.2285 77.5992 30.6033 77.8003 31.0251C77.9631 31.4286 78.0643 31.8541 78.1005 32.2875C78.1501 32.8068 78.1501 33.3296 78.1005 33.8489C78.0609 34.0319 78.0677 34.2218 78.1201 34.4015C78.1725 34.5813 78.2689 34.7453 78.4007 34.8787C78.1623 34.8871 77.9322 34.968 77.7414 35.1105C77.5506 35.2531 77.4082 35.4504 77.3334 35.676Z" fill="black"/>
<path fill-rule="evenodd" clip-rule="evenodd" d="M27.6047 63.1499C27.7449 63.1456 27.8828 63.1139 28.0107 63.0564C28.1385 62.999 28.2537 62.917 28.3498 62.8152C28.4458 62.7134 28.5207 62.5937 28.5703 62.463C28.6198 62.3324 28.6431 62.1932 28.6386 62.0536C28.6386 58.3993 29.239 54.7782 29.4724 51.1239V48.6655H44.5146C47.8499 48.6655 50.9517 48.3665 54.1869 48.2336C59.0231 48.0011 63.8259 47.7685 68.6621 47.9346C68.8198 47.9477 68.9785 47.9297 69.1292 47.8817C69.2799 47.8337 69.4196 47.7566 69.5404 47.6548C69.6612 47.553 69.7607 47.4285 69.8332 47.2884C69.9056 47.1483 69.9497 46.9954 69.9628 46.8383C69.976 46.6813 69.9579 46.5232 69.9097 46.3731C69.8615 46.223 69.7841 46.0838 69.6819 45.9635C69.5797 45.8432 69.4547 45.7441 69.3141 45.6719C69.1734 45.5997 69.0199 45.5558 68.8622 45.5427C64.1067 44.8984 59.3185 44.5213 54.5205 44.4132H48.3835C46.3156 44.4132 44.3145 44.6125 42.2799 44.8118C38.0108 45.2437 33.8417 45.8749 29.6392 46.4397C29.9727 45.5759 29.9727 44.7786 29.9727 43.9813C30.1972 41.4385 30.621 38.9171 31.2401 36.4401C31.2401 36.4401 31.2401 36.274 31.2401 36.1743C32.2767 35.989 33.3238 35.867 34.3753 35.8089H41.9798C43.8809 35.8089 45.782 35.6096 47.6831 35.4435C49.5842 35.2774 51.4186 35.0116 53.3198 34.9119C55.2209 34.8123 56.655 34.9119 58.2226 34.9119C58.5411 34.9384 58.857 34.8377 59.101 34.6321C59.3449 34.4265 59.4969 34.1328 59.5234 33.8156C59.5499 33.4985 59.4489 33.1838 59.2425 32.9408C59.0361 32.6978 58.7412 32.5465 58.4227 32.52C55.1119 31.9937 51.7688 31.694 48.4169 31.623C46.1822 31.623 43.9476 31.8224 41.7463 31.9553C39.545 32.0881 37.3437 32.5865 35.0757 33.0183C30.373 34.015 28.205 33.7492 26.1038 44.8783C25.8703 46.2404 25.7036 47.5692 25.6035 48.9313C25.5202 50.281 25.5202 51.6345 25.6035 52.9842C25.6035 56.107 26.2039 59.1634 26.6041 62.2862C26.6489 62.5213 26.7721 62.7345 26.9537 62.8913C27.1352 63.048 27.3646 63.1392 27.6047 63.1499Z" fill="black"/>
<path fill-rule="evenodd" clip-rule="evenodd" d="M92.4092 59.7945C92.1424 57.9009 91.8422 56.0073 91.442 54.1469C91.4258 54.008 91.3815 53.8737 91.3115 53.7524C91.2416 53.6311 91.1476 53.5253 91.0352 53.4413C90.9229 53.3574 90.7945 53.2971 90.658 53.2642C90.5215 53.2313 90.3797 53.2265 90.2413 53.25C89.9633 53.2911 89.7129 53.4398 89.5443 53.6637C89.3757 53.8876 89.3026 54.1687 89.3407 54.4459V58.5654C89.3407 61.8875 89.3407 65.2096 89.1073 68.3324C89.1073 70.7243 89.274 73.0498 89.4074 75.342C89.5409 77.6343 89.6743 79.9598 89.6743 82.2853C89.6743 84.6107 89.6743 86.0725 89.4408 87.9993C89.152 87.8829 88.8291 87.8829 88.5403 87.9993C87.093 88.4426 85.6082 88.754 84.1043 88.9295C81.7363 89.2285 79.3682 89.2617 77.0335 89.3281L71.7971 89.5275C69.1289 89.5275 66.494 89.6936 63.8591 89.8265C59.3898 90.0922 54.9539 90.4909 50.518 91.0224C50.2349 91.0224 49.9634 91.1344 49.7633 91.3338C49.5631 91.5332 49.4507 91.8036 49.4507 92.0855C49.4507 92.3674 49.5631 92.6378 49.7633 92.8372C49.9634 93.0366 50.2349 93.1486 50.518 93.1486C55.8878 93.1486 61.1575 93.7133 66.494 93.7133C70.0958 93.6683 73.6923 93.4243 77.267 92.9825C79.6684 92.617 82.1032 92.318 84.5046 91.7533C87.8399 91.0224 91.542 89.5275 91.7088 88.4312C92.505 85.1212 93.0513 81.7564 93.3431 78.3652C93.3431 76.6709 93.5098 75.0431 93.5098 73.2491C93.5098 71.4552 93.5098 69.927 93.3097 68.1663C92.9762 65.3757 92.7427 62.5851 92.4092 59.7945Z" fill="black"/>
</svg>
