<svg width="120" height="120" viewBox="0 0 120 120" fill="none" xmlns="http://www.w3.org/2000/svg">
<path fill-rule="evenodd" clip-rule="evenodd" d="M67.1114 54.3207C65.3622 53.0233 63.5393 51.8258 61.6516 50.734C59.7259 49.6056 57.7209 48.615 55.6518 47.7699C55.5146 47.7069 55.3658 47.6724 55.2146 47.6684C55.0633 47.6643 54.9128 47.6909 54.7724 47.7464C54.6319 47.8019 54.5044 47.8852 54.3977 47.9912C54.291 48.0972 54.2074 48.2236 54.1519 48.3627C54.0652 48.2317 53.9439 48.1266 53.8012 48.0587C53.6584 47.9907 53.4996 47.9626 53.3419 47.9774C53.0767 47.9927 52.828 48.1097 52.6487 48.3034C52.4694 48.4972 52.3737 48.7524 52.382 49.0148V61.6421V65.8216C52.382 66.2959 52.022 67.1258 52.022 67.5408C52.0268 67.8393 52.0996 68.1329 52.235 68.3998C52.3705 68.6666 52.5651 68.8999 52.8043 69.0821C53.0436 69.2644 53.3214 69.3911 53.617 69.4527C53.9126 69.5143 54.2185 69.5092 54.5119 69.4379C55.9304 69.1067 57.2941 68.5778 58.5617 67.8669C61.2016 66.4144 63.7516 64.2506 66.0315 62.7685C66.8114 62.235 68.1314 61.6421 69.0314 60.9307C69.6193 60.5219 70.136 60.0214 70.5613 59.4487C70.7909 59.1113 70.9135 58.714 70.9135 58.3075C70.9135 57.9009 70.7909 57.5036 70.5613 57.1663C69.508 56.1089 68.3525 55.1558 67.1114 54.3207ZM66.5415 58.4408C65.6115 58.9744 64.5315 59.4487 63.8116 59.8933C61.8616 61.1086 59.7317 62.8574 57.5118 64.221C56.9129 64.6114 56.2919 64.9677 55.6518 65.2881L55.4119 61.7607L54.4219 49.6966C54.5417 49.7992 54.6725 49.8886 54.8119 49.9634C56.6818 50.8214 58.4865 51.812 60.2117 52.9275C61.9242 54.0848 63.5576 55.3522 65.1015 56.7216C65.7562 57.163 66.387 57.6379 66.9914 58.1444L66.5415 58.4408Z" fill="black"/>
<path fill-rule="evenodd" clip-rule="evenodd" d="M41.6424 63.6571L41.8224 56.5135V49.3698V34.964C41.6424 33.5709 39.5724 34.4898 39.5124 35.8236C39.0025 39.2621 39.0025 41.3073 38.6425 44.7458C37.1189 44.8736 35.6056 45.1013 34.1126 45.4275C32.0508 45.9172 30.0416 46.6021 28.1128 47.4728C27.0029 48.362 27.2129 51.0891 29.4928 50.4369L33.0027 49.1624C34.8026 48.5102 36.5725 47.9174 38.3725 47.3839C38.3725 48.036 38.3725 48.6584 38.1925 49.2809C38.1925 51.6819 37.9825 54.0532 37.9525 56.4542V57.4916C36.2106 57.2567 34.4445 57.2567 32.7027 57.4916C31.9382 57.6439 31.1861 57.852 30.4528 58.1141C29.7928 58.4328 29.1693 58.8203 28.5928 59.2701C27.5129 60.5447 27.5729 62.8271 29.2828 62.2343C30.0028 61.9972 30.7228 61.6711 31.4127 61.4043C32.1027 61.1376 32.5227 60.9597 33.3627 60.6337C34.2026 60.3076 34.7426 60.3076 35.5826 60.0408C36.3704 59.798 37.1717 59.6001 37.9825 59.448V63.3903C37.9825 64.6945 38.1625 66.8287 38.2225 68.548C37.0442 68.5635 35.8696 68.6826 34.7126 68.9037C34.0299 69.0807 33.3587 69.2985 32.7027 69.5558C32.0693 69.8143 31.4575 70.1216 30.8728 70.4747C30.399 70.7423 29.9564 71.0603 29.5528 71.4232C28.4128 72.4606 28.2628 75.0098 30.3928 74.3874C31.6527 73.9724 31.7127 74.0317 33.0327 73.5277C34.3526 73.0238 34.8926 72.7274 35.8226 72.3421C36.7525 71.9567 37.5025 71.5714 38.3425 71.2157C38.3425 73.9131 38.3425 75.0988 38.5225 77.8258C38.7325 79.6636 41.0124 79.2486 40.8924 77.3219C41.0724 72.3124 41.4624 68.7851 41.6424 63.6571Z" fill="black"/>
<path fill-rule="evenodd" clip-rule="evenodd" d="M96 60.456C96 57.7882 96 55.1501 95.85 52.512C95.64 46.2873 95.13 40.1218 94.8 34.0453C94.7897 33.8567 94.7208 33.6759 94.6027 33.5274C94.4846 33.3789 94.3231 33.2699 94.1401 33.2153C93.9989 33.0019 93.787 32.8438 93.5406 32.768C93.2942 32.6923 93.0289 32.7037 92.7901 32.8004C89.4824 34.1355 86.0137 35.0421 82.4705 35.4978C78.9719 35.835 75.4417 35.6451 72.0009 34.9346C67.261 34.1342 62.4312 32.6522 57.6614 31.5554C52.6746 30.2567 47.5077 29.7662 42.3619 30.103C38.8327 30.4455 35.4464 31.6556 32.512 33.6231C29.5775 35.5906 27.1884 38.2528 25.5625 41.3668C25.5625 41.3668 25.5625 41.5743 25.5625 41.6928C25.3322 41.7349 25.1245 41.8562 24.9762 42.0353C24.8279 42.2144 24.7486 42.4397 24.7525 42.671C24.2219 48.1684 23.9715 53.6887 24.0026 59.211C24.0026 59.6557 24.5125 67.6885 24.6625 69.1706C25.1125 74.0911 25.8025 79.0116 26.3125 83.9914C26.3356 84.2929 26.4773 84.5734 26.7072 84.7729C26.9371 84.9723 27.2369 85.0749 27.5424 85.0585C27.691 85.0511 27.8365 85.0142 27.9703 84.9501C28.1042 84.886 28.2236 84.796 28.3215 84.6854C28.4195 84.5748 28.4939 84.4459 28.5405 84.3063C28.587 84.1667 28.6047 84.0193 28.5924 83.8728C26.7925 56.3061 26.7925 43.2046 26.7625 42.671C26.9606 42.5978 27.1362 42.4752 27.2724 42.3153C28.6306 40.1315 30.4286 38.2469 32.5548 36.7783C34.6809 35.3098 37.0898 34.2887 39.632 33.7785C40.892 33.7785 42.3319 33.3339 42.6319 33.3043C47.4174 33.2621 52.1847 33.8908 56.7914 35.1717C61.6512 36.2981 66.631 37.543 71.4609 38.1359C75.2905 38.3294 79.1289 38.2699 82.9505 37.958C86.3389 37.3638 89.6425 36.3686 92.7901 34.9938V53.1938C92.7901 55.3873 93.0001 66.6214 93.0001 68.0146C93.0001 70.2081 92.0701 82.5686 91.9501 85.3253C89.0738 86.2044 86.1042 86.7515 83.1005 86.9556C79.5857 87.1327 76.0644 86.7728 72.6608 85.8885C67.981 84.7917 63.2412 82.9243 58.5613 81.6201C53.6668 80.0115 48.54 79.2006 43.3819 79.2191C41.819 79.3651 40.2664 79.6026 38.732 79.9305C33.4011 81.3764 28.8235 84.7661 25.9225 89.4158C25.7664 89.6291 25.7011 89.8943 25.7403 90.1547C25.7795 90.415 25.9203 90.6498 26.1325 90.809C26.3484 90.9632 26.6168 91.0278 26.8802 90.989C27.1437 90.9502 27.3814 90.8111 27.5424 90.6015C29.3138 88.0659 31.6926 86.0028 34.4668 84.596C37.2409 83.1893 40.3242 82.4826 43.4419 82.539C48.2194 82.7832 52.9371 83.7015 57.4514 85.266C62.2212 86.6888 67.111 88.2301 71.8809 89.238C75.6619 89.9848 79.5352 90.1647 83.3705 89.7715C86.3703 89.4455 95.85 87.9041 95.04 85.5624C94.9835 85.4118 94.8914 85.2768 94.7714 85.1685C94.6514 85.0602 94.5069 84.9819 94.3501 84.9399C94.98 79.4266 95.52 73.8836 95.76 68.2814C96 65.584 96 62.9459 96 60.456Z" fill="black"/>
<path fill-rule="evenodd" clip-rule="evenodd" d="M88.8607 73.8833H86.6708C85.9473 73.9095 85.226 73.9788 84.5109 74.0908C83.3409 74.2686 82.201 74.5058 81.031 74.7133C81.241 71.7491 81.391 68.785 81.421 65.8208V64.4869C82.3059 64.6198 83.197 64.7088 84.0909 64.7537H86.2208C86.9408 64.7537 87.6608 64.7537 88.3507 64.5462C89.5507 64.3684 90.1507 64.1312 91.3506 63.9237C93.0906 63.5977 92.7906 61.7599 91.3506 61.3153C89.9107 60.8706 89.4007 61.0485 88.1707 60.9892H85.9808C85.2672 61.0143 84.5558 61.0836 83.8509 61.1967C82.9809 61.1967 82.171 61.582 81.361 61.7599V54.2606C81.361 52.3042 81.181 50.3479 81.061 48.3322L84.0009 48.599H86.0408H88.0807C89.4007 48.599 89.6407 48.3619 91.0806 48.3915C92.5206 48.4212 92.6706 46.5241 91.0806 45.8424C90.204 45.504 89.3011 45.2363 88.3807 45.042C87.6563 44.9189 86.925 44.8397 86.1908 44.8049C85.432 44.7457 84.6697 44.7457 83.9109 44.8049C82.8927 45.0125 81.8903 45.2898 80.911 45.6349C80.911 43.3525 80.701 42.2557 80.671 39.9733C80.221 38.2541 78.6011 38.6098 78.4811 39.9733C77.9711 45.6645 77.6411 50.1997 77.6411 55.9501C77.6411 59.8035 77.6411 63.657 77.8211 67.5104C77.8211 73.4387 78.1211 79.0113 77.8211 84.7321C77.7844 84.8875 77.7815 85.0489 77.8127 85.2055C77.8439 85.3621 77.9083 85.5103 78.0019 85.6404C78.0954 85.7705 78.2158 85.8795 78.3552 85.9602C78.4946 86.0408 78.6497 86.0913 78.8103 86.1082C78.9709 86.1251 79.1333 86.1081 79.2868 86.0583C79.4402 86.0086 79.5812 85.9271 79.7004 85.8195C79.8196 85.7118 79.9143 85.5803 79.9782 85.4337C80.0421 85.2871 80.0737 85.1288 80.071 84.9693C80.461 82.3312 80.731 79.6634 80.971 76.9957C82.4922 77.3064 84.0381 77.485 85.5908 77.5292C86.7448 77.524 87.8972 77.4448 89.0407 77.2921L90.8406 77.0253C93.0006 76.1954 92.6406 74.0612 90.8406 73.8537C90.1809 73.8123 89.5189 73.8222 88.8607 73.8833Z" fill="black"/>
</svg>
