<svg width="64" height="64" viewBox="0 0 64 64" fill="none" xmlns="http://www.w3.org/2000/svg">
<path fill-rule="evenodd" clip-rule="evenodd" d="M26.2506 16.1371C26.2501 16.1376 26.2495 16.1378 26.2488 16.1378C22.5907 15.9317 18.3891 15.4471 17.3027 19.2772C16.9688 21.5971 16.9972 23.9538 17.3868 26.2648C17.3959 26.3193 17.3986 26.3748 17.4079 26.4293C17.4146 26.4688 17.426 26.5076 17.4419 26.5447C17.4688 26.6073 17.508 26.664 17.5573 26.7115C17.6065 26.759 17.6648 26.7963 17.7288 26.8213C17.7928 26.8463 17.8611 26.8584 17.9299 26.857C18.6255 26.857 18.4456 26.3879 18.8028 21.2615C19.1292 17.5733 21.1585 17.6344 26.2821 17.1639C26.4197 17.1598 26.5501 17.1018 26.6446 17.0026C26.739 16.9034 26.7898 16.7712 26.7857 16.6349C26.7816 16.4987 26.723 16.3696 26.6227 16.2762C26.5227 16.1829 26.3894 16.1327 26.2521 16.1365C26.2515 16.1365 26.251 16.1367 26.2506 16.1371Z" fill="black"/>
<path fill-rule="evenodd" clip-rule="evenodd" d="M16.6502 38.1972C15.7702 48.4052 18.7027 48.7476 26.8657 47.479C26.9358 47.4733 27.0041 47.454 27.0667 47.4223C27.1292 47.3907 27.1848 47.3472 27.2303 47.2945C27.2757 47.2417 27.3101 47.1807 27.3316 47.1148C27.353 47.049 27.361 46.9797 27.3551 46.9108C27.3493 46.8419 27.3297 46.7749 27.2974 46.7135C27.2652 46.652 27.2209 46.5974 27.1672 46.5528C27.1134 46.5082 27.0513 46.4744 26.9842 46.4533C26.9172 46.4323 26.8466 46.4244 26.7765 46.4302C24.6324 46.4302 20.2536 46.6066 19.2591 45.461C19.2064 45.4004 19.1721 45.327 19.1453 45.2512C18.3407 42.9754 17.8568 40.6021 17.7073 38.1972C17.6977 38.066 17.6378 37.9433 17.5398 37.8537C17.4417 37.7641 17.3127 37.7143 17.1788 37.7143C17.0448 37.7143 16.9159 37.7641 16.8178 37.8537C16.7197 37.9433 16.6599 38.066 16.6502 38.1972Z" fill="black"/>
<path fill-rule="evenodd" clip-rule="evenodd" d="M38.6231 17.5739C38.6934 17.5887 38.7672 17.594 38.8373 17.6096C43.9501 18.7464 46.6795 17.2896 46.8631 22.8408C46.9926 25.6156 46.7659 26.8875 47.5634 26.8565C47.6316 26.8537 47.6985 26.8379 47.7603 26.8101C47.822 26.7822 47.8773 26.7428 47.9229 26.6942C47.9686 26.6456 48.0036 26.5888 48.026 26.5271C48.0483 26.4654 48.0576 26.4 48.0532 26.3349C48.1059 24.132 49.605 19.9756 46.7983 17.7327C44.489 15.9842 41.1302 16.7731 38.9947 16.6201C38.926 16.6152 38.8595 16.5986 38.791 16.5916C38.7512 16.5875 38.711 16.5878 38.6711 16.5925C38.5968 16.6013 38.5253 16.6254 38.4615 16.6631C38.3978 16.7007 38.3433 16.7511 38.3017 16.8108C38.2602 16.8704 38.2326 16.938 38.2208 17.0088C38.2091 17.0796 38.2134 17.152 38.2335 17.221C38.2536 17.2901 38.2891 17.3542 38.3375 17.4089C38.3858 17.4637 38.446 17.5078 38.5138 17.5383C38.5489 17.554 38.5855 17.5659 38.6231 17.5739Z" fill="black"/>
<path fill-rule="evenodd" clip-rule="evenodd" d="M47.3312 37.0834C46.6518 45.8092 46.1376 45.9019 41.1229 46.5025C40.1785 46.6427 39.0832 46.8901 38.1322 46.9311C38.0026 46.9367 37.88 46.9917 37.7891 47.0851C37.6982 47.1785 37.6459 47.3031 37.6427 47.4339C37.6396 47.5647 37.6858 47.6918 37.772 47.7896C37.8583 47.8873 37.9781 47.9483 38.1073 47.9603C39.1475 48.0132 40.189 48.0132 41.2291 47.9603C44.2894 47.8981 47.2263 47.5621 48.1143 44.2628C48.3819 43.1079 48.9473 36.5899 47.848 36.5714C47.7125 36.5714 47.5825 36.625 47.4858 36.7208C47.3891 36.8165 47.3336 36.9467 47.3312 37.0834Z" fill="black"/>
<path fill-rule="evenodd" clip-rule="evenodd" d="M25.7404 25.6413C25.6322 26.0982 25.2926 26.4803 24.8683 26.6815C21.6575 28.204 21.6836 35.1486 23.2372 37.979C24.6914 40.568 27.8338 40.3943 31.1105 40.4799C35.8865 40.6115 40.7583 41.1169 42.5834 37.0471C43.1614 35.5898 43.4206 34.0277 43.3437 32.4639C43.2666 30.9002 42.8545 28.7653 42.1354 27.9755C41.7899 27.595 41.3691 27.2942 40.9027 27.0895C40.4334 26.8835 40.0793 26.4385 39.9983 25.9323C39.897 25.2997 39.6458 24.6952 39.2598 24.1706C38.6935 23.4012 37.873 22.8525 36.9406 22.6197C34.3698 22.2248 31.7565 22.1801 29.1737 22.4855C28.2121 22.6353 27.333 23.1116 26.687 23.8327C26.2218 24.3519 25.8984 24.9741 25.7404 25.6413ZM36.5999 23.8222C36.595 23.8183 36.589 23.8158 36.5828 23.8152C34.2201 23.5762 31.8365 23.6305 29.4874 23.9768C26.559 24.6586 27.8538 27.8597 26.466 28.0361C23.313 28.4625 23.7091 34.7173 24.722 36.8905C24.8787 37.2571 25.1246 37.5797 25.4377 37.8296C25.7507 38.0794 26.1214 38.2488 26.5165 38.3225C30.1494 38.7529 33.8116 38.8911 37.467 38.7358C38.2494 38.7247 39.0139 38.5028 39.6785 38.094C40.3431 37.6852 40.8828 37.1048 41.2395 36.4153C42.1687 34.1067 42.2795 31.5553 41.5556 29.1777C41.5366 29.1152 41.5114 29.0546 41.4778 28.9986C41.285 28.6765 41.0217 28.4008 40.7068 28.1919C40.3646 27.9649 39.9716 27.8238 39.5619 27.7807C38.5127 27.6071 39.7156 24.5739 36.613 23.8285C36.6083 23.8273 36.6037 23.8252 36.5999 23.8222Z" fill="black"/>
<path fill-rule="evenodd" clip-rule="evenodd" d="M34.3547 29.033C34.3545 29.0328 34.3544 29.0327 34.3543 29.0325C34.0636 28.3922 31.4769 28.1412 29.8962 30.1681C29.4306 30.7726 29.1492 31.4963 29.0853 32.2538C29.0213 33.0114 29.1776 33.7713 29.5355 34.4439C29.8934 35.1164 30.4382 35.6736 31.1054 36.0496C31.7727 36.4257 32.5346 36.6049 33.3013 36.5662C34.2799 36.524 35.2074 36.122 35.9025 35.4388C36.5977 34.7556 37.0106 33.8402 37.0606 32.8716C37.2436 30.2625 35.0055 28.6128 34.357 29.0333C34.3563 29.0337 34.3553 29.0336 34.3547 29.033ZM34.1606 29.6716C34.1606 29.6712 34.1602 29.6709 34.1598 29.6711C33.767 29.9342 32.3076 29.1929 31.1538 31.0428C29.0757 34.3841 34.9023 36.6099 35.5264 32.7102C35.6234 32.127 35.5457 31.5285 35.303 30.9885C35.0603 30.4487 34.6633 29.991 34.1609 29.6721C34.1607 29.672 34.1606 29.6718 34.1606 29.6716Z" fill="black"/>
</svg>
