<svg width="72" height="72" viewBox="0 0 72 72" fill="none" xmlns="http://www.w3.org/2000/svg">
<path fill-rule="evenodd" clip-rule="evenodd" d="M21.9383 0.308546C21.9373 0.309555 21.9359 0.310086 21.9344 0.310005C13.7035 -0.15359 4.24961 -1.24413 1.80516 7.37364C1.04897 12.6276 1.1187 17.9656 2.01172 23.1981C2.02101 23.2526 2.0249 23.3078 2.02918 23.3629C2.03889 23.4876 2.06901 23.61 2.11855 23.7255C2.17903 23.8664 2.26724 23.994 2.37805 24.1009C2.48885 24.2078 2.62004 24.2918 2.76396 24.348C2.90788 24.4042 3.06167 24.4315 3.21636 24.4283C4.78167 24.4283 4.37675 23.3727 5.18056 11.8384C5.91486 3.53984 10.4809 3.67741 22.0092 2.61878C22.319 2.60966 22.6124 2.47914 22.8249 2.25593C23.0374 2.03272 23.1516 1.73511 23.1424 1.42857C23.1332 1.12203 23.0013 0.831663 22.7757 0.621355C22.5507 0.411499 22.2507 0.298507 21.9417 0.307084C21.9404 0.307119 21.9392 0.307643 21.9383 0.308546Z" fill="black"/>
<path fill-rule="evenodd" clip-rule="evenodd" d="M0.338029 49.944C-1.64202 72.912 4.95609 73.6824 23.3233 70.8281C23.4811 70.8152 23.6347 70.7718 23.7755 70.7006C23.9162 70.6293 24.0413 70.5315 24.1436 70.4128C24.2458 70.2941 24.3233 70.1567 24.3715 70.0086C24.4197 69.8605 24.4377 69.7045 24.4245 69.5496C24.4113 69.3946 24.3672 69.2437 24.2946 69.1055C24.2221 68.9673 24.1225 68.8445 24.0016 68.7441C23.8807 68.6437 23.7408 68.5676 23.59 68.5203C23.4392 68.473 23.2803 68.4553 23.1225 68.4682C18.2257 68.4682 8.14855 68.8771 6.11234 66.1694C6.06403 66.1052 6.02965 66.0337 6.00266 65.958C4.16191 60.7942 3.05605 55.4053 2.71656 49.944C2.69488 49.6489 2.56017 49.3727 2.33953 49.1711C2.11888 48.9695 1.82868 48.8574 1.52729 48.8574C1.22591 48.8574 0.935707 48.9695 0.715064 49.1711C0.494421 49.3727 0.359709 49.6489 0.338029 49.944Z" fill="black"/>
<path fill-rule="evenodd" clip-rule="evenodd" d="M49.9102 3.56228C49.9817 3.56924 50.0551 3.57647 50.1252 3.59228C61.715 6.20554 67.9023 2.8541 68.317 15.3924C68.6084 21.6358 68.0984 24.4975 69.8927 24.4277C70.0462 24.4215 70.1968 24.3859 70.3357 24.3232C70.4746 24.2605 70.599 24.1719 70.7017 24.0626C70.8043 23.9533 70.8831 23.8255 70.9335 23.6866C70.9838 23.5478 71.0047 23.4007 70.9948 23.254C71.1133 18.2977 74.4864 8.94563 68.1712 3.8992C62.9286 -0.0702496 55.2822 1.77223 50.4842 1.386C50.4156 1.38048 50.3495 1.36596 50.2822 1.35169C50.152 1.32411 50.0175 1.31794 49.8846 1.33371C49.7173 1.35357 49.5565 1.40772 49.4131 1.49248C49.2696 1.57724 49.147 1.69061 49.0536 1.82486C48.9601 1.9591 48.898 2.11106 48.8715 2.27036C48.845 2.42966 48.8547 2.59255 48.9 2.74793C48.9453 2.9033 49.0251 3.04749 49.1339 3.17067C49.2428 3.29385 49.3781 3.39311 49.5307 3.46168C49.6506 3.51556 49.7789 3.54949 49.9102 3.56228Z" fill="black"/>
<path fill-rule="evenodd" clip-rule="evenodd" d="M69.3712 47.4381C67.8423 67.0713 66.6854 67.2796 55.4022 68.631C53.2771 68.9465 50.8127 69.5031 48.6729 69.5954C48.3813 69.608 48.1054 69.7319 47.9009 69.9419C47.6965 70.152 47.5788 70.4325 47.5716 70.7268C47.5645 71.0211 47.6685 71.3071 47.8625 71.527C48.0566 71.7468 48.3262 71.8841 48.6169 71.9111C50.9573 72.0302 53.3007 72.0302 55.6412 71.9111C62.5268 71.7712 69.135 71.0152 71.1331 63.5917C71.7352 60.9932 73.0073 46.3278 70.534 46.2861C70.2291 46.2861 69.9365 46.4068 69.719 46.6222C69.5015 46.8377 69.3766 47.1306 69.3712 47.4381Z" fill="black"/>
<path fill-rule="evenodd" clip-rule="evenodd" d="M20.6126 22.6814C20.5546 23.1473 20.2152 23.5348 19.7658 23.6711C11.6051 26.1458 11.5176 42.8198 15.1584 49.4525C18.4304 55.2779 25.5009 54.8869 32.8735 55.0794C43.6199 55.3756 54.5816 56.5128 58.6881 47.3557C59.9888 44.0769 60.5719 40.5621 60.3989 37.0436C60.2254 33.5252 59.2982 28.7216 57.6801 26.9447C56.6484 25.8083 55.318 24.988 53.8461 24.5698C53.353 24.4297 52.9979 23.9816 52.9802 23.4693C52.9173 21.6438 52.3044 19.8709 51.2098 18.3837C49.9357 16.6524 48.0894 15.4178 45.9917 14.8941C40.2073 14.0056 34.3271 13.9049 28.5158 14.592C26.3521 14.9293 24.3741 16.0009 22.9205 17.6233C21.6472 19.0446 20.8457 20.8088 20.6126 22.6814ZM45.2251 17.5996C45.214 17.5908 45.2006 17.5854 45.1865 17.584C39.8704 17.0463 34.5072 17.1684 29.2216 17.9475C22.6327 19.4815 25.5458 26.6841 22.4233 27.0809C15.3289 28.0404 16.2202 42.1138 18.4992 47.0033C18.8519 47.8283 19.4051 48.5542 20.1095 49.1164C20.814 49.6785 21.6479 50.0595 22.537 50.2254C30.7112 51.1938 38.9511 51.5048 47.1761 51.1554C48.9364 51.1303 50.6566 50.6311 52.152 49.7112C53.6474 48.7914 54.8616 47.4856 55.6643 45.9342C57.7702 40.7018 58.0079 34.915 56.3396 29.5321C56.3203 29.4697 56.2948 29.4093 56.2624 29.3525C55.8237 28.5823 55.2085 27.9242 54.4658 27.4316C53.6956 26.9208 52.8115 26.6033 51.8897 26.5064C49.5288 26.1157 52.2354 19.2909 45.2545 17.6138C45.244 17.6113 45.2336 17.6064 45.2251 17.5996Z" fill="black"/>
<path fill-rule="evenodd" clip-rule="evenodd" d="M40.1735 29.3247C40.1731 29.3244 40.1728 29.324 40.1726 29.3235C39.5185 27.8829 33.6984 27.3182 30.1418 31.8788C29.094 33.2387 28.4609 34.867 28.3171 36.5716C28.1733 38.2762 28.5248 39.9859 29.3302 41.4992C30.1355 43.0124 31.3612 44.266 32.8625 45.1121C34.3638 45.9583 36.0782 46.3616 37.8035 46.2745C40.0052 46.1795 42.0921 45.275 43.6562 43.7378C45.2204 42.2005 46.1495 40.141 46.2619 37.9616C46.6736 32.091 41.6378 28.3792 40.1788 29.3253C40.1771 29.3264 40.1749 29.3261 40.1735 29.3247ZM39.7369 30.7616C39.7369 30.7606 39.7358 30.76 39.735 30.7605C38.8512 31.3524 35.5675 29.6844 32.9713 33.8468C28.2956 41.3648 41.4057 46.3728 42.81 37.5984C43.0282 36.2862 42.8534 34.9395 42.3073 33.7246C41.7612 32.51 40.8679 31.4802 39.7375 30.7626C39.7371 30.7624 39.7369 30.762 39.7369 30.7616Z" fill="black"/>
</svg>
