<svg width="120" height="120" viewBox="0 0 120 120" fill="none" xmlns="http://www.w3.org/2000/svg">
<path fill-rule="evenodd" clip-rule="evenodd" d="M95.473 29.6826C90.9528 22.1584 43.9553 19.6914 26.2771 29.1584C26.0144 29.2933 25.8162 29.5267 25.7262 29.8072C25.6816 29.9461 25.665 30.0923 25.6772 30.2376C25.6893 30.3829 25.7301 30.5244 25.7972 30.654C25.8643 30.7836 25.9564 30.8987 26.0681 30.9929C26.1799 31.087 26.3092 31.1583 26.4486 31.2027C26.7302 31.2924 27.036 31.2669 27.2988 31.132C45.5962 21.8808 89.219 26.8456 92.3151 31.3478C92.8723 37.0835 89.6525 62.9558 88.5379 67.8281C86.8042 75.3524 71.386 88.6432 64.1104 92.4978C61.1692 93.978 60.6738 94.2247 56.1536 91.4493C47.5777 86.2379 31.3855 71.4361 31.0759 67.7356C31.1688 67.0572 25.4412 37.4227 25.9365 35.3258C26.0094 35.1946 26.0512 35.0486 26.059 34.8989C26.0667 34.7492 26.04 34.5997 25.9811 34.4617C25.9221 34.3238 25.8324 34.2011 25.7186 34.1028C25.6049 34.0046 25.4702 33.9335 25.3248 33.8949C25.1794 33.8562 25.027 33.8511 24.8793 33.8799C24.7316 33.9087 24.5924 33.9706 24.4723 34.061C24.3522 34.1514 24.2544 34.2678 24.1862 34.4015C24.1181 34.5351 24.0814 34.6825 24.0789 34.8324C23.3049 37.5461 28.4753 66.7796 28.5682 67.8281C29.0326 73.5638 53.8007 97 61.2001 97C68.5996 97 90.0859 78.4977 92.377 68.599C93.2748 64.5594 97.4544 33.0439 95.473 29.6826Z" fill="black"/>
<path d="M83.5538 38.9336C81.8509 37.4226 79.8385 37.8235 70.953 37.9468C61.4173 37.9468 51.8196 37.9468 42.2839 38.5635C36.6492 38.9336 37.7328 44.5768 38.1353 48.5239C38.5377 52.4711 39.0641 63.9425 39.3117 66.2861C39.3117 66.9028 41.3551 67.2112 41.3241 66.5636C41.3241 64.5901 41.3241 62.6782 41.0765 60.7354C43.9248 60.9513 46.8041 61.0746 49.6524 61.1055C49.9001 66.0702 49.9311 66.3169 49.962 67.2729C48.2114 67.2455 46.464 67.1116 44.7298 66.872C44.462 66.8032 44.1826 66.7918 43.91 66.8387C43.6375 66.8856 43.3782 66.9897 43.1491 67.1441C42.9201 67.2985 42.7266 67.4996 42.5816 67.7342C42.4365 67.9687 42.3432 68.2313 42.3078 68.5045C42.2724 68.7777 42.2958 69.0552 42.3763 69.3187C42.4568 69.5823 42.5927 69.8257 42.7749 70.033C42.9571 70.2402 43.1814 70.4065 43.4331 70.5207C43.6847 70.635 43.9578 70.6947 44.2344 70.6958C49.9001 71.3125 52.0054 70.6958 71.1078 69.3081C81.0769 68.5064 82.3773 68.5064 83.4918 66.7178C84.2658 65.4227 84.2658 64.7134 84.7302 52.3169C85.0398 42.4799 85.4733 40.6913 83.5538 38.9336ZM61.5101 58.1143C61.1386 53.427 61.5101 55.2773 60.9219 51.0217C78.7859 51.0217 78.5692 51.2376 80.7054 51.0217V56.1099C75.4732 56.6958 73.4298 57.4667 61.5101 58.1143ZM80.6745 43.0966V47.7838C78.3215 47.7838 76.5568 47.7838 71.3864 47.938C71.3864 45.3785 71.3864 47.938 71.1387 42.079C82.0367 42.2332 80.6125 41.7398 80.6745 43.0966ZM68.2904 42.0481C67.8879 47.6605 68.0737 45.8103 67.9499 47.938L52.4698 48.0922C52.4698 48.0922 52.4698 47.6605 52.2221 41.7706L68.2904 42.0481ZM50.1168 41.7089C49.8691 47.4755 49.8691 47.0129 49.8691 48.1539C46.7731 48.1539 43.5223 48.1539 40.3334 48.4314C39.7142 40.0129 38.8164 41.4931 50.1168 41.7089ZM40.5192 50.7442C46.7112 50.9601 52.5317 50.9601 58.6309 50.9601C58.6309 51.6076 58.4761 54.2288 58.6309 58.1451C52.7484 58.3918 46.866 58.4226 40.9836 58.4843C40.8288 54.8455 40.8288 55.1847 40.5192 50.7442ZM51.9744 67.1804C51.9744 65.8852 51.9744 67.1804 51.51 61.0129C59.0643 61.0129 64.5133 60.5812 70.0861 60.0878C69.8973 62.0039 69.8249 63.9296 69.8694 65.8544C53.9559 67.1187 55.38 67.1804 51.9744 67.242V67.1804ZM73.2131 65.7002C73.2478 63.7953 73.1651 61.8901 72.9654 59.9953C75.566 59.7486 78.2286 59.5328 80.8293 59.101C80.9841 66.5945 82.2534 65.176 73.2131 65.7619V65.7002Z" fill="black"/>
</svg>
