<svg width="36" height="36" viewBox="0 0 36 36" fill="none" xmlns="http://www.w3.org/2000/svg">
<path d="M29.5244 28.8535C28.4044 28.8035 27.1544 28.7435 25.9344 28.7035H23.5244C21.0644 28.7035 18.6144 28.5235 16.1644 28.4935C15.0944 28.4935 14.0344 28.4935 12.9644 28.5735L8.36442 28.8235C8.08606 28.8621 7.80544 28.8822 7.52442 28.8835H7.16442V28.3335C7.13966 28.0775 7.13966 27.8196 7.16442 27.5635C7.21442 26.8935 7.36442 26.2235 7.41442 25.5635C7.46905 24.5643 7.46905 23.5628 7.41442 22.5635C7.32442 20.2835 7.03442 18.0135 7.10442 15.7335C7.10442 14.7335 7.16442 13.7335 7.16442 12.7335V10.7335C7.07442 9.80354 6.91442 8.90354 6.91442 8.01354C6.87998 7.66105 6.87998 7.30603 6.91442 6.95354C6.9293 6.87673 6.91357 6.79715 6.87061 6.73176C6.82764 6.66638 6.76083 6.62037 6.68442 6.60354C6.60354 6.58898 6.52017 6.60713 6.45267 6.65401C6.38516 6.70089 6.33903 6.77266 6.32442 6.85354C6.26013 7.23678 6.23001 7.62497 6.23442 8.01354C6.23442 8.90354 6.38442 9.81354 6.40442 10.6535V12.6535C6.40442 13.6535 6.30442 14.6535 6.23442 15.6535C6.08442 18.2735 6.36442 20.9035 6.34442 23.5235C6.34442 24.1735 6.34442 24.8035 6.27442 25.4435C6.20442 26.0835 6.07442 26.7735 6.02442 27.4435C5.99186 27.7761 5.99186 28.111 6.02442 28.4435C6.01128 28.66 6.01128 28.8771 6.02442 29.0935C6.05748 29.277 6.13663 29.4491 6.25442 29.5935C6.46493 29.8213 6.74743 29.9696 7.05442 30.0135C7.50938 30.0694 7.96947 30.0694 8.42442 30.0135L13.0444 29.7035C14.0444 29.6035 15.1244 29.5635 16.1544 29.5535C18.6144 29.5535 21.0644 29.6535 23.5344 29.5535H25.9044C27.1344 29.5535 28.3744 29.6035 29.4844 29.6235C29.5756 29.6263 29.6642 29.5933 29.7315 29.5317C29.7987 29.4701 29.8393 29.3846 29.8444 29.2935C29.8579 29.2432 29.86 29.1904 29.8504 29.1391C29.8409 29.0879 29.82 29.0394 29.7894 28.9972C29.7587 28.955 29.719 28.9203 29.6732 28.8954C29.6273 28.8705 29.5765 28.8562 29.5244 28.8535Z" fill="black"/>
<path d="M9.07462 23.0136C9.31407 23.113 9.56672 23.1771 9.82462 23.2036H10.2446C10.1849 23.5511 10.1449 23.9017 10.1246 24.2536V25.2036V26.6036C10.1207 26.6483 10.1256 26.6933 10.139 26.736C10.1525 26.7788 10.1742 26.8185 10.203 26.8528C10.2318 26.8872 10.267 26.9155 10.3068 26.9363C10.3465 26.957 10.39 26.9697 10.4346 26.9736C10.4793 26.9776 10.5243 26.9727 10.567 26.9592C10.6098 26.9458 10.6495 26.9241 10.6838 26.8953C10.7182 26.8665 10.7465 26.8312 10.7673 26.7915C10.788 26.7517 10.8007 26.7083 10.8046 26.6636C10.8982 26.1181 10.955 25.5668 10.9746 25.0136V23.2136C11.2669 23.2486 11.5623 23.2486 11.8546 23.2136C12.0305 23.1945 12.1972 23.1251 12.3346 23.0136C12.589 22.7356 12.7529 22.3869 12.8046 22.0136C12.8398 21.3465 12.8198 20.6775 12.7446 20.0136L12.6646 17.6536C12.6847 17.4107 12.6847 17.1666 12.6646 16.9236C12.6455 16.738 12.5686 16.5631 12.4446 16.4236C12.2381 16.2104 11.9678 16.07 11.6746 16.0236C11.396 15.9842 11.1132 15.9842 10.8346 16.0236C10.8346 15.0236 10.9646 13.9636 11.0146 12.9336C11.0335 12.109 11.0001 11.284 10.9146 10.4636C10.9232 10.4134 10.9207 10.3619 10.9073 10.3128C10.8939 10.2636 10.87 10.2179 10.8371 10.179C10.8043 10.1401 10.7633 10.1088 10.7171 10.0873C10.6709 10.0658 10.6206 10.0547 10.5696 10.0547C10.5187 10.0547 10.4683 10.0658 10.4221 10.0873C10.3759 10.1088 10.335 10.1401 10.3021 10.179C10.2692 10.2179 10.2453 10.2636 10.2319 10.3128C10.2185 10.3619 10.216 10.4134 10.2246 10.4636C10.2246 11.1736 10.1646 11.8736 10.1246 12.5736V14.0136C10.1199 14.6981 10.1499 15.3823 10.2146 16.0636L9.30462 16.2936H9.18462C9.14147 16.2583 9.08931 16.2356 9.034 16.2282C8.97868 16.2209 8.92241 16.2291 8.8715 16.2519C8.8206 16.2748 8.77707 16.3114 8.74583 16.3576C8.71458 16.4038 8.69685 16.4579 8.69462 16.5136L8.56462 19.3736L8.41462 21.4336C8.40216 21.6234 8.40216 21.8138 8.41462 22.0036C8.42367 22.1798 8.48263 22.3497 8.58462 22.4936C8.69829 22.7078 8.86755 22.8875 9.07462 23.0136ZM9.33462 17.0136L10.6746 16.7636C10.904 16.7395 11.1353 16.7395 11.3646 16.7636C11.5247 16.7753 11.6747 16.8466 11.7846 16.9636L11.7246 17.6136L11.6546 20.0136V21.4336C11.6546 21.6536 11.5846 22.1536 11.5846 22.1536L9.98462 22.0136C9.84142 22.0223 9.69782 22.0223 9.55462 22.0136H9.44462C9.45236 21.8671 9.45236 21.7202 9.44462 21.5736V19.5236L9.29462 17.0136H9.33462Z" fill="black"/>
<path d="M13.9843 16.6739C14.3468 16.8011 14.7308 16.8554 15.1143 16.8339C15.0674 17.1888 15.0407 17.546 15.0343 17.9039C15.0424 18.4827 15.0858 19.0604 15.1643 19.6339C15.1668 19.6786 15.1782 19.7223 15.1977 19.7626C15.2172 19.8029 15.2444 19.8389 15.2778 19.8687C15.3113 19.8984 15.3503 19.9212 15.3926 19.9358C15.4349 19.9505 15.4796 19.9566 15.5243 19.9539C15.5694 19.9527 15.6138 19.9423 15.6548 19.9233C15.6957 19.9042 15.7323 19.877 15.7623 19.8433C15.7923 19.8095 15.815 19.77 15.8291 19.7271C15.8433 19.6842 15.8484 19.6389 15.8443 19.5939C15.8443 19.0339 15.9043 18.4739 15.9043 17.9039C15.9043 17.5439 15.9043 17.1839 15.8343 16.8239C16.0226 16.8166 16.21 16.7932 16.3943 16.7539C16.6523 16.7077 16.8878 16.5777 17.0643 16.3839C17.2115 16.2121 17.3205 16.011 17.3843 15.7939C17.4604 15.4223 17.4939 15.0432 17.4843 14.6639C17.5642 14.0432 17.4563 13.4127 17.1743 12.8539C17.023 12.6706 16.8289 12.5273 16.6092 12.4366C16.3895 12.3459 16.1508 12.3107 15.9143 12.3339H15.5243V10.2339V8.59391V6.97391C15.4885 6.73397 15.4247 6.49903 15.3343 6.27391C15.3263 6.2279 15.3087 6.1841 15.2826 6.1454C15.2565 6.1067 15.2225 6.07399 15.1828 6.04941C15.1431 6.02484 15.0986 6.00897 15.0523 6.00285C15.0061 5.99673 14.959 6.0005 14.9143 6.01391C14.8708 6.02549 14.83 6.04558 14.7944 6.07302C14.7587 6.10046 14.7289 6.13471 14.7066 6.17378C14.6842 6.21285 14.6699 6.25596 14.6643 6.30061C14.6588 6.34526 14.6622 6.39057 14.6743 6.43391C14.7089 6.62528 14.7256 6.81945 14.7243 7.01391C14.7243 7.55391 14.6343 8.10391 14.6243 8.62391C14.6143 9.14391 14.6243 9.72391 14.6843 10.2739C14.6843 10.9839 14.7943 11.7039 14.8443 12.4139L14.1943 12.4939C14.1355 12.5 14.0794 12.5218 14.0319 12.557C13.9844 12.5922 13.9472 12.6394 13.9243 12.6939C13.9023 12.6404 13.8649 12.5947 13.8168 12.5626C13.7687 12.5305 13.7121 12.5136 13.6543 12.5139C13.5721 12.5139 13.4932 12.5466 13.4351 12.6047C13.3769 12.6628 13.3443 12.7417 13.3443 12.8239V14.8239V15.5839C13.3432 15.736 13.3634 15.8874 13.4043 16.0339C13.447 16.1772 13.5212 16.309 13.6216 16.4198C13.722 16.5305 13.8459 16.6174 13.9843 16.6739ZM14.2843 13.2139H15.8643C16.1443 13.2139 16.3143 13.2939 16.3943 13.4239C16.4409 13.5344 16.4615 13.6542 16.4543 13.7739C16.4543 14.0439 16.4543 14.3439 16.3843 14.6439C16.3143 14.9439 16.3843 15.0739 16.3143 15.2939C16.3134 15.4112 16.2787 15.5258 16.2143 15.6239C16.2143 15.6239 15.4743 15.7139 15.2143 15.7239H14.2143C14.1746 15.6354 14.1509 15.5406 14.1443 15.4439V14.7839L13.9443 13.1139C13.9856 13.1612 14.0395 13.1957 14.0997 13.2134C14.1599 13.2311 14.224 13.2313 14.2843 13.2139Z" fill="black"/>
<path d="M18.7844 22.4334C19.0025 22.5807 19.2529 22.6733 19.5144 22.7034C19.774 22.7238 20.0348 22.7238 20.2944 22.7034C20.2944 22.8534 20.2344 22.9934 20.2144 23.1434V24.2834C20.2078 24.3281 20.2101 24.3736 20.2211 24.4174C20.2322 24.4611 20.2517 24.5023 20.2786 24.5385C20.3055 24.5747 20.3393 24.6053 20.3781 24.6284C20.4168 24.6516 20.4597 24.6669 20.5044 24.6734C20.549 24.68 20.5945 24.6777 20.6383 24.6667C20.6821 24.6557 20.7232 24.6361 20.7594 24.6092C20.7957 24.5823 20.8262 24.5485 20.8494 24.5097C20.8725 24.471 20.8878 24.4281 20.8944 24.3834C20.9861 24.076 21.053 23.7616 21.0944 23.4434C21.1094 23.187 21.1094 22.9299 21.0944 22.6734C21.3335 22.6681 21.5715 22.638 21.8044 22.5834C22.096 22.5103 22.3601 22.354 22.5644 22.1334C22.6933 21.9805 22.7735 21.7924 22.7944 21.5934C22.8143 21.3639 22.8143 21.133 22.7944 20.9034V16.8034V15.7334C22.7932 15.3663 22.7496 15.0005 22.6644 14.6434C22.6079 14.4403 22.5013 14.2547 22.3544 14.1034C22.2333 13.9924 22.0783 13.9255 21.9144 13.9134C21.6988 13.8828 21.48 13.8828 21.2644 13.9134H20.7644C20.8295 13.614 20.8697 13.3096 20.8844 13.0034C20.8587 12.6708 20.8119 12.3401 20.7444 12.0134C20.753 11.9632 20.7505 11.9117 20.7371 11.8626C20.7237 11.8134 20.6998 11.7678 20.6669 11.7288C20.6341 11.6899 20.5931 11.6586 20.5469 11.6371C20.5007 11.6156 20.4503 11.6045 20.3994 11.6045C20.3484 11.6045 20.2981 11.6156 20.2519 11.6371C20.2057 11.6586 20.1647 11.6899 20.1319 11.7288C20.099 11.7678 20.0751 11.8134 20.0617 11.8626C20.0483 11.9117 20.0458 11.9632 20.0544 12.0134C20.0544 12.3634 19.9744 12.7134 19.9744 13.0134C19.9744 13.3134 20.0444 13.6634 20.0844 14.0134L19.0844 14.0934C19.0049 14.1034 18.932 14.1428 18.8801 14.2039C18.8283 14.265 18.8013 14.3434 18.8044 14.4234C18.8118 14.4892 18.84 14.551 18.885 14.5995C18.93 14.6481 18.9893 14.681 19.0544 14.6934C19.0544 15.0134 19.0544 15.3234 18.9944 15.6934C18.8944 16.6134 18.7144 17.5334 18.6044 18.4234C18.5344 19.0234 18.3944 19.6234 18.3144 20.2334C18.2943 20.5164 18.2943 20.8005 18.3144 21.0834C18.308 21.3477 18.3452 21.6112 18.4244 21.8634C18.4885 22.0835 18.6132 22.281 18.7844 22.4334ZM19.2844 20.2834C19.2844 19.6834 19.4344 19.0734 19.4744 18.4734C19.5344 17.5734 19.6644 16.6334 19.7144 15.7134V14.7134H21.2544H21.7244C21.7883 14.8043 21.8231 14.9124 21.8244 15.0234C21.8442 15.2897 21.8442 15.5571 21.8244 15.8234V16.8234L21.7144 18.5834C21.7458 19.5473 21.7224 20.5122 21.6444 21.4734C21.3667 21.5221 21.0861 21.5522 20.8044 21.5634L19.9544 21.6134C19.7779 21.6368 19.5984 21.6126 19.4344 21.5434C19.4088 21.5189 19.3885 21.4894 19.3748 21.4567C19.361 21.424 19.3541 21.3889 19.3544 21.3534C19.3294 21.2415 19.3127 21.1279 19.3044 21.0134C19.2823 20.7708 19.2756 20.527 19.2844 20.2834Z" fill="black"/>
<path d="M24.9143 22.1438C24.9466 22.405 25.0465 22.6532 25.2043 22.8639C25.2617 22.9415 25.3352 23.0058 25.4198 23.0524C25.5043 23.099 25.598 23.1268 25.6943 23.1339C25.8973 23.1497 26.1013 23.1497 26.3043 23.1339H26.5443C26.5292 23.3069 26.5292 23.4808 26.5443 23.6538C26.5443 23.9338 26.6343 24.2139 26.6743 24.5038C26.6882 24.5853 26.7305 24.6592 26.7936 24.7124C26.8567 24.7657 26.9367 24.7949 27.0193 24.7949C27.1019 24.7949 27.1818 24.7657 27.245 24.7124C27.3081 24.6592 27.3504 24.5853 27.3643 24.5038C27.4012 24.212 27.4179 23.918 27.4143 23.6239C27.3964 23.461 27.3629 23.3003 27.3143 23.1438C27.6091 23.1347 27.9015 23.0876 28.1843 23.0038C28.5416 22.9072 28.8576 22.6965 29.0843 22.4038C29.2862 21.9483 29.3041 21.4323 29.1343 20.9639C29.0463 20.6435 28.9006 20.3419 28.7043 20.0739C28.5914 19.9384 28.4422 19.8378 28.2743 19.7839C28.055 19.7584 27.8336 19.7584 27.6143 19.7839C27.6293 19.5074 27.6293 19.2303 27.6143 18.9538C27.6143 17.9538 27.4543 17.0438 27.4543 16.0838C27.4543 14.7638 27.5143 13.4239 27.4543 12.0839C27.4362 11.1728 27.3324 10.2655 27.1443 9.37385C27.1538 9.32802 27.1525 9.2806 27.1405 9.23538C27.1284 9.19015 27.1059 9.14837 27.0748 9.11339C27.0437 9.0784 27.0049 9.05118 26.9614 9.03389C26.9179 9.01661 26.8709 9.00975 26.8243 9.01385C26.7453 9.03073 26.6759 9.07781 26.6311 9.14506C26.5863 9.2123 26.5695 9.2944 26.5843 9.37385C26.684 10.0357 26.7308 10.7045 26.7243 11.3739C26.7243 12.9239 26.5943 14.4938 26.5943 16.0438C26.5943 17.0438 26.7943 17.9639 26.8643 18.9239C26.8792 19.2203 26.8792 19.5174 26.8643 19.8139C26.327 19.9577 25.7783 20.0548 25.2243 20.1039C25.1841 20.1011 25.1437 20.1066 25.1057 20.1198C25.0676 20.133 25.0326 20.1538 25.0027 20.1809C24.9728 20.2079 24.9487 20.2408 24.9318 20.2773C24.9149 20.3139 24.9055 20.3536 24.9043 20.3939C24.9049 20.4742 24.9332 20.5519 24.9843 20.6139C24.9453 20.6729 24.9277 20.7434 24.9343 20.8139C24.9743 21.1939 24.9143 21.6938 24.9143 22.1438ZM27.2743 20.6039C27.5437 20.5784 27.8149 20.5784 28.0843 20.6039C28.1843 20.7339 28.3743 21.8439 28.1943 21.8939C27.7143 22.0139 26.5843 22.0739 26.1943 22.1239C26.0578 22.1345 25.9208 22.1345 25.7843 22.1239C25.7347 22.023 25.7009 21.915 25.6843 21.8039C25.6343 21.4239 25.6843 21.0139 25.6143 20.6638C26.1643 20.6938 26.7443 20.6039 27.2843 20.6039H27.2743Z" fill="black"/>
</svg>
