<svg width="36" height="36" viewBox="0 0 36 36" fill="none" xmlns="http://www.w3.org/2000/svg">
<g clip-path="url(#clip0_9909_3021)">
<path fill-rule="evenodd" clip-rule="evenodd" d="M26.2599 28.58C22.2599 28.26 18.5499 28.77 14.6599 28.77C13.7299 28.77 12.7699 28.77 11.8099 28.66C11.2599 28.66 9.87991 28.66 8.68991 28.5C8.01991 28.41 7.38991 28.32 7.16991 27.99C7.08232 27.7467 7.05823 27.4851 7.09991 27.23C7.09991 26.59 7.18991 25.87 7.18991 25.58C7.18991 23.49 7.13991 20.73 7.18991 18.23C7.18991 17.11 7.18991 16.04 7.26991 15.1C7.26991 14.53 7.32991 13.96 7.33991 13.38C7.40991 11.11 7.33991 8.83996 7.45991 6.56996C7.46274 6.52938 7.45701 6.48865 7.44307 6.45042C7.42913 6.4122 7.4073 6.37733 7.37901 6.34809C7.35071 6.31886 7.31658 6.2959 7.27884 6.28072C7.24109 6.26553 7.20057 6.25846 7.15991 6.25996C7.08634 6.25979 7.01545 6.28758 6.96161 6.33771C6.90776 6.38785 6.87498 6.45657 6.86991 6.52996C6.70991 8.52996 6.66991 10.53 6.56991 12.53C6.52991 13.35 6.46991 14.2 6.39991 15C6.28683 16.4211 6.21014 17.8449 6.16991 19.27C6.10991 21.47 6.10991 23.77 6.09991 25.58C6.09991 25.92 5.98991 26.81 5.99991 27.51C5.9937 27.8894 6.08311 28.2642 6.25991 28.6C6.71194 29.0989 7.33077 29.4155 7.99991 29.49C9.23754 29.6373 10.4837 29.7008 11.7299 29.68C12.7299 29.74 13.7299 29.75 14.6699 29.68C18.5499 29.59 22.1999 28.98 26.2199 29.19C26.3036 29.1905 26.3845 29.1603 26.4472 29.1049C26.5099 29.0496 26.5501 28.973 26.5599 28.89C26.5554 28.8109 26.5227 28.7361 26.4676 28.6792C26.4125 28.6222 26.3388 28.587 26.2599 28.58Z" fill="black"/>
<path fill-rule="evenodd" clip-rule="evenodd" d="M12.9999 12.3002C12.9273 12.0991 12.8133 11.9155 12.6653 11.7611C12.5173 11.6068 12.3386 11.4852 12.1408 11.4042C11.9429 11.3231 11.7302 11.2845 11.5165 11.2907C11.3028 11.2969 11.0927 11.3478 10.8999 11.4402C10.5857 11.6151 10.3203 11.866 10.1281 12.17C9.93596 12.474 9.82311 12.8213 9.79992 13.1802C9.77862 13.3737 9.80038 13.5695 9.86362 13.7535C9.92686 13.9376 10.03 14.1054 10.1657 14.2449C10.3014 14.3845 10.4663 14.4923 10.6486 14.5606C10.8308 14.6289 11.0259 14.6561 11.2199 14.6402C11.3684 14.6366 11.5159 14.6165 11.6599 14.5802C11.8555 14.5183 12.0461 14.4414 12.2299 14.3502C12.2686 14.3318 12.3029 14.3053 12.3305 14.2725C12.3581 14.2398 12.3784 14.2015 12.3899 14.1602C12.6508 13.9347 12.8454 13.6425 12.9529 13.3148C13.0603 12.9871 13.0766 12.6364 12.9999 12.3002ZM11.9299 13.6402C11.8781 13.6629 11.8332 13.6989 11.7998 13.7446C11.7665 13.7902 11.7458 13.8439 11.7399 13.9002H11.6099C11.4971 13.9152 11.3828 13.9152 11.2699 13.9002C11.1461 13.8916 11.0293 13.8399 10.9398 13.754C10.8502 13.6681 10.7937 13.5535 10.7799 13.4302C10.7839 13.2804 10.8215 13.1335 10.8899 13.0002C10.988 12.7596 11.1641 12.5588 11.3899 12.4302C11.7899 12.2002 12.1599 12.5502 12.2599 12.9202C12.2332 12.962 12.219 13.0106 12.219 13.0602C12.219 13.1098 12.2332 13.1584 12.2599 13.2002C12.2474 13.2957 12.2105 13.3864 12.1527 13.4635C12.0948 13.5406 12.0181 13.6014 11.9299 13.6402Z" fill="black"/>
<path fill-rule="evenodd" clip-rule="evenodd" d="M26 10.5399C26.2777 10.7759 26.6364 10.8942 27 10.8699C27.1487 10.8703 27.2968 10.8501 27.44 10.8099C27.6346 10.7541 27.8224 10.677 28 10.5799C28.0398 10.5616 28.0755 10.5353 28.1047 10.5026C28.134 10.4699 28.1562 10.4315 28.17 10.3899C28.4905 10.2197 28.7311 9.93018 28.8396 9.58393C28.9482 9.23768 28.916 8.86261 28.75 8.53992C28.6795 8.33828 28.5673 8.15376 28.4207 7.99839C28.2742 7.84303 28.0965 7.7203 27.8993 7.63821C27.7021 7.55612 27.4898 7.51652 27.2763 7.52198C27.0627 7.52745 26.8527 7.57785 26.66 7.66992C26.345 7.84642 26.0792 8.09908 25.8871 8.4048C25.6949 8.71051 25.5825 9.05952 25.56 9.41992C25.5503 9.51634 25.5503 9.61349 25.56 9.70992C25.6105 10.0277 25.7653 10.3197 26 10.5399ZM27.72 9.86992C27.6669 9.89071 27.6208 9.92621 27.5872 9.97226C27.5535 10.0183 27.5337 10.073 27.53 10.1299H27.4C27.2875 10.1493 27.1725 10.1493 27.06 10.1299C26.975 10.1209 26.8931 10.0928 26.8204 10.0478C26.7477 10.0028 26.686 9.94198 26.64 9.86992L26.71 9.78992C26.7692 9.73001 26.8025 9.64916 26.8025 9.56492C26.8025 9.48067 26.7692 9.39982 26.71 9.33992C26.71 9.33992 26.64 9.33992 26.61 9.33992C26.606 9.3067 26.606 9.27313 26.61 9.23992C26.701 8.99248 26.8787 8.78642 27.11 8.65992C27.51 8.41992 27.88 8.78992 27.98 9.15992C28.0192 9.29254 28.0129 9.43446 27.9622 9.56311C27.9115 9.69176 27.8192 9.79975 27.7 9.86992H27.72Z" fill="black"/>
<path fill-rule="evenodd" clip-rule="evenodd" d="M13.4098 13.9998L13.5398 14.0898L14.7198 14.8898C14.7898 14.8898 14.9698 15.0898 15.1098 15.1698C15.2027 15.2172 15.3056 15.2412 15.4098 15.2398C15.5965 15.2205 15.7702 15.1354 15.8998 14.9998C16.1405 14.7332 16.3517 14.4415 16.5298 14.1298C16.8749 13.6662 17.2455 13.2222 17.6398 12.7998C18.4398 11.9498 18.5798 12.2198 19.2498 12.5098L21.1898 13.3998C21.4298 13.5198 21.7498 13.7298 22.0598 13.8698C22.2276 13.949 22.4063 14.0029 22.5898 14.0298C22.6643 14.0387 22.7398 14.0307 22.8108 14.0065C22.8818 13.9822 22.9464 13.9424 22.9998 13.8898C23.0598 13.8298 23.1898 13.6398 23.2098 13.6198L23.8798 12.7998C24.3098 12.2798 24.7598 11.7998 25.2198 11.2698C25.6598 10.7798 25.4098 10.2698 24.8898 10.5398L24.6498 10.7598C24.1398 11.2398 23.6498 11.7598 23.1698 12.2398L22.4698 13.0098L22.3398 12.9398C22.0998 12.7998 21.8498 12.6198 21.6598 12.4998L20.8498 12.0798C20.4498 11.8898 20.0398 11.7198 19.6398 11.5398C19.3194 11.3842 18.9844 11.2602 18.6398 11.1698C18.3966 11.0875 18.1331 11.0875 17.8898 11.1698C17.4676 11.403 17.0941 11.7154 16.7898 12.0898C16.4109 12.5833 16.07 13.1048 15.7698 13.6498C15.6998 13.7498 15.4598 14.0498 15.2798 14.2998L15.1398 14.2498L13.9198 13.5598L13.6498 13.3998C12.9998 13.3798 12.9398 13.5998 13.4098 13.9998Z" fill="black"/>
<path fill-rule="evenodd" clip-rule="evenodd" d="M11.08 22.2799C10.8835 22.1913 10.6705 22.1455 10.455 22.1455C10.2395 22.1455 10.0264 22.1913 9.82999 22.2799C9.51902 22.4612 9.25654 22.7151 9.06499 23.0198C8.87343 23.3245 8.75849 23.6711 8.72999 24.0299C8.70793 24.2249 8.72992 24.4222 8.79434 24.6075C8.85876 24.7928 8.96395 24.9612 9.10217 25.1004C9.24039 25.2395 9.40809 25.3459 9.59291 25.4116C9.77773 25.4773 9.97494 25.5007 10.17 25.4799C10.3188 25.481 10.4669 25.4608 10.61 25.4199C10.8087 25.3668 11.0001 25.2896 11.18 25.1899C11.2195 25.1727 11.2545 25.1466 11.2822 25.1137C11.31 25.0807 11.3297 25.0418 11.34 24.9999C11.6622 24.8315 11.9049 24.5427 12.0154 24.1963C12.1259 23.8499 12.0952 23.4738 11.93 23.1499C11.7621 22.7661 11.4598 22.4567 11.08 22.2799ZM10.88 24.5199C10.8289 24.5409 10.7844 24.5752 10.751 24.6191C10.7176 24.6631 10.6965 24.7151 10.69 24.7699H10.56C10.4471 24.7848 10.3328 24.7848 10.22 24.7699C10.0955 24.7633 9.97763 24.7122 9.88769 24.626C9.79776 24.5397 9.7418 24.424 9.72999 24.2999C9.72417 24.1363 9.76214 23.974 9.83999 23.8299C9.93532 23.5876 10.1121 23.386 10.34 23.2599C10.74 23.0199 11.12 23.3799 11.21 23.7599C11.2633 23.9048 11.2587 24.0645 11.1972 24.2061C11.1358 24.3476 11.0222 24.46 10.88 24.5199Z" fill="black"/>
<path fill-rule="evenodd" clip-rule="evenodd" d="M29.87 15.4495C29.7971 15.2485 29.6831 15.0649 29.5354 14.9103C29.3876 14.7558 29.2093 14.6337 29.0117 14.5518C28.8141 14.47 28.6017 14.4302 28.3879 14.435C28.1742 14.4397 27.9637 14.489 27.77 14.5795C27.4562 14.7574 27.1914 15.0104 26.9994 15.3159C26.8074 15.6213 26.6943 15.9696 26.67 16.3295C26.6547 16.6841 26.7528 17.0344 26.95 17.3295C27.2738 17.6135 27.6807 17.7854 28.11 17.8195C28.2588 17.8206 28.407 17.8004 28.55 17.7595C28.747 17.7058 28.938 17.6321 29.12 17.5395C29.1602 17.5207 29.1955 17.4928 29.2233 17.4581C29.251 17.4235 29.2704 17.3829 29.28 17.3395C29.4448 17.2562 29.5911 17.1407 29.7104 16.9998C29.8297 16.8589 29.9196 16.6955 29.9746 16.5193C30.0296 16.343 30.0487 16.1575 30.0307 15.9738C30.0128 15.79 29.9581 15.6118 29.87 15.4495ZM28.82 16.7895C28.7662 16.8092 28.7194 16.8445 28.6856 16.8907C28.6518 16.937 28.6324 16.9923 28.63 17.0495H28.5C28.3875 17.0689 28.2725 17.0689 28.16 17.0495C28.0365 17.0453 27.9187 16.9963 27.8285 16.9117C27.7384 16.827 27.6821 16.7126 27.67 16.5895C27.6634 16.4226 27.7013 16.2569 27.78 16.1095C27.8781 15.8689 28.0542 15.6682 28.28 15.5395C28.68 15.2995 29.06 15.6695 29.15 16.0395C29.2003 16.1831 29.1942 16.3404 29.133 16.4796C29.0717 16.6189 28.9598 16.7296 28.82 16.7895Z" fill="black"/>
<path fill-rule="evenodd" clip-rule="evenodd" d="M26.9099 18.2292C27.2899 17.8192 27.0699 17.2292 26.5899 17.5892C26.4799 17.6892 26.3599 17.7792 26.2499 17.8892C25.9299 18.1992 25.6099 18.5292 25.3199 18.8892C25.0299 19.2492 24.7799 19.6892 24.0999 19.2492C23.7184 18.9436 23.3607 18.6093 23.0299 18.2492C22.8079 18.0137 22.5557 17.8086 22.2799 17.6392C22.1877 17.5879 22.0856 17.5568 21.9803 17.5482C21.8751 17.5396 21.7693 17.5536 21.6699 17.5892C21.2505 17.7676 20.8596 18.0069 20.5099 18.2992C19.8949 18.8584 19.3233 19.4635 18.7999 20.1092C18.3972 20.6111 17.918 21.0464 17.3799 21.3992C17.291 21.2936 17.2075 21.1835 17.1299 21.0692C16.7999 20.7692 16.4199 20.3692 16.0099 20.0692C15.7161 19.8287 15.3756 19.6517 15.0099 19.5492C14.6588 19.4447 14.2814 19.4732 13.9499 19.6292C13.5764 19.8616 13.2394 20.148 12.9499 20.4792L11.7799 21.5792C11.2899 22.1392 11.7799 22.2792 12.4199 21.8692L13.4199 20.9692C13.6614 20.7111 13.9414 20.4918 14.2499 20.3192C14.4043 20.259 14.5756 20.259 14.7299 20.3192C14.9799 20.4115 15.208 20.5545 15.3999 20.7392C15.7699 21.0492 16.0999 21.4492 16.3999 21.7392C16.3999 21.7392 16.7899 22.1792 16.9499 22.3092C17.034 22.3813 17.1359 22.4295 17.2449 22.4488C17.354 22.4682 17.4662 22.4579 17.5699 22.4192C17.9845 22.2263 18.3686 21.9736 18.7099 21.6692C19.3077 21.1021 19.8689 20.4976 20.3899 19.8592C20.794 19.355 21.2769 18.9194 21.8199 18.5692C22.0064 18.6529 22.1812 18.7605 22.3399 18.8892C22.7914 19.3424 23.291 19.7448 23.8299 20.0892C24.1214 20.2504 24.4471 20.3395 24.7799 20.3492C24.9532 20.3393 25.1184 20.2725 25.2499 20.1592C25.4899 19.9103 25.7012 19.6352 25.8799 19.3392C26.1499 19.0092 26.4299 18.6792 26.7299 18.3392L26.8899 18.1792L26.9099 18.2292Z" fill="black"/>
</g>
<defs>
<clipPath id="clip0_9909_3021">
<rect width="24" height="24" fill="white" transform="translate(6 6)"/>
</clipPath>
</defs>
</svg>
