<svg width="36" height="36" viewBox="0 0 36 36" fill="none" xmlns="http://www.w3.org/2000/svg">
<path d="M29.9734 8.44493C29.9578 8.40276 29.9341 8.3641 29.9035 8.33118C29.8729 8.29826 29.836 8.27173 29.7951 8.25313C29.7542 8.23453 29.71 8.22423 29.6651 8.22282C29.6202 8.22142 29.5754 8.22893 29.5334 8.24493C29.4178 8.28572 29.3122 8.35047 29.2234 8.43493C29.0834 8.55493 28.9334 8.73493 28.8434 8.81493L27.2234 10.3049C26.6234 10.9049 26.0134 11.5149 25.4634 12.1649C24.9134 12.8149 24.4034 13.5049 23.8834 14.1649C23.5234 14.6749 23.1634 15.2249 22.7434 15.7249C22.4853 16.0479 22.1974 16.3459 21.8834 16.6149C21.8512 16.6379 21.8239 16.667 21.803 16.7005C21.782 16.7341 21.7679 16.7714 21.7614 16.8104C21.7549 16.8494 21.7562 16.8893 21.7651 16.9278C21.774 16.9664 21.7904 17.0028 21.8134 17.0349C21.8364 17.0671 21.8655 17.0944 21.899 17.1154C21.9326 17.1363 21.9699 17.1504 22.0089 17.1569C22.0479 17.1634 22.0878 17.1622 22.1263 17.1532C22.1648 17.1443 22.2012 17.1279 22.2334 17.1049C22.6144 16.8499 22.9724 16.5621 23.3034 16.2449C23.7934 15.7849 24.2434 15.2449 24.6834 14.8049C25.1234 14.3649 25.3634 14.0549 25.6834 13.6649C26.0034 13.2749 26.5934 12.5849 27.0434 12.0449L27.9734 10.9749L29.3534 9.35493L29.7534 8.89493C29.8413 8.86316 29.9134 8.79845 29.9545 8.71446C29.9956 8.63048 30.0023 8.53382 29.9734 8.44493Z" fill="black"/>
<path d="M8.72352 15.1952C8.96352 14.9252 9.21352 14.6552 9.44352 14.3752C9.84352 13.9052 10.2235 13.3752 10.6435 12.9252C10.9078 12.6324 11.1954 12.3615 11.5035 12.1152C11.6512 11.9929 11.8083 11.8825 11.9735 11.7852C12.1432 11.6878 12.3204 11.6042 12.5035 11.5352C12.9621 11.3492 13.4642 11.2975 13.9511 11.386C14.438 11.4746 14.8897 11.6997 15.2535 12.0352C16.5135 13.0352 17.4435 14.9052 18.3235 16.1152L19.6735 17.9352L21.2835 19.9352C22.3236 21.3034 23.6213 22.4551 25.1035 23.3252C25.6664 23.6379 26.3244 23.7333 26.9529 23.5932C27.5814 23.4531 28.1367 23.0873 28.5135 22.5652C28.5611 22.4938 28.5808 22.4074 28.5688 22.3224C28.5569 22.2375 28.5142 22.1599 28.4488 22.1043C28.3834 22.0488 28.2998 22.0192 28.2141 22.0212C28.1283 22.0232 28.0463 22.0567 27.9835 22.1152C27.6949 22.4926 27.2771 22.7503 26.8103 22.8388C26.3435 22.9274 25.8604 22.8406 25.4535 22.5952C24.1153 21.7282 22.9601 20.607 22.0535 19.2952L20.5535 17.2952L19.2535 15.4452C18.3235 14.1552 17.3235 12.2252 15.9635 11.1452C15.4472 10.6923 14.8108 10.3985 14.1313 10.2992C13.4517 10.1998 12.7579 10.2991 12.1335 10.5852C11.8984 10.6777 11.6738 10.7951 11.4635 10.9352C11.2531 11.0671 11.0526 11.2142 10.8635 11.3752C10.5248 11.6806 10.2136 12.0152 9.93352 12.3752C9.53352 12.8752 9.17352 13.3752 8.79352 13.9052L8.69352 14.0252C7.18352 15.6152 8.28352 15.6952 8.72352 15.1952Z" fill="black"/>
<path d="M19.1031 20.0947C18.629 20.7145 18.1145 21.3024 17.5631 21.8547C17.0259 22.3962 16.4326 22.8789 15.7931 23.2947C15.57 23.448 15.336 23.585 15.0931 23.7047C14.9478 23.7879 14.7776 23.8163 14.6131 23.7847C14.3896 23.7038 14.2065 23.5387 14.1031 23.3247C13.6231 22.5847 13.3531 21.4847 12.9231 20.9247C12.6073 20.4607 12.1451 20.116 11.6103 19.9456C11.0756 19.7752 10.4992 19.789 9.97313 19.9847C9.50986 20.1506 9.07479 20.3867 8.68313 20.6847C7.62313 21.4947 7.84313 22.0547 8.68313 21.6847C9.15541 21.3183 9.69593 21.0498 10.2731 20.8947C10.6034 20.808 10.953 20.8314 11.2688 20.9614C11.5846 21.0913 11.8494 21.3207 12.0231 21.6147C12.4331 22.1647 12.6631 23.2347 13.1331 23.9547C13.395 24.4045 13.8219 24.7345 14.3231 24.8747C14.66 24.9391 15.0084 24.9008 15.3231 24.7647C15.6787 24.5922 16.0141 24.3809 16.3231 24.1347C16.8621 23.7374 17.3612 23.2886 17.8131 22.7947C18.4741 22.0751 19.0792 21.3062 19.6231 20.4947C19.6499 20.4581 19.6691 20.4165 19.6796 20.3724C19.6901 20.3283 19.6917 20.2825 19.6843 20.2378C19.6768 20.1931 19.6605 20.1503 19.6362 20.112C19.612 20.0737 19.5803 20.0406 19.5431 20.0147C19.472 19.9746 19.389 19.9606 19.3087 19.9752C19.2283 19.9898 19.1556 20.0321 19.1031 20.0947Z" fill="black"/>
<path d="M29.4734 28.2351C28.3534 28.1851 27.1134 28.1251 25.8834 28.0851H23.4834C21.0234 28.0851 18.5734 27.9151 16.1234 27.8751C15.0634 27.8751 13.9934 27.8751 12.9234 27.9651L8.33336 28.2151H7.18336C7.04336 28.2151 7.46336 26.1051 7.40336 22.8151C7.40336 22.8151 7.06336 15.4651 7.07336 15.0951C7.07336 14.0951 7.13336 13.0951 7.13336 12.0951V10.0951C7.04336 9.1951 6.87336 8.2951 6.84336 7.4151C6.81961 7.06101 6.83639 6.70537 6.89336 6.3551C6.9005 6.31564 6.89966 6.27515 6.89089 6.23603C6.88211 6.1969 6.86559 6.15993 6.84228 6.1273C6.81897 6.09467 6.78936 6.06705 6.7552 6.04606C6.72103 6.02507 6.683 6.01114 6.64336 6.0051C6.60462 5.99786 6.56484 5.99833 6.52628 6.00648C6.48772 6.01463 6.45114 6.03029 6.41864 6.05258C6.38614 6.07487 6.35834 6.10334 6.33685 6.13638C6.31535 6.16941 6.30058 6.20635 6.29336 6.2451C6.22824 6.63832 6.19812 7.03655 6.20336 7.4351C6.20336 8.3151 6.35336 9.2251 6.37336 10.0751V12.0751C6.37336 13.0751 6.26336 14.0751 6.20336 15.0751C6.03336 17.6951 6.31336 20.2951 6.29336 22.9151C6.29336 26.1251 5.96336 28.2151 6.00336 28.4351C6.03642 28.6186 6.11557 28.7906 6.23336 28.9351C6.44387 29.1628 6.72637 29.3111 7.03336 29.3551C7.48832 29.411 7.94841 29.411 8.40336 29.3551L13.0234 29.0451C14.0234 28.9451 15.0934 28.9051 16.1234 28.8951C18.5834 28.8951 21.0334 28.9851 23.5034 28.8951H25.8734C27.0934 28.8951 28.3334 28.9451 29.4434 28.9651C29.5248 28.9512 29.5987 28.9089 29.6519 28.8458C29.7052 28.7826 29.7344 28.7027 29.7344 28.6201C29.7344 28.5375 29.7052 28.4575 29.6519 28.3944C29.5987 28.3313 29.5248 28.289 29.4434 28.2751L29.4734 28.2351Z" fill="black"/>
</svg>
