<svg width="468" height="468" viewBox="0 0 468 468" fill="none" xmlns="http://www.w3.org/2000/svg">
<path fill-rule="evenodd" clip-rule="evenodd" d="M211.703 195.831C219.511 189.652 228.433 185.021 237.988 182.188C247.551 179.097 257.671 178.104 267.654 179.275C268.312 179.431 268.995 179.451 269.66 179.332C270.326 179.213 270.96 178.959 271.522 178.585C272.085 178.211 272.564 177.725 272.93 177.158C273.296 176.591 273.541 175.955 273.649 175.29C273.805 174.614 273.82 173.913 273.693 173.23C273.566 172.548 273.3 171.899 272.91 171.324C272.521 170.749 272.017 170.26 271.43 169.887C270.844 169.515 270.186 169.266 269.499 169.158C258.042 166.782 246.217 166.782 234.76 169.158C223.156 171.443 212.063 175.805 202.019 182.034C197.827 184.182 194.139 187.192 191.198 190.865C188.257 194.537 186.13 198.79 184.957 203.342C184.544 206.994 184.982 210.691 186.235 214.147C187.488 217.603 189.522 220.725 192.181 223.27C195.567 227.057 199.677 230.133 204.269 232.317C208.862 234.502 213.845 235.751 218.927 235.993C228.884 236.179 238.803 234.729 248.286 231.701C255.586 229.156 263.315 228.062 271.036 228.481C283.64 230.474 297.014 238.292 310.233 240.898C317.102 242.513 324.286 242.195 330.984 239.978C332.472 239.531 333.721 238.513 334.456 237.147C335.191 235.782 335.352 234.181 334.904 232.697C334.455 231.213 333.434 229.968 332.065 229.235C330.696 228.501 329.09 228.341 327.602 228.788C322.865 230.015 317.891 230.015 313.153 228.788C299.934 225.109 286.868 215.912 274.264 213.459C264.058 211.616 253.574 211.982 243.521 214.532C235.815 216.661 227.846 217.693 219.85 217.598C214.585 217.283 209.639 214.981 206.015 211.16C204.171 209.167 202.941 207.941 203.556 206.408C204.984 202.059 207.858 198.328 211.703 195.831Z" fill="black"/>
<mask id="path-2-inside-1_9909_3077" fill="white">
<path fill-rule="evenodd" clip-rule="evenodd" d="M391.086 175.136C374.639 168.238 360.344 159.807 344.204 151.989C333.565 146.588 322.451 142.175 311.002 138.806C291.732 133.475 271.507 132.532 251.822 136.047C254.639 125.44 256.592 114.623 257.663 103.702C258.576 94.1364 258.162 84.4905 256.433 75.0371C252.591 56.7956 242.753 50.0508 234.145 50.0508C228.405 50.5877 222.887 52.5348 218.085 55.718C213.284 58.9013 209.348 63.2215 206.63 68.2924L195.717 87.4537C188.129 104.457 181.609 121.915 176.195 139.726C176.195 139.726 174.812 139.726 174.351 139.726C161.016 148.496 149.443 159.673 140.226 172.683C135.446 178.913 131.277 185.587 127.776 192.611C124.199 199.764 121.366 207.263 119.321 214.991C117.76 220.756 117.405 226.779 118.278 232.686C119.151 238.593 121.232 244.258 124.394 249.328C127.453 253.384 131.991 256.076 137.024 256.821C142.058 257.567 147.184 256.307 151.294 253.314C146.731 272.104 144.156 291.319 143.608 310.645C143.741 313.024 144.101 315.385 144.684 317.696C145.167 320.161 145.887 322.574 146.836 324.901C149.141 330.306 152.027 335.445 155.444 340.23C157.442 344.982 168.202 347.741 187.263 330.113C189.264 328.27 191.114 326.271 192.796 324.134C194.507 322.009 196.049 319.754 197.408 317.389C200.051 311.945 202.412 306.368 204.478 300.681C210.101 305.529 216.559 309.321 223.539 311.871C227.639 313.389 231.935 314.319 236.297 314.63C242.963 315.096 249.661 314.474 256.126 312.791C257.509 312.791 258.585 311.105 259.969 310.491C271.055 317.598 283.845 321.62 297.014 322.141C306.172 322.046 315.294 320.966 324.221 318.922C336.543 315.632 349.073 313.174 361.727 311.564C363.276 311.564 364.762 310.951 365.857 309.858C366.953 308.766 367.568 307.284 367.568 305.739C367.568 304.195 366.953 302.713 365.857 301.62C364.762 300.528 363.276 299.914 361.727 299.914C346.357 298.788 330.914 299.147 315.613 300.987L298.243 302.674H287.176C282.005 302.685 276.849 302.119 271.805 300.987C273.596 299.126 275.099 297.007 276.262 294.702C278.281 290.393 278.661 285.499 277.332 280.931C276.003 276.363 273.056 272.432 269.038 269.869C269.038 269.869 267.654 269.869 266.886 269.869C270.411 267.546 273.418 264.523 275.718 260.988C278.019 257.454 279.565 253.485 280.259 249.328C280.867 245.462 280.263 241.502 278.53 237.99C276.797 234.478 274.019 231.586 270.575 229.707C269.327 228.921 267.827 228.635 266.376 228.907C264.925 229.179 263.631 229.989 262.755 231.174C261.878 232.359 261.484 233.83 261.652 235.293C261.819 236.756 262.536 238.101 263.658 239.058C264.67 239.959 265.387 241.142 265.716 242.454C266.044 243.766 265.97 245.146 265.503 246.416C264.487 248.601 262.97 250.517 261.074 252.009C259.178 253.5 256.956 254.525 254.589 255C250.83 255.706 246.973 255.706 243.214 255L233.991 254.08C229.485 253.412 225.02 252.491 220.618 251.321V242.89C220.962 242.215 221.155 241.472 221.182 240.715C221.209 239.958 221.07 239.204 220.775 238.505C220.479 237.807 220.035 237.181 219.473 236.672C218.91 236.162 218.243 235.781 217.518 235.555C216.792 235.329 216.026 235.263 215.273 235.363C214.52 235.462 213.797 235.724 213.156 236.131C212.514 236.537 211.97 237.078 211.559 237.716C211.149 238.354 210.883 239.074 210.781 239.824C209.243 242.584 199.406 261.898 198.637 264.351C197.912 266.971 197.347 269.633 196.946 272.322C196.872 273.445 196.872 274.572 196.946 275.694C192.95 274.008 189.568 272.015 185.572 270.483C183.912 269.692 182.155 269.125 180.345 268.796C178.629 268.392 176.88 268.135 175.119 268.03C170.354 268.03 166.358 268.95 161.746 269.256H160.824C169.124 236.912 177.579 203.188 187.263 170.077C194.076 144.792 202.759 120.044 213.24 96.0379L221.848 78.4095C225.383 72.4312 229.072 67.6792 233.376 67.5259C237.68 67.3726 239.064 71.6647 240.908 78.8694C242.903 86.8851 243.731 95.1451 243.368 103.396C242.844 116.407 241.094 129.341 238.142 142.025C237.812 143.527 238.076 145.097 238.877 146.411C239.679 147.724 240.957 148.678 242.446 149.076C243.665 149.305 244.927 149.128 246.037 148.575C247.147 148.021 248.045 147.121 248.594 146.011C249.242 146.233 249.945 146.233 250.592 146.011C264.573 146.045 278.466 148.216 291.787 152.449C296.706 153.982 301.625 155.821 306.39 157.507C313.922 160.113 321.762 163.026 328.679 165.785C347.739 172.99 366.953 180.348 387.243 185.866C388.732 186.357 390.354 186.247 391.762 185.559C393.17 184.871 394.251 183.661 394.775 182.187C395.211 180.764 395.068 179.228 394.378 177.909C393.688 176.59 392.506 175.594 391.086 175.136ZM151.755 233.999C149.889 236.252 147.52 238.037 144.838 239.211C143.101 239.844 141.195 239.844 139.458 239.211C138.228 239.211 138.228 237.219 137.767 235.839C136.084 230.396 136.084 224.573 137.767 219.13C140.025 211.252 142.903 203.563 146.375 196.137C149.744 188.465 153.648 181.038 158.057 173.91C161.755 168.533 165.812 163.412 170.2 158.58C170.2 161.34 168.51 163.792 167.741 166.552C162.833 186.84 158.629 207.291 155.136 227.868C154.368 230.014 153.292 232.007 151.755 233.999ZM234.145 273.855C242.129 276.15 250.601 276.15 258.585 273.855C258.203 274.914 258.144 276.062 258.418 277.154C258.692 278.246 259.285 279.232 260.123 279.987C261.186 281.255 261.768 282.856 261.768 284.509C261.768 286.162 261.186 287.762 260.123 289.031C258.973 290.549 257.517 291.811 255.85 292.735C254.182 293.659 252.339 294.224 250.439 294.396C245.799 295.419 241.044 295.831 236.297 295.622C231.149 295.863 225.99 295.503 220.926 294.549C216.101 293.511 211.445 291.809 207.092 289.491C209.09 285.812 211.088 282.286 212.779 278.607C213.952 276.132 214.929 273.57 215.699 270.942C216.08 269.632 216.387 268.301 216.622 266.957C222.157 269.964 228.042 272.281 234.145 273.855ZM158.672 279.987C162.433 282.676 166.39 285.084 170.508 287.191C172.22 287.983 174.029 288.55 175.888 288.877C177.78 289.035 179.683 289.035 181.575 288.877C186.048 288.748 190.512 288.39 194.948 287.804V291.33C194.475 292.564 194.475 293.928 194.948 295.162C189.883 299.113 185.058 303.362 180.499 307.885C177.919 311.026 175.508 314.301 173.275 317.696C170.662 321.682 168.356 325.82 165.896 329.806C165.896 326.229 165.589 322.704 164.974 319.229C164.634 315.499 163.966 311.805 162.976 308.192C160.826 302.089 157.935 296.272 154.368 290.87C154.368 290.87 155.29 289.797 155.444 289.184C156.366 285.812 157.288 282.286 158.057 278.914C158.211 279.987 158.364 279.987 158.672 279.987Z"/>
</mask>
<path fill-rule="evenodd" clip-rule="evenodd" d="M391.086 175.136C374.639 168.238 360.344 159.807 344.204 151.989C333.565 146.588 322.451 142.175 311.002 138.806C291.732 133.475 271.507 132.532 251.822 136.047C254.639 125.44 256.592 114.623 257.663 103.702C258.576 94.1364 258.162 84.4905 256.433 75.0371C252.591 56.7956 242.753 50.0508 234.145 50.0508C228.405 50.5877 222.887 52.5348 218.085 55.718C213.284 58.9013 209.348 63.2215 206.63 68.2924L195.717 87.4537C188.129 104.457 181.609 121.915 176.195 139.726C176.195 139.726 174.812 139.726 174.351 139.726C161.016 148.496 149.443 159.673 140.226 172.683C135.446 178.913 131.277 185.587 127.776 192.611C124.199 199.764 121.366 207.263 119.321 214.991C117.76 220.756 117.405 226.779 118.278 232.686C119.151 238.593 121.232 244.258 124.394 249.328C127.453 253.384 131.991 256.076 137.024 256.821C142.058 257.567 147.184 256.307 151.294 253.314C146.731 272.104 144.156 291.319 143.608 310.645C143.741 313.024 144.101 315.385 144.684 317.696C145.167 320.161 145.887 322.574 146.836 324.901C149.141 330.306 152.027 335.445 155.444 340.23C157.442 344.982 168.202 347.741 187.263 330.113C189.264 328.27 191.114 326.271 192.796 324.134C194.507 322.009 196.049 319.754 197.408 317.389C200.051 311.945 202.412 306.368 204.478 300.681C210.101 305.529 216.559 309.321 223.539 311.871C227.639 313.389 231.935 314.319 236.297 314.63C242.963 315.096 249.661 314.474 256.126 312.791C257.509 312.791 258.585 311.105 259.969 310.491C271.055 317.598 283.845 321.62 297.014 322.141C306.172 322.046 315.294 320.966 324.221 318.922C336.543 315.632 349.073 313.174 361.727 311.564C363.276 311.564 364.762 310.951 365.857 309.858C366.953 308.766 367.568 307.284 367.568 305.739C367.568 304.195 366.953 302.713 365.857 301.62C364.762 300.528 363.276 299.914 361.727 299.914C346.357 298.788 330.914 299.147 315.613 300.987L298.243 302.674H287.176C282.005 302.685 276.849 302.119 271.805 300.987C273.596 299.126 275.099 297.007 276.262 294.702C278.281 290.393 278.661 285.499 277.332 280.931C276.003 276.363 273.056 272.432 269.038 269.869C269.038 269.869 267.654 269.869 266.886 269.869C270.411 267.546 273.418 264.523 275.718 260.988C278.019 257.454 279.565 253.485 280.259 249.328C280.867 245.462 280.263 241.502 278.53 237.99C276.797 234.478 274.019 231.586 270.575 229.707C269.327 228.921 267.827 228.635 266.376 228.907C264.925 229.179 263.631 229.989 262.755 231.174C261.878 232.359 261.484 233.83 261.652 235.293C261.819 236.756 262.536 238.101 263.658 239.058C264.67 239.959 265.387 241.142 265.716 242.454C266.044 243.766 265.97 245.146 265.503 246.416C264.487 248.601 262.97 250.517 261.074 252.009C259.178 253.5 256.956 254.525 254.589 255C250.83 255.706 246.973 255.706 243.214 255L233.991 254.08C229.485 253.412 225.02 252.491 220.618 251.321V242.89C220.962 242.215 221.155 241.472 221.182 240.715C221.209 239.958 221.07 239.204 220.775 238.505C220.479 237.807 220.035 237.181 219.473 236.672C218.91 236.162 218.243 235.781 217.518 235.555C216.792 235.329 216.026 235.263 215.273 235.363C214.52 235.462 213.797 235.724 213.156 236.131C212.514 236.537 211.97 237.078 211.559 237.716C211.149 238.354 210.883 239.074 210.781 239.824C209.243 242.584 199.406 261.898 198.637 264.351C197.912 266.971 197.347 269.633 196.946 272.322C196.872 273.445 196.872 274.572 196.946 275.694C192.95 274.008 189.568 272.015 185.572 270.483C183.912 269.692 182.155 269.125 180.345 268.796C178.629 268.392 176.88 268.135 175.119 268.03C170.354 268.03 166.358 268.95 161.746 269.256H160.824C169.124 236.912 177.579 203.188 187.263 170.077C194.076 144.792 202.759 120.044 213.24 96.0379L221.848 78.4095C225.383 72.4312 229.072 67.6792 233.376 67.5259C237.68 67.3726 239.064 71.6647 240.908 78.8694C242.903 86.8851 243.731 95.1451 243.368 103.396C242.844 116.407 241.094 129.341 238.142 142.025C237.812 143.527 238.076 145.097 238.877 146.411C239.679 147.724 240.957 148.678 242.446 149.076C243.665 149.305 244.927 149.128 246.037 148.575C247.147 148.021 248.045 147.121 248.594 146.011C249.242 146.233 249.945 146.233 250.592 146.011C264.573 146.045 278.466 148.216 291.787 152.449C296.706 153.982 301.625 155.821 306.39 157.507C313.922 160.113 321.762 163.026 328.679 165.785C347.739 172.99 366.953 180.348 387.243 185.866C388.732 186.357 390.354 186.247 391.762 185.559C393.17 184.871 394.251 183.661 394.775 182.187C395.211 180.764 395.068 179.228 394.378 177.909C393.688 176.59 392.506 175.594 391.086 175.136ZM151.755 233.999C149.889 236.252 147.52 238.037 144.838 239.211C143.101 239.844 141.195 239.844 139.458 239.211C138.228 239.211 138.228 237.219 137.767 235.839C136.084 230.396 136.084 224.573 137.767 219.13C140.025 211.252 142.903 203.563 146.375 196.137C149.744 188.465 153.648 181.038 158.057 173.91C161.755 168.533 165.812 163.412 170.2 158.58C170.2 161.34 168.51 163.792 167.741 166.552C162.833 186.84 158.629 207.291 155.136 227.868C154.368 230.014 153.292 232.007 151.755 233.999ZM234.145 273.855C242.129 276.15 250.601 276.15 258.585 273.855C258.203 274.914 258.144 276.062 258.418 277.154C258.692 278.246 259.285 279.232 260.123 279.987C261.186 281.255 261.768 282.856 261.768 284.509C261.768 286.162 261.186 287.762 260.123 289.031C258.973 290.549 257.517 291.811 255.85 292.735C254.182 293.659 252.339 294.224 250.439 294.396C245.799 295.419 241.044 295.831 236.297 295.622C231.149 295.863 225.99 295.503 220.926 294.549C216.101 293.511 211.445 291.809 207.092 289.491C209.09 285.812 211.088 282.286 212.779 278.607C213.952 276.132 214.929 273.57 215.699 270.942C216.08 269.632 216.387 268.301 216.622 266.957C222.157 269.964 228.042 272.281 234.145 273.855ZM158.672 279.987C162.433 282.676 166.39 285.084 170.508 287.191C172.22 287.983 174.029 288.55 175.888 288.877C177.78 289.035 179.683 289.035 181.575 288.877C186.048 288.748 190.512 288.39 194.948 287.804V291.33C194.475 292.564 194.475 293.928 194.948 295.162C189.883 299.113 185.058 303.362 180.499 307.885C177.919 311.026 175.508 314.301 173.275 317.696C170.662 321.682 168.356 325.82 165.896 329.806C165.896 326.229 165.589 322.704 164.974 319.229C164.634 315.499 163.966 311.805 162.976 308.192C160.826 302.089 157.935 296.272 154.368 290.87C154.368 290.87 155.29 289.797 155.444 289.184C156.366 285.812 157.288 282.286 158.057 278.914C158.211 279.987 158.364 279.987 158.672 279.987Z" fill="black" stroke="#F8F8F8" stroke-width="2" mask="url(#path-2-inside-1_9909_3077)"/>
<path fill-rule="evenodd" clip-rule="evenodd" d="M216.929 378.399C199.666 371.679 180.822 370.082 162.668 373.8L144.53 378.399L125.009 381.158C120.99 381.316 116.966 381.007 113.019 380.239C109.32 379.466 105.75 378.176 102.413 376.406C96.1107 373.187 91.8067 369.355 91.0381 364.603C90.7304 361.65 91.2244 358.67 92.4683 355.973C93.7123 353.276 95.6605 350.962 98.1089 349.274C103.956 344.254 110.75 340.45 118.092 338.084C125.794 335.664 133.844 334.525 141.917 334.711C143.13 334.501 144.23 333.871 145.023 332.932C145.816 331.992 146.25 330.804 146.25 329.576C146.25 328.348 145.816 327.16 145.023 326.22C144.23 325.281 143.13 324.651 141.917 324.441C132.825 323.462 123.634 323.98 114.71 325.974C105.314 328.018 96.4269 331.928 88.5787 337.471C83.6382 340.472 79.6021 344.748 76.8965 349.848C74.191 354.947 72.9164 360.68 73.2074 366.442C74.0404 372.216 76.2847 377.697 79.7427 382.402C83.2006 387.107 87.766 390.891 93.0364 393.422C97.807 396.22 102.997 398.239 108.408 399.4C113.861 400.556 119.439 401.02 125.009 400.779C129.081 400.667 133.14 400.257 137.152 399.553C140.995 399.553 144.838 398.02 148.681 397.101L167.126 391.122C181.161 386.903 196.131 386.903 210.166 391.122C212.625 392.195 214.931 393.268 215.546 395.568C216.161 397.867 215.546 402.926 211.088 408.444C210.624 409.058 210.285 409.757 210.092 410.502C209.899 411.246 209.854 412.021 209.961 412.783C210.068 413.544 210.325 414.277 210.716 414.94C211.107 415.603 211.625 416.182 212.241 416.645C212.857 417.108 213.558 417.446 214.304 417.638C215.051 417.831 215.828 417.875 216.592 417.769C218.134 417.553 219.527 416.735 220.465 415.495C223.488 412.48 225.769 408.807 227.129 404.764C228.489 400.721 228.892 396.419 228.304 392.195C227.503 389.22 226.074 386.45 224.112 384.071C222.151 381.691 219.702 379.758 216.929 378.399Z" fill="black"/>
</svg>
