<svg width="200" height="200" viewBox="0 0 200 200" fill="none" xmlns="http://www.w3.org/2000/svg" xmlns:xlink="http://www.w3.org/1999/xlink">
<g clip-path="url(#clip0_9909_3091)">
<path d="M0 7.00001C0 3.13401 3.13401 0 7 0H193C196.866 0 200 3.13401 200 7V193C200 196.866 196.866 200 193 200H7.00001C3.13401 200 0 196.866 0 193V7.00001Z"/>
<path fill-rule="evenodd" clip-rule="evenodd" d="M163.444 47.1285C161.863 45.5362 159.949 44.3242 157.842 43.5825C155.735 42.8409 153.49 42.5885 151.273 42.8441C147.965 43.254 144.946 44.9556 142.86 47.5857C140.775 50.2158 139.788 53.566 140.111 56.9214C140.289 58.2533 140.699 59.5427 141.322 60.7298L129.756 65.3542C128.712 65.5169 127.679 65.744 126.663 66.0343C122.83 60.3897 116.779 49.8487 112.341 43.5241C111.803 42.8441 111.332 42.3 110.929 41.688C111.755 41.1111 112.521 40.4503 113.215 39.7158C114.676 38.6434 115.816 37.1844 116.51 35.4994C117.317 33.3046 117.434 30.9112 116.844 28.6468C116.254 26.3825 114.986 24.3578 113.215 22.8502C111.684 21.2804 109.83 20.0707 107.785 19.3068C105.739 18.5428 103.553 18.2434 101.38 18.4297C98.0474 18.8069 94.9947 20.4945 92.8813 23.1283C90.7678 25.762 89.7631 29.1306 90.084 32.5071C90.3539 34.5349 91.1669 36.4494 92.435 38.0436C93.7031 39.6378 95.3781 40.851 97.2788 41.5519C91.5633 48.3526 82.015 61.9539 78.653 66.5783L75.3581 66.0343C70.9608 64.2689 66.4713 62.7479 61.9099 61.4778C62.6631 59.3312 62.7646 57.0058 62.2015 54.8004C61.6383 52.5949 60.4363 50.6101 58.7496 49.1007C57.169 47.5084 55.2542 46.2964 53.1473 45.5547C51.0404 44.813 48.7954 44.5606 46.5789 44.8163C43.213 45.2415 40.15 46.9962 38.0588 49.6974C35.9675 52.3985 35.0178 55.8267 35.4169 59.2336C35.6433 60.7747 36.1755 62.2536 36.9813 63.5815C37.7871 64.9094 38.8499 66.0589 40.106 66.9608C41.3621 67.8628 42.7855 68.4987 44.2907 68.8303C45.7959 69.1619 47.3519 69.1824 48.8651 68.8905V73.583L50.0755 80.3836L52.9668 90.5846L55.6565 99.7655C56.5306 102.69 59.8254 101.738 59.5565 98.4734L57.203 89.4965L54.7823 79.2955L54.4461 72.8349C54.4461 72.1549 54.0427 69.9106 53.9754 68.3465C55.1413 67.8761 56.2659 67.3074 57.3375 66.6463C58.579 66.7251 59.8143 66.8841 61.0358 67.1224C65.3124 68.5732 69.5097 70.2531 73.6099 72.1549C75.8051 72.8028 78.0568 73.2355 80.334 73.447C80.9332 73.4872 81.5325 73.3707 82.0743 73.1087C82.616 72.8466 83.0819 72.4479 83.4271 71.9508C84.4357 70.4547 98.0856 51.5489 104.272 44.7482C109.248 50.6648 118.258 66.1023 122.494 71.9508C122.875 72.4595 123.377 72.8631 123.953 73.1245C124.528 73.3859 125.16 73.4968 125.789 73.447C127.783 73.1101 129.741 72.5865 131.639 71.8828C133.32 71.2708 135.001 70.6587 136.615 69.9106C138.229 69.1626 141.389 67.7344 143.742 66.6463C144.213 66.6463 145.894 66.2383 146.365 65.6262C147.088 66.4854 147.513 67.5602 147.575 68.6865C147.889 70.9423 147.889 73.2314 147.575 75.4872C146.716 81.3217 145.389 87.0758 143.608 92.6928C142.398 96.7732 140.582 100.242 139.036 104.186C137.489 108.13 140.582 110.987 141.927 107.994C143.877 103.642 146.701 98.7454 148.248 94.393C150.292 88.5644 151.888 82.5847 153.022 76.5073C153.571 73.2895 153.571 70.0002 153.022 66.7823C156.384 66.7823 155.644 67.8024 157.392 67.1904C159.58 66.5598 161.633 65.522 163.444 64.1301C164.886 63.0384 166.022 61.5851 166.739 59.9137C167.557 57.6986 167.679 55.2824 167.09 52.9944C166.5 50.7064 165.227 48.658 163.444 47.1285ZM56.7996 59.9137C56.2616 62.0899 41.872 69.3666 41.4686 58.3495C41.5879 56.6297 42.3487 55.0198 43.597 53.8456C44.8453 52.6715 46.488 52.0207 48.1927 52.0249C49.3981 51.8447 50.6281 51.9405 51.7919 52.3054C52.9557 52.6703 54.0236 53.2949 54.9168 54.1331C55.7575 54.803 56.3844 55.7085 56.7192 56.7366C57.054 57.7646 57.082 58.8697 56.7996 59.9137ZM96.1357 32.031C96.2712 30.3233 97.039 28.7302 98.2856 27.5702C99.5322 26.4103 101.166 25.7689 102.86 25.7744C103.996 25.633 105.15 25.7421 106.241 26.0943C107.332 26.4465 108.335 27.0333 109.18 27.8146C110.136 28.4025 110.892 29.2702 111.348 30.3026C111.804 31.335 111.939 32.4833 111.736 33.5952C111.407 34.7166 110.722 35.6969 109.786 36.3835C109.786 36.3835 96.4046 40.5318 96.1357 32.031ZM161.427 57.8735C161.073 58.9823 160.393 59.9552 159.477 60.6618C158.392 61.5631 157.1 62.175 155.721 62.4417C154.342 62.7084 152.919 62.6213 151.581 62.1885C150.244 61.7556 149.035 60.9908 148.065 59.9638C147.095 58.9368 146.395 57.6804 146.029 56.3093C146.164 54.6016 146.932 53.0085 148.179 51.8486C149.425 50.6886 151.059 50.0473 152.753 50.0528C153.889 49.9113 155.043 50.0204 156.134 50.3726C157.225 50.7248 158.228 51.3117 159.073 52.0929C159.991 52.7259 160.703 53.6182 161.122 54.6585C161.54 55.6987 161.646 56.8406 161.427 57.9415V57.8735Z" fill="black"/>
<path fill-rule="evenodd" clip-rule="evenodd" d="M137.019 110.239C134.449 108.151 131.535 106.54 128.412 105.478C118.49 102.415 108.189 100.789 97.8169 100.65C85.9173 99.9121 73.9834 101.34 62.5826 104.866L61.7757 105.274C60.6898 105.704 59.6528 106.252 58.6826 106.906C56.6365 108.051 54.9919 109.809 53.9757 111.939C52.6564 115.176 51.5336 118.492 50.6136 121.868C49.3361 126.696 48.5292 130.913 47.924 133.565C47.6934 133.981 47.4912 134.413 47.3188 134.857L45.974 135.401C42.996 136.082 40.0557 136.922 37.1654 137.917C34.4085 139.005 32.9965 140.705 32.7947 142.066C30.9792 151.655 37.0309 162.468 49.6723 170.628C63.7391 178.749 79.8304 182.576 96.0014 181.645C96.4482 181.56 96.8516 181.32 97.1418 180.966C97.432 180.612 97.5909 180.167 97.5909 179.707C97.5909 179.247 97.432 178.802 97.1418 178.448C96.8516 178.094 96.4482 177.854 96.0014 177.769C80.5927 178.339 65.3549 174.344 52.1602 166.276C42.5447 159.815 37.1654 151.586 38.3757 144.106C37.2999 142.27 44.024 142.406 47.0499 141.726C48.9546 141.395 50.7664 140.652 52.3619 139.549C53.3303 138.491 54.0235 137.206 54.3791 135.809C56.0537 128.587 58.3024 121.514 61.1033 114.659C61.9102 112.551 65.205 111.463 69.4412 110.375C78.8599 108.257 88.5146 107.41 98.1531 107.858C101.65 107.858 104.877 108.198 108.374 108.538C105.905 112.708 102.663 116.357 98.8255 119.283C96.9896 120.649 95.0568 121.877 93.0428 122.956C90.997 124.001 88.8855 124.91 86.7221 125.676C82.7337 127.158 78.5305 127.962 74.2825 128.056C74.5271 125.606 74.9314 123.176 75.4929 120.78C75.5978 120.276 75.5106 119.751 75.2488 119.309C74.9869 118.868 74.5697 118.543 74.0808 118.399C73.6084 118.272 73.1058 118.336 72.6792 118.577C72.2525 118.819 71.9353 119.218 71.7946 119.691C69.47 126.484 68.4432 133.661 68.7687 140.841C69.1295 145.906 70.6985 150.806 73.3411 155.123C76.4098 159.509 80.7961 162.777 85.848 164.44C92.9045 166.806 100.404 167.504 107.769 166.48C110.376 166.201 112.932 165.56 115.367 164.576C117.259 163.865 118.979 162.752 120.41 161.311C123.949 157.242 126.28 152.245 127.134 146.894C128.474 139.503 128.314 131.914 126.663 124.588C126.52 124.026 126.167 123.541 125.678 123.237C125.189 122.933 124.602 122.832 124.041 122.956C123.49 123.086 123.012 123.429 122.71 123.913C122.408 124.397 122.306 124.981 122.427 125.54C123.437 131.184 123.437 136.966 122.427 142.61C121.796 147.967 119.432 152.964 115.703 156.823C114.861 157.563 113.877 158.119 112.812 158.455C110.841 159.057 108.812 159.444 106.76 159.611C101.503 160.183 96.1881 159.884 91.0256 158.727C86.1952 157.961 81.7634 155.564 78.4515 151.927C75.5136 147.685 73.834 142.683 73.6101 137.509V133.089C78.4249 134.076 83.3867 134.076 88.2014 133.089C90.9065 132.468 93.5103 131.46 95.9342 130.096C98.3838 128.806 100.646 127.182 102.658 125.268C107.153 120.978 110.566 115.661 112.61 109.763C117.174 110.341 121.676 111.342 126.058 112.755C130.227 114.183 133.388 115.611 134.329 117.923C137.624 125.948 139.372 133.361 140.582 136.897C140.901 138.16 141.551 139.311 142.465 140.229C143.505 140.943 144.668 141.45 145.894 141.726C148.046 142.406 152.013 144.99 153.762 144.786C153.446 149.547 152.05 154.17 149.683 158.298C147.316 162.426 144.041 165.947 140.112 168.588C130.803 174.23 120.167 177.236 109.315 177.293C109.03 177.292 108.747 177.351 108.485 177.465C108.223 177.58 107.987 177.747 107.792 177.958C107.596 178.168 107.446 178.417 107.349 178.689C107.253 178.96 107.212 179.249 107.231 179.537C107.265 180.12 107.524 180.667 107.951 181.061C108.378 181.454 108.939 181.664 109.517 181.645C121.304 181.868 132.928 178.835 143.137 172.873C148.275 169.593 152.526 165.072 155.507 159.719C158.488 154.365 160.107 148.345 160.217 142.202C160.227 141.423 160.009 140.659 159.59 140.005C159.171 139.352 158.57 138.838 157.863 138.529C155.061 137.284 152.159 136.283 149.189 135.537C148.382 135.537 147.575 134.789 147.105 134.653L146.836 134.041C146.096 131.729 145.222 128.056 143.944 123.704C143.07 120.984 142.196 117.991 140.986 114.931C139.77 113.278 138.444 111.71 137.019 110.239Z" fill="black"/>
</g>
<path d="M7 0.5H193C196.59 0.5 199.5 3.41015 199.5 7V193C199.5 196.59 196.59 199.5 193 199.5H7C3.41015 199.5 0.5 196.59 0.5 193V7C0.500003 3.41015 3.41015 0.5 7 0.5Z" stroke="#F8F8F8"/>
<defs>
<clipPath id="clip0_9909_3091">
<path d="M0 7.00001C0 3.13401 3.13401 0 7 0H193C196.866 0 200 3.13401 200 7V193C200 196.866 196.866 200 193 200H7.00001C3.13401 200 0 196.866 0 193V7.00001Z" fill="white"/>
</clipPath>
</defs>
</svg>
