<svg width="468" height="468" viewBox="0 0 468 468" fill="none" xmlns="http://www.w3.org/2000/svg">
<path fill-rule="evenodd" clip-rule="evenodd" d="M414.492 229.996C410.424 223.759 405.787 217.912 400.639 212.528C398.416 210.069 395.913 207.877 393.18 205.997C387.7 202.351 380.85 198.554 377.958 196.124C373.743 193.35 369.121 191.249 364.257 189.896C354.058 186.554 341.271 183.82 335.03 181.998H333.66C328.439 177.533 321.941 174.823 315.089 174.251C327.477 172.961 339.09 167.621 348.122 159.062C361.104 146.752 369.391 130.321 371.564 112.583C373.112 100.013 370.549 87.28 364.257 76.2806C358.846 68.4038 351.456 62.0833 342.827 57.9515C334.198 53.8198 324.633 52.0217 315.089 52.7373C305.32 54.297 296.046 58.0921 287.992 63.8254C279.619 69.1778 272.08 75.7285 265.615 83.2677C261.001 88.6028 257.391 94.7263 254.959 101.343C252.242 108.765 251.188 116.692 251.872 124.565C252.556 132.438 254.961 140.065 258.917 146.911C262.846 153.535 268.084 159.294 274.312 163.838C280.54 168.381 287.628 171.614 295.147 173.34C300.14 174.463 305.252 174.973 310.37 174.859C302.53 176.633 295.479 180.897 290.276 187.01C289.152 186.562 287.898 186.562 286.775 187.01C275.837 189.157 265.469 193.554 256.329 199.921C247.043 205.858 238.595 213.01 231.212 221.186L224.514 230.907L223.144 228.325C218.425 220.73 214.163 213.136 209.139 205.541C207.048 202.122 204.761 198.825 202.289 195.668C201.924 195.112 201.448 194.637 200.891 194.273C200.334 193.908 199.708 193.661 199.052 193.547C198.395 193.433 197.723 193.455 197.075 193.611C196.428 193.766 195.819 194.053 195.287 194.453C194.168 195.224 193.387 196.393 193.104 197.72C192.821 199.048 193.057 200.433 193.765 201.592C195.743 204.782 197.418 207.971 199.092 211.161C203.05 219.211 205.943 227.414 209.9 235.616C211.66 239.896 214.13 243.85 217.207 247.311C219.73 249.648 222.925 251.136 226.341 251.564C227.837 251.651 229.331 251.363 230.687 250.727C232.043 250.09 233.218 249.125 234.104 247.919C235.51 245.982 236.781 243.952 237.91 241.843L244.912 231.818C251.816 222.596 259.961 214.367 269.116 207.364C272.6 204.48 276.316 201.889 280.229 199.617C265.822 220.607 254.446 243.514 246.435 267.665C243.077 279.669 240.333 291.837 238.214 304.119C233.8 327.966 231.212 349.687 229.081 358.8C226.95 367.914 244.303 366.547 268.507 367.458C267.25 371.579 266.333 375.795 265.767 380.065C265.615 382.544 265.615 385.03 265.767 387.508V394.951C266.951 400.903 268.631 406.746 270.791 412.418C270.918 413.088 271.178 413.725 271.553 414.294C271.929 414.863 272.414 415.353 272.98 415.734C273.546 416.115 274.182 416.381 274.851 416.516C275.52 416.65 276.21 416.652 276.88 416.52C278.215 416.227 279.387 415.432 280.152 414.302C280.917 413.171 281.217 411.789 280.99 410.444C280.99 406.191 281.751 400.571 282.208 394.039C282.36 391.713 282.36 389.379 282.208 387.052C282.364 384.675 282.364 382.291 282.208 379.913C282.208 375.357 280.533 371.559 279.772 368.066H286.166C293.057 368.561 299.917 369.423 306.716 370.648C315.264 372.362 323.905 373.579 332.594 374.293H336.705C335.727 377.118 334.964 380.012 334.421 382.951C333.868 385.083 333.612 387.281 333.66 389.483C333.434 391.755 333.434 394.045 333.66 396.318C334.386 401.91 335.871 407.378 338.075 412.57C338.399 413.899 339.239 415.045 340.409 415.756C341.579 416.468 342.984 416.688 344.316 416.368C344.966 416.227 345.581 415.955 346.121 415.568C346.662 415.181 347.117 414.688 347.46 414.118C347.802 413.549 348.024 412.916 348.112 412.258C348.199 411.6 348.151 410.931 347.969 410.292C347.969 406.495 349.492 401.482 349.948 395.103C350.403 391.777 350.403 388.404 349.948 385.078C349.745 381.337 349.185 377.624 348.274 373.99H358.016H375.827C379.737 373.635 383.476 372.216 386.635 369.889C387.698 368.692 388.515 367.298 389.037 365.786C389.559 364.275 389.778 362.675 389.679 361.079C389.261 350.856 387.937 340.69 385.721 330.7C382.829 315.511 378.567 297.132 373.543 279.665C375.742 277.858 378.084 276.233 380.546 274.804C388.157 270.399 396.682 266.906 403.836 261.893C407.183 259.571 410.204 256.813 412.818 253.691C415.209 250.642 416.592 246.926 416.775 243.058C417.234 238.577 416.444 234.057 414.492 229.996ZM299.257 156.328C293.945 155.064 288.942 152.745 284.548 149.509C280.154 146.272 276.459 142.186 273.683 137.493C270.772 132.857 268.874 127.66 268.113 122.242C267.353 116.824 267.746 111.307 269.269 106.052C271.319 99.5946 274.63 93.6064 279.011 88.432C283.51 82.8258 288.615 77.732 294.234 73.2428C299.64 69.0696 305.713 65.8346 312.196 63.6735C320.215 62.0857 328.53 63.0147 335.999 66.3328C343.468 69.651 349.723 75.1954 353.906 82.2044C358.352 90.9703 359.745 100.965 357.864 110.608C355.266 124.885 347.788 137.821 336.705 147.214C331.651 151.616 325.612 154.742 319.095 156.328C312.578 157.914 305.774 157.914 299.257 156.328ZM376.74 359.256C375.68 359.414 374.603 359.414 373.543 359.256H358.321C350.214 359.868 342.072 359.868 333.965 359.256C325.747 358.846 317.562 357.933 309.456 356.522C302.606 355.459 295.147 354.851 287.383 354.396H239.432C241.868 343.459 244.76 325.232 249.327 304.879C252.067 293.487 255.112 281.335 258.917 269.792C266.325 250.129 276.142 231.456 288.145 214.199C293.128 206.369 299.23 199.307 306.259 193.238C307.956 191.863 310.021 191.017 312.196 190.807C321.634 190.807 327.419 199.617 332.747 209.338C340.242 226.234 346.351 243.708 351.014 261.589C362.017 291.688 370.122 322.763 375.218 354.396C376.131 355.611 376.436 357.889 376.74 359.256ZM401.248 245.337C399.831 247.147 398.252 248.825 396.529 250.349C390.593 255.817 382.829 259.918 376.131 265.539C374.71 266.583 373.385 267.752 372.173 269.032C370.803 264.627 369.433 260.222 367.911 256.273C362.712 235.527 355.26 215.408 345.686 196.276L355.124 200.377C359.735 202.206 364.045 204.715 367.911 207.819L387.396 223.768C389.375 226.046 393.333 230.299 396.986 234.856C400.639 239.413 402.162 240.324 402.162 242.755C402.163 243.694 401.84 244.606 401.248 245.337Z" fill="black"/>
<path fill-rule="evenodd" clip-rule="evenodd" d="M176.562 209.034H145.204C135.766 209.034 126.024 208.427 114.302 207.363C108.822 207.363 98.0139 205.996 88.4237 204.478C83.519 204.048 78.7007 202.923 74.1145 201.136C73.4453 200.828 72.8453 200.388 72.3504 199.843C71.8555 199.298 71.4759 198.659 71.2343 197.964C70.9927 197.269 70.894 196.532 70.9443 195.799C70.9945 195.065 71.1926 194.349 71.5266 193.693C74.4174 188.123 78.11 183.006 82.4869 178.504C87.143 173.04 92.2338 167.961 97.7095 163.315C105.473 158.15 114.302 151.467 123.283 145.239C128.584 141.407 134.184 138.004 140.028 135.063C145.618 132.14 151.625 130.091 157.839 128.987C159.749 128.618 161.713 128.618 163.623 128.987C166.009 129.618 168.31 130.536 170.473 131.721L219.186 162.1C220.194 162.687 221.39 162.866 222.526 162.601C223.663 162.335 224.655 161.646 225.298 160.674C225.941 159.701 226.187 158.52 225.984 157.373C225.782 156.226 225.147 155.199 224.209 154.505L177.324 121.696C173.876 119.394 170.14 117.556 166.211 116.228C166.138 114.913 166.138 113.594 166.211 112.279C166.894 109.841 167.974 107.532 169.408 105.444C171.154 103.795 173.097 102.367 175.192 101.191C178.2 98.8255 180.819 96.007 182.956 92.8366C185.308 89.2982 186.382 85.0659 186 80.8371C185.571 74.6149 183.232 68.6753 179.303 63.8252C175.39 59.3697 170.491 55.8853 164.993 53.6484C159.445 51.5472 153.378 51.2285 147.64 52.737C141.685 54.0779 136.337 57.3332 132.417 62.0025C130.33 65.2591 128.988 68.935 128.489 72.7683C127.989 76.6015 128.342 80.4976 129.525 84.1788C130.203 86.8797 131.613 89.3425 133.6 91.298C135.586 93.2535 138.074 94.6265 140.789 95.2669C141.348 95.4822 141.944 95.5818 142.543 95.5598C143.141 95.5377 143.729 95.3945 144.27 95.1387C144.811 94.883 145.294 94.5201 145.69 94.0721C146.086 93.6241 146.387 93.1004 146.574 92.5328C146.79 91.9755 146.89 91.3803 146.868 90.7833C146.845 90.1863 146.702 89.6 146.446 89.0601C146.189 88.5201 145.826 88.0379 145.377 87.6426C144.928 87.2474 144.403 86.9474 143.834 86.7609C142.536 86.1115 141.473 85.0756 140.791 83.7966C140.109 82.5176 139.843 81.0588 140.028 79.622C140.561 76.2385 142.224 73.134 144.747 70.8122C146.859 69.4923 149.264 68.7099 151.75 68.5338C154.237 68.2143 156.764 68.5821 159.057 69.5971C162.029 70.8042 164.685 72.6747 166.82 75.0652C168.437 77.1418 169.486 79.6017 169.865 82.2042C170.128 83.6864 169.8 85.2126 168.951 86.4571C165.602 91.4696 160.274 95.5707 158.752 98.9123C157.404 101.656 156.432 104.568 155.86 107.57C155.456 109.983 155.202 112.417 155.099 114.861C149.231 115.507 143.458 116.833 137.897 118.81C129.598 122.148 121.687 126.375 114.302 131.417C104.487 137.498 95.0329 144.142 85.9881 151.315C79.7203 156.251 73.9121 161.741 68.6344 167.72C61.5443 174.795 56.3153 183.509 53.4118 193.086C52.5788 197.576 53.3194 202.216 55.5091 206.226C57.6988 210.237 61.2045 213.373 65.4376 215.11C70.2873 217.173 75.4177 218.504 80.6602 219.059C91.6205 220.426 105.777 220.882 112.323 221.034H144.291C154.185 221.034 163.776 220.122 176.258 218.907C176.938 218.869 177.604 218.696 178.217 218.4C178.83 218.104 179.379 217.69 179.831 217.182C180.284 216.674 180.632 216.082 180.854 215.44C181.077 214.798 181.17 214.118 181.129 213.439C181.022 212.281 180.502 211.2 179.664 210.392C178.826 209.584 177.726 209.102 176.562 209.034Z" fill="black"/>
</svg>
