<svg width="128" height="200" viewBox="0 0 128 200" fill="none" xmlns="http://www.w3.org/2000/svg" xmlns:xlink="http://www.w3.org/1999/xlink">
<g clip-path="url(#clip0_9909_3101)">
<path d="M0 7.00001C0 3.13401 3.13401 0 7 0H193C196.866 0 200 3.13401 200 7V193C200 196.866 196.866 200 193 200H7.00001C3.13401 200 0 196.866 0 193V7.00001Z"/>
<path fill-rule="evenodd" clip-rule="evenodd" d="M177.133 98.2886C175.395 95.6235 173.413 93.1246 171.213 90.8239C170.263 89.7728 169.194 88.836 168.026 88.0327C165.684 86.4748 162.756 84.852 161.52 83.8134C159.719 82.628 157.744 81.7301 155.666 81.1521C151.307 79.724 145.842 78.5556 143.175 77.7767H142.59C140.358 75.8687 137.582 74.7104 134.653 74.4662C139.947 73.915 144.91 71.6329 148.77 67.9751C154.318 62.7145 157.859 55.6925 158.788 48.1122C159.449 42.7404 158.354 37.299 155.666 32.5984C153.353 29.2323 150.195 26.5312 146.507 24.7655C142.82 22.9998 138.732 22.2314 134.653 22.5372C130.479 23.2037 126.515 24.8256 123.074 27.2757C119.495 29.5631 116.273 32.3625 113.511 35.5844C111.539 37.8644 109.996 40.4812 108.957 43.3088C107.796 46.4808 107.345 49.8683 107.638 53.2327C107.93 56.5971 108.958 59.8568 110.648 62.7822C112.327 65.6133 114.566 68.0744 117.227 70.016C119.889 71.9575 122.918 73.3391 126.131 74.0767C128.265 74.5565 130.45 74.7745 132.637 74.7259C129.286 75.4841 126.273 77.3062 124.049 79.9188C123.569 79.7273 123.033 79.7273 122.553 79.9188C117.879 80.836 113.448 82.7151 109.542 85.4362C105.574 87.9734 101.964 91.0298 98.8086 94.5238L95.9462 98.6781L95.3607 97.5746C93.344 94.3291 91.5225 91.0835 89.3758 87.8379C88.4819 86.3766 87.5045 84.9679 86.4483 83.6187C86.2921 83.3813 86.0887 83.1783 85.8508 83.0224C85.6128 82.8665 85.3453 82.7609 85.0648 82.7123C84.7844 82.6636 84.4969 82.6728 84.2201 82.7394C83.9434 82.806 83.6833 82.9285 83.4559 83.0994C82.9777 83.429 82.644 83.9286 82.523 84.4958C82.4021 85.063 82.5031 85.6549 82.8053 86.1502C83.651 87.5134 84.3666 88.8765 85.0822 90.2396C86.7736 93.6799 88.0096 97.1852 89.701 100.69C90.453 102.52 91.5086 104.209 92.8236 105.689C93.9019 106.687 95.2671 107.323 96.7268 107.506C97.3662 107.543 98.0047 107.42 98.5842 107.148C99.1637 106.876 99.6657 106.463 100.045 105.948C100.645 105.121 101.188 104.253 101.671 103.352L104.663 99.0676C107.614 95.1265 111.094 91.6099 115.007 88.6169C116.496 87.3843 118.084 86.277 119.756 85.3064C113.599 94.2762 108.738 104.065 105.314 114.387C103.879 119.517 102.706 124.716 101.801 129.965C99.9145 140.156 98.8086 149.439 97.8978 153.333C96.9871 157.228 104.403 156.644 114.747 157.033C114.209 158.794 113.818 160.596 113.576 162.421C113.511 163.48 113.511 164.542 113.576 165.602V168.782C114.081 171.326 114.8 173.823 115.723 176.247C115.777 176.533 115.888 176.806 116.048 177.049C116.209 177.292 116.416 177.501 116.658 177.664C116.9 177.827 117.172 177.94 117.458 177.998C117.744 178.056 118.038 178.056 118.325 178C118.895 177.875 119.396 177.535 119.723 177.052C120.05 176.569 120.178 175.978 120.081 175.403C120.081 173.586 120.406 171.184 120.602 168.393C120.667 167.399 120.667 166.401 120.602 165.407C120.668 164.391 120.668 163.372 120.602 162.356C120.602 160.409 119.886 158.786 119.561 157.293H122.293C125.238 157.504 128.17 157.873 131.075 158.396C134.728 159.129 138.421 159.649 142.134 159.954H143.891C143.473 161.161 143.147 162.398 142.915 163.654C142.679 164.565 142.569 165.505 142.59 166.445C142.493 167.417 142.493 168.395 142.59 169.367C142.9 171.756 143.534 174.093 144.476 176.312C144.615 176.88 144.974 177.369 145.474 177.674C145.974 177.978 146.574 178.072 147.144 177.935C147.421 177.875 147.684 177.758 147.915 177.593C148.146 177.428 148.341 177.217 148.487 176.974C148.633 176.73 148.728 176.46 148.766 176.178C148.803 175.897 148.782 175.611 148.705 175.338C148.705 173.716 149.355 171.573 149.551 168.847C149.745 167.426 149.745 165.985 149.551 164.563C149.464 162.964 149.224 161.378 148.835 159.825H152.998H160.61C162.281 159.673 163.879 159.067 165.228 158.072C165.683 157.561 166.032 156.965 166.255 156.319C166.478 155.673 166.572 154.989 166.53 154.307C166.351 149.938 165.785 145.594 164.838 141.325C163.602 134.834 161.781 126.979 159.634 119.515C160.573 118.743 161.574 118.048 162.626 117.437C165.879 115.555 169.522 114.062 172.58 111.92C174.01 110.928 175.301 109.749 176.418 108.415C177.44 107.112 178.031 105.524 178.109 103.871C178.305 101.956 177.968 100.024 177.133 98.2886ZM127.888 66.8067C125.617 66.2665 123.48 65.2753 121.602 63.8924C119.724 62.5095 118.145 60.7631 116.959 58.7577C115.715 56.7765 114.903 54.5556 114.578 52.2402C114.253 49.9249 114.421 47.5671 115.072 45.3211C115.948 42.5617 117.363 40.0026 119.235 37.7913C121.158 35.3955 123.34 33.2187 125.741 31.3002C128.051 29.5168 130.646 28.1343 133.417 27.2108C136.844 26.5322 140.398 26.9292 143.589 28.3472C146.781 29.7653 149.454 32.1347 151.242 35.13C153.142 38.8761 153.737 43.1471 152.933 47.2684C151.823 53.3695 148.627 58.8979 143.891 62.912C141.731 64.7931 139.15 66.1287 136.365 66.8065C133.58 67.4843 130.673 67.4844 127.888 66.8067ZM161 153.528C160.547 153.596 160.087 153.596 159.634 153.528H153.128C149.664 153.79 146.184 153.79 142.72 153.528C139.208 153.353 135.71 152.963 132.246 152.36C129.319 151.905 126.131 151.646 122.813 151.451H102.321C103.362 146.777 104.598 138.988 106.55 130.29C107.721 125.422 109.022 120.229 110.648 115.295C113.814 106.893 118.009 98.9129 123.139 91.5379C125.268 88.1917 127.876 85.174 130.88 82.5801C131.605 81.9925 132.488 81.6313 133.417 81.5415C137.451 81.5415 139.923 85.3064 142.199 89.4607C145.403 96.681 148.013 104.149 150.006 111.79C154.708 124.653 158.172 137.933 160.349 151.451C160.74 151.97 160.87 152.944 161 153.528ZM171.474 104.845C170.868 105.618 170.193 106.335 169.457 106.987C166.92 109.324 163.602 111.076 160.74 113.478C160.132 113.924 159.566 114.424 159.048 114.971C158.463 113.088 157.877 111.206 157.227 109.518C155.005 100.652 151.82 92.0548 147.729 83.8783L151.762 85.6309C153.733 86.4126 155.575 87.4847 157.227 88.8116L165.554 95.6273C166.399 96.601 168.091 98.4185 169.652 100.366C171.213 102.313 171.864 102.703 171.864 103.741C171.864 104.143 171.727 104.532 171.474 104.845Z" fill="black"/>
<path fill-rule="evenodd" clip-rule="evenodd" d="M75.4539 89.3309H62.0529C58.0195 89.3309 53.8561 89.0713 48.8469 88.6169C46.505 88.6169 41.8862 88.0327 37.7878 87.3836C35.6917 87.2002 33.6326 86.7194 31.6727 85.9556C31.3868 85.8238 31.1303 85.6358 30.9188 85.4029C30.7074 85.17 30.5451 84.8969 30.4419 84.5999C30.3386 84.303 30.2965 83.9883 30.3179 83.6747C30.3394 83.3611 30.4241 83.0551 30.5668 82.7749C31.8022 80.3947 33.3802 78.2078 35.2507 76.2838C37.2405 73.9489 39.416 71.7781 41.7561 69.7927C45.0738 67.5857 48.8469 64.7296 52.6851 62.0682C54.9503 60.4304 57.3433 58.976 59.841 57.7192C62.23 56.47 64.797 55.5944 67.4523 55.1227C68.2688 54.965 69.1079 54.965 69.9244 55.1227C70.944 55.3923 71.9271 55.7847 72.8518 56.2911L93.669 69.2734C94.1 69.5242 94.6108 69.6008 95.0967 69.4875C95.5825 69.3741 96.0063 69.0795 96.2812 68.664C96.556 68.2485 96.6609 67.7437 96.5744 67.2534C96.4878 66.7632 96.2163 66.3246 95.8158 66.0278L75.7792 52.007C74.306 51.0232 72.7093 50.2374 71.0303 49.6702C70.9989 49.108 70.9989 48.5446 71.0303 47.9825C71.3221 46.9407 71.7836 45.9538 72.3964 45.0615C73.1428 44.357 73.973 43.7466 74.8685 43.2439C76.1536 42.2332 77.273 41.0287 78.1862 39.6738C79.1913 38.1617 79.6502 36.353 79.4873 34.5458C79.3037 31.8867 78.3044 29.3485 76.6249 27.2758C74.9529 25.3717 72.8591 23.8827 70.5098 22.9267C68.1389 22.0288 65.546 21.8926 63.0937 22.5372C60.5491 23.1103 58.2635 24.5014 56.5883 26.4968C55.6964 27.8885 55.1232 29.4595 54.9095 31.0976C54.6959 32.7357 54.8471 34.4007 55.3523 35.9739C55.6424 37.1281 56.2448 38.1806 57.0938 39.0163C57.9428 39.852 59.0057 40.4387 60.1663 40.7124C60.405 40.8044 60.6599 40.847 60.9156 40.8376C61.1713 40.8281 61.4224 40.7669 61.6537 40.6576C61.8849 40.5483 62.0914 40.3933 62.2607 40.2018C62.43 40.0104 62.5585 39.7866 62.6383 39.544C62.7305 39.3058 62.7732 39.0515 62.7638 38.7963C62.7543 38.5412 62.693 38.2906 62.5835 38.0599C62.4739 37.8292 62.3185 37.6231 62.1266 37.4542C61.9348 37.2853 61.7105 37.1571 61.4674 37.0774C60.9128 36.7998 60.4583 36.3571 60.167 35.8106C59.8756 35.264 59.7617 34.6405 59.841 34.0265C60.0686 32.5806 60.7793 31.2539 61.8577 30.2617C62.7603 29.6976 63.7878 29.3633 64.8502 29.288C65.9131 29.1515 66.9932 29.3086 67.9728 29.7424C69.243 30.2582 70.378 31.0576 71.2905 32.0792C71.9816 32.9666 72.4299 34.0179 72.5916 35.13C72.704 35.7635 72.5639 36.4157 72.2013 36.9475C70.7701 39.0896 68.4932 40.8422 67.8426 42.2703C67.2667 43.4429 66.851 44.6873 66.6066 45.9702C66.434 47.0011 66.3254 48.0417 66.2814 49.086C63.7737 49.3622 61.3068 49.9285 58.9303 50.7736C55.3836 52.2001 52.0027 54.0065 48.8469 56.1613C44.6523 58.7601 40.6122 61.5993 36.7469 64.6647C34.0684 66.7739 31.5863 69.1202 29.3308 71.6751C26.3009 74.6989 24.0662 78.4225 22.8254 82.5153C22.4695 84.4343 22.7859 86.4172 23.7217 88.131C24.6575 89.8448 26.1556 91.1853 27.9647 91.9274C30.0372 92.8089 32.2297 93.3777 34.4701 93.6151C39.1539 94.1993 45.2039 94.394 48.0012 94.4589H61.6625C65.891 94.4589 69.9894 94.0695 75.3238 93.5502C75.6145 93.5336 75.899 93.46 76.161 93.3335C76.4231 93.207 76.6575 93.0301 76.8509 92.813C77.0443 92.5959 77.1929 92.3429 77.288 92.0684C77.3832 91.7939 77.4231 91.5033 77.4056 91.2134C77.3597 90.7185 77.1376 90.2565 76.7795 89.9111C76.4214 89.5657 75.9511 89.3599 75.4539 89.3309Z" fill="black"/>
</g>
<path d="M7 0.5H193C196.59 0.5 199.5 3.41015 199.5 7V193C199.5 196.59 196.59 199.5 193 199.5H7C3.41015 199.5 0.5 196.59 0.5 193V7C0.500003 3.41015 3.41015 0.5 7 0.5Z" stroke="#F8F8F8"/>
<defs>
<clipPath id="clip0_9909_3101">
<path d="M0 7.00001C0 3.13401 3.13401 0 7 0H193C196.866 0 200 3.13401 200 7V193C200 196.866 196.866 200 193 200H7.00001C3.13401 200 0 196.866 0 193V7.00001Z" fill="white"/>
</clipPath>
</defs>
</svg>
