<svg width="200" height="200" viewBox="0 0 200 200" fill="none" xmlns="http://www.w3.org/2000/svg" xmlns:xlink="http://www.w3.org/1999/xlink">
<g clip-path="url(#clip0_9909_3096)">
<path d="M0 7.00001C0 3.13401 3.13401 0 7 0H193C196.866 0 200 3.13401 200 7V193C200 196.866 196.866 200 193 200H7.00001C3.13401 200 0 196.866 0 193V7.00001Z"/>
<path fill-rule="evenodd" clip-rule="evenodd" d="M87.7333 127.554C87.6674 127.258 87.5439 126.978 87.3697 126.729C87.1955 126.481 86.9741 126.269 86.7181 126.107C86.4621 125.944 86.1765 125.833 85.8776 125.78C85.5787 125.728 85.2724 125.735 84.9762 125.8C84.6799 125.866 84.3996 125.99 84.1511 126.164C83.9026 126.338 83.6908 126.559 83.5279 126.815C83.365 127.071 83.2541 127.356 83.2015 127.655C83.149 127.954 83.1558 128.26 83.2217 128.556L88.3778 147.45C88.7965 148.97 89.0604 150.529 89.1655 152.102C89.3129 152.93 89.3129 153.778 89.1655 154.607C87.9481 153.462 83.6513 154.607 82.6488 154.607H79.8559L57.7275 152.961H50.5663H49.9218V151.529L53.6456 134.496C53.6456 134.496 54.3617 130.703 54.5766 129.272C54.72 128.355 54.577 127.416 54.1668 126.583C53.7567 125.751 53.0995 125.065 52.285 124.62C51.7562 124.38 51.1825 124.257 50.6021 124.257C50.0217 124.257 49.448 124.38 48.9192 124.62C48.2747 124.62 46.3411 126.051 46.1263 126.194C44.7877 126.726 43.3949 127.11 41.9727 127.339C40.6203 127.55 39.2433 127.55 37.8908 127.339C37.1205 127.306 36.3541 127.21 35.5992 127.053C34.7974 126.695 34.0303 126.263 33.3076 125.765L31.4457 123.761L30.5863 121.828C30.4081 121.075 30.4792 120.284 30.7891 119.574C31.099 118.864 31.6309 118.274 32.305 117.892C35.9877 116.435 39.7687 115.239 43.6198 114.314L49.4921 111.666C50.9285 110.804 52.2723 109.797 53.5024 108.66C54.1469 108.087 54.6482 107.443 55.2211 106.871C60.4869 109.094 66.298 109.692 71.9068 108.588C75.2009 107.639 78.2198 105.916 80.7115 103.563C83.2031 101.21 85.0951 98.2948 86.2294 95.0617C87.2462 92.2868 87.6981 89.3368 87.5586 86.385C87.419 83.4332 86.6908 80.5389 85.4166 77.8722C84.1425 75.2055 82.3481 72.82 80.1389 70.8559C77.9296 68.8917 75.3499 67.3884 72.5514 66.4342C67.2567 64.6241 61.4954 64.7206 56.2644 66.7072C51.0334 68.6937 46.6619 72.4453 43.9063 77.3127C42.3161 80.0852 41.3856 83.1862 41.1869 86.3757C40.9882 89.5652 41.5267 92.7576 42.7605 95.7058C44.5549 99.5964 47.4729 102.862 51.1392 105.081L50.5663 105.654C49.4655 106.539 48.2916 107.329 47.0572 108.016L41.8295 109.948C37.4611 111.379 30.6579 111.308 27.507 114.385C26.42 115.408 25.5931 116.676 25.0948 118.082C24.5966 119.489 24.4415 120.994 24.6425 122.473C24.6982 123.303 24.8669 124.121 25.1438 124.906C25.3802 125.628 25.6922 126.324 26.0747 126.981C26.4934 127.735 26.9724 128.453 27.507 129.128C28.0728 129.801 28.6958 130.424 29.3689 130.989C30.4935 131.891 31.7191 132.66 33.0212 133.279C34.3095 133.911 35.6856 134.345 37.1031 134.568C38.8126 134.819 40.5497 134.819 42.2592 134.568C43.5386 134.487 44.8086 134.296 46.0547 133.995L42.7605 150.098C42.1697 152.096 41.8801 154.17 41.9011 156.253C42.066 156.919 42.3762 157.54 42.8096 158.072C43.2429 158.604 43.7886 159.034 44.4076 159.33C45.8558 159.919 47.371 160.328 48.9192 160.547C49.8726 160.62 50.8303 160.62 51.7837 160.547C50.6107 165.474 50.4644 170.59 51.354 175.576C52.0283 178.044 53.5402 180.2 55.6306 181.675C57.7211 183.151 60.2599 183.854 62.812 183.664C65.4353 183.799 68.0067 182.899 69.9733 181.159C71.0356 182.7 72.4754 183.944 74.1554 184.77C75.8353 185.597 77.6993 185.98 79.5694 185.882C81.5077 185.849 83.4084 185.343 85.1059 184.407C86.8035 183.471 88.2463 182.135 89.3087 180.515C90.9194 177.789 91.8755 174.726 92.1016 171.569C92.2102 167.898 91.9221 164.227 91.2423 160.619C92.3589 160.251 93.3017 159.487 93.892 158.472C94.7357 156.787 95.1303 154.914 95.0378 153.032C94.9083 150.596 94.4506 148.189 93.6771 145.875L87.7333 127.554ZM49.0624 92.8431C48.058 90.806 47.5356 88.5655 47.5356 86.2946C47.5356 84.0236 48.058 81.7831 49.0624 79.746C49.9307 77.7414 51.1913 75.9305 52.77 74.4197C54.3487 72.909 56.2136 71.7288 58.2552 70.9487C60.2968 70.1686 62.4738 69.8042 64.6584 69.877C66.8429 69.9497 68.9908 70.4582 70.9759 71.3725C74.619 72.9499 77.5868 75.7637 79.3546 79.3166C80.4069 81.4059 80.9846 83.7016 81.0465 86.0398C81.1084 88.3781 80.6529 90.7011 79.7126 92.8431C78.95 94.9322 77.6913 96.8051 76.0448 98.301C74.3983 99.7969 72.4132 100.871 70.2598 101.431C66.1951 102.118 62.0187 101.621 58.2288 100C54.3882 98.8382 51.1196 96.2862 49.0624 92.8431ZM66.8223 171.569C66.7045 172.798 66.3391 173.991 65.7482 175.076C65.4811 175.687 65.0544 176.216 64.5126 176.606C63.9708 176.997 63.334 177.234 62.6688 177.294C61.4099 177.544 60.1033 177.354 58.9686 176.754C57.8339 176.154 56.9404 175.183 56.4385 174.002C55.3446 169.747 55.1495 165.311 55.8656 160.976H57.4411H67.7533C67.7223 161.118 67.7223 161.264 67.7533 161.406C67.0186 164.741 66.7058 168.155 66.8223 171.569ZM86.5875 171.211C86.279 173.449 85.4446 175.583 84.1526 177.437C83.6008 178.109 82.898 178.64 82.1015 178.989C81.305 179.337 80.4373 179.492 79.5694 179.441C78.8074 179.438 78.0615 179.222 77.416 178.817C76.7706 178.413 76.2514 177.835 75.9172 177.151C75.1155 175.396 74.677 173.497 74.6281 171.569C74.6622 171.044 74.6622 170.518 74.6281 169.994L75.0578 164.984V162.122C75.1048 161.861 75.1048 161.595 75.0578 161.334H82.2191H86.4442C86.88 164.49 86.9281 167.686 86.5875 170.853V171.211Z" fill="black"/>
<path fill-rule="evenodd" clip-rule="evenodd" d="M175.387 107.157C175.034 105.256 174.186 103.481 172.929 102.012C171.672 100.542 170.05 99.4284 168.226 98.7831C165.896 98.1326 163.449 98.0104 161.065 98.4253C158.038 99.0325 155.067 99.8944 152.185 101.002C155.375 96.5731 156.757 91.0969 156.052 85.686C153.546 60.0644 115.376 59.7066 114.159 86.3301C113.765 91.5044 115.261 96.646 118.368 100.804C121.475 104.961 125.983 107.854 131.059 108.946C132.49 109.278 133.962 109.398 135.428 109.304C137.462 109.139 139.477 108.779 141.443 108.23C143.329 107.61 145.114 106.718 146.742 105.582C146.953 105.866 147.24 106.083 147.569 106.21C147.899 106.337 148.258 106.367 148.604 106.298C151.469 105.94 155.766 104.938 159.704 104.652C161.597 104.422 163.517 104.668 165.29 105.367C166.101 105.776 166.771 106.416 167.218 107.206C167.664 107.996 167.865 108.9 167.797 109.805C167.834 112.155 167.077 114.45 165.648 116.317C163.973 118.355 161.768 119.891 159.275 120.755C154.978 121.96 150.597 122.845 146.17 123.403C145.639 123.538 145.184 123.877 144.902 124.346C144.62 124.815 144.535 125.376 144.666 125.908L146.599 136.571L149.106 147.092C150.584 150.689 151.851 154.369 152.901 158.114C153.559 160.317 153.826 162.618 153.689 164.913C153.72 166.229 153.413 167.531 152.799 168.696C152.185 169.861 151.284 170.85 150.18 171.568C139.724 177.652 138.937 163.982 138.865 163.767C137.846 159.981 136.553 156.274 134.998 152.674C134.798 152.095 134.377 151.619 133.826 151.351C133.276 151.082 132.641 151.044 132.062 151.243C131.483 151.442 131.006 151.863 130.738 152.414C130.469 152.964 130.43 153.598 130.63 154.177C131.82 157.664 132.777 161.227 133.494 164.841C133.888 166.994 133.888 169.201 133.494 171.354C133.21 172.301 132.635 173.135 131.852 173.738C131.068 174.342 130.114 174.684 129.126 174.717C128.07 174.864 126.995 174.772 125.979 174.45C124.963 174.128 124.032 173.584 123.253 172.857C122.158 171.696 121.219 170.396 120.461 168.992C119.214 166.667 118.091 164.278 117.095 161.835C114.729 156.065 112.86 150.103 111.509 144.015C110.105 137.829 109.053 131.568 108.358 125.264L107.642 111.88C107.642 111.33 107.423 110.802 107.034 110.413C106.644 110.023 106.116 109.805 105.565 109.805C105.014 109.805 104.486 110.023 104.097 110.413C103.707 110.802 103.488 111.33 103.488 111.88L103.059 125.764C103.036 133.731 103.731 141.683 105.135 149.525C106.286 154.612 107.867 159.592 109.862 164.412C110.965 167.309 112.306 170.11 113.872 172.785C115.057 174.718 116.476 176.497 118.097 178.081C119.755 179.52 121.721 180.559 123.845 181.117C125.968 181.676 128.191 181.739 130.343 181.302C132.495 180.962 134.494 179.981 136.079 178.487C137.663 176.993 138.759 175.056 139.223 172.928C139.12 173.388 139.16 173.868 139.34 174.303C139.519 174.739 139.828 175.108 140.226 175.362C142.069 176.659 144.21 177.471 146.451 177.721C148.692 177.971 150.96 177.652 153.044 176.793C155.147 175.762 156.965 174.231 158.339 172.334C159.712 170.438 160.599 168.233 160.922 165.915C161.414 162.748 161.293 159.516 160.564 156.396C159.355 152.264 157.798 148.241 155.909 144.372L152.113 135.068L149.32 126.838C149.652 127.148 150.085 127.326 150.538 127.339C154.762 127.608 159.002 127.148 163.07 125.979C166.036 125.118 168.758 123.573 171.019 121.47C172.799 119.58 174.118 117.306 174.876 114.823C175.634 112.341 175.809 109.718 175.387 107.157ZM139.151 100.787C138.036 101.167 136.884 101.43 135.714 101.574C134.693 101.717 133.656 101.717 132.635 101.574C129.152 100.948 126.004 99.1098 123.749 96.3846C121.494 93.6595 120.278 90.224 120.317 86.688C119.816 67.5076 148.175 67.2929 148.962 86.688C149.186 89.8048 148.334 92.904 146.549 95.4694C144.764 98.0348 142.153 99.9116 139.151 100.787Z" fill="black"/>
<path fill-rule="evenodd" clip-rule="evenodd" d="M105.565 21.2744C105.806 20.7044 105.813 20.0625 105.586 19.487C105.358 18.9115 104.913 18.4483 104.348 18.197C102.749 17.4363 101.097 16.7905 99.4063 16.2646C97.8308 15.7636 96.1121 15.3342 94.465 14.9764L87.3038 14.1176C84.3741 14.0375 81.4445 14.2775 78.567 14.8333C77.169 15.2168 75.9204 16.0154 74.9864 17.1235C74.6162 17.7001 74.4194 18.3707 74.4194 19.0558C74.4194 19.7409 74.6162 20.4116 74.9864 20.9882L75.989 22.348L79.498 28.0019C80.8586 30.149 82.5773 32.3676 84.1528 34.7293H82.8638C81.9305 34.9487 81.0367 35.3108 80.2141 35.8029C78.8237 36.5562 77.6157 37.6052 76.675 38.8758C75.7344 40.1465 75.0841 41.6079 74.77 43.157C74.4559 44.706 74.4856 46.3052 74.8571 47.8415C75.2285 49.3779 75.9327 50.8141 76.9199 52.049C77.782 53.482 78.9387 54.7156 80.3136 55.6684C81.6884 56.6212 83.25 57.2713 84.8951 57.5758C86.5402 57.8802 88.2312 57.8321 89.8563 57.4345C91.4814 57.0369 93.0035 56.299 94.3218 55.2696C95.8806 54.0089 96.9866 52.2755 97.4728 50.3313C98.0225 47.9773 98.0225 45.5284 97.4728 43.1744C96.5912 40.0188 95.2134 37.0233 93.3908 34.2999C91.0276 30.5068 87.9483 27.1431 85.585 23.7078L83.7231 21.2744C85.0527 20.7328 86.4162 20.2785 87.805 19.9146H93.4624C95.0379 19.9146 96.5418 20.4156 98.0457 20.7735C99.5568 21.118 101.041 21.5724 102.486 22.1333C103.013 22.4016 103.622 22.4622 104.193 22.3032C104.763 22.1442 105.253 21.777 105.565 21.2744ZM86.7309 38.8088C88.014 40.7782 89.0031 42.9239 89.667 45.1784C89.8468 46.1723 89.8468 47.1904 89.667 48.1843C89.6958 48.4728 89.6593 48.7642 89.5601 49.0368C89.461 49.3094 89.3017 49.5561 89.0941 49.7588C88.5325 50.2365 87.8762 50.5902 87.1682 50.7964C86.4602 51.0027 85.7165 51.0569 84.9861 50.9555C84.2556 50.8541 83.5549 50.5994 82.9299 50.2081C82.305 49.8168 81.7699 49.2979 81.3599 48.6852C80.7818 48.0582 80.3512 47.3101 80.0994 46.4954C79.8476 45.6808 79.7811 44.8203 79.9046 43.9767C80.0282 43.1331 80.3387 42.3277 80.8134 41.6193C81.2882 40.9109 81.9153 40.3175 82.6489 39.8823C83.1257 39.4898 83.6911 39.2196 84.296 39.095L86.7309 38.8088Z" fill="black"/>
<path fill-rule="evenodd" clip-rule="evenodd" d="M129.126 57.6315C130.937 56.9325 132.564 55.8268 133.88 54.3997C135.196 52.9727 136.167 51.2625 136.717 49.4012C138.134 42.7724 138.52 35.9651 137.862 29.2188V23.2786L139.653 23.6364C141.281 24.0794 142.845 24.7288 144.308 25.5688C145.402 26.2039 146.412 26.9733 147.315 27.859C148.318 28.7894 149.249 29.7913 150.18 30.7933C150.629 31.2057 151.217 31.4346 151.827 31.4346C152.437 31.4346 153.025 31.2057 153.474 30.7933C153.695 30.5797 153.871 30.324 153.991 30.0412C154.11 29.7584 154.172 29.4544 154.172 29.1472C154.172 28.8401 154.11 28.536 153.991 28.2533C153.871 27.9705 153.695 27.7147 153.474 27.5011C152.386 26.0508 151.214 24.6648 149.965 23.3502C149.258 22.5985 148.491 21.9045 147.673 21.2747C145.5 19.7123 143.079 18.5267 140.512 17.7678C138.682 17.2051 136.764 16.9867 134.855 17.1237C134.139 17.1415 133.447 17.3871 132.881 17.8247C132.314 18.2623 131.902 18.8692 131.704 19.557V22.3482L130.773 29.5051V39.3815C129.122 39.0459 127.444 38.8543 125.76 38.809C124.052 38.8042 122.372 39.2485 120.89 40.0972C118.825 41.3217 117.256 43.2325 116.458 45.4957C115.659 47.7588 115.682 50.2305 116.522 52.4786C117.532 54.813 119.417 56.6594 121.773 57.6224C124.128 58.5855 126.768 58.5888 129.126 57.6315ZM123.468 43.8904C124.139 43.41 124.935 43.1363 125.76 43.1031C127.212 42.96 128.676 42.96 130.128 43.1031C130.1 43.6514 130.1 44.2009 130.128 44.7492C129.627 47.3257 128.982 49.759 126.762 50.6178C126.43 50.9251 126.033 51.1535 125.6 51.2859C125.167 51.4184 124.71 51.4514 124.262 51.3826C123.815 51.3138 123.389 51.1449 123.016 50.8886C122.642 50.6323 122.332 50.2951 122.108 49.9021C121.511 48.9191 121.319 47.743 121.573 46.6216C121.827 45.5002 122.506 44.521 123.468 43.8904Z" fill="black"/>
</g>
<path d="M7 0.5H193C196.59 0.5 199.5 3.41015 199.5 7V193C199.5 196.59 196.59 199.5 193 199.5H7C3.41015 199.5 0.5 196.59 0.5 193V7C0.500003 3.41015 3.41015 0.5 7 0.5Z" stroke="#F8F8F8"/>
<defs>
<clipPath id="clip0_9909_3096">
<path d="M0 7.00001C0 3.13401 3.13401 0 7 0H193C196.866 0 200 3.13401 200 7V193C200 196.866 196.866 200 193 200H7.00001C3.13401 200 0 196.866 0 193V7.00001Z" fill="white"/>
</clipPath>
</defs>
</svg>
