<svg width="372" height="356" viewBox="0 0 372 356" fill="none" xmlns="http://www.w3.org/2000/svg">
<path fill-rule="evenodd" clip-rule="evenodd" d="M325.306 182.181V171.183H327.474C329.971 170.795 332.414 170.119 334.755 169.169C336.63 168.256 338.232 166.867 339.402 165.141C339.911 164.077 340.175 162.913 340.175 161.733C340.175 160.554 339.911 159.389 339.402 158.325C339.402 157.086 336.769 154.298 336.459 153.678L327.629 139.272C321.507 128.607 314.837 118.266 307.646 108.29C302.379 101.527 296.349 95.3933 289.677 90.0111C285.713 86.5593 281.464 83.45 276.975 80.7166C274.122 79.1307 270.94 78.2292 267.68 78.0832C266.491 78.0152 265.303 78.2167 264.203 78.6727C263.103 79.1288 262.121 79.8274 261.329 80.7166C259.429 83.4113 257.671 86.2034 256.062 89.0816L239.487 114.177C238.812 115.17 238.548 116.387 238.75 117.571C238.952 118.755 239.605 119.815 240.571 120.528C241.048 120.904 241.599 121.176 242.187 121.326C242.776 121.476 243.389 121.501 243.988 121.398C244.587 121.296 245.157 121.069 245.663 120.733C246.168 120.396 246.597 119.957 246.922 119.444L266.441 97.1368L269.539 94.5034C272.792 96.9819 275.58 100.39 278.059 102.559C283.67 107.255 288.854 112.439 293.55 118.049C300.83 127.189 307.801 136.948 314.307 146.243L323.447 158.17H320.349C315.392 154.608 290.916 156.002 261.019 162.973C260.427 163.049 259.856 163.242 259.339 163.541C258.822 163.84 258.37 164.24 258.01 164.716C257.649 165.192 257.387 165.735 257.239 166.313C257.091 166.892 257.059 167.494 257.146 168.084C257.203 168.67 257.378 169.238 257.661 169.754C257.944 170.27 258.33 170.723 258.793 171.085C259.257 171.447 259.79 171.712 260.359 171.862C260.928 172.011 261.521 172.044 262.103 171.957H283.016C289.756 172.134 296.48 172.703 303.154 173.661H308.111L309.04 180.787L311.519 199.841C311.519 206.656 323.602 205.882 323.912 199.841L325.306 182.181Z" fill="black"/>
<path fill-rule="evenodd" clip-rule="evenodd" d="M371.778 249.411V234.695C371.778 229.892 371.778 228.034 370.849 224.626C370.591 221.756 370.125 218.908 369.455 216.106C368.854 214.139 367.524 212.476 365.737 211.458C362.418 209.785 358.764 208.885 355.048 208.825H336.769C332.277 208.825 349.472 208.825 300.056 207.896H263.498L227.869 208.98C227.869 206.037 227.869 203.093 227.095 199.995C227.095 189.926 227.869 179.547 227.869 169.014V156.776H232.361C236.694 156.496 240.894 155.167 244.599 152.903C245.47 152.319 246.19 151.537 246.701 150.622C247.213 149.707 247.501 148.684 247.542 147.636C247.873 146.63 247.873 145.545 247.542 144.538C246.77 142.949 245.835 141.444 244.754 140.046L238.868 129.048C234.825 122.119 230.214 115.539 225.081 109.374C217.955 100.545 209.59 92.1796 203.084 83.1949L188.987 66.6198L185.889 61.5079C197.068 59.3689 208.052 56.312 218.73 52.3683C225.439 49.4198 231.183 44.642 235.305 38.5815C236.039 37.5961 236.534 36.4528 236.749 35.2427C236.964 34.0326 236.894 32.7889 236.544 31.6107C236.107 29.6959 235.01 27.9959 233.446 26.8085C231.277 25.5624 228.995 24.525 226.63 23.7104L215.012 16.8945L190.846 4.50185C189.607 4.50185 186.199 1.86842 183.875 1.09389C182.125 0.305478 180.216 -0.0657259 178.299 0.00953199C176.139 0.411945 174.192 1.56623 172.802 3.26764C171.413 4.96905 170.671 7.10761 170.708 9.30399C170.708 12.2472 171.483 19.8377 171.483 20.4573L172.567 57.1704H171.793C169.564 59.1545 167.633 61.4502 166.061 63.9864L152.584 80.8713C146.233 88.9265 140.036 96.3621 134.46 105.502C128.595 113.829 123.265 122.522 118.504 131.526C115.914 136.126 113.736 140.947 111.998 145.932C110.516 149.949 110.247 154.312 111.224 158.48C111.492 159.562 112.078 160.538 112.906 161.284C113.734 162.029 114.767 162.509 115.871 162.663H127.489C127.489 166.845 128.573 172.422 128.573 173.196L131.207 214.247C29.7423 221.682 43.2192 220.598 5.26686 226.794C4.67571 226.852 4.10192 227.027 3.5787 227.308C3.05547 227.589 2.59321 227.971 2.21864 228.432C1.84408 228.893 1.56466 229.424 1.39655 229.994C1.22844 230.563 1.17498 231.161 1.23926 231.751C2.47852 244.609 0.154908 241.201 0 278.224V295.883C0 304.558 0.929446 313.233 1.08435 322.062L2.16871 341.116C0.309815 341.116 2.16871 345.918 2.16871 347.467C2.39874 349.102 3.13504 350.623 4.27418 351.818C5.41332 353.013 6.89808 353.821 8.51992 354.128C13.297 355.185 18.2085 355.499 23.0812 355.058C32.6855 355.058 40.8956 351.03 52.5137 349.791H53.7529H54.6824C55.8179 349.465 56.7933 348.731 57.4221 347.731C58.0508 346.731 58.2887 345.534 58.0904 344.369C53.9516 326.063 53.9516 307.064 58.0904 288.757C59.1411 283.472 61.6604 278.591 65.3594 274.673C69.0584 270.754 73.7871 267.958 79.0029 266.605C83.1327 265.394 87.5421 265.538 91.5844 267.015C95.6267 268.493 99.0893 271.227 101.464 274.816C109.123 288.115 112.831 303.322 112.153 318.654C112.153 320.358 111.379 335.694 112.153 341.891C112.198 343.889 112.765 345.842 113.798 347.554C114.83 349.266 116.293 350.678 118.04 351.65C121.356 352.899 124.874 353.529 128.418 353.509C133.995 353.509 140.656 352.269 145.148 352.579H152.274C154.079 352.657 155.866 352.198 157.41 351.26C158.954 350.323 160.185 348.949 160.949 347.312C162.19 344.209 162.821 340.895 162.808 337.553C162.808 332.131 162.808 325.78 161.878 322.062C161.878 311.993 159.555 300.685 159.555 289.842C159.319 283.6 160.374 277.378 162.653 271.563C165.355 267.522 169.521 264.69 174.271 263.662C179.942 261.704 185.939 260.862 191.931 261.184C197.817 261.611 203.336 264.205 207.421 268.464C213.931 276.803 218.197 286.668 219.814 297.122C221.208 302.544 222.292 308.585 223.222 314.627C224.616 323.921 225.7 333.526 226.94 342.046C227.023 342.721 227.245 343.373 227.592 343.959C227.938 344.546 228.402 345.054 228.953 345.453C229.212 346.201 229.664 346.866 230.262 347.383C230.86 347.9 231.585 348.249 232.361 348.397H256.372C258.951 348.558 261.538 348.558 264.117 348.397C264.955 348.26 265.757 347.956 266.475 347.504C267.194 347.051 267.814 346.46 268.3 345.763C269.935 343.523 270.999 340.917 271.398 338.173C271.764 333.533 271.764 328.871 271.398 324.231C270.092 307.709 271.03 291.086 274.186 274.816C274.9 270.787 276.902 267.1 279.891 264.306C282.88 261.513 286.694 259.765 290.762 259.325C294.682 258.639 298.719 259.178 302.323 260.869C305.926 262.56 308.921 265.32 310.9 268.774C318.003 282.564 322.021 297.734 322.673 313.233L325.306 331.977V339.102C325.393 340.154 325.734 341.169 326.301 342.06C326.868 342.951 327.643 343.69 328.559 344.214C332.377 346.035 336.568 346.937 340.797 346.848C348.852 346.848 358.611 345.608 364.188 345.453C369.764 345.299 371.778 332.906 371.778 332.906V249.411ZM185.889 21.3868L205.872 32.5401L215.476 37.4972C213.007 39.2662 210.359 40.7718 207.576 41.9895C199.676 45.5524 190.846 48.0309 183.101 50.8192L185.889 21.3868ZM121.602 153.213C121.895 152.157 122.257 151.122 122.687 150.115C124.578 145.933 126.86 141.939 129.503 138.187C133.685 131.526 138.332 125.33 142.98 119.133C150.105 109.684 157.696 100.699 165.751 91.7148L176.595 78.7026L190.072 95.2777C199.056 105.037 208.815 114.022 217.49 124.091C221.137 128.141 224.501 132.436 227.559 136.948L233.446 146.397H229.728C228.179 147.017 123.926 153.368 121.602 153.213ZM141.431 167H151.5H187.748L211.294 163.902H214.392V171.028C215.322 181.097 214.392 191.475 216.251 202.009C216.617 204.926 217.134 207.821 217.8 210.684C202.309 210.684 187.903 211.923 172.877 212.853L141.895 215.021L143.599 174.435C143.599 174.435 141.74 169.943 141.431 167ZM344.669 335.384C342.556 335.556 340.432 335.556 338.318 335.384C338.204 334.069 337.945 332.77 337.544 331.512L336.769 311.374C336.949 293.13 333.031 275.079 325.306 258.55C321.791 252.175 316.392 247.042 309.848 243.853C303.304 240.665 295.934 239.576 288.748 240.736C281.133 241.391 273.954 244.564 268.344 249.754C262.734 254.943 259.012 261.854 257.766 269.394C255.032 287.415 255.032 305.745 257.766 323.766C257.766 325.935 257.766 329.188 258.541 332.441V335.539H254.668L235.305 337.553C234.53 329.653 233.756 321.133 232.826 312.923C231.897 304.713 231.122 299.911 229.883 294.179C228.411 281.923 223.942 270.218 216.871 260.099C210.597 252.967 201.849 248.482 192.395 247.552C182.824 246.638 173.172 247.964 164.202 251.425C157.039 253.9 151.032 258.915 147.317 265.521C143.914 273.236 142.122 281.565 142.05 289.997C142.05 301.15 143.29 312.768 143.599 323.147C143.599 326.4 144.374 331.047 144.374 335.539H128.883V318.035C128.908 299.255 123.53 280.865 113.392 265.056C109.206 259.273 103.279 254.981 96.4781 252.807C89.6776 250.633 82.3599 250.692 75.5949 252.974C68.0269 255.141 61.2488 259.455 56.0805 265.393C50.9121 271.331 47.5749 278.639 46.4723 286.434C43.2347 304.471 43.7621 322.983 48.0214 340.806C40.276 340.806 33.46 342.51 26.799 342.665C24.0187 342.965 21.2143 342.965 18.434 342.665V323.147C18.434 314.162 18.434 305.332 17.1947 296.503C15.4908 275.745 12.0828 256.227 11.3083 235.934L37.3327 232.836L263.343 225.71L335.84 224.471C339.712 224.471 345.909 223.696 351.33 223.696H354.893C355.24 224.855 355.653 225.993 356.133 227.104C356.133 229.892 356.133 232.836 357.217 235.779C358.301 238.722 357.217 244.918 357.217 249.411L361.554 332.906C361.258 333.706 361.258 334.585 361.554 335.384C357.372 335.23 350.711 335.694 344.669 335.384Z" fill="black"/>
<path fill-rule="evenodd" clip-rule="evenodd" d="M61.9634 191.32C61.9634 191.32 61.034 188.532 60.4143 186.518H63.5125C68.3146 185.279 73.4266 183.885 79.0032 182.8C82.2248 182.169 85.4852 181.755 88.7624 181.561C89.4343 181.625 90.1121 181.555 90.7568 181.356C91.4016 181.156 92.0004 180.831 92.5189 180.399C93.0373 179.967 93.4651 179.437 93.7775 178.839C94.0899 178.24 94.2808 177.586 94.3391 176.914C94.4251 175.542 93.9709 174.19 93.0736 173.148C92.1763 172.106 90.907 171.456 89.537 171.337C72.0426 170.024 54.4525 170.908 37.1782 173.971C38.5851 169.946 40.4567 166.099 42.7549 162.508L66.9205 128.583L82.4112 107.36C84.1152 108.445 85.8192 109.839 87.2134 110.923L106.267 128.583C107.232 129.548 108.542 130.091 109.907 130.091C111.273 130.091 112.582 129.548 113.548 128.583C114.513 127.617 115.056 126.308 115.056 124.942C115.056 123.577 114.513 122.268 113.548 121.302L95.5784 100.545C93.3231 98.2384 90.8886 96.1147 88.2977 94.1933C85.9929 92.5752 83.4246 91.3697 80.7072 90.6305C79.5158 90.3925 78.2865 90.4219 77.1078 90.7165C75.9291 91.0112 74.8305 91.5638 73.8913 92.3344C72.3422 93.2639 71.103 96.0522 69.8637 97.6013L53.1337 118.204C48.7963 124.09 44.3039 129.977 40.2764 136.173C36.2787 142.434 32.6076 148.897 29.2779 155.537C26.9812 159.875 25.0135 164.38 23.3914 169.014C22.2376 173.064 22.2376 177.356 23.3914 181.406C23.5287 182.263 23.8488 183.08 24.3299 183.801C24.8111 184.523 25.442 185.133 26.1798 185.589C28.5907 185.982 31.0495 185.982 33.4604 185.589L38.5724 184.814H45.5432V192.715L48.7963 214.711C48.7963 222.457 60.4143 219.823 61.6536 213.472L61.9634 191.32Z" fill="black"/>
</svg>
