<svg width="780" height="1019" viewBox="0 0 780 1019" fill="none" xmlns="http://www.w3.org/2000/svg">
<rect width="780" height="1019" fill="#F5F5F5"/>
<path d="M120 297C120 241.772 164.772 197 220 197C275.228 197 320 241.772 320 297C320 352.228 275.228 397 220 397C164.772 397 120 352.228 120 297Z" fill="#F5F5F5"/>
<path fill-rule="evenodd" clip-rule="evenodd" d="M144.892 298.677C152.643 304.567 158.146 299.064 152.178 292.554L151.558 291.934C150.286 290.714 148.94 289.575 147.527 288.523C146.055 287.438 144.505 286.508 142.954 285.578C139.205 283.469 135.259 281.73 131.173 280.385C130.485 280.046 129.689 279.994 128.963 280.241C128.236 280.488 127.637 281.014 127.298 281.703C126.959 282.391 126.907 283.186 127.154 283.913C127.401 284.64 127.927 285.239 128.615 285.578C131.948 287.826 134.739 290.693 137.916 293.329C139.954 295.14 142.102 296.823 144.349 298.367L144.892 298.677Z" fill="black"/>
<path fill-rule="evenodd" clip-rule="evenodd" d="M219.998 340.919C219.741 340.199 219.209 339.611 218.519 339.284C217.828 338.957 217.036 338.918 216.317 339.175C215.597 339.432 215.009 339.964 214.682 340.654C214.355 341.345 214.316 342.137 214.573 342.856C215.004 345.117 214.52 347.457 213.226 349.361C211.932 351.266 209.936 352.578 207.675 353.01C206.308 353.047 204.952 352.754 203.722 352.157C202.397 351.65 201.185 350.886 200.156 349.91C199.47 349.197 198.823 348.446 198.219 347.662C197.865 347.114 197.603 346.512 197.444 345.879C197.129 344.405 197.349 342.866 198.064 341.539C198.606 340.996 198.994 340.454 199.459 339.911C200.101 339.009 200.918 338.245 201.861 337.663C203.566 336.546 205.559 335.951 207.597 335.951C209.635 335.951 211.628 336.546 213.333 337.663C213.827 338.071 214.456 338.279 215.096 338.245C215.737 338.211 216.341 337.938 216.789 337.48C217.237 337.022 217.497 336.412 217.517 335.771C217.538 335.131 217.317 334.506 216.898 334.02C214.993 332.069 212.607 330.654 209.98 329.919C207.354 329.184 204.58 329.155 201.939 329.835C201.922 328.627 201.74 327.428 201.396 326.27C201.133 325.545 200.596 324.952 199.9 324.618C199.205 324.285 198.406 324.238 197.676 324.487C197.311 324.609 196.974 324.802 196.685 325.057C196.396 325.312 196.162 325.622 195.995 325.969C195.829 326.316 195.734 326.693 195.717 327.078C195.699 327.462 195.759 327.847 195.893 328.207C196.32 329.517 196.32 330.928 195.893 332.238C193.506 333.607 191.527 335.586 190.158 337.973C189.849 338.007 189.537 338.007 189.228 337.973C187.884 338.03 186.548 337.736 185.352 337.121C183.861 336.774 182.461 336.114 181.244 335.183C180.546 334.503 179.922 333.749 179.384 332.935C178.978 332.408 178.687 331.8 178.532 331.153C178.282 329.519 178.561 327.848 179.327 326.384C180.094 324.92 181.309 323.739 182.795 323.014C184.492 321.878 186.488 321.271 188.53 321.271C190.572 321.271 192.569 321.878 194.266 323.014C194.759 323.487 195.42 323.745 196.103 323.73C196.786 323.716 197.436 323.43 197.909 322.937C198.381 322.444 198.639 321.783 198.624 321.099C198.61 320.416 198.324 319.767 197.831 319.294C196.259 317.627 194.319 316.352 192.165 315.572C190.011 314.791 187.705 314.526 185.43 314.799C185.706 312.635 185.385 310.437 184.5 308.443C184.243 307.724 183.711 307.136 183.02 306.809C182.33 306.482 181.538 306.442 180.818 306.699C180.099 306.956 179.511 307.488 179.184 308.179C178.857 308.869 178.817 309.661 179.074 310.381C179.342 311.519 179.348 312.703 179.093 313.844C178.838 314.984 178.328 316.053 177.602 316.969C176.093 317.772 174.709 318.79 173.494 319.992C173.047 320.217 172.58 320.399 172.099 320.534C170.76 320.535 169.438 320.244 168.223 319.682C166.898 319.174 165.687 318.411 164.658 317.434C163.95 316.741 163.301 315.989 162.72 315.186C162.319 314.636 162.054 313.998 161.945 313.326C161.624 311.668 161.889 309.949 162.695 308.465C163.501 306.98 164.797 305.822 166.363 305.188C168.067 304.071 170.061 303.476 172.099 303.476C174.136 303.476 176.13 304.071 177.834 305.188C178.335 305.481 178.921 305.596 179.495 305.513C180.07 305.43 180.599 305.153 180.996 304.73C181.392 304.306 181.633 303.76 181.678 303.181C181.724 302.602 181.571 302.025 181.244 301.545C178.796 299.362 175.798 297.891 172.574 297.29C169.35 296.689 166.023 296.981 162.953 298.135C159.719 299.181 156.968 301.354 155.202 304.258C152.97 307.38 151.976 311.218 152.412 315.031C152.685 316.663 153.235 318.236 154.039 319.682C155.139 321.406 156.44 322.993 157.915 324.41C160.171 326.35 162.853 327.731 165.743 328.44C166.925 328.803 168.15 329.011 169.386 329.06C169.23 330.321 169.23 331.597 169.386 332.858C169.673 334.473 170.251 336.022 171.091 337.431C172.14 339.214 173.446 340.833 174.966 342.236C177.214 344.145 179.863 345.523 182.717 346.267C184.559 346.77 186.468 346.979 188.375 346.887C188.413 347.092 188.413 347.302 188.375 347.507C188.641 349.152 189.22 350.73 190.08 352.157C191.131 353.916 192.437 355.51 193.956 356.885C196.172 358.84 198.833 360.224 201.706 360.916C204.544 361.721 207.55 361.721 210.387 360.916C212.464 360.275 214.391 359.224 216.055 357.826C217.719 356.429 219.086 354.712 220.076 352.777C220.929 350.915 221.365 348.888 221.352 346.839C221.338 344.791 220.876 342.77 219.998 340.919Z" fill="black"/>
<path fill-rule="evenodd" clip-rule="evenodd" d="M210.695 253.645C211.749 253.847 212.786 254.132 213.795 254.497C219.143 256.668 222.088 251.01 218.213 248.529C216.283 247.376 214.194 246.514 212.012 245.972C207.172 244.929 202.182 244.771 197.286 245.507C192.962 245.799 188.618 245.591 184.342 244.887L168.453 238.918C164.783 237.374 160.965 236.206 157.059 235.431C156.728 235.458 156.407 235.554 156.115 235.712C155.823 235.871 155.567 236.088 155.363 236.35C155.159 236.612 155.011 236.914 154.93 237.236C154.848 237.558 154.835 237.893 154.889 238.221C154.941 238.8 155.195 239.341 155.606 239.752C156.016 240.163 156.558 240.417 157.137 240.469C157.137 240.469 158.067 240.934 158.92 241.399C163.725 243.879 173.879 250.235 180.777 253.722C183.61 255.34 186.753 256.344 190 256.668L198.758 254.885C202.655 253.891 206.677 253.473 210.695 253.645Z" fill="black"/>
<path fill-rule="evenodd" clip-rule="evenodd" d="M312.383 234.423C311.981 233.757 311.331 233.277 310.576 233.088C309.821 232.899 309.021 233.017 308.353 233.416L294.556 241.167C292.084 242.584 289.49 243.777 286.806 244.732C285.229 245.239 283.578 245.475 281.923 245.429C279.328 245.39 276.739 245.183 274.172 244.809C271.891 244.416 269.638 243.872 267.429 243.182C264.173 242.097 261.073 240.702 257.818 239.771C255.306 239.011 252.691 238.645 250.067 238.686C247.975 238.784 245.91 239.202 243.944 239.926C241.202 240.838 238.595 242.116 236.193 243.724C234.256 244.887 216.429 261.396 214.724 263.179C211.738 266.007 209.132 269.212 206.973 272.712C205.483 275.346 204.634 278.293 204.493 281.315C204.319 283.083 204.55 284.867 205.167 286.532C205.785 288.197 206.774 289.7 208.058 290.926C209.881 292.368 212.005 293.381 214.272 293.891C216.539 294.4 218.892 294.394 221.157 293.872C225.158 293.071 228.908 291.316 232.085 288.756C235.252 286.237 238.207 283.464 240.921 280.463C244.869 282.121 249.055 283.142 253.322 283.486C255.331 283.718 257.359 283.718 259.368 283.486C261.36 283.197 263.31 282.677 265.181 281.935C269.458 280.137 273.331 277.502 276.575 274.185C276.858 273.999 277.101 273.756 277.287 273.473C277.473 273.189 277.599 272.871 277.657 272.536C277.715 272.202 277.704 271.86 277.625 271.53C277.545 271.2 277.399 270.89 277.195 270.619C277.001 270.344 276.756 270.11 276.472 269.93C276.188 269.75 275.872 269.628 275.541 269.57C275.209 269.513 274.87 269.521 274.542 269.595C274.214 269.668 273.904 269.806 273.629 269.999C270.064 271.511 266.309 272.528 262.468 273.022L255.725 274.185C254.175 274.185 252.78 274.727 251.23 274.805C248.805 274.999 246.369 274.999 243.944 274.805C244.02 274.526 244.02 274.231 243.944 273.952C243.713 273.713 243.436 273.523 243.13 273.393C242.823 273.263 242.494 273.196 242.161 273.196C241.829 273.196 241.499 273.263 241.193 273.393C240.887 273.523 240.61 273.713 240.379 273.952C236.718 277.587 232.779 280.93 228.598 283.951C226.098 285.671 223.232 286.786 220.227 287.206C218.147 287.546 216.013 287.163 214.181 286.121C213.452 285.723 212.871 285.101 212.522 284.348C212.173 283.594 212.075 282.749 212.244 281.935C212.569 280.161 213.255 278.473 214.259 276.975C216.189 274.271 218.426 271.801 220.924 269.612C224.722 265.814 228.675 261.861 232.705 258.063C235.242 255.728 237.964 253.603 240.844 251.708C242.342 250.696 243.923 249.814 245.572 249.072C248.625 247.732 252.047 247.486 255.26 248.375C258.438 249.072 261.461 250.235 264.639 251.165C267.416 251.857 270.239 252.349 273.087 252.638C275.875 252.792 278.67 252.792 281.458 252.638C283.945 252.565 286.405 252.094 288.743 251.243C291.819 249.954 294.776 248.398 297.579 246.592L310.988 238.144C311.656 237.824 312.174 237.258 312.434 236.564C312.694 235.871 312.676 235.104 312.383 234.423Z" fill="black"/>
<path fill-rule="evenodd" clip-rule="evenodd" d="M270.921 312.938C270.447 311.582 269.877 310.261 269.216 308.985C267.024 305.223 264.424 301.715 261.465 298.521L253.172 289.066C252.751 288.578 252.162 288.267 251.522 288.194C250.881 288.122 250.238 288.294 249.719 288.676C249.2 289.058 248.844 289.621 248.723 290.254C248.601 290.886 248.723 291.542 249.064 292.088L255.187 303.094C257.202 306.312 258.964 309.68 260.457 313.17C261.401 315.126 262.029 317.219 262.318 319.371C262.564 320.726 262.519 322.119 262.185 323.455C261.851 324.792 261.235 326.042 260.38 327.122C259.293 328.359 257.905 329.293 256.349 329.834C256.235 329.544 256.106 329.259 255.962 328.982C254.327 326.551 252.513 324.245 250.536 322.084L239.375 309.45C239.162 309.134 238.888 308.864 238.57 308.654C238.251 308.445 237.895 308.3 237.521 308.228C236.765 308.082 235.982 308.243 235.345 308.675C234.708 309.107 234.268 309.774 234.123 310.53C233.977 311.285 234.138 312.068 234.57 312.705L243.251 327.509C244.727 329.583 246.098 331.73 247.359 333.942C248.029 335.085 248.55 336.31 248.909 337.585C249.339 338.472 249.467 339.476 249.27 340.443C249.074 341.409 248.566 342.284 247.824 342.933C246.715 343.85 245.373 344.441 243.948 344.638C243.948 344.638 243.948 344.173 243.948 343.941C243.125 342.182 242.112 340.518 240.925 338.98C239.065 336.733 237.283 334.562 235.267 332.47C233.252 330.377 231.392 328.362 229.299 326.424C228.875 325.905 228.263 325.573 227.596 325.501C226.929 325.428 226.26 325.621 225.734 326.037C225.21 326.475 224.876 327.1 224.804 327.78C224.731 328.459 224.926 329.141 225.346 329.679C226.587 331.54 227.672 333.322 228.757 335.26C229.842 337.198 231.78 340.918 233.175 343.863L235.345 349.134L234.26 350.994C233.737 351.831 233.047 352.553 232.234 353.113C231.421 353.673 230.501 354.059 229.532 354.249C227.66 354.747 225.669 354.526 223.951 353.629C223.631 353.43 223.274 353.296 222.902 353.236C222.53 353.175 222.149 353.188 221.782 353.274C221.415 353.361 221.068 353.519 220.762 353.739C220.456 353.96 220.197 354.238 219.998 354.559C219.593 355.219 219.463 356.011 219.637 356.765C219.811 357.52 220.275 358.175 220.929 358.59C223.42 360.749 226.623 361.909 229.919 361.845C232.067 361.9 234.202 361.508 236.19 360.694C238.179 359.881 239.976 358.662 241.468 357.117C242.599 355.954 243.541 354.62 244.258 353.164C244.495 352.408 244.651 351.628 244.723 350.839C247.391 351.025 250.061 350.517 252.474 349.366C254.755 348.089 256.584 346.136 257.708 343.777C258.833 341.417 259.198 338.766 258.752 336.19C261.618 335.653 264.291 334.369 266.503 332.47C268.269 330.861 269.694 328.913 270.692 326.743C271.691 324.573 272.243 322.224 272.316 319.836C272.138 317.488 271.67 315.171 270.921 312.938Z" fill="black"/>
<path fill-rule="evenodd" clip-rule="evenodd" d="M313.005 303.404C312.914 303.037 312.752 302.692 312.528 302.388C312.303 302.084 312.02 301.827 311.696 301.632C311.372 301.438 311.013 301.309 310.639 301.254C310.265 301.199 309.884 301.219 309.517 301.311C304.789 301.854 300.216 302.009 295.643 302.784C292.531 303.284 289.47 304.062 286.497 305.109C283.08 306.398 279.827 308.09 276.809 310.147C270.453 312.783 274.251 317.898 280.219 316.193L287.428 314.72L292.853 313.403L298.201 311.697C302.464 310.225 306.649 308.597 310.912 306.892C311.279 306.801 311.625 306.639 311.929 306.414C312.233 306.19 312.49 305.907 312.684 305.583C312.878 305.259 313.007 304.9 313.062 304.526C313.117 304.152 313.098 303.771 313.005 303.404Z" fill="black"/>
<path d="M130.664 492.703V492.566H120.957V489.203H134.93V492.621L126.59 509H122.324L130.664 492.703ZM143.926 487.371C145.174 487.371 146.305 487.613 147.316 488.096C148.328 488.579 149.121 489.253 149.695 490.119C150.279 490.985 150.57 491.965 150.57 493.059C150.57 494.143 150.279 495.114 149.695 495.971C149.121 496.827 148.328 497.502 147.316 497.994C146.305 498.477 145.174 498.719 143.926 498.719C142.659 498.719 141.515 498.477 140.494 497.994C139.473 497.502 138.671 496.827 138.088 495.971C137.514 495.114 137.227 494.143 137.227 493.059C137.227 491.965 137.514 490.985 138.088 490.119C138.671 489.253 139.473 488.579 140.494 488.096C141.515 487.613 142.659 487.371 143.926 487.371ZM140.617 493.059C140.608 493.642 140.745 494.148 141.027 494.576C141.31 494.995 141.702 495.319 142.203 495.547C142.704 495.775 143.279 495.893 143.926 495.902C144.555 495.893 145.115 495.775 145.607 495.547C146.109 495.319 146.501 494.995 146.783 494.576C147.066 494.148 147.207 493.642 147.207 493.059C147.207 492.475 147.066 491.969 146.783 491.541C146.501 491.113 146.109 490.785 145.607 490.557C145.115 490.329 144.555 490.215 143.926 490.215C143.288 490.215 142.714 490.329 142.203 490.557C141.702 490.785 141.31 491.113 141.027 491.541C140.745 491.969 140.608 492.475 140.617 493.059ZM140.973 500.141H157.68V506.895H144.445V508.508H158.363V511.242H141.027V504.352H154.207V502.82H140.973V500.141ZM154.18 486.633H157.68V499.102H154.18V486.633ZM190.246 503.34H180.512V511.488H177.066V503.34H167.469V500.551H190.246V503.34ZM170.148 487.836H187.512V497.871H170.148V487.836ZM184.039 495.137V490.598H173.594V495.137H184.039ZM214.473 508.754H191.695V505.883H197.52V502.082H194.32V493.715H208.402V491.035H194.293V488.246H211.848V496.504H197.82V499.266H212.422V502.082H208.895V505.883H214.473V508.754ZM205.477 505.883V502.082H200.91V505.883H205.477ZM243.922 511.516H240.586V486.633H243.922V511.516ZM222.32 490.406H226.531V487.234H230.004V490.406H234.16V493.168H222.32V490.406ZM222.867 500.305C222.867 499.147 223.095 498.117 223.551 497.215C224.007 496.303 224.635 495.592 225.438 495.082C226.249 494.572 227.16 494.316 228.172 494.316C229.202 494.316 230.122 494.572 230.934 495.082C231.745 495.583 232.378 496.29 232.834 497.201C233.299 498.113 233.531 499.147 233.531 500.305V500.496H235.746V497.516H233.012V494.672H235.746V487.043H239V510.422H235.746V503.23H232.93C232.483 504.188 231.845 504.939 231.016 505.486C230.186 506.024 229.238 506.293 228.172 506.293C227.16 506.293 226.249 506.038 225.438 505.527C224.635 505.017 224.007 504.311 223.551 503.408C223.095 502.497 222.867 501.462 222.867 500.305ZM225.902 500.264C225.902 501.221 226.103 501.973 226.504 502.52C226.914 503.057 227.47 503.331 228.172 503.34C228.883 503.331 229.448 503.062 229.867 502.533C230.296 501.995 230.514 501.253 230.523 500.305C230.514 499.348 230.296 498.605 229.867 498.076C229.448 497.538 228.883 497.27 228.172 497.27C227.479 497.27 226.928 497.534 226.518 498.062C226.107 498.582 225.902 499.316 225.902 500.264ZM257.266 491.09H250.758V493.141H257.02V495.793H250.758V497.994C252.234 497.976 253.51 497.93 254.586 497.857C255.671 497.785 256.764 497.652 257.867 497.461L258.223 500.25C256.91 500.487 255.625 500.646 254.367 500.729C253.109 500.811 251.574 500.852 249.76 500.852H249.117H247.422V488.301H257.266V491.09ZM250.73 502.875H267.93V511.516H264.457V505.664H250.73V502.875ZM259.207 487.098H262.461V492.73H264.621V486.66H267.93V501.836H264.621V495.52H262.461V501.645H259.207V487.098ZM297.105 493.77H300.277V496.641H297.105V503.559H293.605V486.66H297.105V493.77ZM276.926 500.359C279.514 500.359 281.529 500.341 282.969 500.305V498.91C281.602 498.719 280.526 498.304 279.742 497.666C278.967 497.028 278.585 496.24 278.594 495.301C278.594 494.544 278.844 493.883 279.346 493.318C279.847 492.753 280.558 492.325 281.479 492.033C282.399 491.732 283.47 491.582 284.691 491.582C285.904 491.582 286.97 491.732 287.891 492.033C288.811 492.325 289.522 492.753 290.023 493.318C290.534 493.883 290.789 494.544 290.789 495.301C290.78 496.24 290.388 497.028 289.613 497.666C288.848 498.295 287.79 498.705 286.441 498.896V500.182C288.811 500.054 290.816 499.885 292.457 499.676L292.703 502.082C290.37 502.492 287.959 502.761 285.471 502.889C282.982 503.007 280.253 503.066 277.281 503.066L276.926 500.359ZM277.582 488.465H282.969V486.441H286.441V488.465H291.828V491.008H277.582V488.465ZM280.098 504.57H297.105V511.516H293.605V507.25H280.098V504.57ZM281.93 495.301C281.921 495.747 282.148 496.098 282.613 496.354C283.087 496.6 283.757 496.723 284.623 496.723C285.525 496.723 286.218 496.6 286.701 496.354C287.193 496.107 287.444 495.757 287.453 495.301C287.444 494.371 286.523 493.906 284.691 493.906C282.841 493.906 281.921 494.371 281.93 495.301ZM322.371 501.398H318.898V495.52H315.016V492.703H318.898V486.633H322.371V501.398ZM301.234 498.664C302.538 498.227 303.636 497.602 304.529 496.791C305.423 495.98 306.092 495.068 306.539 494.057C306.986 493.045 307.223 492.001 307.25 490.926H302.246V488.137H315.754V490.926H310.805C310.832 491.928 311.055 492.895 311.475 493.824C311.894 494.745 312.527 495.574 313.375 496.312C314.232 497.051 315.28 497.625 316.52 498.035L314.797 500.77C313.466 500.341 312.318 499.703 311.352 498.855C310.395 497.999 309.638 496.996 309.082 495.848C308.517 497.151 307.729 498.286 306.717 499.252C305.705 500.209 304.479 500.934 303.039 501.426L301.234 498.664ZM305.309 506.758C305.309 505.764 305.65 504.908 306.334 504.188C307.027 503.458 308.016 502.902 309.301 502.52C310.586 502.137 312.108 501.945 313.867 501.945C315.635 501.945 317.162 502.137 318.447 502.52C319.732 502.902 320.721 503.454 321.414 504.174C322.107 504.894 322.453 505.755 322.453 506.758C322.453 507.76 322.107 508.617 321.414 509.328C320.721 510.048 319.732 510.595 318.447 510.969C317.162 511.352 315.635 511.543 313.867 511.543C312.108 511.543 310.586 511.352 309.301 510.969C308.016 510.595 307.027 510.048 306.334 509.328C305.65 508.608 305.309 507.751 305.309 506.758ZM308.781 506.758C308.781 507.46 309.214 507.993 310.08 508.357C310.946 508.713 312.208 508.891 313.867 508.891C315.535 508.891 316.802 508.713 317.668 508.357C318.534 508.002 318.971 507.469 318.98 506.758C318.971 506.056 318.538 505.527 317.682 505.172C316.834 504.807 315.594 504.625 313.963 504.625C310.508 504.625 308.781 505.336 308.781 506.758ZM330.902 503.066H327.402L327.047 489.203H331.258L330.902 503.066ZM326.883 506.949C326.874 506.539 326.969 506.161 327.17 505.814C327.38 505.459 327.662 505.181 328.018 504.98C328.373 504.78 328.76 504.68 329.18 504.68C329.581 504.68 329.954 504.78 330.301 504.98C330.647 505.181 330.925 505.459 331.135 505.814C331.344 506.161 331.449 506.539 331.449 506.949C331.449 507.368 331.344 507.756 331.135 508.111C330.925 508.458 330.647 508.736 330.301 508.945C329.954 509.146 329.581 509.246 329.18 509.246C328.76 509.246 328.373 509.146 328.018 508.945C327.662 508.736 327.38 508.458 327.17 508.111C326.969 507.756 326.874 507.368 326.883 506.949ZM361.281 490.434H354.418C354.555 491.145 354.942 491.824 355.58 492.471C356.218 493.109 357.107 493.665 358.246 494.139C359.385 494.613 360.743 494.936 362.32 495.109L361.035 497.844C358.757 497.589 356.842 497.019 355.293 496.135C353.743 495.251 352.632 494.143 351.957 492.812C351.283 494.134 350.171 495.242 348.621 496.135C347.072 497.019 345.167 497.589 342.906 497.844L341.648 495.109C343.216 494.936 344.57 494.613 345.709 494.139C346.848 493.665 347.732 493.109 348.361 492.471C348.99 491.824 349.378 491.145 349.523 490.434H342.715V487.699H361.281V490.434ZM340.609 499.02H363.387V501.809H354.008V506.102H350.562V501.809H340.609V499.02ZM343.289 503.887H346.762V508.289H360.871V511.078H343.289V503.887ZM385.672 511.57H382.145V486.633H385.672V511.57ZM366.066 488.602H369.566V494.672H374.926V488.602H378.371V505.746H366.066V488.602ZM374.926 502.93V497.379H369.566V502.93H374.926ZM408.668 496.176H412.195V499.047H408.668V511.461H405.168V486.633H408.668V496.176ZM388.762 504.488C391.724 503.003 394.003 501.243 395.598 499.211C397.193 497.178 398.154 494.781 398.482 492.02H390.184V489.176H402.023C402.005 493.141 401.112 496.641 399.344 499.676C397.585 502.711 394.714 505.208 390.73 507.168L388.762 504.488ZM440.66 511.516H437.188V499.047H432.238V496.203H437.188V486.633H440.66V511.516ZM419.441 504.461C421.52 503.44 423.219 502.314 424.541 501.084C425.863 499.844 426.87 498.482 427.562 496.996C428.255 495.501 428.688 493.824 428.861 491.965H420.617V489.23H432.375C432.366 491.892 432.024 494.298 431.35 496.449C430.675 498.6 429.522 500.583 427.891 502.396C426.259 504.21 424.044 505.81 421.246 507.195L419.441 504.461ZM451.953 488.301C453.257 488.301 454.432 488.561 455.48 489.08C456.529 489.6 457.349 490.324 457.941 491.254C458.543 492.174 458.844 493.223 458.844 494.398C458.844 495.574 458.543 496.627 457.941 497.557C457.349 498.486 456.529 499.215 455.48 499.744C454.432 500.264 453.257 500.523 451.953 500.523C450.659 500.523 449.483 500.264 448.426 499.744C447.368 499.215 446.539 498.486 445.938 497.557C445.336 496.627 445.035 495.574 445.035 494.398C445.035 493.232 445.336 492.184 445.938 491.254C446.539 490.324 447.368 489.6 448.426 489.08C449.483 488.561 450.659 488.301 451.953 488.301ZM445.021 503.641C447.756 503.641 450.367 503.586 452.855 503.477C455.353 503.367 457.704 503.158 459.91 502.848L460.184 505.363C457.741 505.837 455.257 506.143 452.732 506.279C450.217 506.416 447.441 506.484 444.406 506.484L443.996 503.641H445.021ZM448.508 494.398C448.508 495.036 448.654 495.592 448.945 496.066C449.246 496.531 449.656 496.887 450.176 497.133C450.704 497.379 451.297 497.497 451.953 497.488C452.618 497.497 453.215 497.379 453.744 497.133C454.273 496.887 454.688 496.531 454.988 496.066C455.298 495.592 455.453 495.036 455.453 494.398C455.453 493.77 455.298 493.223 454.988 492.758C454.688 492.284 454.273 491.924 453.744 491.678C453.215 491.432 452.618 491.309 451.953 491.309C451.297 491.309 450.704 491.432 450.176 491.678C449.656 491.924 449.246 492.284 448.945 492.758C448.654 493.223 448.508 493.77 448.508 494.398ZM461.332 486.633H464.805V511.57H461.332V486.633ZM497.234 498.582H474.539V495.82H480.555C481.12 493.934 481.439 492.074 481.512 490.242H476.672V487.48H484.957V488.766C484.957 489.951 484.907 491.081 484.807 492.156C484.706 493.232 484.46 494.453 484.068 495.82H490.439C490.731 494.763 490.932 493.797 491.041 492.922C491.16 492.038 491.232 491.145 491.26 490.242H486.379V487.48H494.664V489.148C494.655 490.415 494.609 491.541 494.527 492.525C494.454 493.51 494.263 494.608 493.953 495.82H497.234V498.582ZM477.301 500.305H494.582V502.902H480.801V504.461H493.953V506.949H480.801V508.59H494.746V511.242H477.301V500.305ZM518.48 491.965H521.844V494.836H518.48V500.359H514.98V486.66H518.48V491.965ZM499.449 508.699C500.497 508.344 501.368 507.847 502.061 507.209C502.762 506.562 503.277 505.837 503.605 505.035C503.943 504.233 504.116 503.404 504.125 502.547V501.371H507.488V502.547C507.479 503.632 507.707 504.666 508.172 505.65C508.637 506.635 509.352 507.46 510.318 508.125C511.294 507.432 512.023 506.585 512.506 505.582C512.989 504.579 513.24 503.568 513.258 502.547V501.371H516.676V502.547C516.667 503.96 517.045 505.213 517.811 506.307C518.585 507.391 519.766 508.189 521.352 508.699L519.656 511.27C517.387 510.495 515.805 509.059 514.912 506.963C514.484 507.984 513.891 508.886 513.135 509.67C512.387 510.454 511.471 511.06 510.387 511.488C509.275 511.078 508.34 510.49 507.584 509.725C506.827 508.959 506.235 508.066 505.807 507.045C505.36 508.011 504.754 508.854 503.988 509.574C503.223 510.303 502.302 510.868 501.227 511.27L499.449 508.699ZM499.75 488.082H503.25V496.299C506.577 496.235 509.812 495.911 512.957 495.328L513.367 498.117C509.794 498.846 505.966 499.202 501.883 499.184H499.75V488.082ZM529.035 503.668H539.289V501.562H542.762V511.242H525.59V501.562H529.035V503.668ZM522.938 497.488H545.633V500.305H522.938V497.488ZM524.059 493.66C525.836 493.441 527.358 493.031 528.625 492.43C529.901 491.828 530.863 491.113 531.51 490.283C532.166 489.454 532.499 488.602 532.508 487.727V486.879H536.09V487.727C536.09 488.583 536.413 489.431 537.061 490.27C537.708 491.099 538.665 491.824 539.932 492.443C541.208 493.054 542.734 493.46 544.512 493.66L543.281 496.395C541.185 496.13 539.367 495.583 537.826 494.754C536.286 493.924 535.105 492.895 534.285 491.664C533.465 492.895 532.285 493.924 530.744 494.754C529.204 495.583 527.395 496.13 525.316 496.395L524.059 493.66ZM539.289 508.508V506.32H529.035V508.508H539.289ZM568.055 511.516H564.582V486.633H568.055V511.516ZM548.477 489.012H551.922V502.396C555.613 502.333 559.159 501.973 562.559 501.316L562.996 504.188C559.186 504.99 555.076 505.382 550.664 505.363H548.477V489.012ZM590.969 495.875H594.633V498.719H590.969V511.57H587.469V486.633H590.969V495.875ZM572.32 488.93H583.996V491.746H575.793V502.656C577.689 502.638 579.411 502.57 580.961 502.451C582.52 502.333 584.096 502.137 585.691 501.863L586.074 504.789C584.361 505.081 582.665 505.277 580.988 505.377C579.32 505.477 577.374 505.527 575.15 505.527H574.426H572.32V488.93ZM598.762 509.246C598.342 509.246 597.955 509.146 597.6 508.945C597.244 508.736 596.962 508.458 596.752 508.111C596.551 507.756 596.456 507.368 596.465 506.949C596.456 506.539 596.551 506.161 596.752 505.814C596.962 505.459 597.244 505.181 597.6 504.98C597.955 504.78 598.342 504.68 598.762 504.68C599.163 504.68 599.536 504.78 599.883 504.98C600.229 505.181 600.507 505.459 600.717 505.814C600.926 506.161 601.031 506.539 601.031 506.949C601.031 507.368 600.926 507.756 600.717 508.111C600.507 508.458 600.229 508.736 599.883 508.945C599.536 509.146 599.163 509.246 598.762 509.246Z" fill="black"/>
<circle cx="140" cy="437" r="3.5" stroke="#333333"/>
<circle cx="154" cy="437" r="4" fill="black"/>
<path d="M132.016 546.297H130.781V532.375H132.016V546.297ZM121.375 533.562H122.594V537.234H126.734V533.562H127.938V542.938H121.375V533.562ZM126.734 541.906V538.219H122.594V541.906H126.734ZM147.109 544.422H134.391V543.391H147.109V544.422ZM135.016 539.984C135.812 539.849 136.604 539.557 137.391 539.109C138.182 538.661 138.831 538.115 139.336 537.469C139.841 536.818 140.094 536.141 140.094 535.438V534.797H135.438V533.781H146.016V534.797H141.359V535.438C141.359 536.141 141.615 536.812 142.125 537.453C142.635 538.094 143.286 538.635 144.078 539.078C144.875 539.516 145.682 539.802 146.5 539.938L146 540.906C145.276 540.771 144.565 540.534 143.867 540.195C143.174 539.852 142.552 539.424 142 538.914C141.448 538.404 141.029 537.839 140.742 537.219C140.456 537.839 140.036 538.409 139.484 538.93C138.938 539.445 138.318 539.878 137.625 540.227C136.938 540.576 136.24 540.823 135.531 540.969L135.016 539.984ZM159.672 546.266H158.453V532.375H159.672V546.266ZM149.125 533.75H150.328V541.625C151.474 541.615 152.591 541.56 153.68 541.461C154.768 541.357 155.865 541.188 156.969 540.953L157.141 542C155.958 542.245 154.807 542.422 153.688 542.531C152.573 542.635 151.427 542.688 150.25 542.688H149.125V533.75ZM168.969 534.422C168.969 535.182 169.224 535.914 169.734 536.617C170.245 537.32 170.896 537.919 171.688 538.414C172.484 538.904 173.292 539.224 174.109 539.375L173.547 540.406C172.833 540.24 172.133 539.969 171.445 539.594C170.763 539.219 170.148 538.755 169.602 538.203C169.055 537.651 168.635 537.047 168.344 536.391C168.052 537.047 167.633 537.651 167.086 538.203C166.539 538.75 165.922 539.214 165.234 539.594C164.552 539.969 163.854 540.24 163.141 540.406L162.578 539.375C163.396 539.219 164.198 538.896 164.984 538.406C165.776 537.917 166.424 537.32 166.93 536.617C167.435 535.914 167.688 535.182 167.688 534.422V533.359H168.969V534.422ZM162.047 543.359H174.766V544.375H162.047V543.359ZM192.609 544.484H179.891V543.438H192.609V544.484ZM181.016 533.781H191.391V534.797H189.188V539.656H191.359V540.656H181.047V539.656H183.219V534.797H181.016V533.781ZM187.984 539.656V534.797H184.438V539.656H187.984ZM206.438 544.547H193.719V543.516H199.438V540.891H195.312V536.609H203.625V534.422H195.281V533.406H204.828V537.609H196.531V539.875H205.156V540.891H200.641V543.516H206.438V544.547ZM219.031 539.594H217.797V532.375H219.031V539.594ZM207.781 538.078C208.135 538.078 208.729 538.073 209.562 538.062V534.312H208.172V533.328H215.688V534.312H214.281V537.875C214.948 537.823 215.646 537.755 216.375 537.672L216.438 538.578C215.198 538.76 213.857 538.893 212.414 538.977C210.977 539.055 209.565 539.094 208.18 539.094H207.938L207.781 538.078ZM209.938 540.266H219.031V543.578H211.188V545.109H219.562V546.109H209.984V542.656H217.812V541.25H209.938V540.266ZM210.75 538.039C211.802 538.008 212.583 537.977 213.094 537.945V534.312H210.75V538.039ZM236.859 539.828H235.641V532.375H236.859V539.828ZM225.719 536.25C225.719 535.625 225.872 535.07 226.18 534.586C226.492 534.102 226.924 533.727 227.477 533.461C228.034 533.19 228.661 533.057 229.359 533.062C230.057 533.057 230.682 533.19 231.234 533.461C231.786 533.727 232.219 534.102 232.531 534.586C232.844 535.07 233 535.625 233 536.25C233 536.87 232.844 537.422 232.531 537.906C232.219 538.391 231.786 538.768 231.234 539.039C230.682 539.305 230.057 539.438 229.359 539.438C228.661 539.438 228.034 539.305 227.477 539.039C226.924 538.768 226.492 538.391 226.18 537.906C225.872 537.422 225.719 536.87 225.719 536.25ZM226.922 536.25C226.917 536.667 227.018 537.039 227.227 537.367C227.435 537.695 227.724 537.953 228.094 538.141C228.464 538.328 228.885 538.422 229.359 538.422C229.828 538.422 230.247 538.328 230.617 538.141C230.987 537.953 231.276 537.695 231.484 537.367C231.693 537.039 231.797 536.667 231.797 536.25C231.797 535.833 231.693 535.461 231.484 535.133C231.276 534.805 230.987 534.549 230.617 534.367C230.247 534.185 229.828 534.094 229.359 534.094C228.885 534.094 228.464 534.185 228.094 534.367C227.724 534.549 227.435 534.805 227.227 535.133C227.018 535.461 226.917 535.833 226.922 536.25ZM227.859 540.531H229.078V542.219H235.641V540.531H236.859V546.078H227.859V540.531ZM235.641 545.078V543.203H229.078V545.078H235.641ZM245.812 537.125H241.031V539.281H241.469C242.682 539.281 243.659 539.258 244.398 539.211C245.138 539.164 245.88 539.073 246.625 538.938L246.75 539.953C245.922 540.089 245.094 540.177 244.266 540.219C243.443 540.26 242.286 540.281 240.797 540.281H239.812V536.188H244.594V534.219H239.781V533.234H245.812V537.125ZM241.375 541.672H250.734V546.297H249.5V542.672H241.375V541.672ZM246.734 537.328H249.5V535.453H246.734V534.453H249.5V532.391H250.734V540.922H249.5V538.344H246.734V537.328ZM259.375 532.625C260.401 532.625 261.281 532.719 262.016 532.906C262.75 533.089 263.31 533.359 263.695 533.719C264.086 534.073 264.281 534.505 264.281 535.016C264.281 535.536 264.086 535.979 263.695 536.344C263.31 536.708 262.75 536.984 262.016 537.172C261.286 537.354 260.406 537.448 259.375 537.453C258.339 537.448 257.453 537.354 256.719 537.172C255.984 536.984 255.422 536.708 255.031 536.344C254.646 535.979 254.453 535.536 254.453 535.016C254.453 534.505 254.646 534.073 255.031 533.719C255.422 533.359 255.984 533.089 256.719 532.906C257.458 532.719 258.344 532.625 259.375 532.625ZM253.047 538.391H265.703V539.391H253.047V538.391ZM254.578 540.594H264.078V543.703H255.828V545.141H264.5V546.109H254.609V542.797H262.875V541.531H254.578V540.594ZM255.734 535.016C255.729 535.495 256.044 535.865 256.68 536.125C257.315 536.385 258.214 536.516 259.375 536.516C260.531 536.516 261.427 536.388 262.062 536.133C262.703 535.872 263.026 535.5 263.031 535.016C263.031 534.714 262.885 534.453 262.594 534.234C262.307 534.016 261.888 533.846 261.336 533.727C260.789 533.607 260.135 533.547 259.375 533.547C258.609 533.547 257.953 533.607 257.406 533.727C256.859 533.846 256.443 534.016 256.156 534.234C255.87 534.453 255.729 534.714 255.734 535.016ZM277.875 542.734H271.469V533.781H277.875V542.734ZM276.656 541.734V534.766H272.656V541.734H276.656ZM280.422 532.375H281.641V537.922H283.969V538.984H281.641V546.266H280.422V532.375ZM296.172 546.266H294.938V532.375H296.172V546.266ZM285 542.625C285.682 542.312 286.299 541.862 286.852 541.273C287.409 540.68 287.846 540.003 288.164 539.242C288.482 538.482 288.641 537.703 288.641 536.906V535.797H285.375V534.797H288.625V532.641H289.844V534.797H293.078V535.797H289.844V536.906C289.844 537.667 290.005 538.411 290.328 539.141C290.656 539.87 291.104 540.518 291.672 541.086C292.24 541.648 292.87 542.078 293.562 542.375L292.875 543.328C292.068 542.974 291.344 542.44 290.703 541.727C290.068 541.013 289.589 540.198 289.266 539.281C288.953 540.25 288.479 541.115 287.844 541.875C287.214 542.63 286.495 543.198 285.688 543.578L285 542.625ZM303.484 536.109C303.484 536.932 303.654 537.75 303.992 538.562C304.331 539.37 304.786 540.089 305.359 540.719C305.938 541.349 306.568 541.818 307.25 542.125L306.5 543.094C305.703 542.708 304.984 542.128 304.344 541.352C303.703 540.57 303.216 539.688 302.883 538.703C302.565 539.75 302.083 540.688 301.438 541.516C300.792 542.344 300.062 542.964 299.25 543.375L298.469 542.344C299.156 542.031 299.789 541.549 300.367 540.898C300.945 540.247 301.404 539.503 301.742 538.664C302.086 537.82 302.26 536.969 302.266 536.109V533.578H303.484V536.109ZM308.766 532.375H310V546.297H308.766V532.375ZM319.406 534.828H322.656V532.391H323.891V542.531H322.656V538.828H319.406V540.078H313.031V533.594H319.406V534.828ZM318.203 539.094V534.609H314.25V539.094H318.203ZM314.906 541.625H316.141V544.938H324.203V545.969H314.906V541.625ZM322.656 537.812V535.859H319.406V537.812H322.656ZM341.75 534.016H337.344C337.344 534.536 337.57 535.021 338.023 535.469C338.477 535.917 339.073 536.289 339.812 536.586C340.552 536.883 341.339 537.078 342.172 537.172L341.719 538.156C340.948 538.057 340.216 537.88 339.523 537.625C338.831 537.365 338.224 537.034 337.703 536.633C337.182 536.232 336.797 535.779 336.547 535.273C336.297 535.779 335.911 536.232 335.391 536.633C334.875 537.034 334.271 537.365 333.578 537.625C332.891 537.88 332.161 538.057 331.391 538.156L330.938 537.172C331.766 537.078 332.547 536.883 333.281 536.586C334.021 536.289 334.617 535.917 335.07 535.469C335.523 535.021 335.75 534.536 335.75 534.016H331.375V533.016H341.75V534.016ZM330.219 539.078H342.922V540.078H330.219V539.078ZM331.625 541.531H341.312V546.266H340.078V542.531H331.625V541.531ZM348.984 536.109C348.984 536.932 349.154 537.75 349.492 538.562C349.831 539.37 350.286 540.089 350.859 540.719C351.438 541.349 352.068 541.818 352.75 542.125L352 543.094C351.203 542.708 350.484 542.128 349.844 541.352C349.203 540.57 348.716 539.688 348.383 538.703C348.065 539.75 347.583 540.688 346.938 541.516C346.292 542.344 345.562 542.964 344.75 543.375L343.969 542.344C344.656 542.031 345.289 541.549 345.867 540.898C346.445 540.247 346.904 539.503 347.242 538.664C347.586 537.82 347.76 536.969 347.766 536.109V533.578H348.984V536.109ZM354.266 532.375H355.5V546.297H354.266V532.375ZM374.609 544.484H361.891V543.453H367.609V540.062H363.391V533.547H373.031V540.062H368.812V543.453H374.609V544.484ZM371.844 539.078V534.531H364.594V539.078H371.844ZM388.391 540.391H375.719V539.391H388.391V540.391ZM377.328 532.984H386.812V533.984H378.547V536.844H386.938V537.859H377.328V532.984ZM377.359 541.891H378.578V544.922H387.047V545.953H377.359V541.891ZM405.047 546.266H403.812V532.375H405.047V546.266ZM393.734 542.656C395.589 541.776 397.008 540.682 397.992 539.375C398.982 538.068 399.547 536.573 399.688 534.891H394.375V533.891H400.938C400.927 535.984 400.396 537.867 399.344 539.539C398.292 541.211 396.646 542.583 394.406 543.656L393.734 542.656ZM418.609 537.281H409.125V532.656H410.344V536.266H418.609V537.281ZM407.391 538.906H420.062V539.922H407.391V538.906ZM408.922 543.688C408.922 543.151 409.112 542.695 409.492 542.32C409.872 541.94 410.422 541.654 411.141 541.461C411.859 541.268 412.719 541.172 413.719 541.172C414.708 541.172 415.56 541.268 416.273 541.461C416.987 541.654 417.534 541.94 417.914 542.32C418.299 542.695 418.495 543.151 418.5 543.688C418.495 544.219 418.299 544.672 417.914 545.047C417.534 545.427 416.987 545.714 416.273 545.906C415.56 546.104 414.708 546.203 413.719 546.203C412.719 546.203 411.859 546.104 411.141 545.906C410.422 545.714 409.872 545.427 409.492 545.047C409.112 544.672 408.922 544.219 408.922 543.688ZM410.172 543.688C410.167 544.01 410.305 544.289 410.586 544.523C410.867 544.753 411.273 544.93 411.805 545.055C412.341 545.185 412.979 545.25 413.719 545.25C414.448 545.25 415.078 545.185 415.609 545.055C416.141 544.93 416.549 544.753 416.836 544.523C417.122 544.289 417.266 544.01 417.266 543.688C417.26 543.198 416.945 542.82 416.32 542.555C415.695 542.284 414.828 542.146 413.719 542.141C412.599 542.146 411.727 542.284 411.102 542.555C410.477 542.82 410.167 543.198 410.172 543.688ZM427.547 532.625C428.573 532.625 429.453 532.719 430.188 532.906C430.922 533.089 431.482 533.359 431.867 533.719C432.258 534.073 432.453 534.505 432.453 535.016C432.453 535.536 432.258 535.979 431.867 536.344C431.482 536.708 430.922 536.984 430.188 537.172C429.458 537.354 428.578 537.448 427.547 537.453C426.51 537.448 425.625 537.354 424.891 537.172C424.156 536.984 423.594 536.708 423.203 536.344C422.818 535.979 422.625 535.536 422.625 535.016C422.625 534.505 422.818 534.073 423.203 533.719C423.594 533.359 424.156 533.089 424.891 532.906C425.63 532.719 426.516 532.625 427.547 532.625ZM421.219 538.391H433.875V539.391H421.219V538.391ZM422.75 540.594H432.25V543.703H424V545.141H432.672V546.109H422.781V542.797H431.047V541.531H422.75V540.594ZM423.906 535.016C423.901 535.495 424.216 535.865 424.852 536.125C425.487 536.385 426.385 536.516 427.547 536.516C428.703 536.516 429.599 536.388 430.234 536.133C430.875 535.872 431.198 535.5 431.203 535.016C431.203 534.714 431.057 534.453 430.766 534.234C430.479 534.016 430.06 533.846 429.508 533.727C428.961 533.607 428.307 533.547 427.547 533.547C426.781 533.547 426.125 533.607 425.578 533.727C425.031 533.846 424.615 534.016 424.328 534.234C424.042 534.453 423.901 534.714 423.906 535.016ZM451.766 541.469H445.969V546.266H444.766V541.469H439.047V540.453H451.766V541.469ZM440.688 533.156H450.109V538.562H440.688V533.156ZM448.891 537.594V534.156H441.891V537.594H448.891ZM465.609 544.547H452.891V543.516H456.469V540.875H454.484V536.594H462.797V534.422H454.453V533.406H464V537.609H455.703V539.859H464.328V540.875H462.156V543.516H465.609V544.547ZM460.953 543.516V540.875H457.672V543.516H460.953ZM479.438 544.547H466.719V543.516H472.438V540.891H468.312V536.609H476.625V534.422H468.281V533.406H477.828V537.609H469.531V539.875H478.156V540.891H473.641V543.516H479.438V544.547ZM488.625 536.656C488.63 537.406 488.753 538.143 488.992 538.867C489.237 539.586 489.589 540.237 490.047 540.82C490.505 541.404 491.042 541.859 491.656 542.188L490.953 543.109C490.276 542.74 489.69 542.219 489.195 541.547C488.701 540.87 488.323 540.102 488.062 539.242C487.807 540.159 487.432 540.984 486.938 541.719C486.448 542.448 485.865 543.016 485.188 543.422L484.453 542.484C485.068 542.13 485.602 541.643 486.055 541.023C486.508 540.404 486.854 539.714 487.094 538.953C487.339 538.193 487.464 537.427 487.469 536.656V535.969H484.828V534.953H487.469V532.891H488.641V534.953H491.234V535.969H488.625V536.656ZM490.281 537.859H492.469V532.719H493.625V545.547H492.469V538.906H490.281V537.859ZM495.266 532.375H496.438V546.266H495.266V532.375ZM509.906 540.797H508.672V537.625H506.312V536.609H508.672V532.375H509.906V540.797ZM498.406 533.844H501.859V532.25H503.062V533.844H506.516V534.844H498.406V533.844ZM499.234 538.031C499.234 537.552 499.37 537.125 499.641 536.75C499.917 536.375 500.299 536.083 500.789 535.875C501.279 535.667 501.833 535.562 502.453 535.562C503.078 535.562 503.633 535.667 504.117 535.875C504.607 536.083 504.99 536.375 505.266 536.75C505.542 537.125 505.682 537.552 505.688 538.031C505.682 538.526 505.542 538.961 505.266 539.336C504.995 539.711 504.615 540.003 504.125 540.211C503.635 540.414 503.078 540.516 502.453 540.516C501.828 540.516 501.271 540.414 500.781 540.211C500.297 540.003 499.917 539.711 499.641 539.336C499.37 538.961 499.234 538.526 499.234 538.031ZM500.406 538.031C500.406 538.333 500.492 538.602 500.664 538.836C500.836 539.065 501.076 539.245 501.383 539.375C501.695 539.505 502.052 539.573 502.453 539.578C502.854 539.573 503.208 539.505 503.516 539.375C503.828 539.245 504.07 539.065 504.242 538.836C504.414 538.602 504.5 538.333 504.5 538.031C504.5 537.74 504.414 537.479 504.242 537.25C504.07 537.016 503.828 536.836 503.516 536.711C503.208 536.581 502.854 536.516 502.453 536.516C502.052 536.516 501.695 536.581 501.383 536.711C501.076 536.836 500.836 537.016 500.664 537.25C500.492 537.479 500.406 537.74 500.406 538.031ZM500.828 541.547H509.906V546.078H500.828V541.547ZM508.703 545.078V542.531H502.047V545.078H508.703ZM522.969 538.109H525.297V539.125H522.969V546.266H521.75V532.375H522.969V538.109ZM512.141 534.609H515.719V532.547H516.938V534.609H520.406V535.625H512.141V534.609ZM512.938 539.969C512.938 539.354 513.083 538.805 513.375 538.32C513.667 537.836 514.07 537.458 514.586 537.188C515.107 536.917 515.693 536.781 516.344 536.781C516.99 536.781 517.57 536.917 518.086 537.188C518.602 537.458 519.005 537.836 519.297 538.32C519.594 538.805 519.745 539.354 519.75 539.969C519.745 540.589 519.594 541.141 519.297 541.625C519.005 542.104 518.602 542.479 518.086 542.75C517.57 543.021 516.99 543.156 516.344 543.156C515.693 543.156 515.107 543.021 514.586 542.75C514.07 542.479 513.667 542.104 513.375 541.625C513.083 541.141 512.938 540.589 512.938 539.969ZM514.109 539.969C514.109 540.385 514.203 540.758 514.391 541.086C514.583 541.409 514.849 541.661 515.188 541.844C515.531 542.026 515.917 542.115 516.344 542.109C516.766 542.115 517.146 542.026 517.484 541.844C517.823 541.661 518.089 541.409 518.281 541.086C518.474 540.758 518.573 540.385 518.578 539.969C518.573 539.557 518.474 539.188 518.281 538.859C518.089 538.526 517.823 538.268 517.484 538.086C517.146 537.904 516.766 537.812 516.344 537.812C515.917 537.812 515.531 537.904 515.188 538.086C514.849 538.268 514.583 538.526 514.391 538.859C514.203 539.188 514.109 539.557 514.109 539.969ZM537.5 539.578H536.297V532.375H537.5V539.578ZM526.141 538.469C526.833 538.229 527.451 537.875 527.992 537.406C528.534 536.938 528.956 536.396 529.258 535.781C529.565 535.161 529.719 534.516 529.719 533.844V532.781H530.969V533.844C530.964 534.484 531.112 535.099 531.414 535.688C531.716 536.271 532.135 536.784 532.672 537.227C533.214 537.664 533.828 537.995 534.516 538.219L533.906 539.172C533.089 538.896 532.37 538.479 531.75 537.922C531.135 537.359 530.672 536.703 530.359 535.953C530.047 536.76 529.578 537.469 528.953 538.078C528.328 538.688 527.604 539.141 526.781 539.438L526.141 538.469ZM528.484 540.281H537.516V543.609H529.719V545.109H538.016V546.109H528.516V542.656H536.297V541.266H528.484V540.281ZM550.859 533.672C550.859 534.302 551.102 534.904 551.586 535.477C552.076 536.044 552.708 536.523 553.484 536.914C554.266 537.299 555.078 537.552 555.922 537.672L555.422 538.672C554.693 538.552 553.987 538.344 553.305 538.047C552.622 537.745 552.01 537.37 551.469 536.922C550.932 536.469 550.521 535.966 550.234 535.414C549.948 535.971 549.536 536.474 549 536.922C548.464 537.37 547.854 537.745 547.172 538.047C546.49 538.344 545.781 538.552 545.047 538.672L544.547 537.672C545.396 537.552 546.208 537.299 546.984 536.914C547.76 536.529 548.388 536.052 548.867 535.484C549.352 534.917 549.594 534.312 549.594 533.672V532.875H550.859V533.672ZM543.891 540.203H556.547V541.234H550.797V546.266H549.594V541.234H543.891V540.203ZM566.438 541.703C566.432 542.344 566.599 542.961 566.938 543.555C567.281 544.143 567.773 544.62 568.414 544.984C568.841 544.719 569.206 544.401 569.508 544.031C569.815 543.656 570.047 543.266 570.203 542.859C570.365 542.453 570.443 542.068 570.438 541.703V540.938H571.641V541.703C571.635 542.182 571.745 542.648 571.969 543.102C572.198 543.555 572.526 543.964 572.953 544.328C573.38 544.688 573.885 544.969 574.469 545.172L573.859 546.078C573.182 545.839 572.602 545.49 572.117 545.031C571.633 544.578 571.266 544.052 571.016 543.453C570.786 544.052 570.453 544.594 570.016 545.078C569.583 545.562 569.062 545.932 568.453 546.188C567.802 545.938 567.255 545.578 566.812 545.109C566.375 544.641 566.047 544.102 565.828 543.492C565.568 544.07 565.201 544.583 564.727 545.031C564.253 545.484 563.693 545.833 563.047 546.078L562.422 545.172C562.99 544.958 563.487 544.667 563.914 544.297C564.341 543.922 564.669 543.508 564.898 543.055C565.128 542.602 565.245 542.151 565.25 541.703V540.938H566.438V541.703ZM562.062 536.453C562.062 535.818 562.216 535.253 562.523 534.758C562.836 534.263 563.268 533.88 563.82 533.609C564.378 533.339 565.005 533.203 565.703 533.203C566.401 533.203 567.026 533.339 567.578 533.609C568.13 533.88 568.562 534.263 568.875 534.758C569.188 535.253 569.344 535.818 569.344 536.453C569.344 537.078 569.188 537.635 568.875 538.125C568.562 538.615 568.13 538.995 567.578 539.266C567.026 539.536 566.401 539.672 565.703 539.672C565.005 539.672 564.378 539.536 563.82 539.266C563.268 538.995 562.836 538.615 562.523 538.125C562.216 537.635 562.062 537.078 562.062 536.453ZM563.266 536.453C563.26 536.875 563.362 537.253 563.57 537.586C563.779 537.919 564.068 538.182 564.438 538.375C564.807 538.562 565.229 538.656 565.703 538.656C566.172 538.656 566.591 538.562 566.961 538.375C567.331 538.182 567.62 537.919 567.828 537.586C568.036 537.253 568.141 536.875 568.141 536.453C568.141 536.026 568.036 535.646 567.828 535.312C567.62 534.974 567.328 534.711 566.953 534.523C566.583 534.336 566.167 534.245 565.703 534.25C565.234 534.245 564.812 534.336 564.438 534.523C564.068 534.711 563.779 534.974 563.57 535.312C563.362 535.646 563.26 536.026 563.266 536.453ZM571.984 532.391H573.203V540.328H571.984V532.391ZM578.391 542.344H585.328V540.719H586.562V546.078H577.172V540.719H578.391V542.344ZM575.562 538.719H588.219V539.734H575.562V538.719ZM576.281 536.75C577.12 536.635 577.922 536.406 578.688 536.062C579.453 535.719 580.073 535.297 580.547 534.797C581.026 534.292 581.266 533.755 581.266 533.188V532.531H582.531V533.188C582.531 533.734 582.768 534.263 583.242 534.773C583.721 535.284 584.344 535.716 585.109 536.07C585.88 536.419 586.677 536.646 587.5 536.75L587.047 537.734C586.323 537.625 585.62 537.435 584.938 537.164C584.26 536.893 583.656 536.552 583.125 536.141C582.594 535.729 582.185 535.271 581.898 534.766C581.612 535.271 581.201 535.729 580.664 536.141C580.133 536.552 579.529 536.893 578.852 537.164C578.174 537.435 577.474 537.625 576.75 537.734L576.281 536.75ZM585.328 545.094V543.312H578.391V545.094H585.328ZM600.844 546.266H599.625V532.375H600.844V546.266ZM590.297 533.75H591.5V541.625C592.646 541.615 593.763 541.56 594.852 541.461C595.94 541.357 597.036 541.188 598.141 540.953L598.312 542C597.13 542.245 595.979 542.422 594.859 542.531C593.745 542.635 592.599 542.688 591.422 542.688H590.297V533.75ZM613.969 537.875H616.297V538.906H613.969V546.297H612.75V532.375H613.969V537.875ZM603.828 533.734H610.312V534.75H605.047V541.781C606.359 541.776 607.497 541.737 608.461 541.664C609.424 541.591 610.406 541.464 611.406 541.281L611.562 542.344C610.531 542.531 609.521 542.656 608.531 542.719C607.547 542.781 606.344 542.812 604.922 542.812H603.828V533.734ZM618.516 545.094C618.333 545.094 618.164 545.047 618.008 544.953C617.857 544.859 617.734 544.737 617.641 544.586C617.552 544.43 617.51 544.26 617.516 544.078C617.51 543.901 617.552 543.737 617.641 543.586C617.734 543.43 617.857 543.307 618.008 543.219C618.164 543.125 618.333 543.078 618.516 543.078C618.693 543.078 618.857 543.122 619.008 543.211C619.164 543.299 619.286 543.419 619.375 543.57C619.469 543.721 619.516 543.885 619.516 544.062C619.516 544.344 619.419 544.586 619.227 544.789C619.034 544.987 618.797 545.089 618.516 545.094ZM132.078 563.562H130.844V559.953H127.75V558.938H130.844V556.375H132.078V563.562ZM120.547 562.609C121.24 562.38 121.852 562.044 122.383 561.602C122.919 561.154 123.336 560.633 123.633 560.039C123.935 559.44 124.089 558.807 124.094 558.141V556.828H125.297V558.141C125.292 558.74 125.435 559.315 125.727 559.867C126.018 560.419 126.427 560.909 126.953 561.336C127.479 561.758 128.078 562.078 128.75 562.297L128.094 563.25C127.323 562.974 126.643 562.573 126.055 562.047C125.466 561.521 125.018 560.906 124.711 560.203C124.414 560.995 123.964 561.685 123.359 562.273C122.755 562.857 122.042 563.297 121.219 563.594L120.547 562.609ZM123.078 564.266H132.078V567.578H124.312V569.094H132.594V570.078H123.109V566.641H130.859V565.25H123.078V564.266ZM145.906 564.656H144.672V561.016H141.875V560H144.672V556.375H145.906V564.656ZM134.453 563.547C135.135 563.302 135.742 562.943 136.273 562.469C136.81 561.995 137.229 561.451 137.531 560.836C137.833 560.221 137.984 559.589 137.984 558.938V558.422H134.844V557.391H142.328V558.422H139.219V558.922C139.219 559.521 139.362 560.102 139.648 560.664C139.935 561.227 140.339 561.727 140.859 562.164C141.38 562.596 141.974 562.927 142.641 563.156L142 564.141C141.229 563.859 140.549 563.443 139.961 562.891C139.378 562.339 138.935 561.701 138.633 560.977C138.336 561.789 137.878 562.505 137.258 563.125C136.643 563.745 135.922 564.214 135.094 564.531L134.453 563.547ZM136.641 567.672C136.641 567.13 136.826 566.667 137.195 566.281C137.57 565.896 138.107 565.602 138.805 565.398C139.508 565.195 140.339 565.094 141.297 565.094C142.255 565.094 143.083 565.195 143.781 565.398C144.479 565.602 145.016 565.896 145.391 566.281C145.766 566.667 145.953 567.13 145.953 567.672C145.953 568.214 145.766 568.677 145.391 569.062C145.016 569.448 144.479 569.742 143.781 569.945C143.083 570.154 142.255 570.26 141.297 570.266C140.333 570.26 139.503 570.154 138.805 569.945C138.107 569.742 137.57 569.448 137.195 569.062C136.826 568.677 136.641 568.214 136.641 567.672ZM137.859 567.672C137.859 568 137.995 568.286 138.266 568.531C138.536 568.771 138.927 568.956 139.438 569.086C139.953 569.216 140.56 569.281 141.258 569.281C141.971 569.281 142.589 569.216 143.109 569.086C143.63 568.961 144.031 568.779 144.312 568.539C144.594 568.294 144.734 568.005 144.734 567.672C144.734 567.339 144.596 567.049 144.32 566.805C144.044 566.56 143.646 566.372 143.125 566.242C142.609 566.112 142 566.047 141.297 566.047C140.589 566.047 139.977 566.112 139.461 566.242C138.945 566.372 138.549 566.56 138.273 566.805C137.997 567.049 137.859 567.339 137.859 567.672ZM160.875 564.703H148.219V563.703H160.875V564.703ZM149.625 559.625C149.625 559.052 149.823 558.557 150.219 558.141C150.62 557.724 151.19 557.409 151.93 557.195C152.674 556.977 153.547 556.87 154.547 556.875C155.536 556.87 156.401 556.977 157.141 557.195C157.88 557.409 158.451 557.724 158.852 558.141C159.253 558.557 159.453 559.052 159.453 559.625C159.453 560.193 159.25 560.685 158.844 561.102C158.443 561.518 157.872 561.839 157.133 562.062C156.398 562.281 155.536 562.391 154.547 562.391C153.547 562.391 152.677 562.281 151.938 562.062C151.198 561.839 150.628 561.518 150.227 561.102C149.826 560.685 149.625 560.193 149.625 559.625ZM149.859 565.922H151.094V568.938H159.469V569.969H149.859V565.922ZM150.891 559.625C150.891 559.99 151.039 560.305 151.336 560.57C151.633 560.836 152.055 561.039 152.602 561.18C153.154 561.32 153.802 561.391 154.547 561.391C155.286 561.391 155.93 561.32 156.477 561.18C157.029 561.039 157.453 560.836 157.75 560.57C158.052 560.305 158.203 559.99 158.203 559.625C158.203 559.266 158.052 558.953 157.75 558.688C157.453 558.422 157.029 558.219 156.477 558.078C155.924 557.932 155.281 557.859 154.547 557.859C153.807 557.859 153.161 557.932 152.609 558.078C152.057 558.219 151.633 558.422 151.336 558.688C151.039 558.953 150.891 559.266 150.891 559.625ZM179.062 562.953H176.812V570.266H175.594V556.375H176.812V561.922H179.062V562.953ZM166.641 557.75H167.859V565.703C168.943 565.703 170.005 565.654 171.047 565.555C172.094 565.456 173.161 565.292 174.25 565.062L174.406 566.109C173.276 566.339 172.169 566.5 171.086 566.594C170.003 566.688 168.891 566.734 167.75 566.734H166.641V557.75ZM192.547 563.891H186.812V565.375C188.135 565.432 189.161 565.672 189.891 566.094C190.625 566.51 190.995 567.083 191 567.812C190.995 568.328 190.802 568.766 190.422 569.125C190.042 569.49 189.492 569.766 188.773 569.953C188.06 570.141 187.208 570.234 186.219 570.234C185.214 570.234 184.352 570.141 183.633 569.953C182.914 569.766 182.365 569.49 181.984 569.125C181.609 568.766 181.422 568.328 181.422 567.812C181.417 567.083 181.779 566.51 182.508 566.094C183.242 565.672 184.276 565.432 185.609 565.375V563.891H179.891V562.875H192.547V563.891ZM180.609 561.062C181.422 560.979 182.19 560.794 182.914 560.508C183.643 560.221 184.237 559.862 184.695 559.43C185.154 558.997 185.396 558.531 185.422 558.031H181.047V557.031H191.422V558.031H187.016C187.042 558.531 187.281 558.997 187.734 559.43C188.193 559.862 188.786 560.221 189.516 560.508C190.245 560.794 191.021 560.979 191.844 561.062L191.391 562.031C190.62 561.938 189.888 561.766 189.195 561.516C188.503 561.26 187.896 560.935 187.375 560.539C186.854 560.143 186.469 559.695 186.219 559.195C185.969 559.695 185.583 560.143 185.062 560.539C184.547 560.935 183.94 561.26 183.242 561.516C182.549 561.766 181.818 561.938 181.047 562.031L180.609 561.062ZM182.672 567.812C182.667 568.115 182.802 568.378 183.078 568.602C183.359 568.82 183.763 568.987 184.289 569.102C184.815 569.221 185.443 569.281 186.172 569.281C186.911 569.281 187.549 569.224 188.086 569.109C188.628 568.995 189.042 568.828 189.328 568.609C189.62 568.385 189.766 568.12 189.766 567.812C189.76 567.344 189.445 566.979 188.82 566.719C188.195 566.458 187.328 566.323 186.219 566.312C185.099 566.323 184.227 566.458 183.602 566.719C182.977 566.979 182.667 567.344 182.672 567.812ZM205.625 570.266H204.438V556.375H205.625V570.266ZM193.891 562.375C193.891 561.401 194.013 560.552 194.258 559.828C194.508 559.099 194.857 558.536 195.305 558.141C195.753 557.745 196.276 557.547 196.875 557.547C197.432 557.547 197.927 557.721 198.359 558.07C198.792 558.414 199.135 558.906 199.391 559.547C199.651 560.182 199.807 560.932 199.859 561.797H201.656V556.672H202.828V569.562H201.656V562.812H199.867C199.831 563.703 199.682 564.482 199.422 565.148C199.167 565.81 198.82 566.318 198.383 566.672C197.945 567.026 197.443 567.203 196.875 567.203C196.276 567.203 195.753 567.008 195.305 566.617C194.857 566.221 194.508 565.659 194.258 564.93C194.013 564.201 193.891 563.349 193.891 562.375ZM195.047 562.375C195.042 563.12 195.112 563.768 195.258 564.32C195.409 564.872 195.622 565.297 195.898 565.594C196.18 565.891 196.505 566.036 196.875 566.031C197.245 566.036 197.568 565.893 197.844 565.602C198.125 565.305 198.341 564.883 198.492 564.336C198.643 563.789 198.719 563.148 198.719 562.414C198.719 561.659 198.643 561.003 198.492 560.445C198.346 559.888 198.133 559.458 197.852 559.156C197.576 558.854 197.25 558.703 196.875 558.703C196.5 558.703 196.174 558.854 195.898 559.156C195.622 559.453 195.409 559.878 195.258 560.43C195.112 560.982 195.042 561.63 195.047 562.375ZM222.312 561.844H224.641V562.906H222.312V570.266H221.094V556.375H222.312V561.844ZM212.141 557.562H213.359V561.234H217.422V557.562H218.641V566.938H212.141V557.562ZM217.422 565.906V562.219H213.359V565.906H217.422ZM238.047 564.156H232.312V570.281H231.094V564.156H225.391V563.125H229.039C229.294 562.177 229.469 561.318 229.562 560.547C229.661 559.776 229.721 559.047 229.742 558.359H226.406V557.359H230.938V557.781C230.938 558.521 230.898 559.312 230.82 560.156C230.747 560.995 230.573 561.984 230.297 563.125H234.859C235.073 562.167 235.216 561.307 235.289 560.547C235.362 559.786 235.401 559.057 235.406 558.359H231.969V557.359H236.625V557.969C236.62 558.771 236.586 559.562 236.523 560.344C236.466 561.125 236.326 562.052 236.102 563.125H238.047V564.156ZM250.734 570.297H249.5V563.906H246.422V562.859H249.5V560.453H246.422V559.422H249.5V556.375H250.734V570.297ZM239.203 566.344C239.875 566.016 240.49 565.523 241.047 564.867C241.604 564.206 242.044 563.458 242.367 562.625C242.695 561.786 242.859 560.948 242.859 560.109V557.578H244.109V560.109C244.109 560.932 244.268 561.747 244.586 562.555C244.909 563.362 245.346 564.081 245.898 564.711C246.456 565.341 247.068 565.812 247.734 566.125L247 567.125C246.208 566.724 245.503 566.125 244.883 565.328C244.268 564.531 243.805 563.633 243.492 562.633C243.185 563.669 242.721 564.604 242.102 565.438C241.482 566.271 240.781 566.901 240 567.328L239.203 566.344ZM264.266 563.891H259.969V567.484H265.766V568.516H253.047V567.484H258.766V563.891H254.672V557.516H264.125V558.516H255.906V562.891H264.266V563.891ZM277.344 558.391C277.339 559.12 277.318 559.766 277.281 560.328C277.245 560.885 277.156 561.521 277.016 562.234L275.859 562.109C275.995 561.438 276.081 560.839 276.117 560.312C276.154 559.786 276.177 559.177 276.188 558.484H271.531V557.469H277.344V558.391ZM270.766 563.516C271.594 563.516 272.411 563.505 273.219 563.484V560.625H274.375V563.445C275.812 563.393 277.005 563.307 277.953 563.188L278.016 564.078C276.266 564.391 273.891 564.547 270.891 564.547L270.766 563.516ZM273.266 565.828H274.516V568.938H283.062V569.969H273.266V565.828ZM278.641 556.641H279.781V560.812H281.484V556.391H282.688V566.938H281.484V561.844H279.781V566.531H278.641V556.641ZM295.578 559.531H297.672V560.562H295.578V563.562H294.359V556.375H295.578V559.531ZM284.688 562.734C285.375 562.552 285.987 562.284 286.523 561.93C287.065 561.57 287.487 561.146 287.789 560.656C288.096 560.167 288.25 559.646 288.25 559.094V558.828H285.109V557.812H288.25V556.328H289.484V557.812H292.594V558.828H289.453V559.094C289.453 559.573 289.604 560.029 289.906 560.461C290.208 560.893 290.622 561.273 291.148 561.602C291.68 561.924 292.281 562.167 292.953 562.328L292.438 563.281C291.62 563.078 290.904 562.76 290.289 562.328C289.674 561.896 289.211 561.383 288.898 560.789C288.596 561.487 288.125 562.089 287.484 562.594C286.849 563.099 286.104 563.469 285.25 563.703L284.688 562.734ZM286.203 564.844H287.391V568.93C288.49 568.888 289.443 568.729 290.25 568.453L290.438 569.438C289.396 569.781 288.203 569.958 286.859 569.969H286.203V564.844ZM289.953 565.062H292.875V563.828H294.078V565.062H296.969V565.984H289.953V565.062ZM290.875 568.375C290.875 568 290.984 567.672 291.203 567.391C291.422 567.104 291.727 566.883 292.117 566.727C292.508 566.57 292.953 566.49 293.453 566.484C293.953 566.49 294.398 566.57 294.789 566.727C295.185 566.883 295.495 567.104 295.719 567.391C295.943 567.672 296.057 568 296.062 568.375C296.057 568.75 295.943 569.078 295.719 569.359C295.495 569.646 295.185 569.867 294.789 570.023C294.398 570.18 293.953 570.26 293.453 570.266C292.953 570.26 292.508 570.18 292.117 570.023C291.727 569.867 291.422 569.646 291.203 569.359C290.984 569.078 290.875 568.75 290.875 568.375ZM291.984 568.375C291.979 568.682 292.115 568.927 292.391 569.109C292.667 569.297 293.021 569.385 293.453 569.375C293.885 569.385 294.24 569.297 294.516 569.109C294.792 568.927 294.932 568.682 294.938 568.375C294.932 568.073 294.792 567.831 294.516 567.648C294.24 567.461 293.885 567.365 293.453 567.359C293.021 567.365 292.667 567.461 292.391 567.648C292.115 567.831 291.979 568.073 291.984 568.375ZM302.266 557.453C302.943 557.453 303.547 557.654 304.078 558.055C304.609 558.451 305.023 559.016 305.32 559.75C305.622 560.479 305.776 561.328 305.781 562.297C305.776 563.266 305.622 564.117 305.32 564.852C305.023 565.581 304.609 566.143 304.078 566.539C303.547 566.93 302.943 567.125 302.266 567.125C301.583 567.125 300.977 566.93 300.445 566.539C299.914 566.143 299.5 565.581 299.203 564.852C298.911 564.122 298.766 563.271 298.766 562.297C298.766 561.328 298.911 560.479 299.203 559.75C299.5 559.016 299.914 558.451 300.445 558.055C300.977 557.654 301.583 557.453 302.266 557.453ZM299.922 562.297C299.922 563.042 300.021 563.698 300.219 564.266C300.422 564.828 300.701 565.263 301.055 565.57C301.409 565.878 301.812 566.031 302.266 566.031C302.724 566.031 303.128 565.878 303.477 565.57C303.831 565.263 304.104 564.828 304.297 564.266C304.495 563.698 304.594 563.042 304.594 562.297C304.594 561.552 304.495 560.898 304.297 560.336C304.104 559.768 303.831 559.328 303.477 559.016C303.128 558.703 302.724 558.547 302.266 558.547C301.812 558.547 301.409 558.703 301.055 559.016C300.701 559.328 300.422 559.768 300.219 560.336C300.021 560.898 299.922 561.552 299.922 562.297ZM308.078 556.375H309.297V561.922H311.625V562.984H309.297V570.266H308.078V556.375ZM325.094 568.484H312.375V567.453H315.531V563.711C314.927 563.398 314.458 562.995 314.125 562.5C313.792 562.005 313.625 561.448 313.625 560.828C313.625 560.125 313.841 559.503 314.273 558.961C314.706 558.419 315.305 558 316.07 557.703C316.841 557.406 317.719 557.255 318.703 557.25C319.688 557.255 320.562 557.406 321.328 557.703C322.099 558 322.701 558.419 323.133 558.961C323.565 559.503 323.781 560.125 323.781 560.828C323.781 561.438 323.62 561.987 323.297 562.477C322.974 562.961 322.521 563.359 321.938 563.672V567.453H325.094V568.484ZM314.812 560.828C314.812 561.339 314.977 561.792 315.305 562.188C315.633 562.578 316.091 562.883 316.68 563.102C317.273 563.315 317.948 563.422 318.703 563.422C319.453 563.422 320.122 563.315 320.711 563.102C321.299 562.883 321.76 562.578 322.094 562.188C322.427 561.792 322.594 561.339 322.594 560.828C322.594 560.318 322.427 559.867 322.094 559.477C321.76 559.086 321.299 558.786 320.711 558.578C320.122 558.365 319.453 558.26 318.703 558.266C317.948 558.26 317.273 558.365 316.68 558.578C316.091 558.786 315.633 559.086 315.305 559.477C314.977 559.867 314.812 560.318 314.812 560.828ZM320.703 567.453V564.148C320.083 564.31 319.417 564.391 318.703 564.391C317.984 564.391 317.328 564.312 316.734 564.156V567.453H320.703ZM327.672 569.094C327.49 569.094 327.32 569.047 327.164 568.953C327.013 568.859 326.891 568.737 326.797 568.586C326.708 568.43 326.667 568.26 326.672 568.078C326.667 567.901 326.708 567.737 326.797 567.586C326.891 567.43 327.013 567.307 327.164 567.219C327.32 567.125 327.49 567.078 327.672 567.078C327.849 567.078 328.013 567.122 328.164 567.211C328.32 567.299 328.443 567.419 328.531 567.57C328.625 567.721 328.672 567.885 328.672 568.062C328.672 568.344 328.576 568.586 328.383 568.789C328.19 568.987 327.953 569.089 327.672 569.094Z" fill="black"/>
</svg>
