<svg width="142" height="136" viewBox="0 0 142 136" fill="none" xmlns="http://www.w3.org/2000/svg">
<path fill-rule="evenodd" clip-rule="evenodd" d="M108.26 103.514C108.712 103.514 109.146 103.334 109.466 103.014C109.786 102.694 109.966 102.26 109.966 101.808C109.966 101.355 109.786 100.921 109.466 100.601C109.146 100.281 108.712 100.102 108.26 100.102C96.492 98.9248 91.1378 91.1582 91.785 83.4505C92.2176 79.1767 94.3082 75.2428 97.6082 72.4928C100.908 69.7428 105.155 68.3959 109.436 68.7411C113.333 68.6619 117.104 70.1267 119.925 72.816C122.747 75.5053 124.391 79.201 124.499 83.0974C125.277 87.0764 124.443 91.2014 122.182 94.5663C119.92 97.9312 116.415 100.261 112.437 101.043C111.922 101.105 111.453 101.37 111.133 101.778C110.813 102.186 110.668 102.705 110.731 103.22C110.793 103.735 111.058 104.204 111.466 104.524C111.874 104.844 112.393 104.989 112.908 104.926C115.325 104.731 117.682 104.072 119.851 102.985C121.501 104.834 123.015 106.8 124.381 108.868C125.205 110.104 125.911 111.281 126.617 112.516C127.392 113.751 128.1 115.028 128.735 116.341C130.336 119.46 131.674 122.707 132.736 126.049C132.822 126.556 133.106 127.008 133.525 127.306C133.945 127.603 134.465 127.723 134.972 127.638C135.483 127.537 135.936 127.242 136.232 126.813C136.529 126.384 136.647 125.857 136.56 125.343C136.251 121.475 135.541 117.65 134.442 113.928C133.882 112.317 133.173 110.761 132.324 109.28C131.521 107.753 130.533 106.33 129.382 105.044C127.613 103.249 125.638 101.669 123.499 100.337C125.77 98.0283 127.514 95.2551 128.611 92.2079C129.708 89.1608 130.132 85.9121 129.853 82.6856C129.845 79.984 129.305 77.3105 128.262 74.8182C127.219 72.326 125.695 70.064 123.776 68.1619C121.858 66.2598 119.583 64.755 117.082 63.7337C114.581 62.7123 111.903 62.1946 109.201 62.2101C103.385 62.0014 97.7207 64.0865 93.4282 68.0158C89.1357 71.945 86.5593 77.4038 86.2543 83.2151C86.1954 93.041 93.0794 102.985 108.26 103.514Z" fill="black"/>
<path fill-rule="evenodd" clip-rule="evenodd" d="M6.11878 65.4463C6.37053 65.5063 6.63195 65.5137 6.88669 65.4681C7.14144 65.4225 7.38405 65.3249 7.59938 65.1814C7.81471 65.0378 7.99814 64.8514 8.1382 64.6338C8.27827 64.4162 8.37197 64.172 8.41345 63.9166C9.47547 60.5561 10.8137 57.2893 12.4144 54.1495C13.0616 52.8551 13.7677 51.6195 14.4737 50.3839C15.1798 49.1483 15.9447 47.9716 16.7096 46.736C18.0963 44.6672 19.6301 42.7009 21.2989 40.8522C23.4267 41.9452 25.7428 42.6241 28.1241 42.8527C28.379 42.8836 28.6376 42.864 28.885 42.7949C29.1324 42.7259 29.3638 42.6089 29.5659 42.4504C29.7681 42.292 29.9371 42.0953 30.0632 41.8715C30.1893 41.6478 30.2701 41.4014 30.3011 41.1464C30.332 40.8914 30.3123 40.6328 30.2433 40.3854C30.1743 40.138 30.0572 39.9067 29.8988 39.7045C29.7403 39.5024 29.5436 39.3334 29.3199 39.2073C29.0961 39.0811 28.8497 39.0003 28.5948 38.9694C26.619 38.5824 24.739 37.8092 23.0627 36.6941C21.3864 35.579 19.9467 34.144 18.8261 32.4713C17.7055 30.7987 16.9261 28.9213 16.5326 26.9468C16.1392 24.9723 16.1393 22.9395 16.533 20.9651C16.6409 17.0634 18.2829 13.3617 21.1028 10.663C23.9226 7.96436 27.6929 6.48642 31.5955 6.54986C35.8797 6.23607 40.1179 7.60206 43.4125 10.3586C46.7072 13.1151 48.7996 17.0457 49.2468 21.3181C49.8351 29.0258 44.6574 36.7924 32.7722 37.9692C32.3144 37.9995 31.8864 38.2068 31.5789 38.5473C31.2714 38.8878 31.1085 39.3346 31.1248 39.7931C31.1397 40.0174 31.1988 40.2365 31.2987 40.4378C31.3985 40.6392 31.5372 40.8188 31.7066 40.9665C31.8761 41.1141 32.0731 41.2268 32.2863 41.298C32.4994 41.3693 32.7246 41.3977 32.9487 41.3817C48.1877 41.0287 55.0717 30.9086 54.8363 21.0239C54.5165 15.1863 51.9109 9.70931 47.5834 5.77823C43.2559 1.84715 37.5546 -0.221871 31.7132 0.0188849C29.0039 0.0111441 26.3197 0.53809 23.8144 1.56953C21.3091 2.60097 19.032 4.11662 17.1135 6.02964C15.195 7.94267 13.6729 10.2155 12.6343 12.7178C11.5957 15.2201 11.0611 17.9028 11.0611 20.6121C10.7932 23.8528 11.2391 27.1129 12.3675 30.1626C13.4959 33.2123 15.2793 35.9775 17.5921 38.2633C15.4412 39.5794 13.4645 41.1608 11.7084 42.9704C10.5576 44.2696 9.55141 45.69 8.70764 47.2067C7.86723 48.6832 7.17732 50.2404 6.64832 51.8548C5.49362 55.5626 4.78261 59.3942 4.53016 63.2693C4.48837 63.517 4.49653 63.7704 4.55418 64.0149C4.61182 64.2593 4.71777 64.4897 4.8658 64.6926C5.01383 64.8954 5.20094 65.0666 5.41612 65.1961C5.63131 65.3255 5.87021 65.4106 6.11878 65.4463Z" fill="black"/>
<path fill-rule="evenodd" clip-rule="evenodd" d="M139.268 130.168C129.384 129.521 119.793 128.991 110.202 128.756H104.319V126.932C103.46 120.961 102.162 115.061 100.435 109.281C99.9734 107.96 99.3614 106.696 98.6115 105.515C98.0529 104.717 97.3048 104.07 96.4345 103.632C93.2326 102.624 89.9054 102.07 86.5497 101.985C79.4533 101.437 72.3206 101.575 65.2505 102.396C62.783 102.63 60.3949 103.392 58.2488 104.632C57.5927 105.054 57.0718 105.655 56.7483 106.364C56.4248 107.074 56.3126 107.862 56.4249 108.633C57.4251 114.517 59.7198 119.812 61.073 125.284C61.5529 127.098 61.8874 128.948 62.0733 130.815L56.1895 131.227C55.9681 131.227 55.749 131.271 55.5452 131.358C55.3414 131.444 55.1571 131.571 55.0033 131.73C54.8495 131.889 54.7294 132.078 54.6502 132.285C54.5709 132.491 54.5342 132.712 54.5421 132.933C54.5421 133.386 54.7218 133.82 55.0418 134.14C55.3618 134.46 55.7958 134.64 56.2484 134.64C67.4863 134.934 78.4302 135.463 89.374 135.463C96.0226 135.463 102.612 135.463 109.202 135.11C118.969 134.816 128.854 134.286 138.915 134.169C139.179 134.21 139.449 134.196 139.708 134.129C139.967 134.061 140.209 133.94 140.419 133.774C140.629 133.609 140.802 133.401 140.928 133.166C141.054 132.93 141.13 132.67 141.151 132.404C141.193 132.13 141.176 131.851 141.101 131.584C141.026 131.318 140.895 131.07 140.717 130.858C140.539 130.647 140.317 130.476 140.067 130.356C139.817 130.237 139.545 130.173 139.268 130.168ZM61.5437 109.281H61.8968C62.2498 109.281 61.7203 109.575 61.5437 109.281ZM85.0788 129.05C78.6067 129.403 72.1934 129.874 65.6624 130.403C65.6123 128.333 65.4156 126.268 65.074 124.225C64.1326 119.224 62.544 114.282 61.8379 109.045H62.4263C68.718 108.137 75.0866 107.881 81.4309 108.28C85.6566 108.128 89.8876 108.325 94.081 108.869L95.6696 111.516C97.9291 117.084 99.72 122.831 101.024 128.697H98.0231C93.6691 128.756 89.4916 128.873 85.373 129.05H85.0788Z" fill="black"/>
<path fill-rule="evenodd" clip-rule="evenodd" d="M86.3148 70.6828C86.3227 70.4586 86.2863 70.2352 86.2077 70.0252C86.1292 69.8151 86.01 69.6226 85.857 69.4587C85.704 69.2948 85.5201 69.1626 85.316 69.0698C85.1119 68.9769 84.8915 68.9252 84.6674 68.9176L79.1366 68.5646C79.2915 66.5812 79.6063 64.6135 80.078 62.6808C81.4901 57.2678 83.7848 51.8547 84.785 46.0886C84.8992 45.3105 84.7814 44.516 84.4466 43.8044C84.1117 43.0928 83.5746 42.4957 82.9022 42.0877C80.7857 40.8293 78.4125 40.065 75.9594 39.8518C68.8799 39.1294 61.7472 39.09 54.6602 39.7341C51.3113 39.8433 47.9899 40.3772 44.7754 41.3228C43.9052 41.7869 43.1587 42.4527 42.5985 43.2644C41.8544 44.4579 41.224 45.7187 40.7156 47.03C39.0199 52.8183 37.7225 58.7158 36.8324 64.6813V66.5053H30.9486C21.3581 66.5053 11.7675 67.2702 1.88281 67.8585C1.3729 67.8886 0.893807 68.1125 0.54373 68.4845C0.193654 68.8565 -0.000881435 69.3482 3.00257e-06 69.859C0.0153124 70.3793 0.232816 70.8732 0.606332 71.2357C0.979849 71.5982 1.47996 71.8009 2.00048 71.8007C12.0617 71.8007 21.9464 72.389 31.7135 72.6832C38.3033 72.6832 44.8931 73.0951 51.5418 73.0951C62.4856 73.0951 73.4294 72.5656 84.6674 72.2714C85.09 72.2578 85.4925 72.0877 85.7969 71.7942C86.1013 71.5007 86.2859 71.1046 86.3148 70.6828ZM79.6073 47.1477C79.6073 47.4419 79.6073 47.1477 79.1955 47.1477C78.7836 47.1477 79.6662 47.03 79.6073 47.1477ZM43.3045 66.5641H40.3626C41.6765 60.6818 43.4671 54.9163 45.7169 49.3247L47.3055 46.677C51.2094 46.2017 55.1405 45.9855 59.073 46.0298C65.4365 45.5993 71.8278 45.8557 78.1364 46.7947H78.6659C78.0187 52.0312 76.4301 57.0324 75.4887 61.9748C75.1152 64.0331 74.9184 66.1197 74.9003 68.2116C68.3693 67.682 61.8972 67.2113 55.4251 66.8583C51.6006 66.7406 47.4231 66.623 43.3045 66.5641Z" fill="black"/>
</svg>
