<svg width="142" height="144" viewBox="0 0 142 144" fill="none" xmlns="http://www.w3.org/2000/svg">
<path fill-rule="evenodd" clip-rule="evenodd" d="M2.79114 36.0196C5.20084 32.2321 8.95051 29.4928 13.2914 28.3488C13.897 28.2246 14.5271 28.3459 15.0432 28.6863C15.5593 29.0266 15.9191 29.558 16.0433 30.1636C16.1676 30.7691 16.0462 31.3993 15.7059 31.9154C15.3656 32.4314 14.8342 32.7912 14.2286 32.9155C11.4062 33.9242 9.07548 35.9726 7.71262 38.6421C6.34977 41.3116 6.05765 44.4007 6.89594 47.2784C7.73424 50.156 9.63969 52.605 12.223 54.1249C14.8063 55.6448 17.8724 56.121 20.795 55.4562C23.4749 54.7894 25.8277 53.1855 27.4278 50.9347C29.0278 48.6838 29.7694 45.9346 29.5184 43.1844C29.2674 40.4343 28.0404 37.8647 26.0593 35.9407C24.0782 34.0167 21.474 32.8652 18.7177 32.6946C18.086 32.6537 17.4944 32.3707 17.066 31.9047C16.6376 31.4387 16.4055 30.8254 16.4178 30.1925C16.4301 29.5596 16.6859 28.9559 17.1321 28.5068C17.5783 28.0578 18.1804 27.7981 18.8132 27.7817C21.8275 27.9456 24.751 28.872 27.3095 30.4743C29.868 32.0766 31.9778 34.3023 33.4412 36.9427C34.9046 39.5831 35.6736 42.5519 35.6763 45.5707C35.6789 48.5895 34.915 51.5596 33.4563 54.2026C38.1698 53.9142 42.8607 55.055 46.9154 57.4759C50.97 59.8968 54.1997 63.485 56.182 67.7711C66.1808 84.4618 71.5295 97.0752 63.7035 114.99C81.1522 133.381 67.6792 147.744 55.7761 141.983C49.248 137.348 43.9758 131.161 40.4346 123.98C39.7302 121.586 39.9272 120.84 39.7481 120.738C39.6526 120.678 39.4317 120.834 38.8646 121.007C36.5783 121.681 35.6053 121.819 35.0023 122.362C34.2442 123.036 34.0592 124.344 32.6086 128.122C32.3997 128.684 32.1967 129.257 31.9937 129.842C30.4238 134.259 28.6747 139.208 24.2215 141.5C22.5764 142.298 20.7595 142.677 18.9325 142.603C17.1056 142.529 15.3253 142.004 13.7505 141.075C12.1756 140.146 10.8549 138.841 9.90619 137.278C8.95745 135.715 8.4101 133.942 8.31289 132.116C8.42328 124.675 10.6897 117.426 14.8375 111.247C17.4571 108.333 20.4757 105.805 23.8036 103.737C20.3099 98.7872 18.555 92.8191 18.8132 86.766C18.7442 85.5379 18.6685 84.3101 18.5863 83.0828C18.1267 76.009 17.6611 68.8039 19.7802 63.3239L19.6489 63.3358C16.316 63.6775 12.9542 63.0732 9.94895 61.5922C6.94367 60.1112 4.41644 57.8134 2.6569 54.9623C0.897361 52.1111 -0.023294 48.8219 0.000447859 45.4716C0.0241898 42.1213 0.991368 38.8455 2.79114 36.0196ZM18.8729 114.446C21.4176 111.48 24.4034 108.923 27.7256 106.865V106.907C28.991 107.582 30.3814 107.99 31.8109 108.106C33.2403 108.222 34.6783 108.044 36.0362 107.582C37.394 107.121 38.6428 106.386 39.7052 105.423C40.7677 104.459 41.6214 103.288 42.2135 101.982C44.0938 98.4422 43.9685 94.7113 43.7536 88.4434C43.6461 85.2259 43.5148 81.3397 43.6222 76.4627C43.6451 76.1339 43.6017 75.8039 43.4945 75.4923C43.3873 75.1806 43.2186 74.8937 42.9984 74.6485C42.7782 74.4034 42.5109 74.205 42.2125 74.0651C41.9141 73.9252 41.5906 73.8468 41.2613 73.8344C40.932 73.822 40.6035 73.8759 40.2955 73.9929C39.9874 74.1099 39.706 74.2876 39.4679 74.5155C39.2299 74.7435 39.0401 75.0169 38.9098 75.3196C38.7794 75.6223 38.7113 75.9481 38.7094 76.2776C38.5303 85.0706 38.5303 88.8851 38.5303 90.9327C38.5303 92.9802 38.5303 93.2607 38.3512 94.974C37.3483 104.812 28.9493 103.952 26.4004 95.4277C24.8282 86.297 24.5589 76.9894 25.6004 67.7831C26.1595 66.2361 27.074 64.842 28.2702 63.713C29.4665 62.584 30.9112 61.7517 32.4879 61.283C34.0646 60.8144 35.7293 60.7225 37.3481 61.0147C38.9668 61.307 40.4943 61.9753 41.8075 62.9657C47.7286 67.6532 52.2164 73.9072 54.7613 81.0174C59 87.2484 60.6168 94.8971 59.2622 102.31C58.7447 106.255 57.5491 110.08 55.7283 113.617C55.2259 114.494 55.0907 115.535 55.3522 116.512C55.4537 116.87 56.2297 117.759 57.2923 118.977C60.8979 123.12 67.8224 131.059 62.9872 134.94C58.2773 138.676 46.8099 123.21 46.8099 118.607C46.798 117.562 46.8696 116.518 47.0308 115.479C46.8876 114.557 46.3885 113.728 45.6407 113.17C44.8928 112.612 43.956 112.369 43.0313 112.494C29.7432 114.417 28.5374 118.303 26.8302 123.777C26.6391 124.397 26.4362 125.048 26.2093 125.711C26.0482 126.194 25.881 126.737 25.7019 127.322C24.7588 130.373 23.5171 134.408 21.2069 135.722C20.4843 136.053 19.6927 136.207 18.8985 136.169C18.1042 136.132 17.3306 135.904 16.6424 135.506C15.9542 135.108 15.3715 134.551 14.9432 133.881C14.5149 133.211 14.2535 132.448 14.1809 131.656C14.1557 125.6 15.7775 119.652 18.8729 114.446Z" fill="black"/>
<path fill-rule="evenodd" clip-rule="evenodd" d="M101.427 18.947C79.5254 18.947 54.0597 13.6402 53.8507 29.3339C53.7433 37.7807 61.426 41.2191 69.8429 42.3175C91.1658 45.0992 86.05 38.5448 88.6109 49.7793C93.5715 71.3529 103.069 83.7873 135.746 72.6304C136.054 72.5285 136.34 72.3667 136.586 72.1541C136.832 71.9415 137.033 71.6824 137.178 71.3917C137.324 71.101 137.41 70.7844 137.433 70.4602C137.455 70.1359 137.413 69.8104 137.31 69.5024C136.217 66.064 133.089 68.8935 124.392 70.2725C85.9843 76.3732 100.598 35.184 90.348 35.4944C56.9668 36.4196 59.3128 28.3788 63.9451 26.6715C68.2013 25.1075 97.1711 27.0655 110.877 26.0925C111.436 26.1267 111.995 26.0274 112.509 25.803C113.022 25.5785 113.475 25.2352 113.829 24.8014C114.184 24.3676 114.43 23.8557 114.548 23.308C114.665 22.7602 114.651 22.1924 114.506 21.6512C113.927 18.9649 110.841 18.6665 106.525 14.1595C101.392 8.74523 104.287 5.75453 108.734 6.57235C126.911 10.0287 136.611 29.4413 140.503 25.8895C140.957 25.4725 141.226 24.8929 141.253 24.2775C141.28 23.6621 141.062 23.0612 140.647 22.6063C106.137 -17.2876 88.784 4.93075 101.427 18.947Z" fill="black"/>
</svg>
