<svg width="100" height="100" viewBox="0 0 100 100" fill="none" xmlns="http://www.w3.org/2000/svg">
<path fill-rule="evenodd" clip-rule="evenodd" d="M38.6136 58.8412C37.1998 58.164 35.6521 57.8125 34.0845 57.8125C32.5169 57.8125 30.9693 58.164 29.5555 58.8412C27.4108 59.8293 25.739 61.6189 24.8989 63.8258C24.0588 66.0327 24.1174 68.4811 25.0621 70.6452C28.6283 78.1342 38.6492 73.7478 38.8632 73.5695C40.2708 72.6218 41.4817 71.4109 42.4294 70.0033C43.1585 68.9484 43.5897 67.7165 43.6776 66.4371C43.7262 64.8021 43.2648 63.1924 42.3574 61.8313C41.45 60.4702 40.1416 59.4252 38.6136 58.8412ZM39.1128 68.8265C38.6134 69.8167 37.8489 70.6489 36.9044 71.2303C35.96 71.8117 34.8727 72.1196 33.7636 72.1196C32.6545 72.1196 31.5672 71.8117 30.6227 71.2303C29.6783 70.6489 28.9138 69.8167 28.4143 68.8265C28.0492 67.5967 28.1715 66.2735 28.7558 65.1315C29.3401 63.9894 30.3416 63.1161 31.5525 62.6927C32.3516 62.3222 33.2217 62.1304 34.1024 62.1304C34.9831 62.1304 35.8532 62.3222 36.6522 62.6927C37.4713 62.9063 38.2078 63.36 38.767 63.9955C39.3263 64.631 39.6827 65.4192 39.7904 66.2588C39.8476 67.1654 39.6099 68.0662 39.1128 68.8265Z" fill="black"/>
<path fill-rule="evenodd" clip-rule="evenodd" d="M91.8228 31.9525C90.2537 31.0966 88.5775 30.3834 86.9371 29.5275C85.9814 29.0167 85.0742 28.4199 84.2268 27.7444C83.7176 27.2636 83.2521 26.7385 82.836 26.1753C81.5878 24.6061 80.518 22.6091 79.2698 21.3966C77.0617 19.1304 74.6767 17.0435 72.1375 15.1558C69.6116 13.3063 66.9124 11.7059 64.0779 10.3771C62.2694 9.59636 60.3384 9.13774 58.372 9.02193C56.3342 8.89939 54.2983 9.29185 52.4521 10.1631C51.6701 10.5175 50.9728 11.035 50.407 11.6807C49.8411 12.3265 49.4198 13.0858 49.1712 13.9076C48.9886 14.9015 49.0874 15.9268 49.4565 16.8675H48.4223C46.9538 17.3582 45.5965 18.1338 44.4282 19.1499C42.7206 20.5443 41.3748 22.3305 40.5054 24.3565C39.9643 25.361 39.8035 26.527 40.0524 27.6405C40.3013 28.754 40.9433 29.7405 41.8606 30.419C39.4689 31.7193 37.414 33.5605 35.86 35.7956C34.3059 38.0308 33.2955 40.5981 32.9095 43.2929C32.5215 43.0896 32.1156 42.9225 31.697 42.7937C31.0267 42.6532 30.3345 42.6532 29.6642 42.7937C28.8083 42.7937 27.8811 43.3999 27.2036 43.5426C26.053 43.7529 24.9446 44.1504 23.9227 44.7194C23.1772 45.1497 22.5802 45.7964 22.2109 46.5738C22.0449 46.9939 21.9602 47.4416 21.9613 47.8933C21.9613 48.5352 22.2822 49.3911 22.3179 49.819L23.0668 54.4551C22.1799 54.3268 21.2791 54.3268 20.3922 54.4551C20.0103 54.5604 19.6399 54.7037 19.2866 54.883C18.9531 55.0713 18.652 55.3122 18.3951 55.5963C18.1904 55.8893 18.0114 56.1996 17.8602 56.5235C16.6477 56.5235 15.3995 56.2382 14.294 56.2025C13.5349 56.1297 12.7707 56.1297 12.0116 56.2025C11.3333 56.3135 10.6653 56.4805 10.0146 56.7018C9.50478 56.9317 9.0716 57.303 8.76641 57.7716C8.42265 58.3602 8.17014 58.9974 8.01751 59.6617C7.79605 60.7223 7.6294 61.7935 7.51824 62.8713C7.29285 63.9735 7.20896 65.1 7.26861 66.2235C7.32485 66.6478 7.47586 67.0541 7.71045 67.4121C7.94503 67.7702 8.25718 68.0708 8.62376 68.2919L15.3995 70.9665H15.6491C15.532 71.3387 15.4484 71.7206 15.3995 72.1077C15.3799 72.5343 15.4529 72.9601 15.6135 73.3558C15.7279 73.7457 15.8959 74.1177 16.1127 74.4613C16.6511 75.2724 17.3129 75.9944 18.0741 76.6011C18.0741 76.6011 18.0741 76.6011 18.2881 76.7794L16.9686 78.9547C16.6399 79.3473 16.3418 79.7646 16.0771 80.2029C15.8618 80.6474 15.7519 81.1355 15.7561 81.6294C15.7593 82.398 15.9425 83.1553 16.2911 83.8404C16.7236 84.6049 17.2508 85.3118 17.8602 85.9445C18.3238 86.4437 18.8587 87.05 19.4293 87.5849C19.9181 87.9997 20.4433 88.3697 20.9984 88.6904C21.5228 88.9743 22.1145 89.1099 22.7102 89.0827C23.3277 88.9934 23.9363 88.8502 24.5289 88.6547C25.5747 88.2724 26.5883 87.8073 27.5602 87.2639C28.2771 86.922 28.9684 86.5287 29.6286 86.0871C29.7648 86.2589 29.9203 86.4145 30.0922 86.5507C30.3825 86.6923 30.6972 86.777 31.0194 86.8003C31.3264 86.8509 31.6396 86.8509 31.9466 86.8003C32.4999 86.6044 33.0269 86.3409 33.5157 86.0158L35.0848 88.8687C35.3293 89.5058 35.6401 90.1154 36.012 90.6875C36.3047 91.068 36.6836 91.3736 37.1175 91.579C37.7046 91.8666 38.3546 92.0015 39.0076 91.9713C39.959 91.9268 40.9032 91.7833 41.8249 91.5434C43.4152 91.2305 44.9218 90.5865 46.247 89.6533C46.7835 89.2146 47.2271 88.6732 47.5516 88.0608C47.8762 87.4484 48.0752 86.7774 48.1371 86.0871V83.3768L47.8161 81.5224H48.1727C48.4571 81.3986 48.7123 81.2163 48.9216 80.9875C49.1332 80.7576 49.3022 80.4919 49.4209 80.2029C49.5637 79.7504 49.6593 79.2843 49.7062 78.8121H55.1268C55.8351 78.8051 56.5405 78.7214 57.2308 78.5625C57.4977 78.4684 57.741 78.3177 57.9442 78.1207C58.1473 77.9237 58.3054 77.6851 58.4077 77.4213C58.7472 76.8614 59.0452 76.2774 59.2992 75.6739C59.6558 74.7823 59.9054 73.8551 60.1551 72.9992C60.473 71.8386 60.6054 70.635 60.5474 69.433C63.6412 69.1448 66.599 68.0233 69.1062 66.1878C71.3592 63.8816 73.2688 61.2634 74.7764 58.4135C76.0133 56.5972 76.863 54.5457 77.2728 52.3867C77.2728 52.1371 77.2728 52.0657 77.6294 52.0301C78.1369 52.0208 78.6426 52.093 79.1272 52.244C80.573 52.6547 81.9715 53.2165 83.2996 53.9201C83.6213 54.0994 84.0009 54.1437 84.3552 54.0434C84.7095 53.9431 85.0096 53.7064 85.1897 53.3852C85.2833 53.2271 85.3439 53.0517 85.3676 52.8695C85.3913 52.6873 85.3778 52.5022 85.3277 52.3254C85.2777 52.1486 85.1922 51.9839 85.0765 51.8411C84.9609 51.6984 84.8174 51.5807 84.6547 51.4951C82.467 50.2101 80.04 49.3849 77.5224 49.0701C77.0777 49.0199 76.6275 49.0699 76.2047 49.2165C75.7819 49.363 75.3973 49.6025 75.0792 49.9172C74.7611 50.2319 74.5175 50.6138 74.3664 51.035C74.2152 51.4562 74.1604 51.9059 74.2058 52.351C73.5956 54.3574 72.5755 56.2154 71.2102 57.8073C70.0451 59.6484 68.6555 61.3374 67.0735 62.8356C65.156 64.1723 62.9394 65.0173 60.6187 65.2963C59.4157 65.4578 58.1916 65.3232 57.0525 64.904C56.6246 64.904 56.2323 64.476 56.161 64.0838C55.5904 61.9084 57.3021 60.5176 58.8356 58.6632C61.2023 56.4624 62.8335 53.586 63.5073 50.4253C63.6231 48.9127 63.4159 47.3927 62.8994 45.9663C62.383 44.5399 61.5691 43.2396 60.5117 42.1517C58.4577 39.6906 55.5821 38.0564 52.4165 37.5514C50.7685 37.324 49.0901 37.4933 47.5208 38.0454C45.9515 38.5974 44.5367 39.5162 43.394 40.7253C42.9245 41.1975 42.4838 41.6977 42.0745 42.2231C41.1915 44.0083 40.1023 45.684 38.8293 47.2157C38.8293 47.394 38.437 47.2157 38.2231 47.2157C38.0091 47.2157 37.7238 46.9661 37.6168 46.7165C35.2631 41.3315 39.6139 35.8039 45.2128 32.4517C50.8117 29.0995 58.2293 27.9227 62.7941 31.7742C62.9041 31.8907 63.0367 31.9836 63.1839 32.0471C63.3311 32.1105 63.4897 32.1433 63.6499 32.1433C63.8102 32.1433 63.9688 32.1105 64.116 32.0471C64.2632 31.9836 64.3958 31.8907 64.5058 31.7742C64.6234 31.661 64.7169 31.5253 64.7808 31.3752C64.8447 31.2251 64.8776 31.0636 64.8776 30.9004C64.8776 30.7373 64.8447 30.5758 64.7808 30.4257C64.7169 30.2756 64.6234 30.1399 64.5058 30.0267C59.2635 25.462 51.1326 25.89 44.3926 29.0282C44.1296 28.8818 43.9017 28.6797 43.7249 28.4361C43.548 28.1924 43.4265 27.9132 43.3688 27.6177C43.3111 27.3223 43.3185 27.0178 43.3906 26.7256C43.4627 26.4333 43.5978 26.1603 43.7863 25.9256C44.5404 24.8601 45.4831 23.9415 46.5679 23.2153C47.5535 22.4607 48.6477 21.8595 49.8132 21.4322C51.6739 20.937 53.6182 20.8398 55.519 21.1469C57.6759 21.415 59.8097 21.8441 61.9025 22.4308C62.2433 22.5596 62.6209 22.5495 62.9544 22.4028C63.2878 22.2561 63.5503 21.9844 63.6856 21.6462C63.8069 21.2999 63.7935 20.9207 63.6482 20.5837C63.5029 20.2468 63.2362 19.9769 62.901 19.8275C60.3276 18.6004 57.624 17.6673 54.8415 17.0458C53.9826 16.8823 53.1121 16.7869 52.2382 16.7605C51.837 16.1777 51.6831 15.4596 51.8102 14.7635C52.2204 13.9996 52.9107 13.4245 53.736 13.1587C55.0908 12.7033 56.5402 12.605 57.944 12.8734C59.407 13.1233 60.8175 13.6176 62.1165 14.3355C64.6774 15.676 67.1227 17.2267 69.4272 18.9716C71.8027 20.6679 74.0771 22.5017 76.2386 24.4635C77.558 25.6403 78.6992 27.2808 79.8047 28.6359C80.4438 29.3427 81.1483 29.9875 81.9088 30.5617C82.7423 31.1483 83.6253 31.6614 84.5478 32.0951C86.4735 32.9867 88.5419 33.6286 90.4676 34.4845C90.7944 34.6166 91.1593 34.6197 91.4883 34.4932C91.8173 34.3666 92.086 34.1198 92.2401 33.8027C92.3941 33.4856 92.4219 33.1219 92.318 32.785C92.214 32.4481 91.9861 32.1633 91.6801 31.9881L91.8228 31.9525ZM56.161 69.5757C55.9656 70.2093 55.7273 70.8289 55.4477 71.4301L54.5562 74.604L49.2426 75.7452H48.9573C48.634 75.607 48.2703 75.5963 47.9395 75.7154C47.6087 75.8345 47.3352 76.0745 47.1742 76.3871C46.2534 77.2522 45.3954 78.1818 44.6065 79.1687C44.463 79.2405 44.3351 79.3401 44.2304 79.4618C44.1256 79.5834 44.0461 79.7246 43.9963 79.8772C43.9465 80.0298 43.9276 80.1907 43.9405 80.3507C43.9534 80.5107 43.998 80.6665 44.0716 80.8092C44.0716 81.0231 44.3569 81.0944 44.5352 81.2014V83.1272L44.2143 85.0886C44.0902 85.4143 43.8484 85.6816 43.5367 85.8375C42.6364 86.3088 41.6574 86.611 40.6481 86.729C37.9021 87.5492 39.1859 87.4779 38.2231 86.729L34.4786 82.5209C34.2513 82.2944 33.9435 82.1673 33.6227 82.1673C33.3018 82.1673 32.9941 82.2944 32.7668 82.5209H29.5572C29.2662 82.3904 28.937 82.3728 28.6338 82.4717C28.3305 82.5706 28.0749 82.7788 27.9168 83.0558C27.8813 83.2324 27.8813 83.4142 27.9168 83.5908C27.3303 83.8858 26.7223 84.1361 26.0981 84.3397C25.2215 84.586 24.3273 84.7648 23.4234 84.8746H22.9598L21.0341 83.0202C19.6433 81.879 19.6433 81.879 19.9999 80.7378L20.9627 77.1716C21.0345 77.0295 21.0767 76.8743 21.0867 76.7154C21.0967 76.5564 21.0743 76.3971 21.021 76.2471C20.9676 76.0971 20.8844 75.9594 20.7763 75.8425C20.6682 75.7256 20.5375 75.6318 20.3922 75.5669C19.8776 73.5269 19.2223 71.525 18.4308 69.5757C18.4492 69.3916 18.4253 69.2056 18.3609 69.0322C18.2964 68.8587 18.1931 68.7023 18.0588 68.575C17.9246 68.4476 17.763 68.3527 17.5864 68.2974C17.4098 68.2422 17.2228 68.2281 17.0399 68.2562C16.8368 68.2676 16.6404 68.3332 16.4711 68.4461C16.3018 68.5589 16.1658 68.715 16.0771 68.8981C15.3282 68.4702 14.6149 68.0066 13.9017 67.5073C13.1231 66.9036 12.287 66.378 11.4054 65.9382C10.7991 65.9382 11.7977 64.3334 11.869 63.9768L12.2969 60.7316C12.4707 60.6233 12.6375 60.5042 12.7962 60.3749C13.238 60.2446 13.6922 60.161 14.1513 60.1253C15.0429 60.1253 15.8988 59.9113 16.7903 59.84C17.0176 60.0665 17.3254 60.1937 17.6462 60.1937C17.967 60.1937 18.2748 60.0665 18.5021 59.84C20.3922 58.7345 21.248 58.5205 23.6374 57.0227C23.8908 56.9319 24.1134 56.7711 24.2793 56.5591C24.437 56.5546 24.5922 56.5185 24.7357 56.4528C24.8791 56.3871 25.0079 56.2933 25.1144 56.1769C25.2208 56.0604 25.3028 55.9237 25.3554 55.775C25.408 55.6262 25.4301 55.4684 25.4205 55.311L25.9197 49.6764C25.9197 49.3198 25.4561 47.929 25.9197 48.0003C26.3833 48.0716 25.9197 48.0003 25.9197 48.2856C26.7486 48.1943 27.5834 48.1704 28.4161 48.2143L31.269 47.1087C31.8753 47.1087 32.3745 47.715 32.8025 48.3212C33.3306 49.1468 33.807 50.0044 34.2289 50.8889C34.2289 50.8889 34.2289 50.8889 34.2289 51.1742C34.284 51.3502 34.3808 51.5103 34.5113 51.6408C34.6417 51.7712 34.8018 51.8681 34.9778 51.9231C35.1435 52.1205 35.3648 52.2635 35.6128 52.3335C35.8609 52.4035 36.1242 52.3971 36.3687 52.3154C36.796 52.4762 37.2379 52.5956 37.6881 52.672H38.4727C39.3286 52.458 39.8992 51.8874 40.862 51.7091H41.183C41.4103 51.9356 41.718 52.0628 42.0389 52.0628C42.3597 52.0628 42.6675 51.9356 42.8948 51.7091C43.6647 51.1007 44.4883 50.5636 45.3554 50.1043C46.3896 49.4981 48.1727 48.7135 48.244 48.5352C48.3154 48.3569 49.6348 49.8547 49.7775 50.1043L51.7032 52.2797C51.8994 52.8212 51.8994 53.4143 51.7032 53.9558C51.3335 54.9725 50.8678 55.9517 50.3124 56.8801C50.124 56.8435 49.9303 56.8435 49.7418 56.8801C49.4927 57.083 49.3314 57.3742 49.2915 57.693C49.2517 58.0119 49.3363 58.3338 49.5279 58.5918C50.0984 60.6246 49.5279 60.2679 50.8473 62.9069C51.097 63.3349 51.311 63.6915 51.5606 64.0481C51.3211 64.1229 51.1119 64.2722 50.9633 64.4743C50.8147 64.6763 50.7345 64.9206 50.7345 65.1714C50.7345 65.4223 50.8147 65.6666 50.9633 65.8686C51.1119 66.0707 51.3211 66.22 51.5606 66.2948L53.9856 67.6499C54.375 67.9415 54.7932 68.1924 55.2338 68.3988L56.2679 69.2191V69.3974L56.5532 69.6113L56.161 69.5757ZM51.6676 42.1517C53.7003 42.5059 55.5366 43.5823 56.8385 45.183C57.4966 45.7864 58.0231 46.519 58.3851 47.3351C58.7472 48.1512 58.9369 49.0332 58.9426 49.926C58.6573 52.7433 55.9113 54.8117 54.1282 57.0584C53.7716 57.522 53.4507 57.9856 53.1297 58.4849L52.7731 58.2352C53.7927 57.0684 54.6558 55.7737 55.3407 54.3837C55.7812 53.35 55.9293 52.215 55.7687 51.1029C55.5829 50.3251 55.2566 49.5879 54.8058 48.9275C54.3885 48.1996 53.9114 47.5078 53.3793 46.8591C52.5342 45.7924 51.4933 44.8967 50.3124 44.2201C49.8894 44.0176 49.4263 43.9125 48.9573 43.9125C48.4882 43.9125 48.0252 44.0176 47.6021 44.2201C46.6749 44.8264 45.7834 45.504 44.8918 46.2172C45.3296 45.3852 45.8952 44.6271 46.5679 43.9705C47.2172 43.2906 48.0165 42.772 48.902 42.4562C49.7875 42.1404 50.7346 42.0362 51.6676 42.1517Z" fill="black"/>
</svg>
