<svg width="100" height="100" viewBox="0 0 100 100" fill="none" xmlns="http://www.w3.org/2000/svg">
<path fill-rule="evenodd" clip-rule="evenodd" d="M92.2498 47.2977C92.1598 45.9896 91.9609 44.6914 91.6553 43.4163C91.4913 42.654 91.2081 41.9224 90.8161 41.2484C90.4895 40.6871 90.0024 40.2365 89.4174 39.9546C88.4374 39.6325 87.4046 39.5019 86.3753 39.57C85.1864 39.57 83.8926 39.9196 82.8786 40.1294C82.9831 39.1064 82.9831 38.0754 82.8786 37.0523C82.7759 36.4842 82.6357 35.9235 82.459 35.3739C82.2446 34.821 81.95 34.3026 81.5848 33.8353C81.0932 33.2078 80.5027 32.6646 79.8364 32.2268C81.2477 31.3413 82.5708 30.3226 83.7877 29.1847C84.2717 28.7434 84.6538 28.202 84.9074 27.5982C85.161 26.9943 85.2801 26.3425 85.2563 25.688C85.1873 25.243 85.0329 24.8156 84.8018 24.4292C84.3822 23.7648 83.6129 22.9955 83.2982 22.5759C82.4763 21.5847 81.5885 20.6501 80.6407 19.7785C79.6533 18.9286 78.6011 18.1569 77.4936 17.4707C76.8192 17.0553 76.0893 16.7374 75.3257 16.5266C74.7237 16.3291 74.0744 16.3291 73.4724 16.5266C72.5392 16.9872 71.7071 17.6291 71.0247 18.4148C70.3221 19.2506 69.6683 20.1263 69.0666 21.0374C68.0364 19.9765 66.8587 19.0697 65.5698 18.3449C64.954 18.0202 64.3103 17.751 63.6466 17.5406C63.0035 17.3142 62.3334 17.1732 61.6535 17.121C60.6083 16.995 59.5517 16.995 58.5065 17.121C58.7995 15.8478 58.9519 14.5462 58.9611 13.2397C58.9391 12.5874 58.778 11.9473 58.4885 11.3624C58.199 10.7774 57.7879 10.261 57.2826 9.84788C56.912 9.59627 56.4966 9.4182 56.0588 9.32337C55.3079 9.18833 54.5484 9.10653 53.7859 9.0786C52.5059 8.9738 51.2195 8.9738 49.9395 9.0786C48.6476 9.15262 47.3624 9.31619 46.0931 9.56814C45.3309 9.73212 44.5992 10.0153 43.9252 10.4074C43.3553 10.723 42.9018 11.2133 42.6314 11.806C42.3069 12.7493 42.176 13.7483 42.2468 14.7433C42.2468 15.9671 42.5964 17.2609 42.8062 18.4148C41.7949 18.3105 40.7755 18.3105 39.7641 18.4148C39.1615 18.5152 38.5741 18.6914 38.0157 18.9393C37.3928 19.2263 36.8155 19.6033 36.3023 20.0583C35.6244 20.5607 34.9925 21.1224 34.4141 21.7367C33.6279 20.5253 32.7757 19.358 31.8615 18.24C31.1306 17.472 30.2655 16.8439 29.3089 16.3867C28.6947 16.1912 28.0349 16.1912 27.4207 16.3867C26.6655 16.5901 25.946 16.9086 25.2877 17.3308C24.1724 18.0054 23.1192 18.7777 22.1407 19.6387C21.1817 20.5099 20.2821 21.4445 19.4482 22.436C18.9229 23.0246 18.4325 23.6434 17.9796 24.2893C17.7361 24.6731 17.5698 25.1007 17.49 25.5481C17.4663 26.2026 17.5854 26.8545 17.839 27.4583C18.0926 28.0622 18.4747 28.6036 18.9586 29.0448C20.0235 30.0559 21.1961 30.9471 22.4554 31.7023C21.8647 32.2056 21.3151 32.7551 20.8119 33.3458C20.4317 33.8281 20.1145 34.3569 19.8678 34.9193C19.6023 35.477 19.4028 36.0637 19.2733 36.6677C19.0017 37.966 18.9076 39.2953 18.9936 40.619C17.4113 40.2876 15.8121 40.0425 14.2031 39.8847C13.1733 39.7994 12.1371 39.9305 11.161 40.2693C10.5624 40.5309 10.0696 40.9867 9.76229 41.5631C9.37027 42.2371 9.08705 42.9687 8.92307 43.731C8.61939 44.9828 8.42055 46.2577 8.32863 47.5425C8.22379 48.8341 8.22379 50.1321 8.32863 51.4238C8.35491 52.2095 8.4367 52.9924 8.5734 53.7666C8.66824 54.2044 8.8463 54.6199 9.09791 54.9905C9.53919 55.4744 10.0806 55.8565 10.6844 56.1101C11.2883 56.3637 11.9401 56.4828 12.5946 56.4591C14.113 56.4215 15.6239 56.2341 17.1054 55.8996C17.0189 56.7483 17.0189 57.6035 17.1054 58.4522C17.215 59.0715 17.3788 59.6799 17.5949 60.2705C17.9637 60.8575 18.3726 61.4183 18.8188 61.9489C19.4698 62.9702 20.1821 63.951 20.9518 64.8862C19.8328 65.6904 18.2943 66.6695 17.0355 67.7185C16.2566 68.3989 15.6259 69.232 15.1822 70.1662C14.9662 70.7771 14.9662 71.4435 15.1822 72.0544C15.3856 72.8097 15.704 73.5291 16.1263 74.1874C16.8125 75.2949 17.5841 76.3471 18.4341 77.3345C19.3087 78.3023 20.2556 79.2024 21.2665 80.0269C21.8422 80.553 22.4494 81.0434 23.0848 81.4956C23.4686 81.739 23.8962 81.9053 24.3436 81.9851C24.9972 82.0019 25.6469 81.8797 26.2498 81.6265C26.8526 81.3733 27.3947 80.995 27.8403 80.5165C28.8334 79.4278 29.734 78.2582 30.5328 77.0198C31.1254 77.7522 31.7934 78.4203 32.5259 79.0129C33.0082 79.3931 33.537 79.7103 34.0994 79.957C34.6752 80.2073 35.272 80.4062 35.8827 80.5514C37.307 80.8531 38.7674 80.9474 40.2187 80.8312C40.5551 80.8619 40.8906 80.7633 41.1569 80.5554C41.4232 80.3475 41.6004 80.046 41.6523 79.7122C41.6737 79.3723 41.5672 79.0367 41.3537 78.7714C41.1401 78.5061 40.835 78.3303 40.4984 78.2786C39.3525 77.8398 38.2419 77.3138 37.1765 76.7051C36.4422 76.3204 35.7778 75.9358 35.0086 75.6211C34.2393 75.3064 32.6308 74.8168 31.5118 74.2574V73.9776C31.379 73.7992 31.2025 73.658 30.9992 73.5677C30.7959 73.4774 30.5727 73.441 30.3513 73.4621C30.1299 73.4832 29.9176 73.561 29.735 73.6881C29.5524 73.8151 29.4057 73.9871 29.3089 74.1874C28.7494 74.7469 27.7004 76.0057 26.5465 77.1247C26.124 77.6208 25.6145 78.0355 25.0429 78.3485C24.5492 77.9576 24.1136 77.4984 23.7491 76.9848C22.9449 76.2505 22.1756 75.4113 21.4063 74.5721C20.6371 73.7329 19.9727 72.8936 19.3433 71.9845C18.7139 71.0754 18.3292 70.8655 19.7629 69.5368C21.1965 68.208 22.2106 67.0541 22.9799 66.0401C22.9799 66.0401 22.9799 65.7953 23.1897 65.6554C23.4007 65.459 23.5421 65.1993 23.5925 64.9154C23.643 64.6316 23.5998 64.339 23.4694 64.0819C23.0498 62.8581 22.7701 61.5993 22.3854 60.2705C22.2542 59.748 22.0907 59.2342 21.8959 58.7319C21.8959 58.2074 21.5112 57.7179 21.3014 57.2284C20.6604 56.1089 20.1108 54.9396 19.658 53.7316C19.6448 53.5845 19.6027 53.4413 19.5339 53.3105C19.4652 53.1797 19.3712 53.0639 19.2574 52.9696C19.1436 52.8753 19.0123 52.8045 18.871 52.7612C18.7297 52.718 18.5812 52.7032 18.4341 52.7176C18.3054 52.7273 18.18 52.7634 18.0657 52.8236C17.9514 52.8837 17.8507 52.9666 17.7698 53.0673H14.273C13.6222 53.111 12.969 53.0279 12.3499 52.8225C12.3117 52.2053 12.3117 51.5864 12.3499 50.9692V47.4725C12.3499 46.1787 12.5247 45.2696 12.6995 44.1856C12.8744 43.1016 12.6995 42.8219 14.7276 42.752C16.7557 42.682 18.2243 42.752 19.4132 42.752C19.6297 42.7552 19.8415 42.689 20.0177 42.5632C20.1939 42.4374 20.3251 42.2584 20.3923 42.0526C20.6189 41.9893 20.8207 41.8582 20.9707 41.677C21.1207 41.4957 21.2117 41.273 21.2315 41.0386C21.6861 39.9108 22.2117 38.813 22.805 37.7517C23.1897 37.0523 23.5743 36.3879 23.889 35.6536C24.2037 34.9193 24.6933 33.4507 25.1478 32.1569C25.3036 32.0876 25.4432 31.9864 25.5576 31.86C25.672 31.7335 25.7587 31.5845 25.8122 31.4226C25.8759 31.2258 25.88 31.0146 25.824 30.8156C25.768 30.6165 25.6544 30.4384 25.4975 30.3037C25.3054 30.2342 25.0951 30.2342 24.9031 30.3037C24.2736 29.7092 23.3645 28.905 22.5603 28.0658C22.0545 27.6389 21.6385 27.116 21.3364 26.5272C21.8259 26.0027 22.3155 25.2334 22.7001 25.2334C23.4344 24.4292 24.2736 23.6599 25.1129 22.8906C25.9236 22.1547 26.7759 21.4659 27.6655 20.8276C28.2599 20.373 28.8194 20.0583 30.1132 21.2472C31.1182 22.1154 32.0754 23.0376 32.9805 24.0096C32.9805 24.0096 32.9805 24.3592 32.9805 24.5341C33.0583 24.6586 33.1607 24.766 33.2814 24.8497C33.402 24.9335 33.5384 24.9918 33.6823 25.0213C33.8262 25.0507 33.9745 25.0506 34.1184 25.0209C34.2622 24.9913 34.3985 24.9327 34.519 24.8488C35.8478 24.3592 37.2115 24.1844 38.6102 23.6599C39.3506 23.3876 40.0745 23.0724 40.7781 22.7158C41.7068 22.2268 42.6643 21.7947 43.6454 21.422C43.6454 21.422 43.9601 21.6318 44.17 21.5968C44.3184 21.5971 44.4653 21.567 44.6016 21.5082C44.7379 21.4494 44.8606 21.3632 44.9623 21.255C45.0639 21.1468 45.1422 21.0189 45.1924 20.8793C45.2426 20.7396 45.2635 20.591 45.2539 20.4429V19.8485V15.7224C45.2539 14.2537 45.9882 13.7992 46.6876 13.6943C47.3869 13.5894 48.8905 13.4145 49.9745 13.3446C51.0585 13.2747 52.2474 13.3446 53.4712 13.3446H55.3594C55.5513 13.9664 55.6225 14.6192 55.5692 15.2678V19.289C55.5596 19.6264 55.6822 19.9541 55.9109 20.2023C56.1395 20.4506 56.4561 20.5997 56.7931 20.6178C56.9665 20.6321 57.1409 20.6082 57.304 20.5478C57.4671 20.4874 57.615 20.3919 57.7372 20.2681C58.8212 20.5478 59.9751 21.0723 61.2339 21.5269L63.4019 22.1913C64.1712 22.4011 64.9404 22.506 65.6747 22.7158C66.3342 22.9236 66.9771 23.1807 67.5979 23.4851C67.4797 23.6957 67.4329 23.939 67.4644 24.1785C67.4959 24.418 67.6041 24.6409 67.7728 24.8138C67.9882 25.0231 68.2767 25.1403 68.577 25.1403C68.8774 25.1403 69.1659 25.0231 69.3813 24.8138C70.2554 24.0445 71.4443 22.6808 72.878 21.5968C74.3116 20.5129 74.7662 20.7227 75.3257 21.1772C75.8851 21.6318 77.074 22.5409 77.9132 23.2403C78.7525 23.9396 79.5917 24.7788 80.326 25.5831C80.5707 25.8279 81.375 26.5622 81.6547 26.8769C81.9345 27.1916 80.9554 27.821 80.4658 28.3805C79.3819 29.4994 78.123 30.5135 77.5636 31.0729C77.3414 31.0747 77.1248 31.1425 76.9413 31.2677C76.7579 31.393 76.6158 31.57 76.5333 31.7763C76.4508 31.9825 76.4316 32.2087 76.478 32.4259C76.5245 32.6432 76.6346 32.8417 76.7943 32.9961C77.2696 33.9659 77.6333 34.9865 77.8783 36.0383C78.0042 36.4553 78.1561 36.864 78.3328 37.2621C78.9273 38.5909 79.6616 39.8147 80.1162 41.1435C80.0204 41.2464 79.9462 41.3675 79.8982 41.4997C79.8501 41.6319 79.8291 41.7723 79.8364 41.9128C79.841 42.0597 79.8744 42.2043 79.9348 42.3384C79.9953 42.4724 80.0816 42.5932 80.1887 42.6939C80.2959 42.7946 80.4219 42.8731 80.5594 42.9251C80.697 42.977 80.8434 43.0014 80.9904 42.9967H85.6759C87.3544 42.9967 87.6341 43.766 87.704 44.4304C87.8761 45.5194 87.9928 46.6165 88.0537 47.7173V51.214C88.0901 51.8312 88.0901 52.4501 88.0537 53.0673C87.4319 53.2591 86.7791 53.3303 86.1305 53.2771H83.473H82.1093C81.9439 53.2676 81.7783 53.2909 81.622 53.3456C81.4656 53.4003 81.3216 53.4853 81.1982 53.5957C81.0747 53.7062 80.9743 53.8399 80.9026 53.9892C80.831 54.1385 80.7895 54.3006 80.7805 54.466C80.7645 54.6855 80.8081 54.9054 80.9065 55.1023C81.005 55.2992 81.1547 55.466 81.34 55.5849C80.7805 56.7388 80.1511 57.8927 79.6266 59.0816C79.1021 60.2705 78.8923 61.0747 78.5077 62.0538C78.0901 63.5601 77.4789 65.0058 76.6894 66.3548C76.4937 66.2631 76.2745 66.234 76.0618 66.2715C75.849 66.3091 75.6529 66.4114 75.5005 66.5646C75.2912 66.78 75.1741 67.0685 75.1741 67.3688C75.1741 67.6692 75.2912 67.9577 75.5005 68.1731C76.3047 69.0473 77.6685 70.2361 78.7525 71.6698C79.8364 73.1034 79.5567 73.6279 79.1721 74.1175C78.5221 75.0189 77.8216 75.8828 77.074 76.7051C76.3498 77.5512 75.5794 78.3567 74.7662 79.1178C74.5214 79.3626 73.927 80.0269 73.4724 80.4465C73.0178 80.4465 72.5283 79.7472 71.9688 79.2577C70.8149 78.1387 69.7659 76.8799 69.2064 76.3204C69.092 76.1987 68.9538 76.1017 68.8005 76.0354C68.6471 75.9691 68.4818 75.9349 68.3148 75.9349C68.1477 75.9349 67.9824 75.9691 67.829 76.0354C67.6757 76.1017 67.5375 76.1987 67.4231 76.3204C67.2921 76.4253 67.1863 76.5584 67.1137 76.7097C67.041 76.861 67.0034 77.0267 67.0035 77.1946C66.0342 77.4202 65.0538 77.5952 64.0663 77.7191C63.1571 77.7191 62.3179 77.9639 61.4787 78.1737C59.9401 78.4884 58.5414 79.0479 56.9679 79.3626H56.5483C56.2556 79.4273 55.9944 79.5917 55.8094 79.8277C55.6245 80.0637 55.5272 80.3566 55.5343 80.6563V84.6776C55.6043 85.3263 55.5327 85.9824 55.3245 86.6008C54.7071 86.568 54.0885 86.568 53.4712 86.6008H49.9745C48.7157 86.6008 47.7366 86.4259 46.6876 86.2511C45.6386 86.0763 45.3938 85.9364 45.2539 84.223C45.1141 82.5096 45.2539 80.7263 45.2539 79.5374C45.2634 79.3922 45.2435 79.2465 45.1955 79.1092C45.1474 78.9718 45.0722 78.8455 44.9743 78.7378C44.8764 78.6301 44.7579 78.5433 44.6257 78.4824C44.4935 78.4215 44.3504 78.3879 44.2049 78.3835C44.0579 78.374 43.9105 78.3936 43.7711 78.4413C43.6317 78.4889 43.5031 78.5636 43.3926 78.6611C43.2822 78.7585 43.192 78.8769 43.1274 79.0092C43.0628 79.1416 43.0249 79.2855 43.016 79.4325C42.8412 80.8312 42.2817 82.9292 42.1419 85.0272C42.0567 86.057 42.1877 87.0932 42.5265 88.0694C42.7936 88.6531 43.2329 89.1411 43.7853 89.4681C44.4646 89.8491 45.1945 90.1317 45.9533 90.3073C47.2321 90.5932 48.5289 90.7918 49.8346 90.9017C51.1263 91.0066 52.4243 91.0066 53.716 90.9017C54.5017 90.8754 55.2846 90.7936 56.0588 90.6569C56.4966 90.5621 56.912 90.384 57.2826 90.1324C57.7576 89.6841 58.1336 89.1415 58.3865 88.5393C58.6395 87.9371 58.7637 87.2887 58.7513 86.6357C58.6873 85.0944 58.4884 83.5616 58.1568 82.055C59.1529 82.3087 60.1722 82.461 61.199 82.5096C61.8681 82.54 62.5384 82.4812 63.1921 82.3348C63.8526 82.206 64.4973 82.0067 65.1153 81.7403C66.2582 81.2612 67.3291 80.6257 68.2973 79.8521C69.013 80.9536 69.8327 81.9841 70.745 82.9292C71.1863 83.4132 71.7276 83.7952 72.3315 84.0489C72.9353 84.3025 73.5872 84.4216 74.2417 84.3978C74.6867 84.3288 75.1141 84.1744 75.5005 83.9433C76.1373 83.4804 76.7446 82.9782 77.3188 82.4397C78.3259 81.6359 79.2618 80.7468 80.1162 79.7822C80.9773 78.7953 81.7606 77.7432 82.459 76.6351C82.8705 75.9754 83.1772 75.2559 83.3681 74.5021C83.6026 73.8946 83.6026 73.2215 83.3681 72.6139C82.9245 71.6797 82.2937 70.8466 81.5149 70.1662C80.6085 69.4281 79.663 68.7394 78.6825 68.1031C80.0598 66.8334 81.2177 65.3447 82.1093 63.6973C82.5164 63.0581 82.8562 62.3784 83.1233 61.6692C83.4178 60.9739 83.6291 60.2462 83.7528 59.5012C83.9935 58.3508 84.1223 57.1798 84.1374 56.0045C85.288 56.2444 86.4589 56.3732 87.6341 56.3891C88.2851 56.4104 88.9333 56.2937 89.5359 56.0466C90.1386 55.7995 90.6821 55.4277 91.1308 54.9555C91.3824 54.5849 91.5605 54.1694 91.6553 53.7316C91.792 52.9575 91.8738 52.1746 91.9001 51.3888C92.1329 50.0376 92.2498 48.6689 92.2498 47.2977Z" fill="black"/>
<path fill-rule="evenodd" clip-rule="evenodd" d="M50.9534 26.1426C38.8198 23.8697 29.5884 31.9821 26.0218 42.1575C23.9226 47.3123 23.7155 53.0436 25.4371 58.3364C27.1587 63.6292 30.6979 68.142 35.428 71.0754C39.5779 73.3035 44.215 74.4696 48.9253 74.4696C53.6356 74.4696 58.2726 73.3035 62.4226 71.0754C65.7558 69.4448 68.6941 67.1081 71.0332 64.2275C73.3724 61.347 75.0563 57.9916 75.968 54.3947C76.8797 50.7978 76.9974 47.0455 76.3127 43.3985C75.6281 39.7515 74.1577 36.2973 72.0036 33.2759C70.3014 31.0978 68.1482 29.3138 65.6917 28.0463C63.2351 26.7788 60.5334 26.0578 57.772 25.9328C57.4341 25.9034 57.0982 26.0079 56.8367 26.2237C56.5751 26.4395 56.4087 26.7494 56.3733 27.0867C56.3539 27.253 56.3689 27.4215 56.4173 27.5819C56.4657 27.7422 56.5465 27.8908 56.6547 28.0187C56.7628 28.1465 56.8961 28.2508 57.0461 28.325C57.1962 28.3993 57.36 28.442 57.5272 28.4504C59.9 28.6146 62.2085 29.294 64.2919 30.4414C66.3754 31.5888 68.1837 33.1766 69.5909 35.0942C72.2973 39.0567 73.6244 43.7998 73.3673 48.5915C73.1277 52.6076 71.8048 56.4838 69.5391 59.8084C67.2734 63.133 64.1496 65.7819 60.4994 67.4737C56.9624 69.3534 53.0181 70.3364 49.0127 70.3364C45.0072 70.3364 41.063 69.3534 37.526 67.4737C28.4345 62.4035 26.5113 51.9833 29.3087 43.2065C32.1061 34.4298 39.7989 26.772 50.6387 28.3455C50.7859 28.3771 50.9379 28.3786 51.0857 28.35C51.2335 28.3214 51.3741 28.2632 51.4989 28.1791C51.6237 28.0949 51.7302 27.9864 51.8121 27.8601C51.894 27.7337 51.9495 27.5922 51.9754 27.4439C52.0013 27.2956 51.997 27.1436 51.9628 26.997C51.9286 26.8504 51.8651 26.7122 51.7762 26.5907C51.6873 26.4692 51.5748 26.3669 51.4454 26.2899C51.3161 26.2129 51.1725 26.1628 51.0233 26.1426H50.9534Z" fill="black"/>
<path fill-rule="evenodd" clip-rule="evenodd" d="M50.884 57.0535C50.884 55.375 51.0938 53.5567 51.1288 51.9483V48.9061C51.1238 47.8781 51.0655 46.851 50.954 45.829C50.7442 43.4163 50.2546 41.0735 49.9399 38.8356C49.8929 38.5684 49.7531 38.3263 49.5453 38.1518C49.3375 37.9774 49.0748 37.8818 48.8035 37.8818C48.5321 37.8818 48.2695 37.9774 48.0617 38.1518C47.8538 38.3263 47.7141 38.5684 47.667 38.8356C47.3523 41.2483 47.0027 43.6261 46.8628 46.0738C46.8104 47.1105 46.8104 48.1492 46.8628 49.1859C46.8628 50.1999 46.8628 51.2489 47.1076 52.263C47.3174 54.0113 47.5971 55.7597 47.9118 57.3682L45.3942 57.6129C43.9955 57.6129 42.6318 57.9976 41.2331 58.2423C41.2331 57.2283 41.5478 56.2842 41.6527 55.2701C41.6874 54.7462 41.6874 54.2205 41.6527 53.6966C41.703 53.185 41.703 52.6697 41.6527 52.1581C41.6527 50.8992 41.0583 49.7803 40.8135 48.6613C40.823 48.5143 40.8033 48.3669 40.7557 48.2275C40.708 48.0881 40.6334 47.9595 40.5359 47.849C40.4384 47.7386 40.3201 47.6485 40.1877 47.5838C40.0554 47.5192 39.9115 47.4814 39.7645 47.4725C39.6129 47.463 39.4609 47.4835 39.3173 47.5329C39.1736 47.5823 39.0412 47.6596 38.9275 47.7603C38.8138 47.861 38.7211 47.9832 38.6547 48.1198C38.5883 48.2564 38.5495 48.4048 38.5406 48.5564C38.191 49.8153 37.7713 50.9692 37.5266 52.2979C37.4743 52.8445 37.4743 53.3948 37.5266 53.9414C37.5447 54.4946 37.615 55.0448 37.7364 55.5848C37.9345 56.6505 38.2032 57.7018 38.5406 58.7319C37.4566 58.7319 36.3727 59.0466 35.2537 59.1515C34.9569 59.1515 34.6723 59.2694 34.4625 59.4792C34.2527 59.6891 34.1348 59.9737 34.1348 60.2704C34.1435 60.5644 34.2643 60.844 34.4722 61.0519C34.6802 61.2599 34.9597 61.3806 35.2537 61.3894C38.5971 61.7617 41.9605 61.9252 45.3243 61.8789C47.737 61.8789 50.2197 61.6691 52.7023 61.4593C55.185 61.2495 57.4928 60.9348 59.9056 60.8998L64.2764 60.3753C64.4418 60.4029 64.6109 60.3976 64.7741 60.3598C64.9374 60.322 65.0916 60.2524 65.228 60.155C65.3644 60.0576 65.4802 59.9343 65.569 59.7921C65.6577 59.6499 65.7175 59.4916 65.7451 59.3263C65.7726 59.161 65.7673 58.9919 65.7295 58.8286C65.6917 58.6654 65.6221 58.5111 65.5247 58.3748C65.4273 58.2384 65.304 58.1225 65.1618 58.0338C65.0196 57.9451 64.8614 57.8853 64.6961 57.8577L60.2902 57.4381C60.465 55.0603 60.7098 52.6826 60.9196 50.4447C61.1294 48.2068 61.1993 46.4234 61.2343 44.4303C61.2343 40.9336 60.9196 37.6817 60.7448 34.2898C60.7448 33.9931 60.6269 33.7085 60.417 33.4986C60.2072 33.2888 59.9226 33.1709 59.6258 33.1709C59.3291 33.1709 59.0444 33.2888 58.8346 33.4986C58.6248 33.7085 58.5069 33.9931 58.5069 34.2898C58.0173 37.2271 57.4578 40.0944 57.1082 43.0666C57.1082 44.3254 56.8634 45.5842 56.8284 46.8431C56.7935 48.1019 56.8284 49.3957 56.8284 50.6894C56.8284 52.9623 57.1082 55.2002 57.353 57.4731C55.2063 57.2108 53.0465 57.0707 50.884 57.0535Z" fill="black"/>
</svg>
