<svg width="100" height="100" viewBox="0 0 100 100" fill="none" xmlns="http://www.w3.org/2000/svg">
<path d="M90.4732 46.6067C90.4818 39.6247 90.0892 32.6478 89.2974 25.7108C89.0124 23.5734 88.1532 21.5532 86.8113 19.8653C85.3167 18.1685 83.2201 17.1202 80.9659 16.9426C78.0431 16.6066 74.2469 16.3715 69.678 16.2035C64.5716 16.0355 58.7597 15.9683 52.8807 16.0355C52.6155 16.0815 52.3751 16.2196 52.2019 16.4255C52.0286 16.6314 51.9336 16.8918 51.9336 17.1609C51.9336 17.43 52.0286 17.6905 52.2019 17.8964C52.3751 18.1023 52.6155 18.2404 52.8807 18.2864C58.7261 18.2864 64.538 18.6895 69.678 19.059C74.0453 19.3614 77.8415 19.7645 80.6971 20.2013C82.1012 20.3398 83.3934 21.0282 84.2917 22.1162C85.166 23.3944 85.645 24.9015 85.6691 26.4499C86.2066 30.2125 86.4082 35.6884 86.5762 41.7355C86.5762 45.095 86.7442 48.9248 86.8449 52.5866C87.0465 62.665 87.2145 72.4411 87.3825 77.9506C87.4589 79.768 87.0286 81.5709 86.1395 83.1578C85.7788 83.915 85.2262 84.5646 84.5367 85.042C83.8471 85.5194 83.0446 85.808 82.2089 85.879C81.9773 85.9218 81.768 86.0444 81.6174 86.2254C81.4667 86.4065 81.3843 86.6345 81.3843 86.87C81.3843 87.1055 81.4667 87.3336 81.6174 87.5147C81.768 87.6957 81.9773 87.8183 82.2089 87.8611C83.1678 87.8241 84.1063 87.5726 84.9551 87.1249C85.804 86.6772 86.5416 86.0448 87.1137 85.2743C88.8193 83.1616 89.7553 80.5315 89.7677 77.8163C89.9693 71.2317 90.4732 58.4993 90.4732 46.6067Z" fill="black"/>
<path d="M75.8915 86.4167C66.5857 86.4167 51.2665 86.7527 38.9372 86.4167C33.7089 86.4757 28.4816 86.2289 23.2821 85.6776C21.5282 85.446 19.8251 84.9237 18.2429 84.1323C17.5846 83.8547 16.9945 83.4376 16.5131 82.9098C16.0317 82.382 15.6705 81.7561 15.4545 81.0751C14.8498 77.7157 14.3123 71.6686 13.8084 64.7817C13.4388 59.5409 13.2037 53.7962 12.8677 48.2867C12.4653 41.0036 12.6675 33.6997 13.4724 26.4501C13.6059 25.6423 13.9156 24.8738 14.3795 24.1992C14.8868 23.485 15.4983 22.8509 16.1936 22.3179C16.3166 22.2556 16.425 22.168 16.5115 22.0607C16.5981 21.9534 16.661 21.829 16.6959 21.6956C16.7308 21.5622 16.7371 21.423 16.7142 21.287C16.6913 21.1511 16.6398 21.0215 16.5631 20.9069C16.4035 20.7026 16.1713 20.5677 15.9148 20.5302C15.6583 20.4926 15.3972 20.5554 15.1857 20.7054C14.2316 21.3584 13.3916 22.1643 12.6997 23.0906C12.0145 23.9919 11.5435 25.0373 11.3223 26.1477C10.0191 35.3252 9.52448 44.5994 9.84418 53.8634C9.91207 63.1761 10.5403 72.4762 11.7255 81.7134C11.9337 82.747 12.3549 83.7258 12.9622 84.5877C13.5695 85.4495 14.3496 86.1754 15.2529 86.7191C17.5181 88.1514 20.0804 89.0477 22.7446 89.3395C28.0908 89.8736 33.4658 90.0644 38.8365 89.9106C51.2665 89.9106 66.5857 88.9363 75.7907 88.6676C76.085 88.6508 76.3623 88.5241 76.5677 88.3126C76.773 88.101 76.8913 87.82 76.8993 87.5253C76.9005 87.248 76.7976 86.9802 76.611 86.775C76.4244 86.5698 76.1677 86.4419 75.8915 86.4167Z" fill="black"/>
<path d="M19.9242 51.7131C19.9771 52.2318 20.1391 52.7334 20.3997 53.185C20.6603 53.6367 21.0134 54.028 21.436 54.3335C22.6118 55.0053 24.2916 54.6694 25.6018 52.6873C26.9706 50.2976 28.096 47.7766 28.9612 45.1621C30.2034 47.94 31.7953 50.5478 33.6981 52.9225C35.5122 54.9046 37.5279 55.5765 39.174 54.6022C40.0195 53.9806 40.5866 53.0515 40.753 52.0154C41.1304 49.5598 41.243 47.0707 41.0889 44.591C41.0889 39.4846 39.174 29.8093 40.585 23.5943C41.2233 20.7387 42.5671 18.6558 45.4227 18.6222C45.6878 18.5763 45.9282 18.4381 46.1014 18.2323C46.2747 18.0264 46.3697 17.7659 46.3697 17.4968C46.3697 17.2277 46.2747 16.9673 46.1014 16.7614C45.9282 16.5555 45.6878 16.4174 45.4227 16.3714C41.3577 16.3714 39.174 18.9918 38.1662 23.0903C36.5872 29.4397 38.1662 39.451 38.1662 44.6918V49.0255C38.1662 50.2349 38.1662 52.385 37.5951 51.9482C37.024 51.5115 37.5951 51.9482 37.7631 51.9482C37.931 51.9482 37.4607 51.7467 37.2255 51.5787C36.4093 50.7969 35.7081 49.9033 35.1427 48.9247C33.9335 47.1055 32.8449 45.2089 31.884 43.2472C31.6152 42.7097 31.2457 41.5003 30.8425 40.7612C30.5647 40.3213 30.1986 39.9438 29.7675 39.6525C29.3329 39.4131 28.8252 39.3425 28.3417 39.454C27.8582 39.5656 27.4329 39.8516 27.1471 40.2573C26.5739 41.1481 26.09 42.0933 25.7025 43.0792C25.4674 43.6503 24.8291 46.4387 24.1236 48.4544C23.8548 47.1778 23.4517 45.9348 23.4181 45.498C22.8073 40.4047 22.5827 35.2725 22.7462 30.1452C22.8422 26.7502 23.2811 23.3735 24.0564 20.0668C24.3715 18.2486 25.0952 16.5256 26.1729 15.0276C27.2909 13.7381 28.8722 12.9414 30.5738 12.8103C34.1684 12.3192 37.8174 12.3872 41.3913 13.0119C43.6988 13.3343 45.8975 14.1977 47.8079 15.5315C47.9072 15.6131 48.0215 15.6744 48.1445 15.7118C48.2674 15.7492 48.3965 15.7621 48.5244 15.7496C48.6523 15.7371 48.7765 15.6996 48.8899 15.6391C49.0033 15.5786 49.1037 15.4964 49.1853 15.3971C49.2669 15.2979 49.3282 15.1835 49.3656 15.0606C49.403 14.9376 49.4158 14.8085 49.4034 14.6806C49.3909 14.5527 49.3533 14.4285 49.2929 14.3151C49.2324 14.2017 49.1502 14.1014 49.0509 14.0198C46.9418 12.3387 44.4485 11.2074 41.7944 10.7275C38.0127 9.97491 34.1381 9.80497 30.305 10.2236C27.9154 10.3527 25.6718 11.4142 24.0564 13.1799C22.6201 14.9213 21.5978 16.9659 21.0665 19.1598C20.1284 22.642 19.5431 26.2098 19.3195 29.8093C19.0224 35.1187 19.146 40.4433 19.6891 45.7332C19.6534 47.7293 19.7319 49.7259 19.9242 51.7131Z" fill="black"/>
<path d="M82.0394 32.1949C82.0395 31.8977 81.9238 31.6121 81.7168 31.3989C81.5098 31.1856 81.2278 31.0614 80.9307 31.0527C79.449 31.0452 77.9716 31.2143 76.5298 31.5566C73.4055 32.2285 70.1468 33.5051 67.2913 34.177C66.0793 34.5639 64.8453 34.878 63.5959 35.1176C63.0146 35.2884 62.3966 35.2884 61.8153 35.1176C61.1699 34.8652 60.6184 34.4193 60.2364 33.841C59.7303 33.2359 59.3014 32.5701 58.9598 31.859C58.7246 31.4894 58.4894 30.28 58.1199 29.6081C57.9106 29.0853 57.5321 28.6476 57.0449 28.3651C54.6932 27.2229 54.3573 29.8769 51.8041 32.3293C51.3795 32.7819 50.8793 33.157 50.3259 33.4379C50.1839 33.504 50.0291 33.5383 49.8724 33.5383C49.7157 33.5383 49.5609 33.504 49.4189 33.4379C46.9329 32.3629 48.1423 30.6159 46.7313 30.5152C45.9586 30.5152 45.6563 30.8175 45.4883 31.3886C45.6288 32.3252 45.9728 33.2196 46.4961 34.009C47.12 34.7968 47.9274 35.4197 48.8478 35.8231C49.6459 36.141 50.5356 36.141 51.3338 35.8231C52.1972 35.5092 53.0031 35.0552 53.719 34.4793C54.3635 33.964 54.9698 33.4026 55.5331 32.7996C55.4936 33.0331 55.4936 33.2716 55.5331 33.5051C56.0718 34.7217 56.7848 35.8534 57.6496 36.8646C58.3261 37.5998 59.1504 38.1836 60.0684 38.5779C61.2699 39.0249 62.5694 39.1409 63.831 38.9139C65.2735 38.572 66.6884 38.1228 68.064 37.5701C70.8523 36.663 73.9766 35.084 77.0338 34.2106C78.2822 33.6961 79.5921 33.346 80.9307 33.1691C81.2029 33.1712 81.4663 33.073 81.6707 32.8933C81.8752 32.7137 82.0064 32.4651 82.0394 32.1949Z" fill="black"/>
<path d="M43.6406 52.99C43.1031 53.5947 43.3719 54.065 43.8422 54.4345C45.3167 54.8019 46.8253 55.0158 48.3439 55.0728L55.3988 55.4088C57.0785 55.4088 58.7582 55.4088 60.4716 55.14C62.1849 54.8713 64.2678 54.6361 66.1827 54.3338C77.6049 52.5532 75.522 53.4603 77.6385 54.1322C77.915 54.1943 78.2019 54.1943 78.4784 54.1322C78.6252 54.1368 78.7715 54.1114 78.9081 54.0573C79.0447 54.0032 79.1688 53.9217 79.2727 53.8179C79.3766 53.714 79.4581 53.5899 79.5121 53.4533C79.5662 53.3167 79.5917 53.1704 79.587 53.0236C79.587 52.7295 79.4702 52.4475 79.2623 52.2396C79.0544 52.0317 78.7724 51.9149 78.4784 51.9149C76.7986 50.9407 75.6564 49.6305 65.0405 50.7055C63.092 50.8735 61.1435 51.1423 59.195 51.3774C57.9184 51.3774 56.6754 51.7134 55.3652 51.8141L48.6462 52.4188C44.1109 52.654 44.0437 52.3853 43.6406 52.99Z" fill="black"/>
<path d="M51.0653 68.2085L40.2478 69.3843L28.0865 70.4257C25.7912 69.9398 23.4101 70.0438 21.1659 70.7281C21.0583 70.8184 20.9723 70.9316 20.9141 71.0595C20.856 71.1874 20.8272 71.3267 20.83 71.4672C20.815 71.6305 20.8445 71.7949 20.9155 71.9428C20.9865 72.0907 21.0963 72.2166 21.2331 72.307C21.5546 72.5141 21.926 72.6302 22.3082 72.643C23.7191 72.643 27.3138 72.8446 28.0865 72.8782H40.2478C41.3667 72.9397 42.4882 72.9397 43.6072 72.8782C46.0932 72.643 48.5793 72.1727 51.0653 72.0719C80.1919 70.2578 78.9825 69.2499 79.1841 68.9812C79.2887 68.878 79.3718 68.7551 79.4285 68.6196C79.4852 68.4841 79.5144 68.3386 79.5144 68.1917C79.5144 68.0448 79.4852 67.8993 79.4285 67.7638C79.3718 67.6283 79.2887 67.5054 79.1841 67.4022C78.4786 66.7639 81.1662 67.5702 51.0653 68.2085Z" fill="black"/>
</svg>
