<svg width="100" height="100" viewBox="0 0 100 100" fill="none" xmlns="http://www.w3.org/2000/svg">
<path fill-rule="evenodd" clip-rule="evenodd" d="M25.087 21.1687C25.7189 21.1289 26.314 20.8577 26.7587 20.407C27.2034 19.9562 27.4664 19.3574 27.4976 18.725C27.4634 18.0476 27.1633 17.4109 26.6625 16.9534C26.1617 16.4959 25.5006 16.2544 24.8228 16.2813C24.4923 16.2925 24.1678 16.3725 23.8699 16.5162C23.5721 16.6598 23.3075 16.8641 23.0931 17.1158C22.8786 17.3675 22.7191 17.6612 22.6246 17.9781C22.5301 18.295 22.5027 18.6281 22.5442 18.9562C22.5949 19.5841 22.8894 20.1672 23.3646 20.5807C23.8399 20.9942 24.4581 21.2053 25.087 21.1687Z" fill="black"/>
<path fill-rule="evenodd" clip-rule="evenodd" d="M37.2422 18.725C37.2294 18.391 37.151 18.0628 37.0112 17.7591C36.8715 17.4555 36.6733 17.1824 36.4279 16.9554C36.1826 16.7285 35.8949 16.5521 35.5813 16.4364C35.2677 16.3207 34.9344 16.268 34.6004 16.2813C33.9523 16.312 33.3429 16.5988 32.9063 17.0788C32.4697 17.5587 32.2416 18.1925 32.2723 18.8406C32.3029 19.4887 32.5898 20.0981 33.0697 20.5347C33.5497 20.9713 34.1834 21.1993 34.8315 21.1687C35.4635 21.1289 36.0586 20.8577 36.5033 20.4069C36.9479 19.9562 37.211 19.3574 37.2422 18.725Z" fill="black"/>
<path fill-rule="evenodd" clip-rule="evenodd" d="M46.6192 18.725C46.6064 18.391 46.5279 18.0628 46.3882 17.7591C46.2485 17.4555 46.0503 17.1824 45.8049 16.9554C45.5595 16.7285 45.2718 16.5521 44.9582 16.4364C44.6446 16.3207 44.3113 16.268 43.9773 16.2813C43.3292 16.312 42.7198 16.5988 42.2832 17.0788C41.8466 17.5587 41.6186 18.1925 41.6492 18.8406C41.6799 19.4887 41.9667 20.0981 42.4467 20.5347C42.9266 20.9713 43.5604 21.1993 44.2085 21.1687C44.8404 21.1289 45.4355 20.8577 45.8802 20.4069C46.3249 19.9562 46.5879 19.3574 46.6192 18.725Z" fill="black"/>
<path fill-rule="evenodd" clip-rule="evenodd" d="M87.5338 18.9235C87.2522 17.3668 86.6567 15.8837 85.7836 14.5645C84.4651 12.8297 82.5448 11.6516 80.4009 11.2622C76.3424 10.7039 72.2397 10.5381 68.1494 10.7669C63.1299 10.4697 57.9123 10.2385 52.8268 10.0734C47.7413 9.90827 42.6227 10.0734 37.4711 10.0734C33.4156 10.1442 29.3681 10.464 25.3518 11.031C22.6344 11.4323 19.9669 12.1186 17.3932 13.0785C17.1674 13.1864 16.9909 13.3758 16.899 13.6086C16.8071 13.8413 16.8067 14.1003 16.8979 14.3333C16.9382 14.4526 17.0025 14.5624 17.0867 14.6559C17.1709 14.7495 17.2734 14.8249 17.3878 14.8774C17.5022 14.93 17.6261 14.9586 17.752 14.9616C17.8778 14.9646 18.003 14.9418 18.1197 14.8947C20.5598 14.051 23.0844 13.4752 25.649 13.1775C29.5902 12.8256 33.5487 12.7044 37.5042 12.8143C41.599 12.8143 45.6278 12.9794 49.6566 13.1445C55.7328 13.4417 61.809 13.838 67.9182 14.3333C70.3289 14.4984 74.5228 14.0692 78.0563 14.5315C78.9439 14.5448 79.8192 14.7425 80.6264 15.112C81.4336 15.4815 82.1553 16.0148 82.7455 16.678C83.3509 17.5837 83.7562 18.6082 83.9343 19.683C84.2723 21.5005 84.3832 23.353 84.2645 25.1979C84.2075 24.9763 84.08 24.7793 83.9014 24.6364C83.7227 24.4935 83.5025 24.4124 83.2739 24.4053C81.1934 24.4053 79.113 24.4053 76.9995 24.1741C72.0791 23.8769 67.0927 23.3156 62.2713 22.9523C57.45 22.5891 53.5203 22.523 49.0622 22.556C44.6041 22.5891 40.3441 22.7872 35.853 23.0183C31.3619 23.2495 26.8378 23.6788 22.3467 24.4383C20.2332 24.8016 18.1528 25.2969 16.1053 25.8583C16.3695 22.556 16.7328 19.2537 17.2942 15.9515C17.3281 15.8125 17.3334 15.6681 17.3099 15.527C17.2863 15.386 17.2344 15.2511 17.1572 15.1307C17.08 15.0103 16.9792 14.9068 16.8608 14.8265C16.7424 14.7462 16.609 14.6908 16.4686 14.6636C16.3273 14.6299 16.1806 14.6258 16.0376 14.6513C15.8946 14.6769 15.7585 14.7317 15.6376 14.8123C15.5168 14.8929 15.4138 14.9975 15.3352 15.1196C15.2566 15.2418 15.204 15.3788 15.1807 15.5222C13.6764 22.0382 12.6936 28.6637 12.2417 35.3359C12.0105 38.6382 11.8454 41.9405 11.7794 45.2427C11.7133 48.545 11.7794 51.8473 11.7794 55.1496C11.7138 58.3669 12.0241 61.5809 12.704 64.7262C13.1794 67.1934 14.5568 69.395 16.5677 70.9015C17.3702 71.411 18.2698 71.7483 19.2095 71.8922C20.4608 72.0265 21.7228 72.0265 22.9741 71.8922C23.2279 71.8594 23.4602 71.7327 23.6253 71.5371C23.7903 71.3415 23.8761 71.0912 23.8657 70.8355C23.8573 70.7096 23.8242 70.5866 23.7681 70.4736C23.7121 70.3606 23.6343 70.2598 23.5392 70.1769C23.444 70.0941 23.3335 70.0308 23.2138 69.9908C23.0942 69.9508 22.9678 69.9349 22.842 69.9438C21.7333 69.9788 20.6244 69.879 19.5397 69.6466C18.9386 69.5419 18.372 69.2925 17.8886 68.9201C16.5647 67.7118 15.7108 66.0742 15.4779 64.2969C15.0801 61.3411 15.0247 58.3493 15.3128 55.3808C15.3128 50.7576 15.544 46.1013 15.61 41.4451C15.6761 36.7889 15.61 32.3638 16.0393 27.8727C18.2171 27.37 20.4223 26.9951 22.6439 26.7499C27.102 26.2876 31.5931 26.2546 35.853 26.2216H61.842C66.7294 26.2216 71.7489 26.5848 76.6032 26.6509H83.0427C83.2586 26.6424 83.4657 26.5636 83.6327 26.4265C83.7996 26.2894 83.9171 26.1014 83.9673 25.8913L82.9436 68.8211C82.9436 70.2741 82.9436 71.2317 81.8209 71.562C80.4976 71.8866 79.1154 71.8866 77.7921 71.562C77.6511 71.5331 77.5058 71.5325 77.3645 71.5601C77.2233 71.5877 77.089 71.6431 76.9692 71.7229C76.8495 71.8027 76.7467 71.9055 76.6669 72.0252C76.5871 72.145 76.5318 72.2793 76.5042 72.4206C76.4547 72.7044 76.5163 72.9964 76.6761 73.2361C76.8359 73.4758 77.0817 73.6449 77.3628 73.7085C78.389 74.0873 79.483 74.2477 80.5748 74.1795C81.6666 74.1112 82.7321 73.8158 83.7032 73.3122C84.2753 72.7592 84.7218 72.0897 85.0124 71.349C85.303 70.6082 85.4309 69.8137 85.3873 69.0192L87.5668 25.5941C87.8216 23.3772 87.8106 21.1378 87.5338 18.9235Z" fill="black"/>
<path fill-rule="evenodd" clip-rule="evenodd" d="M66.7962 72.1562L52.2991 42.7328V42.5346V42.0063C52.3177 41.8803 52.311 41.752 52.2794 41.6287C52.2478 41.5053 52.192 41.3896 52.1151 41.2881C52.0382 41.1866 51.9419 41.1015 51.8317 41.0377C51.7216 40.9739 51.5998 40.9327 51.4736 40.9165C51.3476 40.8979 51.2193 40.9046 51.0959 40.9362C50.9726 40.9678 50.8569 41.0237 50.7554 41.1006C50.6539 41.1774 50.5688 41.2738 50.505 41.3839C50.4412 41.4941 50.4 41.6158 50.3838 41.7421C49.8624 44.8357 48.7406 47.7974 47.0815 50.4601C45.4136 53.1374 43.1542 55.3968 40.4769 57.0647C36.6357 58.9581 33.0237 61.2848 29.7115 63.9995C28.1395 65.562 27.2189 67.6627 27.1357 69.8776C27.0742 71.1038 27.2784 72.3288 27.7344 73.4688C28.1903 74.6087 28.8873 75.6366 29.7775 76.4822C30.9526 77.6126 32.4142 78.4005 34.0045 78.7607C35.2506 81.3634 36.8754 83.7671 38.8258 85.8937C40.3205 87.4991 42.2109 88.6834 44.3076 89.328C46.3489 89.7084 48.4578 89.4549 50.3508 88.6015C51.2105 88.2647 51.9466 87.6728 52.4602 86.9054C52.9738 86.138 53.2402 85.2318 53.2238 84.3086C53.2088 83.6225 52.924 82.9699 52.4312 82.4923C51.5599 81.7602 50.6324 81.0977 49.6573 80.5109C48.7393 79.8458 47.9074 79.0693 47.1806 78.1993C46.7499 77.6659 46.3738 77.0906 46.0578 76.4822C47.5799 75.9335 49.1351 75.4813 50.714 75.1282L56.1958 74.3357C57.2163 74.22 58.2465 74.22 59.267 74.3357C60.2976 74.446 61.315 74.6561 62.3051 74.9631C62.7344 74.9631 63.9562 75.7226 64.7818 75.9868C65.3038 76.2067 65.8826 76.253 66.4329 76.1189C66.8671 75.9547 67.222 75.6306 67.4246 75.213C67.6273 74.7954 67.6624 74.316 67.5227 73.8733C67.2585 73.411 66.8292 72.2222 66.7962 72.1562ZM45.1662 79.5863C45.8771 80.7266 46.7195 81.7795 47.6759 82.7235C48.6666 83.6811 51.4736 84.3086 48.2043 85.3653C47.1381 85.7065 46.0054 85.7858 44.902 85.5965C43.0165 85.0527 41.3226 83.9882 40.0146 82.5253C38.8095 81.3541 37.7049 80.0838 36.7123 78.7277C38.1308 78.667 39.5378 78.4454 40.9062 78.0672C41.8639 77.8361 42.8546 77.5059 43.8123 77.1756C44.1938 78.0164 44.6468 78.8229 45.1662 79.5863ZM59.6302 70.9013C58.3942 70.7302 57.1449 70.6749 55.8986 70.7362C54.9079 70.7362 53.8842 70.7362 52.8935 71.0334L49.9215 71.4957C46.6192 72.1231 43.3169 73.6422 40.0146 74.5338C38.7807 74.8952 37.5027 75.0841 36.217 75.0952C34.7515 75.1201 33.3285 74.6026 32.2212 73.6422C31.6973 73.1516 31.2803 72.5582 30.9962 71.899C30.7121 71.2399 30.567 70.5293 30.5701 69.8115C30.657 68.8432 30.9566 67.9061 31.4475 67.067C31.9385 66.2278 32.6086 65.5074 33.4101 64.9572C34.2155 64.2747 35.0649 63.6459 35.9528 63.0749C36.3821 64.1316 36.8114 65.2213 37.3068 66.3771C37.8021 67.5329 38.1984 68.0613 38.6937 68.9199C39.4355 70.1812 40.108 71.4821 40.7081 72.8166C40.7925 73.0932 40.9804 73.3266 41.2327 73.4681C41.4849 73.6096 41.782 73.6483 42.062 73.5761C42.3386 73.4917 42.572 73.3038 42.7135 73.0516C42.855 72.7994 42.8937 72.5023 42.8216 72.2222C42.6422 70.6605 42.2991 69.122 41.7979 67.632C41.5932 66.9968 41.3393 66.3784 41.0383 65.7827C40.7398 65.1542 40.3978 64.5473 40.0146 63.9665C39.4071 63.1832 38.745 62.4439 38.0333 61.7539C39.5523 60.8623 41.0053 60.0368 42.1611 59.2442C45.0071 57.2577 47.3758 54.6634 49.0959 51.649C50.0927 49.8866 50.8796 48.0136 51.4405 46.0681L63.1306 71.6608C61.9901 71.2988 60.8182 71.0446 59.6302 70.9013Z" fill="black"/>
<path fill-rule="evenodd" clip-rule="evenodd" d="M67.5211 37.8782C66.5305 38.7368 65.5398 39.4633 64.5821 40.2889L63.3933 41.3126L62.3366 42.4354C61.511 43.393 60.8175 44.3837 59.9259 45.2754C59.7114 45.4112 59.5596 45.6266 59.5038 45.8743C59.4481 46.122 59.493 46.3817 59.6287 46.5963C59.6927 46.706 59.7786 46.8014 59.8811 46.8764C59.9836 46.9515 60.1005 47.0046 60.2244 47.0325C60.3484 47.0604 60.4767 47.0624 60.6015 47.0385C60.7263 47.0146 60.8448 46.9652 60.9496 46.8935C62.2554 46.4495 63.4985 45.839 64.6482 45.0772C65.1321 44.7575 65.5756 44.3805 65.9691 43.9544C66.3888 43.5455 66.7753 43.1038 67.1249 42.6335C67.8844 41.5768 68.5118 40.421 69.2053 39.3312C69.2964 39.2206 69.3648 39.0932 69.4066 38.9562C69.4484 38.8192 69.4628 38.6753 69.449 38.5327C69.4352 38.3901 69.3935 38.2516 69.3262 38.1252C69.2589 37.9987 69.1673 37.8867 69.0567 37.7957C68.9461 37.7046 68.8187 37.6362 68.6817 37.5944C68.5447 37.5526 68.4007 37.5381 68.2582 37.5519C68.1156 37.5657 67.9771 37.6075 67.8506 37.6748C67.7242 37.7421 67.6122 37.8337 67.5211 37.9443V37.8782Z" fill="black"/>
<path fill-rule="evenodd" clip-rule="evenodd" d="M79.6434 66.2121C79.7526 65.9449 79.7513 65.6454 79.6399 65.3792C79.5284 65.113 79.3159 64.9018 79.049 64.7921C77.8575 64.0315 76.5536 63.4632 75.1854 63.1079C74.6103 62.9715 74.0249 62.8832 73.4352 62.8438C72.8528 62.7943 72.2673 62.7943 71.6849 62.8438C70.3553 63.0708 69.0504 63.4247 67.7882 63.9005C67.5309 63.9335 67.2969 64.0662 67.1363 64.27C66.9758 64.4737 66.9016 64.7323 66.9296 64.9902C66.9417 65.1151 66.9791 65.2362 67.0394 65.3462C67.0998 65.4562 67.1819 65.5527 67.2807 65.6299C67.3796 65.7072 67.4931 65.7635 67.6144 65.7954C67.7358 65.8274 67.8623 65.8343 67.9864 65.8158C69.4064 65.8158 70.7603 66.2781 72.2133 66.4102H74.624C75.8295 66.3807 77.0351 66.4692 78.2235 66.6744C78.4745 66.7926 78.7612 66.8106 79.0251 66.7247C79.289 66.6388 79.5101 66.4555 79.6434 66.2121Z" fill="black"/>
<path fill-rule="evenodd" clip-rule="evenodd" d="M65.3413 53.0027C65.1593 53.1473 65.0339 53.3513 64.9871 53.579C64.9403 53.8066 64.975 54.0435 65.0852 54.2482C65.1954 54.4528 65.3741 54.6122 65.5899 54.6985C65.8058 54.7847 66.0451 54.7923 66.266 54.7199C67.4218 54.3897 68.5115 54.2246 69.5682 53.8613C70.0215 53.7196 70.4632 53.543 70.8892 53.333L72.144 52.6395C73.1347 52.0451 73.9933 51.3846 74.984 50.8232C75.1211 50.7785 75.248 50.7069 75.3572 50.6128C75.4665 50.5186 75.556 50.4037 75.6205 50.2746C75.685 50.1456 75.7233 50.0051 75.733 49.8612C75.7428 49.7173 75.7239 49.5728 75.6775 49.4363C75.5735 49.1706 75.3722 48.9544 75.1146 48.8317C74.857 48.709 74.5623 48.6891 74.2905 48.7758C73.0974 48.9209 71.9165 49.1527 70.7571 49.4693C70.265 49.5904 69.7886 49.7677 69.3371 49.9977C68.8626 50.1938 68.409 50.4372 67.9831 50.7242C67.0915 51.3846 66.4311 52.1772 65.3413 53.0027Z" fill="black"/>
</svg>
