<svg width="100" height="100" viewBox="0 0 100 100" fill="none" xmlns="http://www.w3.org/2000/svg">
<path fill-rule="evenodd" clip-rule="evenodd" d="M47.2521 46.8193C47.6005 47.1595 48.0145 47.4252 48.4689 47.6003C48.9232 47.7754 49.4085 47.8561 49.8951 47.8377C50.3817 47.8192 50.8594 47.7019 51.2992 47.4928C51.739 47.2838 52.1316 46.9874 52.4532 46.6218C52.8577 45.927 52.994 45.1083 52.8363 44.3199C52.6787 43.5316 52.2379 42.8282 51.5973 42.3424C48.3384 40.5319 44.3553 43.8238 47.2521 46.8193Z" fill="black"/>
<path fill-rule="evenodd" clip-rule="evenodd" d="M32.3737 52.5468C35.5193 53.9148 38.8451 54.8238 42.2492 55.2461C47.3515 55.8715 60.1896 56.0361 64.8969 53.9622C66.4757 53.42 67.8161 52.3443 68.6873 50.9203C69.5585 49.4964 69.9061 47.8132 69.67 46.1606C68.88 40.8279 58.9716 19.8261 56.1736 18.4764C55.614 18.2131 54.001 18.2131 54.6264 19.9577C57.6839 24.3119 60.2247 29.0069 62.1976 33.948C63.8862 38.0794 65.3154 42.3121 66.477 46.6215C66.5891 47.2422 66.5206 47.882 66.2795 48.4649C65.6807 49.5208 64.7229 50.3267 63.5802 50.7363C59.9263 52.2176 47.5161 52.053 42.7759 51.4605C39.7189 51.1179 36.7263 50.342 33.888 49.1562C30.1353 47.5103 32.9333 44.3172 34.5463 40.5645C36.8177 35.2318 47.7136 15.5138 51.6638 17.0939C51.9035 17.1556 52.1574 17.1281 52.3783 17.0166C52.5992 16.905 52.7721 16.717 52.8647 16.4875C52.9573 16.258 52.9633 16.0027 52.8817 15.769C52.8001 15.5354 52.6363 15.3394 52.4209 15.2175C45.5081 12.1561 28.5223 42.3421 28.3906 47.1153C28.4057 48.3228 28.7976 49.4955 29.5118 50.4693C30.2259 51.4431 31.2265 52.1695 32.3737 52.5468Z" fill="black"/>
<path fill-rule="evenodd" clip-rule="evenodd" d="M49.1592 37.2396C51.0026 38.1943 51.6281 34.4745 51.6939 32.3678C51.6817 29.8603 51.2247 27.3748 50.3442 25.027C50.0809 24.5991 48.9617 24.204 48.4679 25.6854C47.5726 27.7571 47.2981 30.0442 47.6779 32.269C47.8095 35.1987 48.1716 36.8775 49.1592 37.2396Z" fill="black"/>
<path fill-rule="evenodd" clip-rule="evenodd" d="M21.0809 68.1498C17.855 61.204 13.4768 35.3303 14.2669 32.9602C14.7606 31.6435 13.6414 30.5243 23.8131 28.4175C26.4121 27.8438 29.055 27.4914 31.7135 27.3641C31.9816 27.3183 32.2248 27.1792 32.4001 26.9714C32.5754 26.7635 32.6716 26.5004 32.6716 26.2285C32.6716 25.9565 32.5754 25.6934 32.4001 25.4855C32.2248 25.2777 31.9816 25.1386 31.7135 25.0928C28.9177 25.1094 26.1254 25.2963 23.3523 25.6524C11.9955 27.3641 12.0284 29.043 10.8763 31.5777C8.76953 36.4825 14.3327 59.4265 19.2704 69.0386C19.41 69.2382 19.6163 69.3814 19.8522 69.4422C20.0881 69.503 20.3379 69.4774 20.5566 69.3701C20.7752 69.2627 20.9483 69.0807 21.0444 68.8569C21.1406 68.6331 21.1536 68.3823 21.0809 68.1498Z" fill="black"/>
<path fill-rule="evenodd" clip-rule="evenodd" d="M76.0222 28.4504C79.1534 29.0685 82.0101 30.6581 84.1859 32.9932C85.0747 36.285 82.6717 59.8544 80.6966 68.2815C80.6468 68.5625 80.7032 68.852 80.8547 69.0939C81.0063 69.3358 81.2422 69.5128 81.5168 69.5907C81.7913 69.6685 82.0851 69.6417 82.341 69.5154C82.5969 69.3891 82.7969 69.1722 82.9021 68.9069C84.9905 61.7727 86.5203 54.4868 87.4777 47.1151C88.3896 42.0152 88.4674 36.8012 87.7082 31.6764C87.3464 30.9198 86.8037 30.2641 86.1281 29.7672C81.1574 25.6524 74.2775 25.2574 67.7268 25.2574C67.5944 25.253 67.4624 25.2752 67.3388 25.3229C67.2151 25.3705 67.1023 25.4426 67.0071 25.5347C66.9119 25.6269 66.8362 25.7372 66.7845 25.8593C66.7329 25.9813 66.7063 26.1124 66.7063 26.2449C66.6405 28.0554 69.1423 26.7058 76.0222 28.4504Z" fill="black"/>
<path fill-rule="evenodd" clip-rule="evenodd" d="M89.1893 73.1533C88.4651 70.1577 81.5193 70.3223 82.6056 72.7583C82.6569 72.8971 82.7351 73.0244 82.8359 73.1327C82.9366 73.2411 83.0578 73.3284 83.1925 73.3896C83.3272 73.4509 83.4727 73.4848 83.6206 73.4894C83.7684 73.4941 83.9158 73.4693 84.054 73.4166C85.0382 73.1151 86.1012 73.2096 87.0167 73.68C87.0093 75.1747 86.6474 76.6463 85.9607 77.9739C85.274 79.3015 84.2821 80.4473 83.0665 81.317C82.1119 81.8108 30.1999 83.0617 17.2301 81.1195C15.1563 79.0127 13.4774 74.2396 13.9383 74.5359C61.6697 70.9807 79.5443 74.898 79.7747 72.5608C79.7269 72.2293 79.5603 71.9264 79.306 71.7085C79.0518 71.4905 78.727 71.3723 78.3921 71.3757C70.9855 70.8161 24.0442 68.8081 13.8724 70.9478C12.6674 71.096 11.5683 71.7105 10.8111 72.6595C9.03347 75.9514 11.8315 81.3829 14.3004 83.9505C18.4481 88.2298 82.7044 84.543 84.054 83.9505C85.8055 82.7824 87.2078 81.1618 88.1119 79.2607C89.0161 77.3596 89.3884 75.249 89.1893 73.1533Z" fill="black"/>
</svg>
