<svg width="100" height="100" viewBox="0 0 100 100" fill="none" xmlns="http://www.w3.org/2000/svg">
<path d="M63.1383 55.3802C62.8613 54.6837 62.3475 54.1073 61.6874 53.7523C59.8117 52.8322 44.5591 52.1244 31.2528 52.3367C25.8733 52.3696 20.499 52.6767 15.1508 53.2569C13.451 53.3705 11.7964 53.8536 10.3025 54.6724C9.25893 55.86 8.61516 57.3456 8.46226 58.9191C7.83376 63.3723 7.62051 67.8743 7.82526 72.3669C7.91937 76.8479 8.40486 81.3121 9.27621 85.7086C9.50258 87.2589 10.2369 88.6902 11.3642 89.7783C16.3091 90.8774 21.3847 91.2706 26.4399 90.9462C37.8705 90.9462 53.0524 90.1322 59.7056 89.2475C59.8691 89.2713 60.0359 89.2565 60.1927 89.2044C60.3495 89.1524 60.492 89.0644 60.6089 88.9476C60.7257 88.8307 60.8137 88.6882 60.8657 88.5314C60.9178 88.3746 60.9326 88.2078 60.9088 88.0443C60.8914 87.9043 60.8463 87.7693 60.7762 87.647C60.706 87.5247 60.6122 87.4175 60.5002 87.3319C60.3881 87.2462 60.2602 87.1837 60.1238 87.1481C59.9873 87.1124 59.8452 87.1043 59.7056 87.1242C54.0079 87.7258 42.0111 87.9735 31.3944 87.8319C25.3782 87.8319 19.8929 87.5488 16.4248 87.1595C15.5322 87.1107 14.6448 86.9924 13.7706 86.8057C13.9476 86.4872 13.3106 85.744 13.1336 84.8593C12.4217 80.6971 12.0548 76.4833 12.0366 72.2608C11.8627 68.041 12.0521 63.8142 12.6028 59.6269C12.7226 58.9984 12.9003 58.3824 13.1336 57.7867C14.2808 57.4276 15.4712 57.2252 16.6725 57.185C21.3439 56.548 28.811 56.2295 36.1365 56.0526C44.1241 55.6391 52.1312 55.8047 60.0949 56.548C60.2355 56.8294 60.3424 57.1264 60.4134 57.4328C60.9612 60.2061 61.2221 63.0285 61.1919 65.8554C61.1919 71.4468 61.1919 77.9938 60.8026 82.3466C60.8519 82.6348 61.0014 82.8963 61.2249 83.0848C61.4483 83.2733 61.7312 83.3766 62.0236 83.3766C62.3159 83.3766 62.5988 83.2733 62.8222 83.0848C63.0457 82.8963 63.1952 82.6348 63.2445 82.3466C63.9125 74.9467 64.1725 67.5155 64.023 60.0869C63.9557 58.4837 63.6578 56.8985 63.1383 55.3802Z" fill="black"/>
<path d="M83.4516 13.7622C84.2036 13.7929 84.9506 13.8996 85.6811 14.0807C89.0076 15.0362 88.8661 16.3456 88.9723 17.2657C89.0784 18.1859 88.9723 18.9998 89.3969 20.4861C89.3969 20.8053 89.5237 21.1113 89.7493 21.337C89.975 21.5626 90.281 21.6894 90.6002 21.6894C90.9193 21.6894 91.2253 21.5626 91.451 21.337C91.6766 21.1113 91.8034 20.8053 91.8034 20.4861C92.0157 18.7167 92.2988 17.9381 92.4404 16.9472C92.4794 16.3463 92.4794 15.7434 92.4404 15.1424C92.243 14.2794 91.8063 13.4896 91.1803 12.8636C90.5543 12.2376 89.7645 11.8009 88.9015 11.6035C87.0409 11.1665 85.0969 11.2399 83.2746 11.8158C82.9992 11.8428 82.7451 11.9763 82.5667 12.1878C82.3882 12.3993 82.2994 12.6722 82.3191 12.9483C82.3842 13.1942 82.5328 13.4099 82.7394 13.5584C82.9459 13.7068 83.1977 13.7789 83.4516 13.7622Z" fill="black"/>
<path d="M90.7081 29.7588C90.4293 29.7676 90.1644 29.8823 89.9672 30.0796C89.77 30.2768 89.6553 30.5417 89.6464 30.8205C89.3633 32.5899 88.9741 34.3594 88.7617 35.9873V38.1814V40.3755C88.7617 42.1803 89.1864 43.9144 89.3279 45.5069C89.3772 45.7951 89.5267 46.0565 89.7502 46.245C89.9736 46.4335 90.2565 46.5369 90.5489 46.5369C90.8412 46.5369 91.1241 46.4335 91.3475 46.245C91.571 46.0565 91.7205 45.7951 91.7698 45.5069C92.0529 43.8436 92.4068 42.145 92.6191 40.3401V38.1106C92.6721 37.3684 92.6721 36.6233 92.6191 35.8811C92.6191 34.147 92.0529 32.3422 91.7698 30.7143C91.7361 30.4545 91.6105 30.2153 91.4157 30.0401C91.221 29.8648 90.97 29.7651 90.7081 29.7588Z" fill="black"/>
<path d="M92.4412 56.1936C92.4508 56.0541 92.4328 55.9141 92.3881 55.7816C92.3435 55.6491 92.2731 55.5267 92.1811 55.4215C92.089 55.3162 91.977 55.2302 91.8516 55.1684C91.7262 55.1066 91.5899 55.0701 91.4503 55.0611C91.3108 55.0515 91.1708 55.0695 91.0383 55.1142C90.9058 55.1588 90.7835 55.2292 90.6782 55.3213C90.573 55.4133 90.487 55.5253 90.4252 55.6507C90.3633 55.7761 90.3269 55.9125 90.3179 56.052C87.9822 63.1298 89.2208 61.6081 85.8942 62.599L83.7001 63.2714C83.384 63.3155 83.0971 63.48 82.8993 63.7306C82.7015 63.9811 82.608 64.2984 82.6385 64.6161C82.656 64.7746 82.7048 64.928 82.7821 65.0674C82.8595 65.2068 82.9637 65.3294 83.0888 65.4282C83.2139 65.527 83.3574 65.5999 83.511 65.6428C83.6645 65.6856 83.8251 65.6975 83.9832 65.6778H86.4251C87.6183 65.6927 88.8082 65.5499 89.964 65.2531C90.8001 65.0312 91.5362 64.5321 92.0519 63.8376C92.534 63.0317 92.8133 62.121 92.8659 61.1834C92.8776 59.5106 92.7354 57.8403 92.4412 56.1936Z" fill="black"/>
<path d="M77.6468 62.5998C76.6205 62.4229 75.665 62.0336 74.4972 61.8213H73.117H71.7014C70.569 61.8213 69.5073 62.2813 68.4103 62.5291C68.0911 62.5291 67.7851 62.6558 67.5594 62.8815C67.3338 63.1071 67.207 63.4132 67.207 63.7323C67.207 64.0514 67.3338 64.3575 67.5594 64.5831C67.7851 64.8088 68.0911 64.9355 68.4103 64.9355C69.4719 65.1479 70.4982 65.4664 71.6307 65.6787C72.0901 65.7135 72.5514 65.7135 73.0108 65.6787C73.493 65.7327 73.9796 65.7327 74.4618 65.6787C75.6125 65.4605 76.7386 65.1285 77.8237 64.6878C77.9634 64.6745 78.0991 64.6337 78.2229 64.5677C78.3467 64.5017 78.4562 64.4118 78.5451 64.3032C78.6339 64.1946 78.7004 64.0694 78.7406 63.935C78.7808 63.8006 78.7939 63.6595 78.7792 63.52C78.7438 63.2509 78.6067 63.0057 78.3961 62.8345C78.1855 62.6634 77.9174 62.5794 77.6468 62.5998Z" fill="black"/>
<path d="M54.1501 34.7835C53.992 34.7739 53.8336 34.7956 53.6839 34.8474C53.5343 34.8992 53.3963 34.98 53.278 35.0852C53.1596 35.1904 53.0632 35.3179 52.9942 35.4605C52.9252 35.603 52.8851 35.7578 52.8761 35.9159C52.5576 37.2253 52.2037 38.2516 51.956 39.4548C51.956 39.9856 51.779 40.4457 51.7082 40.9765C51.6728 41.4832 51.6728 41.9916 51.7082 42.4983C51.8743 43.6936 52.1226 44.876 52.4514 46.0372C52.4508 46.3163 52.5566 46.5851 52.7473 46.7889C52.938 46.9927 53.1992 47.1162 53.4777 47.1342C53.6201 47.139 53.7619 47.115 53.8948 47.0638C54.0278 47.0126 54.149 46.9351 54.2514 46.8361C54.3537 46.737 54.4351 46.6184 54.4907 46.4872C54.5462 46.356 54.5748 46.215 54.5747 46.0726C54.9286 44.7985 55.3533 43.7723 55.601 42.5336C55.7068 42.0438 55.7777 41.5471 55.8134 41.0473V39.5256C55.8134 38.3931 55.5302 37.2961 55.3533 35.9867C55.3444 35.6704 55.2148 35.3695 54.991 35.1457C54.7673 34.922 54.4664 34.7924 54.1501 34.7835Z" fill="black"/>
<path d="M69.6867 15.9569C70.1342 15.9927 70.5839 15.9927 71.0315 15.9569C72.2347 15.9569 73.261 15.603 74.2519 15.4614C74.4099 15.471 74.5683 15.4493 74.718 15.3975C74.8677 15.3457 75.0056 15.2649 75.124 15.1597C75.2423 15.0545 75.3388 14.927 75.4077 14.7844C75.4767 14.6418 75.5168 14.4871 75.5259 14.329C75.5457 14.1718 75.5324 14.0121 75.4866 13.8604C75.4409 13.7087 75.3639 13.5682 75.2605 13.4482C75.1571 13.3281 75.0296 13.231 74.8864 13.1633C74.7431 13.0956 74.5872 13.0587 74.4288 13.055C73.4379 12.7719 72.4824 12.3826 71.3146 12.1349C70.8724 12.0296 70.4228 11.9587 69.9698 11.9225C69.5113 11.8696 69.0482 11.8696 68.5896 11.9225C67.5037 12.0822 66.4283 12.3067 65.3692 12.5949C65.0841 12.5851 64.8063 12.6868 64.5949 12.8784C64.3835 13.07 64.255 13.3365 64.2368 13.6212C64.2272 13.7635 64.2464 13.9063 64.2932 14.0411C64.3401 14.1758 64.4136 14.2997 64.5094 14.4054C64.6052 14.5111 64.7213 14.5964 64.8508 14.6563C64.9803 14.7161 65.1205 14.7492 65.2631 14.7536C66.3601 15.1075 67.2802 15.5322 68.3419 15.8153C68.7862 15.8948 69.2356 15.9421 69.6867 15.9569Z" fill="black"/>
<path d="M49.9381 10.1175C50.0376 10.3656 50.1815 10.5935 50.3628 10.7899L52.2738 14.8242C55.0342 23.0699 56.3436 20.6634 46.7531 23.4945C45.9779 23.5903 45.2173 23.7805 44.4882 24.0607C44.1924 24.1686 43.9227 24.3379 43.6971 24.5575C43.4714 24.7771 43.2947 25.042 43.1788 25.3348C43.0612 25.6355 43.0657 25.9702 43.1913 26.2677C43.3169 26.5652 43.5537 26.8018 43.8512 26.9273C44.2051 26.9273 42.7188 26.9273 50.3274 25.9364C51.8845 25.724 53.4417 25.4409 54.928 25.1578C55.1519 25.144 55.3765 25.144 55.6004 25.1578C56.1094 25.1598 56.6141 25.0636 57.0867 24.8747C57.6085 24.6369 58.0419 24.2406 58.3253 23.7422C58.6893 23.1236 58.8386 22.402 58.75 21.6897C58.6198 20.9025 58.4063 20.1314 58.113 19.3894C57.8412 18.507 57.5101 17.6439 57.1221 16.806C56.5313 15.5817 55.8574 14.3993 55.1049 13.2671L52.4154 9.72819C52.1399 9.22322 51.781 8.76854 51.3537 8.3834C51.2474 8.2629 51.1167 8.1664 50.9703 8.10029C50.8239 8.03419 50.665 8 50.5044 8C50.3437 8 50.1849 8.03419 50.0384 8.10029C49.892 8.1664 49.7613 8.2629 49.655 8.3834C49.4582 8.58782 49.3483 8.86052 49.3483 9.14427C49.3483 9.42801 49.4582 9.70072 49.655 9.90513L49.9381 10.1175Z" fill="black"/>
<path d="M23.6815 37.0482C23.9945 37.0902 24.3117 37.0109 24.5682 36.8267C24.8248 36.6426 25.0013 36.3673 25.0616 36.0574C25.7428 32.4618 26.9345 28.982 28.6005 25.7238C29.4259 24.1637 30.4102 22.6932 31.5378 21.3355C32.4651 20.1048 33.6803 19.1205 35.0767 18.469C37.1443 17.5576 39.4077 17.1803 41.6591 17.3719C44.0385 17.5465 46.3714 18.1207 48.56 19.0706C48.6889 19.1928 48.8464 19.2807 49.0182 19.3262C49.1899 19.3718 49.3703 19.3735 49.5428 19.3312C49.7154 19.289 49.8746 19.2041 50.0058 19.0844C50.137 18.9647 50.2361 18.8139 50.294 18.6459C50.4228 18.3958 50.4506 18.1057 50.3715 17.8356C50.2925 17.5656 50.1127 17.3362 49.8694 17.195C47.539 15.8006 44.9909 14.8077 42.3315 14.2577C39.5308 13.7184 36.6412 13.8641 33.9089 14.6824C30.6959 16.1849 28.0971 18.7463 26.548 21.9371C24.3625 26.2271 23.0399 30.9042 22.6552 35.7035C22.6303 35.8597 22.6374 36.0193 22.676 36.1727C22.7147 36.3261 22.7841 36.4701 22.8801 36.5958C22.9761 36.7216 23.0966 36.8265 23.2343 36.9043C23.3721 36.9821 23.5242 37.031 23.6815 37.0482Z" fill="black"/>
<path d="M17.4505 41.7907C17.9632 42.8571 18.5302 43.8965 19.1491 44.9049C19.5935 45.5371 20.0782 46.1399 20.6001 46.7098C21.0602 47.1624 21.6354 47.4806 22.2634 47.6299C22.6523 47.7124 23.054 47.7142 23.4436 47.635C23.8332 47.5559 24.2024 47.3976 24.5283 47.1698C25.0999 46.7062 25.6217 46.1843 26.0854 45.6127L30.6506 41.5783C31.3584 41.0121 33.6586 39.6319 34.5788 38.9949C35.4989 38.3579 35.3219 38.3579 35.3573 38.2164C35.4316 38.0724 35.4719 37.9134 35.4752 37.7514C35.4785 37.5895 35.4447 37.4289 35.3764 37.2821C35.308 37.1352 35.207 37.0059 35.081 36.9041C34.9551 36.8023 34.8075 36.7306 34.6495 36.6947C34.6495 36.6947 29.7305 38.5703 29.0581 39.0303C28.3857 39.4904 26.2977 40.4813 25.0237 41.366C22.4403 43.1708 23.6082 44.551 20.0693 39.1011C18.3352 36.4823 16.5303 33.545 16.5303 33.545C16.4583 33.4033 16.3591 33.2771 16.2383 33.1737C16.1175 33.0703 15.9775 32.9918 15.8263 32.9425C15.6752 32.8932 15.5158 32.8741 15.3573 32.8864C15.1987 32.8988 15.0442 32.9422 14.9025 33.0142C14.7607 33.0862 14.6345 33.1855 14.5312 33.3063C14.4278 33.4271 14.3492 33.567 14.2999 33.7182C14.2506 33.8694 14.2316 34.0288 14.2439 34.1873C14.2562 34.3458 14.2996 34.5003 14.3716 34.6421C14.3716 34.6421 15.9287 38.8534 17.4505 41.7907Z" fill="black"/>
</svg>
