<svg width="100" height="100" viewBox="0 0 100 100" fill="none" xmlns="http://www.w3.org/2000/svg">
<path fill-rule="evenodd" clip-rule="evenodd" d="M16.6632 10.1436C16.3596 10.2705 16.1188 10.5127 15.9939 10.8171C15.8689 11.1215 15.87 11.4631 15.9969 11.7667C16.1238 12.0703 16.366 12.311 16.6704 12.436C16.9748 12.5609 17.3164 12.5599 17.62 12.433C25.4791 9.35767 29.2378 17.9002 25.6158 23.8458C23.1897 27.8779 15.3647 27.502 13.0412 24.6318C12.1413 23.3076 11.6101 21.7678 11.502 20.1705C11.3939 18.5731 11.7128 16.9758 12.4261 15.5425C12.5116 15.4089 12.567 15.2584 12.5885 15.1013C12.61 14.9443 12.597 14.7844 12.5506 14.6328C12.5042 14.4812 12.4253 14.3415 12.3195 14.2234C12.2137 14.1053 12.0835 14.0117 11.9379 13.9489C11.7923 13.8862 11.6348 13.8558 11.4763 13.86C11.3179 13.8642 11.1622 13.9027 11.0201 13.9731C10.878 14.0434 10.7529 14.1438 10.6534 14.2673C10.554 14.3908 10.4826 14.5344 10.4442 14.6882C2.68758 30.8166 23.7706 35.6004 29.2378 25.9986C33.7825 17.9686 28.1786 5.0864 16.6632 10.1436Z" fill="black"/>
<path fill-rule="evenodd" clip-rule="evenodd" d="M41.3327 46.2952C38.2574 48.0721 37.4373 54.4278 40.8543 56.3413C41.9091 56.8922 43.0814 57.1799 44.2713 57.1799C45.4613 57.1799 46.6336 56.8922 47.6883 56.3413C53.9757 52.7192 47.6542 42.4682 41.3327 46.2952Z" fill="black"/>
<path fill-rule="evenodd" clip-rule="evenodd" d="M40.7527 69.7366C37.6774 71.5135 36.8232 77.8691 40.2402 79.7485C41.2923 80.3079 42.4656 80.6005 43.6572 80.6005C44.8488 80.6005 46.0221 80.3079 47.0742 79.7485C53.3615 76.2631 47.0401 66.0804 40.7527 69.7366Z" fill="black"/>
<path fill-rule="evenodd" clip-rule="evenodd" d="M84.4236 13.4919C70.1959 12.4755 55.9079 12.6584 41.7109 14.0386C41.13 14.0386 38.0205 14.3119 37.6104 14.4486C37.4013 14.513 37.2154 14.6368 37.0754 14.8049C36.9354 14.9731 36.8474 15.1784 36.8221 15.3957C36.7967 15.613 36.8351 15.833 36.9326 16.0289C37.0302 16.2248 37.1826 16.3881 37.3713 16.4988C37.7813 16.7039 37.1662 16.4988 41.8134 16.4988C56.0088 17.3075 70.2414 17.2048 84.4236 16.1913C87.3281 16.1913 91.4968 16.1913 90.6084 14.7903C91.4627 13.4919 87.9773 13.6627 84.4236 13.4919Z" fill="black"/>
<path fill-rule="evenodd" clip-rule="evenodd" d="M48.6112 29.2108C56.6075 29.5624 64.6191 29.1275 72.5304 27.9123C72.8257 27.8633 73.0941 27.711 73.2877 27.4826C73.4813 27.2542 73.5875 26.9645 73.5875 26.6651C73.5875 26.3657 73.4813 26.076 73.2877 25.8476C73.0941 25.6192 72.8257 25.4669 72.5304 25.4179C67.8832 25.4179 62.2793 25.1445 57.1196 25.1445C50.0122 25.1445 45.2625 25.7254 41.743 25.9304C39.6586 25.9304 38.0185 25.9304 37.8134 26.1696C37.6084 26.4088 36.4466 27.9123 38.2577 28.2882C38.9069 28.2882 44.75 28.8349 48.6112 29.2108Z" fill="black"/>
<path fill-rule="evenodd" clip-rule="evenodd" d="M87.5652 49.439C81.4829 49.439 75.9815 48.8239 68.9766 49.1998C65.7646 49.3706 62.9626 49.7465 61.0149 49.8832C59.8723 49.8978 58.7314 49.9776 57.5979 50.1224C57.3508 50.2125 57.1444 50.3886 57.0166 50.6185C56.8888 50.8484 56.8482 51.1167 56.9022 51.3741C56.9562 51.6315 57.1011 51.8609 57.3105 52.0201C57.5199 52.1793 57.7796 52.2577 58.0421 52.2409C58.5888 52.2409 66.5847 53.2319 70.3092 53.3344C76.1568 53.3143 81.9942 52.846 87.7702 51.9334C88.0667 51.8656 88.3288 51.6932 88.5084 51.4478C88.6881 51.2024 88.7732 50.9005 88.7483 50.5974C88.7234 50.2943 88.5901 50.0103 88.3728 49.7975C88.1555 49.5848 87.8687 49.4575 87.5652 49.439Z" fill="black"/>
<path fill-rule="evenodd" clip-rule="evenodd" d="M87.8036 74.8621C81.8238 74.8621 76.049 74.2129 69.215 74.5888C66.003 74.7938 63.201 75.1355 61.2533 75.2722C59.3056 75.4089 57.8363 75.443 57.8363 75.5114C57.8363 75.5797 56.4695 77.2541 58.2805 77.6299C58.8956 77.6299 66.9598 78.655 70.5476 78.7234C76.3938 78.7007 82.2302 78.2439 88.0086 77.3566C88.3051 77.2887 88.5672 77.1163 88.7468 76.871C88.9265 76.6256 89.0117 76.3236 88.9867 76.0205C88.9618 75.7174 88.8285 75.4335 88.6112 75.2207C88.3939 75.0079 88.1071 74.8806 87.8036 74.8621Z" fill="black"/>
<path fill-rule="evenodd" clip-rule="evenodd" d="M26.9818 48.4831C27.3112 48.4741 27.624 48.337 27.8538 48.1009C28.0835 47.8647 28.212 47.5482 28.2119 47.2188C28.8612 44.7243 29.1004 38.4712 27.016 38.3345C26.8634 38.3299 26.7114 38.3555 26.5687 38.4097C26.426 38.4639 26.2954 38.5457 26.1843 38.6505C26.0732 38.7552 25.9839 38.8808 25.9214 39.02C25.8589 39.1593 25.8244 39.3095 25.82 39.4621C24.1457 43.46 25.2391 48.4831 26.9818 48.4831Z" fill="black"/>
<path fill-rule="evenodd" clip-rule="evenodd" d="M26.9818 62.5946C27.3112 62.5857 27.624 62.4486 27.8538 62.2125C28.0835 61.9763 28.212 61.6598 28.2119 61.3303C28.8612 58.8359 29.1004 52.5828 27.016 52.4461C26.7243 52.4355 26.4393 52.5351 26.2177 52.725C25.9961 52.9149 25.8542 53.1813 25.82 53.4712C24.1457 57.6058 25.2391 62.5946 26.9818 62.5946Z" fill="black"/>
<path fill-rule="evenodd" clip-rule="evenodd" d="M26.9818 77.2534C27.3112 77.2445 27.624 77.1074 27.8538 76.8713C28.0835 76.6351 28.212 76.3186 28.2119 75.9891C28.8612 73.4947 29.1004 67.2416 27.016 67.1049C26.7223 67.0859 26.4328 67.1825 26.2093 67.374C25.9859 67.5655 25.8462 67.8368 25.82 68.13C24.1457 72.2304 25.2391 77.2534 26.9818 77.2534Z" fill="black"/>
<path fill-rule="evenodd" clip-rule="evenodd" d="M27.8041 82.1061C27.7814 81.8161 27.6445 81.547 27.4234 81.3579C27.2023 81.1689 26.9152 81.0754 26.6252 81.0981C26.3352 81.1207 26.0661 81.2577 25.877 81.4787C25.688 81.6998 25.5945 81.9869 25.6172 82.2769C25.002 83.3037 24.6601 84.4709 24.6242 85.6672C24.5884 86.8636 24.8596 88.0492 25.4121 89.111C25.3821 89.2921 25.3918 89.4775 25.4406 89.6544C25.4894 89.8314 25.5762 89.9956 25.6949 90.1356C25.8136 90.2756 25.9613 90.3881 26.1279 90.4653C26.2944 90.5424 26.4758 90.5824 26.6594 90.5824C26.8429 90.5824 27.0243 90.5424 27.1908 90.4653C27.3574 90.3881 27.5051 90.2756 27.6238 90.1356C27.7425 89.9956 27.8293 89.8314 27.8781 89.6544C27.9269 89.4775 27.9366 89.2921 27.9066 89.111C28.7267 86.104 29.5809 85.9331 27.8041 82.1061Z" fill="black"/>
</svg>
