<svg width="100" height="100" viewBox="0 0 100 100" fill="none" xmlns="http://www.w3.org/2000/svg">
<path fill-rule="evenodd" clip-rule="evenodd" d="M89.919 89.0016C87.3699 84.4167 83.827 80.4603 79.5499 77.4228C81.5924 75.6436 83.095 73.3273 83.887 70.7369C84.679 68.1465 84.7286 65.3859 84.0302 62.7687C83.3318 60.1515 81.9134 57.7826 79.9361 55.9312C77.9588 54.0798 75.5019 52.82 72.8445 52.295C70.4468 51.8203 67.9726 51.8974 65.6091 52.5207C63.2457 53.1439 61.0551 54.2969 59.2033 55.8922C57.3515 57.4876 55.887 59.4835 54.9209 61.7287C53.9548 63.9739 53.5124 66.4095 53.6271 68.851C53.9728 76.7315 61.5076 82.6765 66.6922 82.158C66.9764 82.158 67.2489 82.0452 67.4498 81.8442C67.6508 81.6433 67.7637 81.3707 67.7637 81.0866C67.7637 80.8024 67.6508 80.5299 67.4498 80.3289C67.2489 80.128 66.9764 80.0151 66.6922 80.0151C64.6606 79.9806 62.7241 79.1489 61.3003 77.6993C51.4151 69.4732 60.4362 53.7121 72.1187 56.3044C81.2435 58.1363 84.7344 68.7473 76.8539 76.3513C75.4303 77.8417 73.7116 79.0188 71.8076 79.8077C71.5461 79.9492 71.344 80.1797 71.2377 80.4574C71.1315 80.7351 71.1282 81.0417 71.2285 81.3216C71.3287 81.6015 71.5259 81.8363 71.7843 81.9834C72.0427 82.1305 72.3453 82.1802 72.6371 82.1235C74.4788 81.4727 76.1967 80.5143 77.718 79.2893C80.5171 83.6207 84.0219 87.4527 88.0871 90.6261C88.1938 90.7464 88.3231 90.8445 88.4677 90.9148C88.6122 90.9851 88.7692 91.0263 88.9297 91.0359C89.0902 91.0455 89.251 91.0235 89.403 90.9709C89.5549 90.9184 89.695 90.8365 89.8153 90.7298C89.9356 90.6232 90.0337 90.4938 90.104 90.3493C90.1743 90.2047 90.2154 90.0477 90.2251 89.8872C90.2347 89.7267 90.2126 89.5659 90.1601 89.414C90.1076 89.262 90.0256 89.1219 89.919 89.0016Z" fill="black"/>
<path d="M34.7557 15.2773C27.8429 16.6252 25.9419 20.4273 26.806 25.0588C28.7761 35.4279 46.7492 31.2457 42.7053 20.1853C42.2345 18.521 41.1568 17.0937 39.6851 16.185C38.2134 15.2764 36.4545 14.9525 34.7557 15.2773ZM30.055 24.2638C28.1886 17.8004 37.7281 14.9316 39.3526 21.2222C40.9771 27.5128 31.4375 29.1027 30.055 24.2638Z" fill="black"/>
<path d="M74.2256 10.2655C74.1285 10.1608 74.0109 10.0773 73.88 10.0202C73.7492 9.96308 73.6079 9.93359 73.4652 9.93359C73.3224 9.93359 73.1812 9.96308 73.0503 10.0202C72.9195 10.0773 72.8018 10.1608 72.7048 10.2655C72.1863 10.784 72.7048 10.8186 72.7048 12.8578C72.7048 15.4501 70.8383 47.9399 74.1564 48.0782C74.3153 48.0828 74.4735 48.056 74.6221 47.9995C74.7706 47.9429 74.9066 47.8576 75.0221 47.7485C75.1377 47.6393 75.2306 47.5085 75.2955 47.3634C75.3605 47.2184 75.3963 47.0619 75.4007 46.903C75.7809 42.8936 76.1957 38.4004 76.3339 33.9417C76.5759 23.7108 75.2279 11.0951 74.2256 10.2655Z" fill="black"/>
<path d="M15.5373 58.7581C13.4289 58.2051 14.0856 58.2397 13.9819 56.6843C13.8783 55.1289 12.8068 16.9707 13.9819 12.6502C17.4383 11.6824 41.4255 11.2331 45.9188 11.2677C69.2838 11.5442 70.1133 12.4083 70.1133 10.5073C70.118 10.3484 70.0912 10.1901 70.0346 10.0416C69.978 9.89307 69.8927 9.75714 69.7836 9.64158C69.6745 9.52603 69.5436 9.43311 69.3986 9.36815C69.2535 9.30318 69.0971 9.26744 68.9382 9.26296C11.1823 6.80894 10.6984 8.01867 9.938 12.1317C8.59001 19.4247 9.35042 57.6521 11.1132 60.2098C14.1548 64.4266 42.9463 63.286 48.1654 63.0786C48.4209 63.0329 48.6522 62.8988 48.8188 62.6997C48.9854 62.5007 49.0767 62.2494 49.0767 61.9898C49.0767 61.7303 48.9854 61.479 48.8188 61.2799C48.6522 61.0809 48.4209 60.9468 48.1654 60.9011C45.8842 60.9356 23.6598 60.9702 15.5373 58.7581Z" fill="black"/>
<path d="M71.1516 37.225C66.5547 30.1049 59.8493 25.7845 51.8997 30.3123C44.9869 34.4945 41.3577 43.5156 38.0742 51.0505C38.0742 51.4307 38.0742 51.5344 37.3829 50.2555C35.6404 47.5217 33.0921 45.3961 30.09 44.1723C22.1403 41.1653 18.3383 42.928 14.5018 47.2831C13.534 48.5274 13.9833 51.4998 15.0548 50.3592C19.0642 45.9697 20.7924 45.3129 28.8803 47.9743C32.2591 49.0568 35.1476 51.2966 37.0373 54.2995C37.0373 54.7488 36.2423 57.1683 35.7584 58.8619C35.4819 59.8297 37.8668 60.8666 38.2124 58.8619C41.9799 48.4928 50.6899 29.7247 60.6097 32.5935C63.4305 33.6707 65.971 35.3723 68.0409 37.5707C68.7611 38.3409 69.5476 39.0464 70.3912 39.6791C71.4973 40.3358 71.8083 38.0891 71.1516 37.225Z" fill="black"/>
</svg>
